<svg xmlns="http://www.w3.org/2000/svg" xmlns:xlink="http://www.w3.org/1999/xlink" version="1.1" x="0px" y="0px" viewBox="0 0 100 94.428" enable-background="new 0 0 100 94.428" xml:space="preserve"><path d="M85.053,50.919c-1.787,0-3.242,1.452-3.242,3.226V66.68c1.71,0.781,2.748,2.367,2.748,4.088  c0,1.147-0.458,2.238-1.293,3.083l-6.651,7.296c-0.306,0.386-0.718,0.979-0.925,1.645c-0.114,0.353-0.148,0.733-0.159,1.212h-2.104  c0.009-0.667,0.062-1.25,0.256-1.847c0.356-1.15,1.074-2.087,1.5-2.584l6.55-7.02c0.396-0.467,0.613-1.063,0.613-1.676  c0-1.418-1.155-2.569-2.574-2.569c-0.675,0-1.31,0.252-1.792,0.719L64.4,82.663c-2.352,2.46-2.196,4.964-2.196,6.842l0.013,4.923  h11.649v-2.072c0-1.34,0.261-2.228,1.321-3.224L85.89,77.764c1.536-1.79,2.389-4.081,2.389-6.454V54.145  C88.278,52.371,86.834,50.919,85.053,50.919z"></path><path d="M21.737,69.026c-0.487-0.464-1.121-0.718-1.792-0.718c-1.42,0-2.578,1.152-2.578,2.57c0,0.613,0.218,1.207,0.616,1.677  l6.551,7.018c0.423,0.496,1.141,1.433,1.499,2.583c0.192,0.598,0.247,1.18,0.256,1.847h-2.106c-0.009-0.479-0.043-0.859-0.157-1.212  c-0.208-0.665-0.62-1.259-0.926-1.643l-6.652-7.298c-0.835-0.845-1.292-1.936-1.292-3.083c0-1.721,1.038-3.307,2.75-4.088V54.145  c0-1.773-1.458-3.226-3.248-3.226c-1.778,0-3.222,1.452-3.222,3.226V71.31c0,2.373,0.854,4.664,2.389,6.454l10.702,11.365  c1.062,0.999,1.32,1.887,1.32,3.227v2.072h11.652l0.011-4.923c0-1.878,0.153-4.382-2.192-6.842L21.737,69.026z"></path><path d="M39.731,31.133c0,1.732,1.403,3.137,3.133,3.137c1.735,0,3.137-1.405,3.137-3.137c0-1.731-1.402-3.139-3.137-3.139  C41.134,27.995,39.731,29.402,39.731,31.133z"></path><path d="M26.366,44.368c0,1.146,0.932,2.074,2.075,2.074c1.146,0,2.075-0.928,2.075-2.074c0-1.147-0.929-2.072-2.075-2.072  C27.298,42.296,26.366,43.221,26.366,44.368z"></path><path d="M52.995,29.177c0,1.834,1.48,3.318,3.314,3.318c1.827,0,3.313-1.484,3.313-3.318c0-1.827-1.486-3.312-3.313-3.312  C54.476,25.865,52.995,27.35,52.995,29.177z"></path><path d="M69.356,43.164c0,1.209,0.98,2.191,2.194,2.191c1.209,0,2.189-0.982,2.189-2.191c0-1.21-0.98-2.191-2.189-2.191  C70.337,40.973,69.356,41.954,69.356,43.164z"></path><path d="M65.049,47.877l-0.01,0.008l3.536,1.016v15.381c0,0.711,0.579,1.285,1.29,1.285c0.709,0,1.285-0.574,1.285-1.285V56.6h1.011  v7.683c0,0.711,0.576,1.285,1.284,1.285c0.713,0,1.294-0.574,1.294-1.285V49.914h0.992v4.865c0,0.534,0.431,0.968,0.959,0.968  s0.946-0.434,0.946-0.968v-5.536c0-1.552-1.366-2.807-2.916-2.807H68.81c-0.025,0-1.646-0.147-1.919-0.173  c-0.365-1.127-2.689-8.359-3.502-10.89c-0.048-0.152-0.131-0.258-0.208-0.372c-0.057-0.073-0.111-0.149-0.174-0.22  c-0.623-0.685-1.535-1.184-2.832-1.184h-8.284c-1.767,0-2.85,0.904-3.406,1.989c-0.417-0.162-0.884-0.271-1.436-0.271h-7.841  c-1.228,0-2.093,0.467-2.684,1.121c-0.057,0.065-0.108,0.136-0.163,0.206c-0.072,0.106-0.152,0.21-0.195,0.35  c-0.771,2.398-2.969,9.239-3.312,10.31c-0.263,0.023-1.794,0.164-1.819,0.164h-5.595c-1.469,0-2.76,1.185-2.76,2.656v5.24  c0,0.508,0.395,0.913,0.896,0.913c0.5,0,0.909-0.405,0.909-0.913v-4.605h0.938v13.599c0,0.671,0.551,1.215,1.222,1.215  c0.672,0,1.221-0.544,1.221-1.215v-7.271h0.953v7.271c0,0.671,0.545,1.215,1.217,1.215s1.219-0.544,1.219-1.215V49.799l3.35-0.963  l-0.009-0.008c0.343-0.124,0.642-0.377,0.78-0.817c0.914-2.837,1.826-5.675,2.737-8.512h0.572v24.306  c0,1.012,0.819,1.831,1.828,1.831c1.012,0,1.831-0.819,1.831-1.831V49.954h1.044v13.851c0,1.012,0.819,1.831,1.831,1.831  c1.011,0,1.83-0.819,1.83-1.831V39.499h0.972v8.184c0,0.762,0.619,1.383,1.381,1.383c0.765,0,1.382-0.621,1.382-1.383v-9.665h1.106  v25.686c0,1.064,0.864,1.932,1.933,1.932c1.067,0,1.933-0.867,1.933-1.932V49.066h1.104v14.638c0,1.064,0.867,1.932,1.933,1.932  c1.071,0,1.937-0.867,1.937-1.932V38.018h0.604c0.963,3,1.926,5.994,2.888,8.994C64.373,47.479,64.687,47.746,65.049,47.877z"></path><polygon points="50,12.5 86.111,44.444 100,44.441 83.333,29.629 83.333,4.169 65.277,4.169 65.277,13.581 50,0 0,44.441   13.889,44.444 "></polygon></svg>