<?xml version="1.0" encoding="UTF-8" standalone="no"?>
<svg
   xmlns:dc="http://purl.org/dc/elements/1.1/"
   xmlns:cc="http://creativecommons.org/ns#"
   xmlns:rdf="http://www.w3.org/1999/02/22-rdf-syntax-ns#"
   xmlns:svg="http://www.w3.org/2000/svg"
   xmlns="http://www.w3.org/2000/svg"
   xmlns:sodipodi="http://sodipodi.sourceforge.net/DTD/sodipodi-0.dtd"
   xmlns:inkscape="http://www.inkscape.org/namespaces/inkscape"
   version="1.1"
   x="0px"
   y="0px"
   viewBox="0 0 160.002 129.298"
   xml:space="preserve"
   id="svg14"
   sodipodi:docname="noun_House Water Supply_1309457.svg"
   width="160.002"
   height="129.298"
   inkscape:version="0.92.2 5c3e80d, 2017-08-06"><metadata
     id="metadata20"><rdf:RDF><cc:Work
         rdf:about=""><dc:format>image/svg+xml</dc:format><dc:type
           rdf:resource="http://purl.org/dc/dcmitype/StillImage" /><dc:title></dc:title></cc:Work></rdf:RDF></metadata><defs
     id="defs18" /><sodipodi:namedview
     pagecolor="#ffffff"
     bordercolor="#666666"
     borderopacity="1"
     objecttolerance="10"
     gridtolerance="10"
     guidetolerance="10"
     inkscape:pageopacity="0"
     inkscape:pageshadow="2"
     inkscape:window-width="1058"
     inkscape:window-height="729"
     id="namedview16"
     showgrid="false"
     fit-margin-top="0"
     fit-margin-left="0"
     fit-margin-right="0"
     fit-margin-bottom="0"
     inkscape:zoom="2.2211765"
     inkscape:cx="80.001"
     inkscape:cy="43.399"
     inkscape:window-x="0"
     inkscape:window-y="0"
     inkscape:window-maximized="0"
     inkscape:current-layer="svg14" /><path
     d="M 134.526,122.297 H 26.776 V 52.231 h -7 v 73.567 c 0,1.933 1.567,3.5 3.5,3.5 h 114.75 c 1.933,0 3.5,-1.567 3.5,-3.5 V 52.231 h -7 z"
     id="path2"
     inkscape:connector-curvature="0" /><path
     d="m 81.702,0.441 c -1.058,-0.588 -2.344,-0.588 -3.401,0 L 0,43.973 l 3.401,6.118 76.6,-42.586 76.6,42.586 3.401,-6.118 z"
     id="path4"
     inkscape:connector-curvature="0" /><path
     d="m 107.118,43.782 v -7 h -9.855 -7 -9.854 v 7 h 9.854 v 5 H 57.63 c -1.933,0 -3.5,1.567 -3.5,3.5 v 23.075 c 0,1.933 1.567,3.5 3.5,3.5 h 17.041 c 1.933,0 3.5,-1.567 3.5,-3.5 v -3.421 h 28.948 v -7 H 74.67 c -1.933,0 -3.5,1.567 -3.5,3.5 v 3.421 H 61.13 V 55.782 h 45.989 v -7 h -9.855 v -5 z"
     id="path6"
     inkscape:connector-curvature="0" /><path
     d="m 66.698,88.303 c -0.643,-1.009 -1.756,-1.619 -2.952,-1.619 -1.196,0 -2.309,0.61 -2.952,1.619 l -6.116,9.596 C 54.32,98.461 54.13,99.114 54.13,99.78 v 6.034 c 0,1.25 0.667,2.406 1.75,3.031 l 6.116,3.531 c 0.542,0.313 1.146,0.469 1.75,0.469 0.604,0 1.208,-0.156 1.75,-0.469 l 6.116,-3.531 c 1.083,-0.625 1.75,-1.781 1.75,-3.031 V 99.78 c 0,-0.667 -0.19,-1.319 -0.548,-1.881 z m -0.336,15.49 -2.616,1.51 -2.616,-1.51 v -2.992 l 2.616,-4.104 2.616,4.104 z"
     id="path8"
     inkscape:connector-curvature="0" /></svg>