<?xml version="1.0" encoding="UTF-8" standalone="no"?>
<svg
   xmlns:dc="http://purl.org/dc/elements/1.1/"
   xmlns:cc="http://creativecommons.org/ns#"
   xmlns:rdf="http://www.w3.org/1999/02/22-rdf-syntax-ns#"
   xmlns:svg="http://www.w3.org/2000/svg"
   xmlns="http://www.w3.org/2000/svg"
   xmlns:sodipodi="http://sodipodi.sourceforge.net/DTD/sodipodi-0.dtd"
   xmlns:inkscape="http://www.inkscape.org/namespaces/inkscape"
   viewBox="0 0 89 74.000023"
   x="0px"
   y="0px"
   version="1.1"
   id="svg64"
   sodipodi:docname="noun_Water Tank Truck_1100611.svg"
   width="89"
   height="74.000023"
   inkscape:version="0.92.2 5c3e80d, 2017-08-06">
  <metadata
     id="metadata68">
    <rdf:RDF>
      <cc:Work
         rdf:about="">
        <dc:format>image/svg+xml</dc:format>
        <dc:type
           rdf:resource="http://purl.org/dc/dcmitype/StillImage" />
        <dc:title>Artboard 25</dc:title>
      </cc:Work>
    </rdf:RDF>
  </metadata>
  <sodipodi:namedview
     pagecolor="#ffffff"
     bordercolor="#666666"
     borderopacity="1"
     objecttolerance="10"
     gridtolerance="10"
     guidetolerance="10"
     inkscape:pageopacity="0"
     inkscape:pageshadow="2"
     inkscape:window-width="941"
     inkscape:window-height="582"
     id="namedview66"
     showgrid="false"
     fit-margin-top="0"
     fit-margin-left="0"
     fit-margin-right="0"
     fit-margin-bottom="0"
     inkscape:zoom="1.888"
     inkscape:cx="44.500001"
     inkscape:cy="24.5"
     inkscape:window-x="0"
     inkscape:window-y="0"
     inkscape:window-maximized="0"
     inkscape:current-layer="svg64" />
  <defs
     id="defs4">
    <style
       id="style2">.cls-1{fill:none;}</style>
  </defs>
  <title
     id="title6">Artboard 25</title>
  <g
     data-name="Layer 2"
     id="g58"
     transform="translate(-5.4999987,-12.999976)">
    <path
       class="cls-1"
       d="m 30.15,60.95 a 15.99893,15.99893 0 0 0 -13.3,0 A 0.53752,0.53752 0 0 1 16.64,61 H 7 a 0.49511,0.49511 0 0 0 -0.5,0.5 v 13 A 0.49514,0.49514 0 0 0 7,75 h 3.01 a 13.49945,13.49945 0 0 1 26.98,0 h 5.02 A 13.5048,13.5048 0 0 1 67.5,69.31 13.50283,13.50283 0 0 1 92.99,75 H 93 a 0.49514,0.49514 0 0 0 0.5,-0.5 v -13 A 0.49511,0.49511 0 0 0 93,61 H 30.36 a 0.53752,0.53752 0 0 1 -0.21,-0.05 z"
       id="path8"
       inkscape:connector-curvature="0"
       style="fill:none" />
    <polygon
       class="cls-1"
       points="13.12,21.03 10.03,38.57 16.35,38.57 23,35.22 23,21.03 "
       id="polygon10"
       style="fill:none" />
    <path
       class="cls-1"
       d="m 16.53,60 a 16.9435,16.9435 0 0 1 13.94,0 H 38.5 V 19.03 H 11.12 L 7.49,39.6 7.5,60 Z M 25,20.53 a 0.49514,0.49514 0 0 1 0.5,-0.5 h 10 a 0.49514,0.49514 0 0 1 0.5,0.5 v 15 a 0.49511,0.49511 0 0 1 -0.5,0.5 h -10 A 0.49511,0.49511 0 0 1 25,35.53 Z M 12.21,20.44 a 0.49414,0.49414 0 0 1 0.49,-0.41 h 10.8 a 0.49514,0.49514 0 0 1 0.5,0.5 v 15 a 0.51176,0.51176 0 0 1 -0.28,0.45 l -7.03,3.54 a 0.59282,0.59282 0 0 1 -0.23,0.05 H 9.43 A 0.49464,0.49464 0 0 1 9.05,39.39 0.46743,0.46743 0 0 1 8.94,38.98 Z M 8.5,52.5 A 0.49511,0.49511 0 0 1 9,52 h 2 a 1.498,1.498 0 0 1 1.5,1.5 v 4 A 1.498,1.498 0 0 1 11,59 H 9 A 0.49514,0.49514 0 0 1 8.5,58.5 Z"
       id="path12"
       inkscape:connector-curvature="0"
       style="fill:none" />
    <path
       class="cls-1"
       d="M 83,17 H 54 A 10.51152,10.51152 0 0 0 43.5,27.5 v 22 A 10.51156,10.51156 0 0 0 54,60 H 83 A 10.51156,10.51156 0 0 0 93.5,49.5 v -22 A 10.51152,10.51152 0 0 0 83,17 Z M 68.5,50 a 8.99222,8.99222 0 0 1 -8.98,-8.98 0.53217,0.53217 0 0 1 0.06,-0.24 c 0,-5.7 7.68,-12.83 8.56,-13.63 a 0.52333,0.52333 0 0 1 0.71,0 c 0.89,0.8 8.62,7.97 8.57,13.63 A 0.50216,0.50216 0 0 1 77.48,41.02 8.99222,8.99222 0 0 1 68.5,50 Z"
       id="path14"
       inkscape:connector-curvature="0"
       style="fill:none" />
    <path
       class="cls-1"
       d="m 68.5,28.18 c -1.61,1.53 -7.97,7.85 -7.92,12.6 a 1.00146,1.00146 0 0 1 -0.06,0.39 7.98152,7.98152 0 0 0 15.96,0.01 1.05265,1.05265 0 0 1 -0.06,-0.39 C 76.47,36 70.03,29.63 68.5,28.18 Z"
       id="path16"
       inkscape:connector-curvature="0"
       style="fill:none" />
    <path
       class="cls-1"
       d="M 55.5,65 A 10.5,10.5 0 1 0 66,75.5 10.51152,10.51152 0 0 0 55.5,65 Z m 0,16.5 a 6,6 0 1 1 6,-6 6.00476,6.00476 0 0 1 -6,6 z"
       id="path18"
       inkscape:connector-curvature="0"
       style="fill:none" />
    <rect
       class="cls-1"
       x="26"
       y="21.02997"
       width="9"
       height="14"
       id="rect20"
       style="fill:none" />
    <circle
       class="cls-1"
       cx="55.5"
       cy="75.5"
       r="5"
       id="circle22"
       style="fill:none" />
    <path
       class="cls-1"
       d="M 23.5,65 A 10.5,10.5 0 1 0 34,75.5 10.51152,10.51152 0 0 0 23.5,65 Z m 0,16.5 a 6,6 0 1 1 6,-6 6.00476,6.00476 0 0 1 -6,6 z"
       id="path24"
       inkscape:connector-curvature="0"
       style="fill:none" />
    <circle
       class="cls-1"
       cx="23.5"
       cy="75.5"
       r="5"
       id="circle26"
       style="fill:none" />
    <path
       class="cls-1"
       d="M 79.5,65 A 10.5,10.5 0 1 0 90,75.5 10.51152,10.51152 0 0 0 79.5,65 Z m 0,16.5 a 6,6 0 1 1 6,-6 6.00476,6.00476 0 0 1 -6,6 z"
       id="path28"
       inkscape:connector-curvature="0"
       style="fill:none" />
    <rect
       class="cls-1"
       x="63.5"
       y="14"
       width="10"
       height="2"
       id="rect30"
       style="fill:none" />
    <circle
       class="cls-1"
       cx="79.5"
       cy="75.5"
       r="5"
       id="circle32"
       style="fill:none" />
    <path
       class="cls-1"
       d="m 11.5,57.5 v -4 A 0.49511,0.49511 0 0 0 11,53 H 9.5 v 5 H 11 a 0.49514,0.49514 0 0 0 0.5,-0.5 z"
       id="path34"
       inkscape:connector-curvature="0"
       style="fill:none" />
    <path
       d="M 23.5,64 A 11.5,11.5 0 1 0 35,75.5 11.51443,11.51443 0 0 0 23.5,64 Z m 0,22 A 10.5,10.5 0 1 1 34,75.5 10.51156,10.51156 0 0 1 23.5,86 Z"
       id="path36"
       inkscape:connector-curvature="0" />
    <path
       d="M 79.5,64 A 11.5,11.5 0 1 0 91,75.5 11.51443,11.51443 0 0 0 79.5,64 Z m 0,22 A 10.5,10.5 0 1 1 90,75.5 10.51156,10.51156 0 0 1 79.5,86 Z"
       id="path38"
       inkscape:connector-curvature="0" />
    <path
       d="m 79.5,69.5 a 6,6 0 1 0 6,6 6.00476,6.00476 0 0 0 -6,-6 z m 0,11 a 5,5 0 1 1 5,-5 5.00181,5.00181 0 0 1 -5,5 z"
       id="path40"
       inkscape:connector-curvature="0" />
    <path
       d="m 23.5,69.5 a 6,6 0 1 0 6,6 6.00476,6.00476 0 0 0 -6,-6 z m 0,11 a 5,5 0 1 1 5,-5 5.00181,5.00181 0 0 1 -5,5 z"
       id="path42"
       inkscape:connector-curvature="0" />
    <path
       d="m 9.43,39.57 h 7.03 a 0.59282,0.59282 0 0 0 0.23,-0.05 l 7.03,-3.54 A 0.51176,0.51176 0 0 0 24,35.53 v -15 a 0.49514,0.49514 0 0 0 -0.5,-0.5 H 12.7 a 0.49414,0.49414 0 0 0 -0.49,0.41 L 8.94,38.98 a 0.46743,0.46743 0 0 0 0.11,0.41 0.49464,0.49464 0 0 0 0.38,0.18 z M 13.12,21.03 H 23 v 14.19 l -6.65,3.35 h -6.32 z"
       id="path44"
       inkscape:connector-curvature="0" />
    <path
       d="m 25.5,36.03 h 10 a 0.49511,0.49511 0 0 0 0.5,-0.5 v -15 a 0.49514,0.49514 0 0 0 -0.5,-0.5 h -10 a 0.49514,0.49514 0 0 0 -0.5,0.5 v 15 a 0.49511,0.49511 0 0 0 0.5,0.5 z m 0.5,-15 h 9 v 14 h -9 z"
       id="path46"
       inkscape:connector-curvature="0" />
    <path
       d="M 55.5,64 A 11.5,11.5 0 1 0 67,75.5 11.51443,11.51443 0 0 0 55.5,64 Z m 0,22 A 10.5,10.5 0 1 1 66,75.5 10.51156,10.51156 0 0 1 55.5,86 Z"
       id="path48"
       inkscape:connector-curvature="0" />
    <path
       d="m 55.5,69.5 a 6,6 0 1 0 6,6 6.00476,6.00476 0 0 0 -6,-6 z m 0,11 a 5,5 0 1 1 5,-5 5.00181,5.00181 0 0 1 -5,5 z"
       id="path50"
       inkscape:connector-curvature="0" />
    <path
       d="m 9,59 h 2 a 1.498,1.498 0 0 0 1.5,-1.5 v -4 A 1.498,1.498 0 0 0 11,52 H 9 a 0.49511,0.49511 0 0 0 -0.5,0.5 v 6 A 0.49514,0.49514 0 0 0 9,59 Z M 9.5,53 H 11 a 0.49511,0.49511 0 0 1 0.5,0.5 v 4 A 0.49514,0.49514 0 0 1 11,58 H 9.5 Z"
       id="path52"
       inkscape:connector-curvature="0" />
    <path
       d="m 68.85,27.15 a 0.52333,0.52333 0 0 0 -0.71,0 c -0.88,0.8 -8.56,7.93 -8.56,13.63 a 0.53217,0.53217 0 0 0 -0.06,0.24 8.98,8.98 0 1 0 17.96,0 0.50216,0.50216 0 0 0 -0.06,-0.24 C 77.47,35.12 69.74,27.95 68.85,27.15 Z M 68.5,49 a 7.99128,7.99128 0 0 1 -7.98,-7.83 1.00146,1.00146 0 0 0 0.06,-0.39 c -0.05,-4.75 6.31,-11.07 7.92,-12.6 1.53,1.45 7.97,7.82 7.92,12.61 A 1.05265,1.05265 0 0 0 76.48,41.18 7.98941,7.98941 0 0 1 68.5,49 Z"
       id="path54"
       inkscape:connector-curvature="0" />
    <path
       d="M 83,16 H 74.5 V 13.5 A 0.49511,0.49511 0 0 0 74,13 H 63 a 0.49511,0.49511 0 0 0 -0.5,0.5 V 16 H 54 A 11.51443,11.51443 0 0 0 42.5,27.5 v 22 A 11.50055,11.50055 0 0 0 49.33,60 H 39.5 V 18.53 A 0.49514,0.49514 0 0 0 39,18.03 H 10.7 a 0.49414,0.49414 0 0 0 -0.49,0.41 L 6.5,39.51 v 20.58 a 1.5052,1.5052 0 0 0 -1,1.41 v 13 A 1.498,1.498 0 0 0 7,76 h 3.5 a 0.49514,0.49514 0 0 0 0.5,-0.5 12.5,12.5 0 0 1 25,0 0.49514,0.49514 0 0 0 0.5,0.5 h 6 a 0.49514,0.49514 0 0 0 0.5,-0.5 12.50637,12.50637 0 0 1 24.04,-4.82 0.52005,0.52005 0 0 0 0.92,0 12.52571,12.52571 0 0 1 4.89,-5.76 A 12.5,12.5 0 0 1 92,75.5 0.49514,0.49514 0 0 0 92.5,76 H 93 a 1.498,1.498 0 0 0 1.5,-1.5 v -13 A 1.498,1.498 0 0 0 93,60 H 87.67 A 11.50055,11.50055 0 0 0 94.5,49.5 v -22 A 11.51443,11.51443 0 0 0 83,16 Z M 63.5,14 h 10 v 2 h -10 z M 11.12,19.03 H 38.5 V 60 H 30.47 A 16.9435,16.9435 0 0 0 16.53,60 H 7.5 L 7.49,39.6 Z M 93,61 a 0.49511,0.49511 0 0 1 0.5,0.5 v 13 A 0.49514,0.49514 0 0 1 93,75 H 92.99 A 13.5048,13.5048 0 0 0 67.5,69.31 13.50283,13.50283 0 0 0 42.01,75 H 36.99 A 13.49945,13.49945 0 0 0 10.01,75 H 7 A 0.49514,0.49514 0 0 1 6.5,74.5 v -13 A 0.49511,0.49511 0 0 1 7,61 h 9.64 a 0.53752,0.53752 0 0 0 0.21,-0.05 15.99893,15.99893 0 0 1 13.3,0 0.53752,0.53752 0 0 0 0.21,0.05 z M 93.5,49.5 A 10.51156,10.51156 0 0 1 83,60 H 54 A 10.51156,10.51156 0 0 1 43.5,49.5 v -22 A 10.51152,10.51152 0 0 1 54,17 h 29 a 10.51152,10.51152 0 0 1 10.5,10.5 z"
       id="path56"
       inkscape:connector-curvature="0" />
  </g>
</svg>
