<?xml version="1.0" encoding="UTF-8" standalone="no"?>
<svg
   xmlns:dc="http://purl.org/dc/elements/1.1/"
   xmlns:cc="http://creativecommons.org/ns#"
   xmlns:rdf="http://www.w3.org/1999/02/22-rdf-syntax-ns#"
   xmlns:svg="http://www.w3.org/2000/svg"
   xmlns="http://www.w3.org/2000/svg"
   xmlns:sodipodi="http://sodipodi.sourceforge.net/DTD/sodipodi-0.dtd"
   xmlns:inkscape="http://www.inkscape.org/namespaces/inkscape"
   version="1.1"
   x="0px"
   y="0px"
   viewBox="0 0 879.499 324.859"
   xml:space="preserve"
   id="svg34"
   sodipodi:docname="noun_Water Truck_886290.svg"
   width="879.49902"
   height="324.85901"
   inkscape:version="0.92.2 5c3e80d, 2017-08-06"><metadata
     id="metadata40"><rdf:RDF><cc:Work
         rdf:about=""><dc:format>image/svg+xml</dc:format><dc:type
           rdf:resource="http://purl.org/dc/dcmitype/StillImage" /><dc:title></dc:title></cc:Work></rdf:RDF></metadata><defs
     id="defs38" /><sodipodi:namedview
     pagecolor="#ffffff"
     bordercolor="#666666"
     borderopacity="1"
     objecttolerance="10"
     gridtolerance="10"
     guidetolerance="10"
     inkscape:pageopacity="0"
     inkscape:pageshadow="2"
     inkscape:window-width="1112"
     inkscape:window-height="725"
     id="namedview36"
     showgrid="false"
     fit-margin-top="0"
     fit-margin-left="0"
     fit-margin-right="0"
     fit-margin-bottom="0"
     inkscape:zoom="0.52098431"
     inkscape:cx="181.32875"
     inkscape:cy="121.82337"
     inkscape:window-x="0"
     inkscape:window-y="0"
     inkscape:window-maximized="0"
     inkscape:current-layer="svg34" /><g
     id="g28"
     transform="translate(5.1714381e-5)"><g
       id="g8"><ellipse
         transform="matrix(0.483,-0.8756,0.8756,0.483,-68.9764,126.1247)"
         cx="72.322998"
         cy="121.476"
         rx="22.493"
         ry="22.495001"
         id="ellipse2" /><path
         d="m 11.053,222.669 c 2.598,8.225 6.109,22.59 6.084,40.003 -0.002,13.218 -1.977,28.171 -7.763,43.799 -2.398,6.474 0.907,13.666 7.382,16.064 1.431,0.53 2.896,0.781 4.339,0.781 5.08,0 9.855,-3.12 11.725,-8.163 6.954,-18.781 9.321,-36.776 9.319,-52.482 -0.027,-22.585 -4.812,-40.462 -8.082,-50.083 1.019,-6.156 2.965,-12.393 5.353,-18.441 -0.653,-1.106 -1.242,-2.179 -1.767,-3.206 -5.813,-11.31 -7.039,-21.98 -7.043,-28.937 0,-3.727 0.358,-6.097 0.43,-6.537 0.787,-4.864 4.934,-8.399 9.862,-8.399 0.534,0 1.073,0.043 1.604,0.13 5.412,0.876 9.127,5.996 8.284,11.409 -0.022,0.17 -0.046,0.368 -0.071,0.65 -0.051,0.561 -0.109,1.494 -0.109,2.745 -0.002,1.738 0.123,4.247 0.635,7.215 0.56,-1.088 1.108,-2.157 1.626,-3.18 5.467,-8.799 5.093,-21.282 -2.542,-25.65 -7.638,-4.37 -20.807,-3.272 -29.633,9.45 -12.034,17.565 -17.011,29.805 -20.562,51.886 -1.022,12.232 4.417,17.88 10.929,20.946 z"
         id="path4"
         inkscape:connector-curvature="0" /><path
         d="m 48.718,159.08 c 0.028,-0.318 0.055,-0.544 0.071,-0.669 0.008,-0.063 0.014,-0.101 0.016,-0.111 v 0 c 0.676,-4.344 -2.283,-8.423 -6.627,-9.127 -4.362,-0.706 -8.469,2.257 -9.176,6.619 -0.057,0.346 -0.402,2.607 -0.402,6.21 0.004,6.288 1.042,16.779 6.824,28.03 5.747,11.25 16.417,23.018 34.351,31.271 1.089,0.504 2.231,0.742 3.356,0.742 3.021,0.001 5.912,-1.719 7.266,-4.641 1.854,-4.01 0.108,-8.765 -3.9,-10.619 -14.95,-6.965 -22.547,-15.813 -26.848,-24.076 -4.266,-8.263 -5.054,-16.184 -5.048,-20.706 0,-1.285 0.06,-2.286 0.117,-2.923 z"
         id="path6"
         inkscape:connector-curvature="0" /></g><g
       id="g26"><path
         d="M 871.33,136.053 823.97,46.336 C 819.477,37.823 807.925,30.858 798.298,30.858 H 685.127 c -9.625,0 -17.502,7.875 -17.502,17.502 v 194.261 c 0,9.626 7.877,17.502 17.502,17.502 h 6.673 c 5.036,-31.385 32.296,-55.441 65.08,-55.441 32.782,0 60.044,24.056 65.079,55.441 h 40.039 c 9.626,0 17.501,-7.876 17.501,-17.502 v -73.589 c 0,-9.626 -3.676,-24.466 -8.169,-32.979 z M 723.926,48.358 v 83.53 h -38.8 v -83.53 z m -3.111,123.202 h -24.114 v -9.334 h 24.114 z m 12.446,-39.671 v -83.53 h 65.038 c 3.116,0 8.736,3.393 10.191,6.147 l 40.851,77.384 h -116.08 z"
         id="path10"
         inkscape:connector-curvature="0" /><path
         d="m 756.88,216.35 c -29.963,0 -54.254,24.29 -54.254,54.253 0,29.964 24.291,54.254 54.254,54.254 29.963,0 54.254,-24.29 54.254,-54.254 C 811.133,240.64 786.842,216.35 756.88,216.35 Z m 30.917,54.252 c 0,17.049 -13.869,30.919 -30.919,30.919 -17.047,0 -30.917,-13.87 -30.917,-30.919 0,-17.048 13.87,-30.917 30.917,-30.917 17.05,0 30.919,13.869 30.919,30.917 z"
         id="path12"
         inkscape:connector-curvature="0" /><path
         d="m 459.136,122.707 c 24.263,0 44.002,-19.74 44.002,-44 0,-24.262 -19.739,-44 -44.002,-44 -24.261,0 -44,19.738 -44,44 0,24.26 19.74,44 44,44 z m 0,-72.942 c 3.562,16.849 19.146,19.591 19.146,38.737 0,10.723 -8.573,19.146 -19.146,19.146 -10.574,0 -19.146,-8.424 -19.146,-19.146 0,-19.147 15.586,-21.889 19.146,-38.737 z"
         id="path14"
         inkscape:connector-curvature="0" /><path
         d="m 144.394,170.69 c 5.191,-1.724 12.312,-4.792 19.954,-8.723 6.114,-3.144 11.581,-6.335 15.789,-9.135 -4.074,3.61 -10.145,8.156 -17.18,12.729 -2.809,1.826 -5.475,3.709 -7.955,5.535 2.122,4.692 5.852,8.687 10.871,11.061 11.232,5.311 24.641,0.512 29.951,-10.719 5.314,-11.23 0.514,-24.645 -10.717,-29.953 -11.232,-5.309 -24.643,-0.51 -29.956,10.722 -0.934,1.977 -1.549,4.02 -1.877,6.076 -0.741,0.421 -1.467,0.839 -2.175,1.254 -9.557,5.607 -15.83,10.57 -15.006,12.179 0.511,0.988 3.623,0.527 8.301,-1.026 z"
         id="path16"
         inkscape:connector-curvature="0" /><path
         d="m 190.109,198.026 c 1.758,-3.244 5.129,-5.248 8.805,-5.248 1.637,0 3.271,0.41 4.721,1.188 2.354,1.26 4.077,3.361 4.85,5.918 0.771,2.558 0.503,5.261 -0.759,7.614 -1.39,2.512 -6.629,11.174 -17.246,20.019 -0.049,0.04 -0.1,0.081 -0.148,0.122 2.734,8.295 5.238,17.316 6.232,26.135 l -25.119,9.289 c -7.072,-6.214 -13.619,-12.366 -19.788,-17.607 -2.161,0.385 -4.394,0.7 -6.702,0.935 6.424,5.125 13.424,11.75 21.164,18.642 l -4.674,1.729 c -4.189,1.547 -7.229,5.206 -7.984,9.61 -0.755,4.4 0.892,8.863 4.324,11.722 l 40.25,33.5 c 2.335,1.943 5.17,2.892 7.988,2.892 3.585,0.001 7.143,-1.533 9.614,-4.503 4.417,-5.307 3.696,-13.188 -1.608,-17.605 l -15.76,-13.114 c 13.048,7.51 27.758,12.763 44.524,12.803 13.799,-0.007 26.129,-5.859 37.011,-15.181 3.485,-2.985 6.822,-6.323 10.011,-9.943 3.141,26.976 26.056,47.916 53.873,47.916 29.964,0 54.253,-24.29 54.253,-54.254 0,-29.963 -24.289,-54.253 -54.253,-54.253 -7.203,0 -14.073,1.416 -20.362,3.966 1.998,-4.666 3.883,-9.337 5.655,-13.96 4.732,-1.083 9.649,-1.674 14.706,-1.674 32.783,0 60.045,24.056 65.081,55.441 H 641.79 c 6.444,0 11.668,-5.225 11.668,-11.668 v -63.078 c 0,-6.444 -5.224,-11.668 -11.668,-11.668 H 340.12 c 1.793,-5.914 3.347,-11.405 4.663,-16.295 h 267.845 c 6.444,0 11.668,-5.225 11.668,-11.668 v -7.039 h 5.999 c 2.209,0 4,-1.791 4,-4 v -6 c 0,-2.209 -1.791,-4 -4,-4 h -5.999 v -39 h 5.999 c 2.209,0 4,-1.791 4,-4 v -6 c 0,-2.209 -1.791,-4 -4,-4 h -5.999 v -39 h 5.999 c 2.209,0 4,-1.791 4,-4 v -6 c 0,-2.209 -1.791,-4 -4,-4 h -5.999 V 11.67 C 624.296,5.223 619.072,0 612.628,0 H 297.296 c -6.444,0 -11.668,5.223 -11.668,11.668 v 7.039 h -4.333 c -2.209,0 -4,1.791 -4,4 v 6 c 0,2.209 1.791,4 4,4 h 4.333 v 39 h -4.333 c -2.209,0 -4,1.791 -4,4 v 6 c 0,2.209 1.791,4 4,4 h 4.333 v 39 h -4.333 c -2.209,0 -4,1.791 -4,4 v 6 c 0,2.209 1.791,4 4,4 h 4.333 v 7.039 c 0,6.443 5.224,11.668 11.668,11.668 h 42.307 c -1.338,4.917 -2.907,10.407 -4.711,16.295 H 269.6 c -6.444,0 -11.668,5.224 -11.668,11.668 v 63.078 c 0,6.443 5.224,11.668 11.668,11.668 h 9.007 c 3.925,-24.456 21.346,-44.445 44.358,-52.087 -2.057,5.224 -4.259,10.486 -6.603,15.703 -15.831,9.251 -26.546,26.282 -26.904,45.855 -2.269,2.813 -4.602,5.476 -7.005,7.94 -1.257,1.289 -2.532,2.513 -3.82,3.693 -10.793,9.885 -22.701,15.84 -35.841,15.838 -18.244,0.014 -34.11,-6.716 -48.166,-15.921 l 22.663,-8.382 c 7.312,-2.004 14.118,-6.725 14.741,-19.674 -0.627,-22.357 -3.954,-35.144 -13.585,-54.133 -7.081,-13.77 -19.995,-16.582 -28.137,-13.252 -7.102,2.904 -9.533,12.652 -7.208,21.358 3.426,-3.609 5.524,-6.665 6.319,-7.905 0.429,-0.667 0.649,-1.053 0.69,-1.13 z M 405.136,78.707 c 0,-29.824 24.177,-54 54,-54 29.823,0 54,24.176 54,54 0,29.822 -24.177,54 -54,54 -29.823,0 -54,-24.178 -54,-54 z m -71.5,55.42 c 0,-7.87 6.38,-14.25 14.25,-14.25 7.87,0 14.25,6.38 14.25,14.25 0,7.87 -6.38,14.25 -14.25,14.25 -0.251,0 -0.496,-0.024 -0.744,-0.038 0.356,-1.424 0.681,-2.745 0.977,-3.974 5.545,-0.125 10.019,-4.665 10.019,-10.238 0,-5.65 -4.599,-10.25 -10.251,-10.25 -5.652,0 -10.251,4.6 -10.251,10.25 0,3.98 2.285,7.43 5.608,9.127 -0.296,1.225 -0.62,2.547 -0.976,3.969 -5.076,-2.181 -8.632,-7.222 -8.632,-13.096 z m 40.968,136.475 c 0,17.049 -13.869,30.919 -30.92,30.919 -17.046,0 -30.916,-13.87 -30.916,-30.919 0,-17.048 13.87,-30.917 30.916,-30.917 17.051,0 30.92,13.869 30.92,30.917 z"
         id="path18"
         inkscape:connector-curvature="0" /><path
         d="m 124.697,236.257 c 0.154,-0.002 0.313,0.011 0.469,0.015 0.108,-1.793 0.684,-3.46 1.617,-4.877 -0.693,-0.078 -1.389,-0.133 -2.086,-0.138 -6.977,-0.031 -13.389,4.14 -18.91,12.761 l 4.197,2.717 c 5.174,-7.888 9.84,-10.449 14.713,-10.478 z"
         id="path20"
         inkscape:connector-curvature="0" /><path
         d="m 127.136,236.877 c 0,4.418 3.581,7.999 8.001,7.999 0.043,0 0.088,0 0.13,0 24.73,0.001 42.633,-9.453 53.932,-18.897 11.37,-9.47 16.43,-18.824 16.765,-19.424 2.085,-3.894 0.62,-8.742 -3.273,-10.827 -3.885,-2.082 -8.717,-0.632 -10.813,3.237 h -10e-4 c 0,0.002 -0.239,0.442 -0.772,1.27 -1.86,2.903 -7.138,10.182 -16.227,16.577 -9.121,6.399 -21.893,12.042 -39.74,12.065 -4.421,0 -8.002,3.581 -8.002,8 z"
         id="path22"
         inkscape:connector-curvature="0" /><path
         d="m 92.229,257.272 v 0.667 H 67.561 c -2.209,0 -4,1.791 -4,4 v 58.666 c 0,2.209 1.791,4 4,4 h 45.334 c 2.209,0 4,-1.791 4,-4 V 261.94 c 0,-2.209 -1.791,-4 -4,-4 h -2.666 v -0.667 c 0,-2.209 -1.791,-4 -4,-4 h -10 c -2.209,0 -4,1.791 -4,3.999 z m -2.168,13.668 c 0,2.209 -1.791,4 -4,4 H 73.395 c -2.209,0 -4,-1.791 -4,-4 v -3.334 c 0,-2.209 1.791,-4 4,-4 h 12.666 c 2.209,0 4,1.791 4,4 z"
         id="path24"
         inkscape:connector-curvature="0" /></g></g></svg>