<?xml version="1.0" encoding="UTF-8" standalone="no"?>
<svg
   xmlns:dc="http://purl.org/dc/elements/1.1/"
   xmlns:cc="http://creativecommons.org/ns#"
   xmlns:rdf="http://www.w3.org/1999/02/22-rdf-syntax-ns#"
   xmlns:svg="http://www.w3.org/2000/svg"
   xmlns="http://www.w3.org/2000/svg"
   xmlns:sodipodi="http://sodipodi.sourceforge.net/DTD/sodipodi-0.dtd"
   xmlns:inkscape="http://www.inkscape.org/namespaces/inkscape"
   version="1.1"
   x="0px"
   y="0px"
   viewBox="0 0 329.92298 267.68301"
   xml:space="preserve"
   id="svg36"
   sodipodi:docname="noun_Dialysis Machine_1250230.svg"
   width="329.92297"
   height="267.68301"
   inkscape:version="0.92.2 5c3e80d, 2017-08-06"><metadata
     id="metadata42"><rdf:RDF><cc:Work
         rdf:about=""><dc:format>image/svg+xml</dc:format><dc:type
           rdf:resource="http://purl.org/dc/dcmitype/StillImage" /><dc:title></dc:title></cc:Work></rdf:RDF></metadata><defs
     id="defs40" /><sodipodi:namedview
     pagecolor="#ffffff"
     bordercolor="#666666"
     borderopacity="1"
     objecttolerance="10"
     gridtolerance="10"
     guidetolerance="10"
     inkscape:pageopacity="0"
     inkscape:pageshadow="2"
     inkscape:window-width="640"
     inkscape:window-height="480"
     id="namedview38"
     showgrid="false"
     fit-margin-top="0"
     fit-margin-left="0"
     fit-margin-right="0"
     fit-margin-bottom="0"
     inkscape:zoom="0.70530922"
     inkscape:cx="164.95898"
     inkscape:cy="100.38049"
     inkscape:window-x="0"
     inkscape:window-y="0"
     inkscape:window-maximized="0"
     inkscape:current-layer="svg36" /><g
     id="g30"
     transform="translate(-0.00202276)"><path
       d="m 66.405,175.354 h 18.82 c -1.063,-0.767 -2.061,-1.531 -2.975,-2.278 -7.953,-6.474 -12.037,-12.936 -13.099,-14.763 -1.349,-2.404 -1.668,-5.104 -0.944,-7.676 0.727,-2.571 2.408,-4.705 4.738,-6.012 1.492,-0.835 3.18,-1.277 4.882,-1.277 3.593,0 6.925,1.938 8.697,5.056 0.075,0.121 0.169,0.273 0.308,0.486 0.431,0.652 0.926,1.337 1.468,2.025 1.285,1.643 3.463,4.124 6.56,6.637 2.043,1.644 4.164,3.074 6.373,4.297 -2.598,-4.431 -4.955,-8.676 -7.092,-12.379 -4.372,-9.389 -15.027,-15.906 -22.862,-11.902 -7.834,4.002 -14.121,15.627 -8.298,29.975 1.143,2.77 2.277,5.352 3.424,7.811 z"
       id="path2"
       inkscape:connector-curvature="0" /><path
       d="m 150.897,260.404 c 2.291,3.293 6.097,5.37 10.252,5.372 0.629,0 1.264,-0.049 1.904,-0.146 6.824,-1.045 11.511,-7.422 10.468,-14.246 l -3.244,-21.212 c -1.207,-0.625 -2.401,-1.266 -3.573,-1.938 -2.834,-1.625 -5.537,-3.399 -8.13,-5.287 v 22.705 c 0,6.03 -2.992,11.463 -7.677,14.752 z"
       id="path4"
       inkscape:connector-curvature="0" /><path
       d="m 164.854,194.715 c -0.736,-4.8 -4.116,-8.58 -8.51,-9.997 1.418,2.575 2.23,5.529 2.23,8.67 v 22.041 c 3.295,2.694 6.827,5.143 10.571,7.341 z"
       id="path6"
       inkscape:connector-curvature="0" /><path
       d="m 20.276,216.242 v 29.408 c 0,7.85 5.646,14.369 13.096,15.752 v 6.281 h 25.656 v -6 h 58.795 v 6 h 25.656 v -6.281 c 7.45,-1.383 13.095,-7.904 13.095,-15.752 v -24.196 c -11.685,-9.027 -20.707,-20.736 -26.485,-34.479 -2.258,0.196 -4.49,0.304 -6.684,0.304 h -0.021 -0.123 c -15.321,0 -26.943,-4.753 -35.074,-9.928 H 60.407 L 46.43,107.478 C 44.696,98.796 37.219,92.97 29.738,94.464 L 10.77,98.261 c -7.483,1.496 -12.141,9.75 -10.405,18.434 z"
       id="path8"
       inkscape:connector-curvature="0" /><ellipse
       transform="matrix(0.9578,-0.2874,0.2874,0.9578,-28.5888,26.1164)"
       cx="74.665001"
       cy="110.439"
       rx="22.495001"
       ry="22.493999"
       id="ellipse10" /><path
       d="m 289.604,222.719 c -7.039,4.824 -15.058,8.834 -23.668,11.947 h 36.26 v -22.502 c -3.683,3.795 -7.885,7.331 -12.592,10.555 z"
       id="path12"
       inkscape:connector-curvature="0" /><path
       d="m 144.43,184.528 c -2.73,0.69 -5.441,1.251 -8.119,1.683 4.785,10.761 11.654,20.026 20.263,27.543 v -20.368 c 0,-5.147 -2.435,-9.716 -6.205,-12.65 0.631,-0.337 1.247,-0.693 1.855,-1.061 9.892,-5.988 16.619,-15.941 21.057,-27.262 7.267,-18.436 8.789,-40.635 8.793,-56.233 0,-7.978 -0.402,-14.224 -0.653,-17.347 h 1.975 c 1.15,0 2.085,-0.934 2.085,-2.084 0,-0.735 -0.385,-1.379 -0.961,-1.75 -0.324,-0.209 -0.709,-0.334 -1.124,-0.334 h -0.75 V 73 h 8.979 c 2.209,0 4,-1.791 4,-4 V 37 c 0,-2.209 -1.791,-4 -4,-4 h -6.78 c 0.131,-0.633 0.219,-1.306 0.282,-2 0.056,-0.608 0.096,-1.229 0.103,-1.875 0,-0.442 -0.028,-0.867 -0.055,-1.293 h 13.807 v 37.095 h -1.355 V 69 c 0,2.94 -2.127,5.388 -4.923,5.898 v 125.054 c -1.163,2.195 -2.542,4.43 -4.185,6.477 -3.861,4.808 -8.974,8.519 -15.733,8.521 -0.911,0.004 -1.859,-0.064 -2.843,-0.208 l 0.313,2.042 c 0.861,0.104 1.706,0.161 2.53,0.164 9.349,-0.015 15.764,-6.367 19.918,-12.98 v 28.512 c 3.342,0.884 6.783,1.612 10.315,2.186 h 38.82 c 16.502,-2.6 32.041,-8.436 44.374,-16.895 5.325,-3.655 11.069,-8.479 15.985,-14.602 V 144 h 4.949 v -32.334 h -4.949 V 71.739 c 2.451,0.245 5.398,1.107 7.914,3.519 2.659,2.548 4.94,6.917 5.541,14.41 h -3.228 c -1.104,0 -2,0.895 -2,2 v 4 h -2.833 c -1.104,0 -2,0.895 -2,2 V 100 c 0,1.105 0.896,2 2,2 h 2.833 v 55 h -2.833 c -1.104,0 -2,0.896 -2,2 v 2.334 c 0,1.104 0.896,2 2,2 h 2.833 v 5 c 0,1.104 0.896,2 2,2 h 2.085 2.003 c -0.61,20.609 -12.041,37.331 -29.169,49.086 -17.595,12.068 -41.182,18.785 -64.85,18.781 -36.286,-0.015 -72.571,-15.714 -88.237,-51.689 -0.695,0.096 -1.387,0.178 -2.077,0.256 15.917,37.241 53.286,53.436 90.253,53.436 0.021,0 0.041,0 0.061,0 24.043,-0.004 47.979,-6.797 65.981,-19.135 17.524,-11.999 29.435,-29.359 30.04,-50.734 h 1.999 2.578 c 1.104,0 2,-0.896 2,-2 v -5 h 2.833 c 1.105,0 2,-0.896 2,-2 V 159 c 0,-1.104 -0.895,-2 -2,-2 h -2.833 v -55 h 2.833 c 1.105,0 2,-0.895 2,-2 v -2.332 c 0,-1.105 -0.895,-2 -2,-2 h -2.833 v -4 c 0,-1.105 -0.896,-2 -2,-2 h -5.427 c -0.61,-7.931 -3.053,-12.871 -6.169,-15.854 -2.996,-2.866 -6.498,-3.843 -9.298,-4.093 V 64.927 H 205.981 V 27.834 h 16.834 c 6.348,-0.002 11.497,-5.148 11.499,-11.501 0,-0.829 -0.671,-1.499 -1.501,-1.499 -0.827,0 -1.498,0.67 -1.498,1.499 -0.01,4.693 -3.809,8.492 -8.5,8.5 H 205.981 V 3.5 c 0,-1.934 -1.569,-3.5 -3.5,-3.5 -1.935,0 -3.5,1.566 -3.5,3.5 V 24.833 H 184.73 c -0.177,-0.73 -0.382,-1.429 -0.648,-2.048 -0.373,-0.86 -0.828,-1.613 -1.439,-2.217 -0.599,-0.596 -1.44,-1.07 -2.412,-1.068 -0.975,-0.003 -1.816,0.472 -2.414,1.068 -0.549,0.567 -0.992,1.271 -1.357,2.065 -1.721,-1.555 -2.809,-3.796 -2.814,-6.299 0,-0.829 -0.671,-1.499 -1.498,-1.499 -0.83,0 -1.501,0.67 -1.501,1.499 0,3.888 1.934,7.318 4.887,9.399 -0.185,1.058 -0.288,2.192 -0.303,3.393 0.001,0.643 0.034,1.267 0.091,1.875 0.066,0.7 0.178,1.362 0.313,2 h -6.8 c -2.209,0 -4,1.791 -4,4 v 32 c 0,2.209 1.791,4 4,4 h 8.979 v 1.666 h -0.75 c -0.415,0 -0.799,0.125 -1.124,0.334 -0.574,0.371 -0.957,1.015 -0.957,1.75 0,1.15 0.931,2.084 2.081,2.084 h 2.354 c 0.246,3.012 0.659,9.268 0.659,17.347 0.004,15.463 -1.539,37.484 -8.653,55.5 -4.351,10.959 -10.654,20.374 -19.895,26.087 -1.001,3.223 -3.594,5.874 -7.099,6.759 z m 81.716,-5.012 h -21.334 v -14.182 h 21.334 z m -22.167,-33.682 c 0,-4.971 4.028,-9 9,-9 4.97,0 9,4.029 9,9 0,4.971 -4.03,9 -9,9 -4.972,0 -9,-4.029 -9,-9 z m 23.234,4.551 c -2.513,-4.289 -1.075,-9.803 3.214,-12.316 4.288,-2.514 9.802,-1.074 12.315,3.215 2.514,4.287 1.076,9.801 -3.214,12.314 -4.287,2.513 -9.801,1.076 -12.315,-3.213 z m 26.933,29.131 h -21.334 v -14.182 h 21.334 z m 9.99,-28.696 c -2.754,4.139 -8.34,5.26 -12.479,2.506 -4.138,-2.754 -5.26,-8.34 -2.506,-12.48 2.755,-4.137 8.342,-5.258 12.479,-2.504 4.14,2.754 5.261,8.34 2.506,12.478 z m 27.843,-21.986 h -87.5 v -3.5 h 87.5 z m 0,-10 h -87.5 v -3.5 h 87.5 z m -2.53,-40.613 c 1.103,0 2,0.898 2,2 v 23.668 c 0,1.105 -0.897,2 -2,2 h -84 c -1.105,0 -2,-0.895 -2,-2 V 80.221 c 0,-1.102 0.895,-2 2,-2 z M 179.131,23.973 c 0.26,-0.61 0.559,-1.046 0.785,-1.265 0.238,-0.225 0.313,-0.205 0.313,-0.208 0,0 0.07,-0.018 0.311,0.208 0.355,0.305 0.755,1.067 1.078,2.098 -0.909,-0.057 -1.779,-0.253 -2.588,-0.573 0.033,-0.087 0.066,-0.178 0.101,-0.26 z M 178.332,31 c -0.069,-0.599 -0.113,-1.224 -0.104,-1.875 -0.001,-0.678 0.042,-1.33 0.114,-1.949 1.191,0.417 2.467,0.656 3.801,0.656 h 0.039 c 0.032,0.42 0.052,0.85 0.045,1.293 0.002,0.65 -0.039,1.277 -0.105,1.875 -0.082,0.726 -0.208,1.399 -0.367,2 h -3.045 c -0.163,-0.601 -0.294,-1.274 -0.378,-2 z m -9.772,19 v -8.166 c 0,-1.105 0.895,-2 2,-2 h 19.334 c 1.104,0 2,0.895 2,2 V 50 c 0,1.104 -0.896,2 -2,2 H 170.56 c -1.104,0 -2,-0.896 -2,-2 z"
       id="path14"
       inkscape:connector-curvature="0" /><path
       d="m 222.429,242.203 c -4.65,0 -9.232,-0.261 -13.73,-0.752 v 12.452 h -15.998 v 13.578 h 109.495 v -13.578 h -15.997 v -16.07 h -30.406 c -10.666,2.84 -21.966,4.367 -33.301,4.369 h -0.063 z"
       id="path16"
       inkscape:connector-curvature="0" /><path
       d="m 212.979,150.832 c 2.756,0 5,-2.242 5,-4.998 0,-2.471 -1.809,-4.516 -4.167,-4.916 V 138.5 h -1.5 v 2.401 c -2.44,0.33 -4.333,2.405 -4.333,4.933 0,2.756 2.241,4.998 5,4.998 z"
       id="path18"
       inkscape:connector-curvature="0" /><circle
       cx="217.311"
       cy="92.056999"
       r="7.5"
       id="circle20" /><rect
       x="229.479"
       y="89.889"
       width="52.333"
       height="4.3319998"
       id="rect22" /><path
       d="m 93.599,159.104 c -3.133,-2.542 -5.417,-5.094 -6.872,-6.953 -0.729,-0.927 -1.248,-1.68 -1.566,-2.164 -0.158,-0.242 -0.266,-0.416 -0.323,-0.511 -0.015,-0.024 -0.026,-0.043 -0.034,-0.057 -0.006,-0.008 -0.01,-0.017 -0.015,-0.025 -0.001,0 -0.001,-0.001 -0.001,-0.001 -2.174,-3.821 -7.025,-5.173 -10.864,-3.021 -3.855,2.16 -5.229,7.036 -3.067,10.89 h -0.002 c 0.342,0.585 4.191,7.371 12.662,14.266 8.4,6.868 21.705,13.753 39.744,13.753 0.041,0 0.082,0 0.123,0 6.314,0.002 13.171,-0.824 20.557,-2.691 4.281,-1.082 6.877,-5.433 5.795,-9.715 -1.082,-4.284 -5.434,-6.879 -9.717,-5.796 -6.195,1.563 -11.715,2.202 -16.635,2.202 -14.034,-0.03 -23.466,-5.095 -29.785,-10.177 z"
       id="path24"
       inkscape:connector-curvature="0" /><path
       d="m 239.291,143.307 c -1.25,-2.133 -3.842,-2.983 -6.08,-2.135 l -1.223,-2.087 -1.294,0.76 1.214,2.072 c -1.939,1.52 -2.522,4.266 -1.244,6.446 1.394,2.379 4.462,3.18 6.843,1.785 2.377,-1.396 3.178,-4.464 1.784,-6.841 z"
       id="path26"
       inkscape:connector-curvature="0" /><path
       d="m 260.061,142.203 1.341,-2.014 -1.248,-0.83 -1.331,1.999 c -2.215,-1.077 -4.939,-0.399 -6.341,1.706 -1.527,2.293 -0.902,5.402 1.394,6.932 2.294,1.527 5.403,0.902 6.931,-1.393 1.368,-2.055 0.996,-4.76 -0.746,-6.4 z"
       id="path28"
       inkscape:connector-curvature="0" /></g></svg>