<?xml version="1.0" encoding="UTF-8" standalone="no"?>
<svg
   xmlns:dc="http://purl.org/dc/elements/1.1/"
   xmlns:cc="http://creativecommons.org/ns#"
   xmlns:rdf="http://www.w3.org/1999/02/22-rdf-syntax-ns#"
   xmlns:svg="http://www.w3.org/2000/svg"
   xmlns="http://www.w3.org/2000/svg"
   xmlns:sodipodi="http://sodipodi.sourceforge.net/DTD/sodipodi-0.dtd"
   xmlns:inkscape="http://www.inkscape.org/namespaces/inkscape"
   version="1.1"
   x="0px"
   y="0px"
   viewBox="0 0 81.615997 90"
   enable-background="new 0 0 100 100"
   xml:space="preserve"
   id="svg14"
   sodipodi:docname="noun_Doctor_1030147.svg"
   width="81.615997"
   height="90"
   inkscape:version="0.92.2 5c3e80d, 2017-08-06"><metadata
     id="metadata20"><rdf:RDF><cc:Work
         rdf:about=""><dc:format>image/svg+xml</dc:format><dc:type
           rdf:resource="http://purl.org/dc/dcmitype/StillImage" /><dc:title></dc:title></cc:Work></rdf:RDF></metadata><defs
     id="defs18" /><sodipodi:namedview
     pagecolor="#ffffff"
     bordercolor="#666666"
     borderopacity="1"
     objecttolerance="10"
     gridtolerance="10"
     guidetolerance="10"
     inkscape:pageopacity="0"
     inkscape:pageshadow="2"
     inkscape:window-width="640"
     inkscape:window-height="480"
     id="namedview16"
     showgrid="false"
     fit-margin-top="0"
     fit-margin-left="0"
     fit-margin-right="0"
     fit-margin-bottom="0"
     inkscape:zoom="1.888"
     inkscape:cx="40.808"
     inkscape:cy="32.5"
     inkscape:window-x="0"
     inkscape:window-y="0"
     inkscape:window-maximized="0"
     inkscape:current-layer="svg14" /><g
     id="g8"
     transform="translate(-9.192,-5)"><path
       d="M 71.848,26.85 C 71.848,14.803 62.048,5 50,5 37.952,5 28.151,14.803 28.151,26.85 28.153,38.896 37.953,51.684 50,51.684 c 12.048,0 21.848,-12.788 21.848,-24.834 z"
       id="path2"
       inkscape:connector-curvature="0" /><path
       d="M 9.192,80.607 C 9.192,88.555 27.462,95 50,95 c 22.537,0 40.808,-6.445 40.808,-14.393 0,-13.694 -9.469,-25.166 -22.215,-28.252 3.394,2.204 5.732,5.889 6.095,10.137 2.901,0.65 5.078,3.243 5.078,6.338 0,3.584 -2.916,6.5 -6.5,6.5 -3.584,0 -6.5,-2.916 -6.5,-6.5 0,-3.038 2.099,-5.589 4.92,-6.298 -0.417,-3.93 -3.021,-7.209 -6.567,-8.611 L 50.432,67.684 35.55,53.738 c -4.034,1.362 -6.966,5.117 -7.108,9.571 0.579,0.336 1.047,0.856 1.334,1.486 2.137,1.008 4.023,3.13 5.468,6.151 0.242,0.509 0.273,1.083 0.096,1.607 0.866,2.229 1.361,4.665 1.361,6.711 0,2.867 0,5.578 -3.125,6.274 -0.339,0.282 -0.762,0.436 -1.207,0.436 H 30.28 c -1.047,0 -1.899,-0.853 -1.899,-1.899 l 0.002,-0.074 c 0.04,-1.009 0.885,-1.825 1.897,-1.825 h 2.088 c 0.214,0 0.423,0.036 0.624,0.107 0.127,-0.036 0.166,-0.065 0.167,-0.066 0.232,-0.412 0.232,-2.128 0.232,-2.952 0,-1.662 -0.416,-3.669 -1.145,-5.534 -0.379,-0.215 -0.684,-0.54 -0.872,-0.933 -1.267,-2.651 -2.988,-4.363 -4.387,-4.363 -1.431,0 -3.238,1.851 -4.498,4.604 -0.206,0.448 -0.567,0.814 -1.012,1.032 -0.659,1.785 -1.021,3.622 -1.021,5.193 0,0.692 0,2.529 0.265,2.96 0.003,0 0.062,0.036 0.228,0.077 0.216,-0.083 0.448,-0.126 0.68,-0.126 h 2.092 c 0.976,0 1.789,0.743 1.888,1.707 L 25.62,84 c 0,1.121 -0.852,1.974 -1.898,1.974 H 21.63 c -0.415,0 -0.816,-0.138 -1.146,-0.391 -1.195,-0.225 -2.037,-0.752 -2.57,-1.61 -0.646,-1.037 -0.764,-2.399 -0.764,-4.709 0,-2.027 0.468,-4.36 1.318,-6.589 -0.125,-0.477 -0.083,-0.975 0.124,-1.424 0.886,-1.936 2.012,-3.594 3.256,-4.793 0.684,-0.659 1.419,-1.189 2.188,-1.576 0.29,-0.676 0.792,-1.23 1.407,-1.581 0.117,-4.63 2.576,-8.679 6.242,-11.012 C 18.798,55.276 9.192,66.814 9.192,80.607 Z M 55,80.125 C 55,79.779 55.314,79.5 55.699,79.5 H 59.5 v -3.8 c 0,-0.387 0.279,-0.7 0.625,-0.7 h 3.75 c 0.344,0 0.625,0.313 0.625,0.7 v 3.8 h 3.801 c 0.387,0 0.699,0.279 0.699,0.625 v 3.75 C 69,84.221 68.687,84.5 68.301,84.5 H 64.5 v 3.8 c 0,0.387 -0.281,0.7 -0.625,0.7 h -3.75 C 59.779,89 59.5,88.687 59.5,88.3 V 84.5 H 55.699 C 55.314,84.5 55,84.221 55,83.875 Z"
       id="path4"
       inkscape:connector-curvature="0" /><circle
       cx="73.265999"
       cy="68.830002"
       r="3"
       id="circle6" /></g></svg>