<?xml version="1.0" encoding="UTF-8" standalone="no"?>
<svg
   xmlns:dc="http://purl.org/dc/elements/1.1/"
   xmlns:cc="http://creativecommons.org/ns#"
   xmlns:rdf="http://www.w3.org/1999/02/22-rdf-syntax-ns#"
   xmlns:svg="http://www.w3.org/2000/svg"
   xmlns="http://www.w3.org/2000/svg"
   xmlns:sodipodi="http://sodipodi.sourceforge.net/DTD/sodipodi-0.dtd"
   xmlns:inkscape="http://www.inkscape.org/namespaces/inkscape"
   version="1.1"
   x="0px"
   y="0px"
   viewBox="0 0 51.966 44.400002"
   enable-background="new 0 0 100 100"
   xml:space="preserve"
   id="svg18"
   sodipodi:docname="noun_Pharmacy_446305.svg"
   width="51.966"
   height="44.400002"
   inkscape:version="0.92.2 5c3e80d, 2017-08-06"><metadata
     id="metadata24"><rdf:RDF><cc:Work
         rdf:about=""><dc:format>image/svg+xml</dc:format><dc:type
           rdf:resource="http://purl.org/dc/dcmitype/StillImage" /><dc:title></dc:title></cc:Work></rdf:RDF></metadata><defs
     id="defs22" /><sodipodi:namedview
     pagecolor="#ffffff"
     bordercolor="#666666"
     borderopacity="1"
     objecttolerance="10"
     gridtolerance="10"
     guidetolerance="10"
     inkscape:pageopacity="0"
     inkscape:pageshadow="2"
     inkscape:window-width="640"
     inkscape:window-height="480"
     id="namedview20"
     showgrid="false"
     fit-margin-top="0"
     fit-margin-left="0"
     fit-margin-right="0"
     fit-margin-bottom="0"
     inkscape:zoom="1.888"
     inkscape:cx="25.984"
     inkscape:cy="9.52"
     inkscape:window-x="0"
     inkscape:window-y="0"
     inkscape:window-maximized="0"
     inkscape:current-layer="svg18" /><path
     d="M 51.431,0 H 28.306 V 10.138 H 51.431 Z M 32.361,9.285 H 31.084 V 0.852 h 1.277 z m 2.826,0 H 33.91 V 0.852 h 1.277 z m 2.826,0 H 36.734 V 0.852 h 1.279 z m 2.825,0 H 39.561 V 0.852 h 1.277 z m 2.826,0 H 42.387 V 0.852 h 1.277 z m 2.826,0 H 45.211 V 0.852 h 1.279 z m 2.824,0 H 48.037 V 0.852 h 1.277 z"
     id="path2"
     inkscape:connector-curvature="0" /><path
     d="M 50.261,11.46 H 29.476 c -0.941,0 -1.705,0.765 -1.705,1.704 v 29.532 c 0,0.94 0.764,1.704 1.705,1.704 h 20.785 c 0.941,0 1.705,-0.764 1.705,-1.704 V 13.164 c 0,-0.939 -0.763,-1.704 -1.705,-1.704 z m 0.852,26.897 H 28.625 V 20.511 h 22.488 z"
     id="path4"
     inkscape:connector-curvature="0" /><path
     d="m 34.82,30.259 h 3.951 v 3.951 c 0,0.563 0.457,1.019 1.02,1.019 h 0.158 c 0.563,0 1.02,-0.456 1.02,-1.019 v -3.951 h 3.949 c 0.563,0 1.02,-0.455 1.02,-1.018 v -0.16 c 0,-0.563 -0.457,-1.019 -1.02,-1.019 h -3.949 v -3.95 c 0,-0.563 -0.457,-1.019 -1.02,-1.019 h -0.158 c -0.563,0 -1.02,0.456 -1.02,1.019 v 3.95 H 34.82 c -0.561,0 -1.018,0.456 -1.018,1.019 v 0.16 c 0,0.563 0.457,1.018 1.018,1.018 z"
     id="path6"
     inkscape:connector-curvature="0" /><path
     d="m 25.332,22.432 c -0.877,-0.439 -1.832,-0.513 -2.719,-0.31 0.67,-1.248 1.002,-2.612 1.031,-3.979 L 6.337,19.385 C 6.65,21.249 7.566,23 9.032,24.355 8.514,24.237 7.983,24.155 7.43,24.155 3.334,24.155 0,27.487 0,31.584 c 0,1.614 0.533,3.1 1.412,4.319 l 10.604,-9.708 c 0.924,0.328 1.902,0.499 2.91,0.499 1.539,0 3.008,-0.407 4.305,-1.138 l -6.01,11.954 c -1.002,1.994 -0.197,4.43 1.797,5.434 l 0.084,0.042 c 1.996,1.001 4.432,0.196 5.434,-1.798 l 6.676,-13.282 c 1.002,-1.993 0.198,-4.429 -1.88,-5.474 z m 0.74,4.902 -3.063,6.089 -5.031,-2.529 3.061,-6.091 c 0.686,-1.362 2.354,-1.915 3.803,-1.187 1.363,0.686 1.915,2.354 1.23,3.718 z"
     id="path8"
     inkscape:connector-curvature="0" /><path
     d="M 20.363,11.083 C 18.8,9.848 16.925,9.195 14.937,9.195 c -2.693,0 -5.197,1.208 -6.867,3.32 -1.213,1.534 -1.799,3.353 -1.852,5.173 l 17.295,-1.244 c -0.355,-2.043 -1.398,-3.973 -3.15,-5.361 z"
     id="path10"
     inkscape:connector-curvature="0" /><path
     d="M 13.416,27.226 2.57,37.156 c 1.307,1.142 2.994,1.857 4.861,1.857 4.094,0 7.428,-3.334 7.428,-7.429 0,-1.633 -0.547,-3.132 -1.443,-4.358 z"
     id="path12"
     inkscape:connector-curvature="0" /></svg>