<svg xmlns="http://www.w3.org/2000/svg" xmlns:xlink="http://www.w3.org/1999/xlink" version="1.0" x="0px" y="0px" viewBox="0 0 100 125" enable-background="new 0 0 100 100" xml:space="preserve"><path d="M49.9416695,89.0002975c-3.4825439-3.0009766-1.7860718-5.8034668-1.0071411-6.7685547H48.755146h-0.2313843h-5.9798584  c-0.7168579,1.5053711-1.4623413,4.4726562,2.0159302,6.9658203c5.460022,3.9150391,7.3544922,3.8183594,8.2480469,6.9570312  C53.6409492,91.4895554,52.5725288,91.2659225,49.9416695,89.0002975z"/><path d="M35.4641304,15.5051823c0.3721313,0,0.8027344-0.0400391,1.2919922-0.1240234l7.8955078-1.5009766  c4-0.625,3.0654297-2.4707031,3.0654297-2.4707031c1.3652954-0.5546875,2.7109985-0.8056641,3.9649048-0.8056641  c4.7518921,0,8.1669922,3.6152344,6.1473999,8.0566406c-0.6694336,1.4726562-1.7299805,2.9382324-2.9922485,4.3447266h6.9492798  c2.9369545-5.2362061,2.8385048-11.4536133-2.7382202-15.4580078c-2.390625-1.7158203-5.0547485-2.3798828-7.7363281-2.3798828  c-5.3574829,0-10.7833252,2.6484375-14.2227173,4.8378901C33.380146,12.3655338,32.1448555,15.5051823,35.4641304,15.5051823z"/><path d="M62.4143257,75.8167038c-5.5429688-0.6982422-8.2929688-1.7744141-9.9989624-4.9257812  c-0.2892456-0.5533447-0.5039062-1.3327637-0.6624756-2.2810059c-0.4734497-2.8321533-0.4456787-7.1728477-0.4016724-11.5161095  c0.5151978,0.2036133,1.019043,0.4165039,1.4938354,0.6507568c0.3442383,0.1697998,0.6765747,0.3480225,0.9921265,0.5369873  c0.1864014,0.1105957,0.3372192,0.2160645,0.5010376,0.3232422c0.9735107,0.6369629,1.5977783,1.2337646,2.1269531,1.984375  c0.618103,0.8867188,1.0341797,1.9003906,1,3.0830078c-0.0444336,1.2552452-0.482666,3.0383263-1.9094238,5.293087  c-0.1117554,0.1766357-0.2162476,0.3497314-0.3405762,0.5321045c0.7382812,0.9960938,1.6289062,1.7685547,2.9335938,2.3105469  c0.4130859,0.1279297,0.8446655,0.25,1.3095093,0.3623047c0.6264648-0.9199219,1.1489258-1.8144531,1.5900879-2.6916504  c0.9755859-1.9399414,1.5100708-3.7868652,1.5847168-5.5749474c0.1026001-2.2832031-0.6211548-4.3808594-1.8046265-6.0185547  c-1.105896-1.4844971-2.317688-2.6401367-3.5996704-3.5709229c-0.3009644-0.2185059-0.6052246-0.4261475-0.9135742-0.6209717  c-0.631958-0.3989258-1.27948-0.7470703-1.9368286-1.0622559c-0.4938354-0.2369385-0.993042-0.4558105-1.4975586-0.6563721  c-0.4979248-0.197876-1-0.3814697-1.505188-0.5528564c-1.1838379-0.4016113-2.3831177-0.7438965-3.5784912-1.0825195  c-0.5953979-0.1584473-1.2235107-0.3317871-1.8656006-0.5134277c-0.4904175-0.1387939-0.9886475-0.2827148-1.4909058-0.4306641  c-0.4923096-0.1452637-0.9862061-0.293335-1.4771118-0.4438477c-0.3538208-0.1083984-0.7042236-0.2175293-1.0516968-0.3271484  c-2.2382812-0.7058105-4.2983398-1.4222412-5.5473022-1.9724121c-0.9262695-0.4110107-1.6916504-0.7757568-2.2834473-1.0686035  c-0.4794312-0.2093506-0.9498901-0.4289551-1.4119873-0.6582031c-0.4373169,0.4370117-3.567688,3.855835,2.4864502,6.6516113  c3.2231445,1.4886475,4.4208984,1.9404297,7.7510376,2.925293c0.4556274,0.1347656,0.9550171,0.2807617,1.5012817,0.4394531  c0.0761108,0.0220947,0.1451416,0.0422363,0.2232666,0.0649414c0.4154663,0.1206055,0.8450928,0.2416992,1.2809448,0.3640137  c0.0580444,6.3356934,0.2195435,13.0956993-1.0485229,15.5207481c-1.7050781,3.1513672-4.4550781,4.2275391-9.9970703,4.9257812  c-2.9804077,0.3759766-4.2441406,2.2666016-3.8046265,3.4150391h17.4619141h0.2313843h17.463932  C66.6575546,78.0833054,65.3948593,76.1926804,62.4143257,75.8167038z"/><path d="M22.2239571,26.0051823c0,9.448,9.0425415,17.3251972,21.0466919,19.116457  c0.4907837,0.0732422,0.9874878,0.133667,1.487793,0.1862793c0.4945679,0.052002,0.9940186,0.0922852,1.4970703,0.1234131  c0.7288818,0.045166,1.4640503,0.0738525,2.2086182,0.0738525c0.8630371,0,1.7155151-0.032959,2.5571899-0.0935059  c0.5021973-0.0361328,1.0006104-0.081543,1.4941406-0.1384277c0.5008545-0.0576172,0.9956055-0.1286621,1.4866943-0.2070312  c11.8322792-1.8895264,20.7022133-9.7038574,20.7022133-19.0610371H22.2239571z"/><text x="0" y="115" fill="#000000" font-size="5px" font-weight="bold" font-family="'Helvetica Neue', Helvetica, Arial-Unicode, Arial, Sans-serif">Created by Alex Tai</text><text x="0" y="120" fill="#000000" font-size="5px" font-weight="bold" font-family="'Helvetica Neue', Helvetica, Arial-Unicode, Arial, Sans-serif">from the Noun Project</text></svg>