<svg xmlns="http://www.w3.org/2000/svg" xmlns:xlink="http://www.w3.org/1999/xlink" version="1.1" x="0px" y="0px" viewBox="0 0 100 125" enable-background="new 0 0 100 100" xml:space="preserve"><path d="M75.447,27.62H52.322v10.138h23.125V27.62z M56.377,36.905H55.1v-8.433h1.277V36.905z M59.203,36.905h-1.277v-8.433h1.277  V36.905z M62.029,36.905H60.75v-8.433h1.279V36.905z M64.854,36.905h-1.277v-8.433h1.277V36.905z M67.68,36.905h-1.277v-8.433h1.277  V36.905z M70.506,36.905h-1.279v-8.433h1.279V36.905z M73.33,36.905h-1.277v-8.433h1.277V36.905z"/><path d="M74.277,39.08H53.492c-0.941,0-1.705,0.765-1.705,1.704v29.532c0,0.94,0.764,1.704,1.705,1.704h20.785  c0.941,0,1.705-0.764,1.705-1.704V40.784C75.982,39.845,75.219,39.08,74.277,39.08z M75.129,65.977H52.641V48.131h22.488V65.977z"/><path d="M58.836,57.879h3.951v3.951c0,0.563,0.457,1.019,1.02,1.019h0.158c0.563,0,1.02-0.456,1.02-1.019v-3.951h3.949  c0.563,0,1.02-0.455,1.02-1.018v-0.16c0-0.563-0.457-1.019-1.02-1.019h-3.949v-3.95c0-0.563-0.457-1.019-1.02-1.019h-0.158  c-0.563,0-1.02,0.456-1.02,1.019v3.95h-3.951c-0.561,0-1.018,0.456-1.018,1.019v0.16C57.818,57.424,58.275,57.879,58.836,57.879z"/><path d="M49.348,50.052c-0.877-0.439-1.832-0.513-2.719-0.31c0.67-1.248,1.002-2.612,1.031-3.979l-17.307,1.242  c0.313,1.864,1.229,3.615,2.695,4.97c-0.518-0.118-1.049-0.2-1.602-0.2c-4.096,0-7.43,3.332-7.43,7.429  c0,1.614,0.533,3.1,1.412,4.319l10.604-9.708c0.924,0.328,1.902,0.499,2.91,0.499c1.539,0,3.008-0.407,4.305-1.138l-6.01,11.954  c-1.002,1.994-0.197,4.43,1.797,5.434l0.084,0.042c1.996,1.001,4.432,0.196,5.434-1.798l6.676-13.282  C52.23,53.533,51.426,51.097,49.348,50.052z M50.088,54.954l-3.063,6.089l-5.031-2.529l3.061-6.091  c0.686-1.362,2.354-1.915,3.803-1.187C50.221,51.922,50.773,53.59,50.088,54.954z"/><path d="M44.379,38.703c-1.563-1.235-3.438-1.888-5.426-1.888c-2.693,0-5.197,1.208-6.867,3.32  c-1.213,1.534-1.799,3.353-1.852,5.173l17.295-1.244C47.174,42.021,46.131,40.091,44.379,38.703z"/><path d="M37.432,54.846l-10.846,9.93c1.307,1.142,2.994,1.857,4.861,1.857c4.094,0,7.428-3.334,7.428-7.429  C38.875,57.571,38.328,56.072,37.432,54.846z"/><text x="0" y="115" fill="#000000" font-size="5px" font-weight="bold" font-family="'Helvetica Neue', Helvetica, Arial-Unicode, Arial, Sans-serif">Created by See Link</text><text x="0" y="120" fill="#000000" font-size="5px" font-weight="bold" font-family="'Helvetica Neue', Helvetica, Arial-Unicode, Arial, Sans-serif">from the Noun Project</text></svg>