<svg xmlns="http://www.w3.org/2000/svg" xmlns:xlink="http://www.w3.org/1999/xlink" version="1.1" x="0px" y="0px" viewBox="0 0 329.922 334.605" style="enable-background:new 0 0 329.922 267.684;" xml:space="preserve"><g><path d="M66.405,175.354h18.82c-1.063-0.767-2.061-1.531-2.975-2.278c-7.953-6.474-12.037-12.936-13.099-14.763   c-1.349-2.404-1.668-5.104-0.944-7.676c0.727-2.571,2.408-4.705,4.738-6.012c1.492-0.835,3.18-1.277,4.882-1.277   c3.593,0,6.925,1.938,8.697,5.056c0.075,0.121,0.169,0.273,0.308,0.486c0.431,0.652,0.926,1.337,1.468,2.025   c1.285,1.643,3.463,4.124,6.56,6.637c2.043,1.644,4.164,3.074,6.373,4.297c-2.598-4.431-4.955-8.676-7.092-12.379   c-4.372-9.389-15.027-15.906-22.862-11.902c-7.834,4.002-14.121,15.627-8.298,29.975C64.124,170.313,65.258,172.895,66.405,175.354   z"/><path d="M150.897,260.404c2.291,3.293,6.097,5.37,10.252,5.372c0.629,0,1.264-0.049,1.904-0.146   c6.824-1.045,11.511-7.422,10.468-14.246l-3.244-21.212c-1.207-0.625-2.401-1.266-3.573-1.938c-2.834-1.625-5.537-3.399-8.13-5.287   v22.705C158.574,251.682,155.582,257.115,150.897,260.404z"/><path d="M164.854,194.715c-0.736-4.8-4.116-8.58-8.51-9.997c1.418,2.575,2.23,5.529,2.23,8.67v22.041   c3.295,2.694,6.827,5.143,10.571,7.341L164.854,194.715z"/><path d="M20.276,216.242v29.408c0,7.85,5.646,14.369,13.096,15.752v6.281h25.656v-6h58.795v6h25.656v-6.281   c7.45-1.383,13.095-7.904,13.095-15.752v-24.196c-11.685-9.027-20.707-20.736-26.485-34.479c-2.258,0.196-4.49,0.304-6.684,0.304   h-0.021h-0.123c-15.321,0-26.943-4.753-35.074-9.928h-27.78l-13.977-69.873c-1.734-8.682-9.211-14.508-16.692-13.014l-18.968,3.797   c-7.483,1.496-12.141,9.75-10.405,18.434L20.276,216.242z"/><ellipse transform="matrix(0.9578 -0.2874 0.2874 0.9578 -28.5888 26.1164)" cx="74.665" cy="110.439" rx="22.495" ry="22.494"/><path d="M289.604,222.719c-7.039,4.824-15.058,8.834-23.668,11.947h36.26v-22.502C298.513,215.959,294.311,219.495,289.604,222.719   z"/><path d="M144.43,184.528c-2.73,0.69-5.441,1.251-8.119,1.683c4.785,10.761,11.654,20.026,20.263,27.543v-20.368   c0-5.147-2.435-9.716-6.205-12.65c0.631-0.337,1.247-0.693,1.855-1.061c9.892-5.988,16.619-15.941,21.057-27.262   c7.267-18.436,8.789-40.635,8.793-56.233c0-7.978-0.402-14.224-0.653-17.347h1.975c1.15,0,2.085-0.934,2.085-2.084   c0-0.735-0.385-1.379-0.961-1.75c-0.324-0.209-0.709-0.334-1.124-0.334h-0.75V73h8.979c2.209,0,4-1.791,4-4V37c0-2.209-1.791-4-4-4   h-6.78c0.131-0.633,0.219-1.306,0.282-2c0.056-0.608,0.096-1.229,0.103-1.875c0-0.442-0.028-0.867-0.055-1.293l13.807,0v37.095   h-1.355V69c0,2.94-2.127,5.388-4.923,5.898v125.054c-1.163,2.195-2.542,4.43-4.185,6.477c-3.861,4.808-8.974,8.519-15.733,8.521   c-0.911,0.004-1.859-0.064-2.843-0.208l0.313,2.042c0.861,0.104,1.706,0.161,2.53,0.164c9.349-0.015,15.764-6.367,19.918-12.98   v28.512c3.342,0.884,6.783,1.612,10.315,2.186h38.82c16.502-2.6,32.041-8.436,44.374-16.895   c5.325-3.655,11.069-8.479,15.985-14.602V144h4.949v-32.334h-4.949V71.739c2.451,0.245,5.398,1.107,7.914,3.519   c2.659,2.548,4.94,6.917,5.541,14.41h-3.228c-1.104,0-2,0.895-2,2v4h-2.833c-1.104,0-2,0.895-2,2V100c0,1.105,0.896,2,2,2h2.833v55   h-2.833c-1.104,0-2,0.896-2,2v2.334c0,1.104,0.896,2,2,2h2.833v5c0,1.104,0.896,2,2,2h2.085h2.003   c-0.61,20.609-12.041,37.331-29.169,49.086c-17.595,12.068-41.182,18.785-64.85,18.781c-36.286-0.015-72.571-15.714-88.237-51.689   c-0.695,0.096-1.387,0.178-2.077,0.256c15.917,37.241,53.286,53.436,90.253,53.436c0.021,0,0.041,0,0.061,0   c24.043-0.004,47.979-6.797,65.981-19.135c17.524-11.999,29.435-29.359,30.04-50.734h1.999h2.578c1.104,0,2-0.896,2-2v-5h2.833   c1.105,0,2-0.896,2-2V159c0-1.104-0.895-2-2-2h-2.833v-55h2.833c1.105,0,2-0.895,2-2v-2.332c0-1.105-0.895-2-2-2h-2.833v-4   c0-1.105-0.896-2-2-2h-5.427c-0.61-7.931-3.053-12.871-6.169-15.854c-2.996-2.866-6.498-3.843-9.298-4.093v-4.794h-96.217V27.834   l16.834,0c6.348-0.002,11.497-5.148,11.499-11.501c0-0.829-0.671-1.499-1.501-1.499c-0.827,0-1.498,0.67-1.498,1.499   c-0.01,4.693-3.809,8.492-8.5,8.5h-16.834V3.5c0-1.934-1.569-3.5-3.5-3.5c-1.935,0-3.5,1.566-3.5,3.5v21.333h-14.251   c-0.177-0.73-0.382-1.429-0.648-2.048c-0.373-0.86-0.828-1.613-1.439-2.217c-0.599-0.596-1.44-1.07-2.412-1.068   c-0.975-0.003-1.816,0.472-2.414,1.068c-0.549,0.567-0.992,1.271-1.357,2.065c-1.721-1.555-2.809-3.796-2.814-6.299   c0-0.829-0.671-1.499-1.498-1.499c-0.83,0-1.501,0.67-1.501,1.499c0,3.888,1.934,7.318,4.887,9.399   c-0.185,1.058-0.288,2.192-0.303,3.393c0.001,0.643,0.034,1.267,0.091,1.875c0.066,0.7,0.178,1.362,0.313,2h-6.8   c-2.209,0-4,1.791-4,4v32c0,2.209,1.791,4,4,4h8.979v1.666h-0.75c-0.415,0-0.799,0.125-1.124,0.334   c-0.574,0.371-0.957,1.015-0.957,1.75c0,1.15,0.931,2.084,2.081,2.084h2.354c0.246,3.012,0.659,9.268,0.659,17.347   c0.004,15.463-1.539,37.484-8.653,55.5c-4.351,10.959-10.654,20.374-19.895,26.087C150.528,180.992,147.935,183.643,144.43,184.528   z M226.146,179.516h-21.334v-14.182h21.334V179.516z M203.979,145.834c0-4.971,4.028-9,9-9c4.97,0,9,4.029,9,9s-4.03,9-9,9   C208.007,154.834,203.979,150.805,203.979,145.834z M227.213,150.385c-2.513-4.289-1.075-9.803,3.214-12.316   c4.288-2.514,9.802-1.074,12.315,3.215c2.514,4.287,1.076,9.801-3.214,12.314C235.241,156.111,229.727,154.674,227.213,150.385z    M254.146,179.516h-21.334v-14.182h21.334V179.516z M264.136,150.82c-2.754,4.139-8.34,5.26-12.479,2.506   c-4.138-2.754-5.26-8.34-2.506-12.48c2.755-4.137,8.342-5.258,12.479-2.504C265.77,141.096,266.891,146.682,264.136,150.82z    M291.979,128.834h-87.5v-3.5h87.5V128.834z M291.979,118.834h-87.5v-3.5h87.5V118.834z M289.449,78.221c1.103,0,2,0.898,2,2   v23.668c0,1.105-0.897,2-2,2h-84c-1.105,0-2-0.895-2-2V80.221c0-1.102,0.895-2,2-2H289.449z M179.131,23.973   c0.26-0.61,0.559-1.046,0.785-1.265c0.238-0.225,0.313-0.205,0.313-0.208c0,0,0.07-0.018,0.311,0.208   c0.355,0.305,0.755,1.067,1.078,2.098c-0.909-0.057-1.779-0.253-2.588-0.573C179.063,24.146,179.096,24.055,179.131,23.973z    M178.332,31c-0.069-0.599-0.113-1.224-0.104-1.875c-0.001-0.678,0.042-1.33,0.114-1.949c1.191,0.417,2.467,0.656,3.801,0.656   h0.039c0.032,0.42,0.052,0.85,0.045,1.293c0.002,0.65-0.039,1.277-0.105,1.875c-0.082,0.726-0.208,1.399-0.367,2h-3.045   C178.547,32.399,178.416,31.726,178.332,31z M168.56,50v-8.166c0-1.105,0.895-2,2-2h19.334c1.104,0,2,0.895,2,2V50   c0,1.104-0.896,2-2,2H170.56C169.456,52,168.56,51.104,168.56,50z"/><path d="M222.429,242.203c-4.65,0-9.232-0.261-13.73-0.752v12.452h-15.998v13.578h109.495v-13.578h-15.997v-16.07h-30.406   c-10.666,2.84-21.966,4.367-33.301,4.369H222.429z"/><path d="M212.979,150.832c2.756,0,5-2.242,5-4.998c0-2.471-1.809-4.516-4.167-4.916V138.5h-1.5v2.401   c-2.44,0.33-4.333,2.405-4.333,4.933C207.979,148.59,210.22,150.832,212.979,150.832z"/><circle cx="217.311" cy="92.057" r="7.5"/><rect x="229.479" y="89.889" width="52.333" height="4.332"/><path d="M93.599,159.104c-3.133-2.542-5.417-5.094-6.872-6.953c-0.729-0.927-1.248-1.68-1.566-2.164   c-0.158-0.242-0.266-0.416-0.323-0.511c-0.015-0.024-0.026-0.043-0.034-0.057c-0.006-0.008-0.01-0.017-0.015-0.025   c-0.001,0-0.001-0.001-0.001-0.001c-2.174-3.821-7.025-5.173-10.864-3.021c-3.855,2.16-5.229,7.036-3.067,10.89h-0.002   c0.342,0.585,4.191,7.371,12.662,14.266c8.4,6.868,21.705,13.753,39.744,13.753c0.041,0,0.082,0,0.123,0   c6.314,0.002,13.171-0.824,20.557-2.691c4.281-1.082,6.877-5.433,5.795-9.715c-1.082-4.284-5.434-6.879-9.717-5.796   c-6.195,1.563-11.715,2.202-16.635,2.202C109.35,169.251,99.918,164.186,93.599,159.104z"/><path d="M239.291,143.307c-1.25-2.133-3.842-2.983-6.08-2.135l-1.223-2.087l-1.294,0.76l1.214,2.072   c-1.939,1.52-2.522,4.266-1.244,6.446c1.394,2.379,4.462,3.18,6.843,1.785C239.884,148.752,240.685,145.684,239.291,143.307z"/><path d="M260.061,142.203l1.341-2.014l-1.248-0.83l-1.331,1.999c-2.215-1.077-4.939-0.399-6.341,1.706   c-1.527,2.293-0.902,5.402,1.394,6.932c2.294,1.527,5.403,0.902,6.931-1.393C262.175,146.548,261.803,143.843,260.061,142.203z"/></g><text x="0" y="282.684" fill="#000000" font-size="5px" font-weight="bold" font-family="'Helvetica Neue', Helvetica, Arial-Unicode, Arial, Sans-serif">Created by Gan Khoon Lay</text><text x="0" y="287.684" fill="#000000" font-size="5px" font-weight="bold" font-family="'Helvetica Neue', Helvetica, Arial-Unicode, Arial, Sans-serif">from the Noun Project</text></svg>