<?xml version="1.0" encoding="UTF-8" standalone="no"?>
<svg
   xmlns:dc="http://purl.org/dc/elements/1.1/"
   xmlns:cc="http://creativecommons.org/ns#"
   xmlns:rdf="http://www.w3.org/1999/02/22-rdf-syntax-ns#"
   xmlns:svg="http://www.w3.org/2000/svg"
   xmlns="http://www.w3.org/2000/svg"
   xmlns:sodipodi="http://sodipodi.sourceforge.net/DTD/sodipodi-0.dtd"
   xmlns:inkscape="http://www.inkscape.org/namespaces/inkscape"
   version="1.0"
   x="0px"
   y="0px"
   viewBox="0 0 110.17211 90.987305"
   enable-background="new 0 0 100 100"
   xml:space="preserve"
   id="svg14"
   sodipodi:docname="noun_Pharmacy_253077.svg"
   width="110.17211"
   height="90.987305"
   inkscape:version="0.92.2 5c3e80d, 2017-08-06"><metadata
     id="metadata20"><rdf:RDF><cc:Work
         rdf:about=""><dc:format>image/svg+xml</dc:format><dc:type
           rdf:resource="http://purl.org/dc/dcmitype/StillImage" /><dc:title></dc:title></cc:Work></rdf:RDF></metadata><defs
     id="defs18" /><sodipodi:namedview
     pagecolor="#ffffff"
     bordercolor="#666666"
     borderopacity="1"
     objecttolerance="10"
     gridtolerance="10"
     guidetolerance="10"
     inkscape:pageopacity="0"
     inkscape:pageshadow="2"
     inkscape:window-width="945"
     inkscape:window-height="628"
     id="namedview16"
     showgrid="false"
     fit-margin-top="0"
     fit-margin-left="0"
     fit-margin-right="0"
     fit-margin-bottom="0"
     inkscape:zoom="2.8284271"
     inkscape:cx="98.785901"
     inkscape:cy="40.405915"
     inkscape:window-x="101"
     inkscape:window-y="0"
     inkscape:window-maximized="0"
     inkscape:current-layer="svg14" /><path
     d="m 59.460716,83.833006 c -3.482544,-3.000977 -1.786072,-5.803467 -1.007142,-6.768555 h -0.179382 -0.231384 -5.979859 c -0.716858,1.505371 -1.462341,4.472656 2.015931,6.96582 5.460022,3.915039 7.354492,3.81836 8.248046,6.957031 0.833069,-4.665039 -0.235351,-4.888671 -2.86621,-7.154296 z"
     id="path2"
     inkscape:connector-curvature="0" /><path
     d="m 44.983176,10.33789 c 0.372132,0 0.802735,-0.04004 1.291993,-0.124023 l 7.895507,-1.5009767 c 4,-0.625 3.06543,-2.470703 3.06543,-2.470703 1.365296,-0.554687 2.710999,-0.805664 3.964905,-0.805664 4.751892,0 8.166992,3.615235 6.1474,8.0566407 -0.669434,1.472656 -1.729981,2.938232 -2.992249,4.344726 h 6.94928 C 74.242397,12.601684 74.143947,6.3842773 68.567222,2.3798828 66.176597,0.6640625 63.512473,0 60.830894,0 55.473411,0 50.047569,2.6484375 46.608177,4.8378903 42.899192,7.1982423 41.663901,10.33789 44.983176,10.33789 Z"
     id="path4"
     inkscape:connector-curvature="0" /><path
     d="m 71.933372,70.649412 c -5.542969,-0.698242 -8.292969,-1.774414 -9.998963,-4.925781 -0.289245,-0.553345 -0.503906,-1.332764 -0.662475,-2.281006 -0.47345,-2.832154 -0.445679,-7.172848 -0.401673,-11.51611 0.515198,0.203613 1.019043,0.416504 1.493836,0.650757 0.344238,0.1698 0.676574,0.348023 0.992126,0.536987 0.186402,0.110596 0.337219,0.216065 0.501038,0.323243 0.97351,0.636962 1.597778,1.233764 2.126953,1.984375 0.618103,0.886718 1.03418,1.90039 1,3.083007 -0.04443,1.255246 -0.482666,3.038327 -1.909424,5.293087 -0.111755,0.176636 -0.216248,0.349732 -0.340576,0.532105 0.738281,0.996094 1.628906,1.768555 2.933594,2.310547 0.413086,0.127929 0.844665,0.25 1.309509,0.362304 0.626465,-0.919921 1.148926,-1.814453 1.590088,-2.69165 0.975586,-1.939941 1.510071,-3.786865 1.584717,-5.574947 0.1026,-2.283203 -0.621155,-4.38086 -1.804627,-6.018555 -1.105896,-1.484497 -2.317688,-2.640137 -3.59967,-3.570923 -0.300965,-0.218506 -0.605225,-0.426147 -0.913574,-0.620972 -0.631958,-0.398925 -1.27948,-0.74707 -1.936829,-1.062256 -0.493835,-0.236938 -0.993042,-0.45581 -1.497559,-0.656372 -0.497924,-0.197876 -1,-0.381469 -1.505188,-0.552856 -1.183838,-0.401611 -2.383117,-0.743897 -3.578491,-1.08252 -0.595398,-0.158447 -1.223511,-0.331787 -1.8656,-0.513427 -0.490418,-0.138794 -0.988648,-0.282715 -1.490906,-0.430664 -0.49231,-0.145264 -0.986206,-0.293335 -1.477112,-0.443848 -0.353821,-0.108398 -0.704224,-0.217529 -1.051697,-0.327148 -2.238281,-0.705811 -4.29834,-1.422242 -5.547302,-1.972413 -0.92627,-0.41101 -1.69165,-0.775756 -2.283447,-1.068603 -0.479432,-0.209351 -0.94989,-0.428955 -1.411988,-0.658203 -0.437317,0.437012 -3.567688,3.855835 2.486451,6.651611 3.223144,1.488648 4.420898,1.94043 7.751037,2.925293 0.455628,0.134766 0.955017,0.280762 1.501282,0.439453 0.07611,0.0221 0.145141,0.04224 0.223266,0.06494 0.415467,0.120605 0.845093,0.241699 1.280945,0.364013 0.05804,6.335694 0.219544,13.0957 -1.048523,15.520748 -1.705078,3.151368 -4.455078,4.22754 -9.99707,4.925782 -2.980408,0.375976 -4.244141,2.266601 -3.804626,3.415039 h 17.461914 0.231384 17.463932 c 0.438477,-1.148438 -0.824219,-3.039063 -3.804752,-3.415039 z"
     id="path6"
     inkscape:connector-curvature="0" /><path
     d="m 31.743003,20.83789 c 0,9.448 9.042542,17.325198 21.046692,19.116457 0.490784,0.07324 0.987488,0.133667 1.487793,0.18628 0.494568,0.052 0.994019,0.09229 1.49707,0.123413 0.728882,0.04517 1.464051,0.07385 2.208618,0.07385 0.863038,0 1.715516,-0.03296 2.55719,-0.09351 0.502198,-0.03613 1.000611,-0.08154 1.494141,-0.138427 0.500854,-0.05762 0.995605,-0.128662 1.486694,-0.207032 11.832279,-1.889526 20.702214,-9.703857 20.702214,-19.061037 z"
     id="path8"
     inkscape:connector-curvature="0" /><path
     d="M 109.51485,41.968856 H 81.105422 V 53.018251 H 109.51485 Z M 86.087061,52.088568 h -1.568814 v -9.191117 h 1.568814 z m 3.47179,0 h -1.568825 v -9.191117 h 1.568825 z m 3.471778,0 h -1.571276 v -9.191117 h 1.571276 z m 3.470559,0 h -1.568814 v -9.191117 h 1.568814 z m 3.471775,0 h -1.5688 v -9.191117 h 1.5688 z m 3.471797,0 h -1.57128 v -9.191117 h 1.57128 z m 3.46933,0 h -1.56882 v -9.191117 h 1.56882 z"
     id="path2-7"
     inkscape:connector-curvature="0"
     style="stroke-width:1.15713346" /><path
     d="M 108.07749,54.459096 H 82.542788 c -1.156025,0 -2.094621,0.833773 -2.094621,1.857188 v 32.186889 c 0,1.024505 0.938596,1.857188 2.094621,1.857188 h 25.534702 c 1.15603,0 2.09462,-0.832683 2.09462,-1.857188 V 56.316284 c 0,-1.023415 -0.93736,-1.857188 -2.09462,-1.857188 z m 1.0467,29.315006 H 81.497318 V 64.32377 h 27.626872 z"
     id="path4-9"
     inkscape:connector-curvature="0"
     style="stroke-width:1.15713346" /><path
     d="m 89.107979,74.948102 h 4.85386 v 4.30619 c 0,0.613613 0.561439,1.110607 1.253095,1.110607 h 0.194107 c 0.691645,0 1.253084,-0.496994 1.253084,-1.110607 v -4.30619 h 4.851395 c 0.69166,0 1.25309,-0.495903 1.25309,-1.109516 v -0.174385 c 0,-0.613612 -0.56143,-1.110607 -1.25309,-1.110607 h -4.851395 v -4.305098 c 0,-0.613614 -0.561439,-1.110608 -1.253084,-1.110608 h -0.194107 c -0.691656,0 -1.253095,0.496994 -1.253095,1.110608 v 4.305098 h -4.85386 c -0.689206,0 -1.250633,0.496995 -1.250633,1.110607 v 0.174385 c 0,0.613613 0.561427,1.109516 1.250633,1.109516 z"
     id="path6-3"
     inkscape:connector-curvature="0"
     style="stroke-width:1.15713346" /><path
     d="m 35.706107,60.395537 c -1.236161,-0.629751 -2.582237,-0.735904 -3.832492,-0.444699 0.944389,-1.790269 1.412339,-3.746939 1.453215,-5.707916 L 8.932163,56.024585 C 9.373344,58.698511 10.664476,61.21034 12.730838,63.1541 12.00071,62.984832 11.252245,62.867199 10.472782,62.867199 4.6993583,62.867199 0,67.646984 0,73.524175 c 0,2.315299 0.751277,4.446978 1.9902513,6.195648 L 16.936867,65.793599 c 1.302393,0.47052 2.680918,0.715821 4.101714,0.715821 2.169263,0 4.239856,-0.583846 6.068001,-1.632474 L 18.635335,82.02508 c -1.412335,2.860414 -0.277668,6.354881 2.53293,7.79513 l 0.118329,0.06025 c 2.813408,1.435942 6.247015,0.281164 7.659355,-2.57925 l 9.410005,-19.053167 c 1.41234,-2.858981 0.279085,-6.353447 -2.649918,-7.852509 z m 1.043037,7.031966 -4.317362,8.734734 -7.091339,-3.627875 4.314572,-8.737601 c 0.966926,-1.953804 3.318038,-2.747088 5.360412,-1.702764 1.921212,0.984073 2.699248,3.376836 1.733717,5.333506 z"
     id="path8-8"
     inkscape:connector-curvature="0"
     style="stroke-width:1.42196286" /><path
     d="m 28.702171,44.115281 c -2.203086,-1.771619 -4.845946,-2.708355 -7.648082,-2.708355 -3.795861,0 -7.325313,1.732888 -9.679222,4.762576 -1.709746,2.200537 -2.535727,4.809912 -2.610429,7.42072 L 33.142173,51.80569 c -0.500395,-2.930702 -1.970506,-5.699307 -4.440002,-7.690409 z"
     id="path10"
     inkscape:connector-curvature="0"
     style="stroke-width:1.42196286" /><path
     d="M 18.910191,67.272578 3.6224817,81.517264 c 1.8422474,1.63821 4.2201204,2.663883 6.8517003,2.663883 5.7706,0 10.46996,-4.782656 10.46996,-10.656972 0,-2.342559 -0.771017,-4.492885 -2.033951,-6.251597 z"
     id="path12"
     inkscape:connector-curvature="0"
     style="stroke-width:1.42196286" /></svg>