<?xml version="1.0" encoding="UTF-8" standalone="no"?>
<svg
   xmlns:dc="http://purl.org/dc/elements/1.1/"
   xmlns:cc="http://creativecommons.org/ns#"
   xmlns:rdf="http://www.w3.org/1999/02/22-rdf-syntax-ns#"
   xmlns:svg="http://www.w3.org/2000/svg"
   xmlns="http://www.w3.org/2000/svg"
   xmlns:sodipodi="http://sodipodi.sourceforge.net/DTD/sodipodi-0.dtd"
   xmlns:inkscape="http://www.inkscape.org/namespaces/inkscape"
   version="1.1"
   x="0px"
   y="0px"
   viewBox="0 0 39.5 50"
   xml:space="preserve"
   id="svg24"
   sodipodi:docname="noun_Doctor’s Office_1203835.svg"
   width="39.5"
   height="50"
   inkscape:version="0.92.2 5c3e80d, 2017-08-06"><metadata
     id="metadata30"><rdf:RDF><cc:Work
         rdf:about=""><dc:format>image/svg+xml</dc:format><dc:type
           rdf:resource="http://purl.org/dc/dcmitype/StillImage" /><dc:title></dc:title></cc:Work></rdf:RDF></metadata><defs
     id="defs28" /><sodipodi:namedview
     pagecolor="#ffffff"
     bordercolor="#666666"
     borderopacity="1"
     objecttolerance="10"
     gridtolerance="10"
     guidetolerance="10"
     inkscape:pageopacity="0"
     inkscape:pageshadow="2"
     inkscape:window-width="647"
     inkscape:window-height="558"
     id="namedview26"
     showgrid="false"
     fit-margin-top="0"
     fit-margin-left="0"
     fit-margin-right="0"
     fit-margin-bottom="0"
     inkscape:zoom="3.776"
     inkscape:cx="19.7"
     inkscape:cy="18.75"
     inkscape:window-x="0"
     inkscape:window-y="0"
     inkscape:window-maximized="0"
     inkscape:current-layer="svg24" /><g
     id="g18"
     transform="translate(-5.3)"><path
       d="M 17.5,16.7 H 12 c -0.5,0 -1,0.4 -1,1 v 4.5 c 0,0.5 0.4,1 1,1 h 5.6 c 0.5,0 1,-0.4 1,-1 v -4.5 c -0.1,-0.6 -0.5,-1 -1.1,-1 z m -1,4.5 H 13 v -2.5 h 3.6 v 2.5 z"
       id="path2"
       inkscape:connector-curvature="0" /><path
       d="m 38,16.7 h -5.6 c -0.5,0 -1,0.4 -1,1 v 4.5 c 0,0.5 0.4,1 1,1 H 38 c 0.5,0 1,-0.4 1,-1 v -4.5 c 0,-0.6 -0.4,-1 -1,-1 z m -1,4.5 H 33.4 V 18.7 H 37 Z"
       id="path4"
       inkscape:connector-curvature="0" /><path
       d="M 17.5,25.5 H 12 c -0.5,0 -1,0.4 -1,1 V 31 c 0,0.5 0.4,1 1,1 h 5.6 c 0.5,0 1,-0.4 1,-1 v -4.5 c -0.1,-0.5 -0.5,-1 -1.1,-1 z m -1,4.5 H 13 v -2.5 h 3.6 V 30 Z"
       id="path6"
       inkscape:connector-curvature="0" /><path
       d="m 38,25.5 h -5.6 c -0.5,0 -1,0.4 -1,1 V 31 c 0,0.5 0.4,1 1,1 H 38 c 0.5,0 1,-0.4 1,-1 v -4.5 c 0,-0.5 -0.4,-1 -1,-1 z M 37,30 H 33.4 V 27.5 H 37 Z"
       id="path8"
       inkscape:connector-curvature="0" /><path
       d="m 27.8,16.7 h -5.6 c -0.5,0 -1,0.4 -1,1 v 4.5 c 0,0.5 0.4,1 1,1 h 5.6 c 0.5,0 1,-0.4 1,-1 v -4.5 c 0,-0.6 -0.5,-1 -1,-1 z m -1,4.5 h -3.6 v -2.5 h 3.6 z"
       id="path10"
       inkscape:connector-curvature="0" /><path
       d="m 27.8,25.5 h -5.6 c -0.5,0 -1,0.4 -1,1 V 31 c 0,0.5 0.4,1 1,1 h 5.6 c 0.5,0 1,-0.4 1,-1 v -4.5 c 0,-0.5 -0.5,-1 -1,-1 z m -1,4.5 h -3.6 v -2.5 h 3.6 z"
       id="path12"
       inkscape:connector-curvature="0" /><path
       d="M 43.7,48 H 43 V 5.5 C 43,5 42.6,4.5 42,4.5 H 36.3 V 2 h 1.3 c 0.5,0 1,-0.4 1,-1 0,-0.6 -0.4,-1 -1,-1 -8.6,0 -17,0 -25.5,0 -0.5,0 -1,0.4 -1,1 0,0.6 0.4,1 1,1 h 1.3 V 4.5 H 7.9 c -0.5,0 -1,0.4 -1,1 V 48 H 6.3 c -0.5,0 -1,0.4 -1,1 0,0.5 0.4,1 1,1 33,0 -38.1,0 37.5,0 0.5,0 1,-0.4 1,-1 -0.1,-0.5 -0.5,-1 -1.1,-1 z M 15.6,2 H 34.4 V 4.5 H 15.6 Z m 1.6,46 V 36.3 H 24 V 48 Z M 26,48 V 36.3 h 6.9 V 48 Z m 8.8,0 V 35.4 c 0,-0.5 -0.4,-1 -1,-1 H 16.2 c -0.5,0 -1,0.4 -1,1 V 48 H 8.9 V 6.5 c 39,0 -8.2,0 32.2,0 V 48 Z"
       id="path14"
       inkscape:connector-curvature="0" /><path
       d="m 22.3,12 h 1.4 v 1.4 c 0,0.5 0.4,1 1,1 0.5,0 1,-0.4 1,-1 V 12 H 27 c 0.5,0 1,-0.4 1,-1 0,-0.6 -0.4,-1 -1,-1 H 25.6 V 8.6 c 0,-0.5 -0.4,-1 -1,-1 -0.5,0 -1,0.4 -1,1 V 10 h -1.4 c -0.5,0 -1,0.4 -1,1 0,0.6 0.5,1 1.1,1 z"
       id="path16"
       inkscape:connector-curvature="0" /></g></svg>