<?xml version="1.0" encoding="UTF-8" standalone="no"?>
<svg
   xmlns:dc="http://purl.org/dc/elements/1.1/"
   xmlns:cc="http://creativecommons.org/ns#"
   xmlns:rdf="http://www.w3.org/1999/02/22-rdf-syntax-ns#"
   xmlns:svg="http://www.w3.org/2000/svg"
   xmlns="http://www.w3.org/2000/svg"
   xmlns:sodipodi="http://sodipodi.sourceforge.net/DTD/sodipodi-0.dtd"
   xmlns:inkscape="http://www.inkscape.org/namespaces/inkscape"
   version="1.1"
   x="0px"
   y="0px"
   viewBox="0 0 80.817001 90"
   enable-background="new 0 0 100 100"
   xml:space="preserve"
   id="svg10"
   sodipodi:docname="noun_Garbage_707372.svg"
   width="80.817001"
   height="90"
   inkscape:version="0.92.2 5c3e80d, 2017-08-06"><metadata
     id="metadata16"><rdf:RDF><cc:Work
         rdf:about=""><dc:format>image/svg+xml</dc:format><dc:type
           rdf:resource="http://purl.org/dc/dcmitype/StillImage" /><dc:title></dc:title></cc:Work></rdf:RDF></metadata><defs
     id="defs14" /><sodipodi:namedview
     pagecolor="#ffffff"
     bordercolor="#666666"
     borderopacity="1"
     objecttolerance="10"
     gridtolerance="10"
     guidetolerance="10"
     inkscape:pageopacity="0"
     inkscape:pageshadow="2"
     inkscape:window-width="957"
     inkscape:window-height="719"
     id="namedview12"
     showgrid="false"
     fit-margin-top="0"
     fit-margin-left="0"
     fit-margin-right="0"
     fit-margin-bottom="0"
     inkscape:zoom="1.888"
     inkscape:cx="40.408"
     inkscape:cy="32.5"
     inkscape:window-x="0"
     inkscape:window-y="0"
     inkscape:window-maximized="0"
     inkscape:current-layer="svg10" /><path
     d="M 78.978,13.775 H 58.496 V 1.837 C 58.496,0.822 57.674,0 56.659,0 H 24.157 C 23.142,0 22.32,0.822 22.32,1.837 V 13.775 H 1.837 C 0.822,13.775 0,14.597 0,15.612 v 5.51 c 0,1.015 0.822,1.837 1.837,1.837 H 78.98 c 1.015,0 1.837,-0.822 1.837,-1.837 v -5.51 c -10e-4,-1.014 -0.823,-1.837 -1.839,-1.837 z m -25.713,0 H 27.551 V 7.714 h 25.714 z"
     id="path2"
     inkscape:connector-curvature="0" /><path
     d="m 7.347,82.652 c 0,4.059 3.288,7.348 7.347,7.348 h 51.428 c 4.06,0 7.347,-3.289 7.347,-7.348 V 27.551 H 7.347 Z M 55.101,40.408 c 0,-1.014 0.822,-1.837 1.836,-1.837 h 3.675 c 1.015,0 1.837,0.823 1.837,1.837 v 36.734 c 0,1.015 -0.822,1.836 -1.837,1.836 h -3.675 c -1.014,0 -1.836,-0.821 -1.836,-1.836 z m -18.367,0 c 0,-1.014 0.822,-1.837 1.837,-1.837 h 3.674 c 1.015,0 1.837,0.823 1.837,1.837 v 36.734 c 0,1.015 -0.822,1.836 -1.837,1.836 h -3.674 c -1.015,0 -1.837,-0.821 -1.837,-1.836 z m -18.367,0 c 0,-1.014 0.822,-1.837 1.837,-1.837 h 3.674 c 1.014,0 1.837,0.823 1.837,1.837 v 36.734 c 0,1.015 -0.823,1.836 -1.837,1.836 h -3.674 c -1.015,0 -1.837,-0.821 -1.837,-1.836 z"
     id="path4"
     inkscape:connector-curvature="0" /></svg>