<?xml version="1.0" encoding="UTF-8" standalone="no"?>
<svg
   xmlns:dc="http://purl.org/dc/elements/1.1/"
   xmlns:cc="http://creativecommons.org/ns#"
   xmlns:rdf="http://www.w3.org/1999/02/22-rdf-syntax-ns#"
   xmlns:svg="http://www.w3.org/2000/svg"
   xmlns="http://www.w3.org/2000/svg"
   xmlns:sodipodi="http://sodipodi.sourceforge.net/DTD/sodipodi-0.dtd"
   xmlns:inkscape="http://www.inkscape.org/namespaces/inkscape"
   version="1.1"
   x="0px"
   y="0px"
   viewBox="0 0 88 88.000023"
   id="svg10"
   sodipodi:docname="noun_Bank_1205630.svg"
   width="88"
   height="88.000023"
   inkscape:version="0.92.2 5c3e80d, 2017-08-06">
  <metadata
     id="metadata16">
    <rdf:RDF>
      <cc:Work
         rdf:about="">
        <dc:format>image/svg+xml</dc:format>
        <dc:type
           rdf:resource="http://purl.org/dc/dcmitype/StillImage" />
        <dc:title></dc:title>
      </cc:Work>
    </rdf:RDF>
  </metadata>
  <defs
     id="defs14" />
  <sodipodi:namedview
     pagecolor="#ffffff"
     bordercolor="#666666"
     borderopacity="1"
     objecttolerance="10"
     gridtolerance="10"
     guidetolerance="10"
     inkscape:pageopacity="0"
     inkscape:pageshadow="2"
     inkscape:window-width="986"
     inkscape:window-height="716"
     id="namedview12"
     showgrid="false"
     fit-margin-top="0"
     fit-margin-left="0"
     fit-margin-right="0"
     fit-margin-bottom="0"
     inkscape:zoom="1.888"
     inkscape:cx="44"
     inkscape:cy="31.50002"
     inkscape:window-x="0"
     inkscape:window-y="0"
     inkscape:window-maximized="0"
     inkscape:current-layer="svg10" />
  <g
     transform="translate(-6,-958.36218)"
     id="g4">
    <path
       style="color:#000000;text-indent:0;text-transform:none;direction:ltr;baseline-shift:baseline;display:inline;overflow:visible;visibility:visible;fill:#000000;fill-opacity:1;stroke:none;enable-background:accumulate"
       d="m 49.84375,958.3699 a 2.0002,2.0000245 0 0 0 -0.65625,0.15624 l -38,16.99851 A 2.0002,2.0000245 0 0 0 10,977.36824 v 7.99929 a 2.0002,2.0000245 0 0 0 2,1.99983 h 3 v 7.9993 a 2.0002,2.0000245 0 0 0 2,1.99982 h 1 v 19.99822 h -1 a 2.0002,2.0000245 0 0 0 -2,1.9998 v 7.9993 h -1 a 2.0001999,2.0000244 0 0 0 -0.1875,0 2.0001999,2.0000244 0 0 0 -1.65625,1.2499 l -1.71875,4.3122 -3.34375,1.6561 A 2.0001999,2.0000244 0 0 0 6,1036.3631 v 7.9993 a 2.0001999,2.0000244 0 0 0 2,1.9998 h 42 42 a 2.0001999,2.0000244 0 0 0 2,-1.9998 v -7.9993 a 2.0001999,2.0000244 0 0 0 -1.09375,-1.7811 l -3.34375,-1.6561 -1.71875,-4.3122 A 2.0001999,2.0000244 0 0 0 86,1027.3638 h -1 v -7.9993 a 2.0002,2.0000245 0 0 0 -2,-1.9998 h -1 v -19.99822 h 1 a 2.0002,2.0000245 0 0 0 2,-1.99982 v -7.9993 h 3 a 2.0002,2.0000245 0 0 0 2,-1.99983 v -7.99929 a 2.0002,2.0000245 0 0 0 -1.1875,-1.84359 l -38,-16.99851 A 2.0002,2.0000245 0 0 0 49.84375,958.3699 Z M 50,962.55704 86,978.64937 v 4.71834 H 83 66.8125 33.15625 16.8125 14 v -4.71834 z m -31,24.81032 h 12 v 5.99947 h -1 a 2.0002,2.0000245 0 0 0 -2,1.99983 v 23.99784 a 2.0002,2.0000245 0 0 0 2,1.9999 h 1 v 5.9994 H 19 v -5.9994 h 1 a 2.0002,2.0000245 0 0 0 2,-1.9999 v -23.99784 a 2.0002,2.0000245 0 0 0 -2,-1.99983 h -1 z m 16,0 h 8.65625 c -3.325069,1.05382 -6.27438,2.90607 -8.65625,5.34328 z m 21.34375,0 H 65 v 5.34328 c -2.38187,-2.43721 -5.331181,-4.28946 -8.65625,-5.34328 z m 12.65625,0 h 12 v 5.99947 h -1 a 2.0002,2.0000245 0 0 0 -2,1.99983 v 23.99784 a 2.0002,2.0000245 0 0 0 2,1.9999 h 1 v 5.9994 H 69 v -5.9994 h 1 a 2.0002,2.0000245 0 0 0 2,-1.9999 v -23.99784 a 2.0002,2.0000245 0 0 0 -2,-1.99983 h -1 z m -19,2.99973 c 9.41253,0 17,7.58679 17,16.99851 0,9.4117 -7.58747,16.9985 -17,16.9985 -9.41253,0 -17,-7.5868 -17,-16.9985 0,-9.41172 7.58747,-16.99851 17,-16.99851 z m -0.21875,3.96841 A 2.0001999,2.0000244 0 0 0 48,996.36657 v 1.09365 c -2.917058,0.49035 -5,3.07808 -5,5.90578 0,3.4084 3.194003,5.9994 7,5.9994 2.229489,-10e-5 3,0.9766 3,1.9999 0,1.2905 -0.503846,1.9998 -2,1.9998 h -6 a 2.0001999,2.0000244 0 1 0 0,3.9996 h 3 v 0.9999 a 2.0001999,2.0000244 0 1 0 4,0 v -1.0936 c 2.915371,-0.4917 5,-3.0791 5,-5.9057 0,-3.4084 -3.193929,-5.9996 -7,-5.9995 -2.229563,0 -3,-0.9766 -3,-1.9998 0,-1.2906 0.50384,-1.9999 2,-1.9999 h 6 a 2.0001999,2.0000244 0 1 0 0,-3.99962 h -3 v -0.99991 A 2.0001999,2.0000244 0 0 0 49.78125,994.3355 Z M 35,1022.0206 c 2.38187,2.4372 5.331181,4.2894 8.65625,5.3432 H 35 Z m 30,0 v 5.3432 h -8.65625 c 3.325069,-1.0538 6.27438,-2.906 8.65625,-5.3432 z m -49.65625,9.3429 H 50 84.65625 l 1.1875,2.9997 H 14.15625 Z M 10,1038.3629 h 80 v 3.9996 H 50 10 Z"
       marker="none"
       visibility="visible"
       display="inline"
       overflow="visible"
       id="path2"
       inkscape:connector-curvature="0" />
  </g>
</svg>
