<?xml version="1.0" encoding="UTF-8" standalone="no"?>
<svg
   xmlns:dc="http://purl.org/dc/elements/1.1/"
   xmlns:cc="http://creativecommons.org/ns#"
   xmlns:rdf="http://www.w3.org/1999/02/22-rdf-syntax-ns#"
   xmlns:svg="http://www.w3.org/2000/svg"
   xmlns="http://www.w3.org/2000/svg"
   xmlns:sodipodi="http://sodipodi.sourceforge.net/DTD/sodipodi-0.dtd"
   xmlns:inkscape="http://www.inkscape.org/namespaces/inkscape"
   version="1.0"
   x="0px"
   y="0px"
   viewBox="0 0 100.00001 61.33875"
   enable-background="new 0 0 100 61.21"
   xml:space="preserve"
   id="svg16"
   sodipodi:docname="noun_Ground Transportation_59_000000.svg"
   width="100.00002"
   height="61.338749"
   inkscape:version="0.92.2 5c3e80d, 2017-08-06"><metadata
     id="metadata22"><rdf:RDF><cc:Work
         rdf:about=""><dc:format>image/svg+xml</dc:format><dc:type
           rdf:resource="http://purl.org/dc/dcmitype/StillImage" /><dc:title></dc:title></cc:Work></rdf:RDF></metadata><defs
     id="defs20" /><sodipodi:namedview
     pagecolor="#ffffff"
     bordercolor="#666666"
     borderopacity="1"
     objecttolerance="10"
     gridtolerance="10"
     guidetolerance="10"
     inkscape:pageopacity="0"
     inkscape:pageshadow="2"
     inkscape:window-width="918"
     inkscape:window-height="712"
     id="namedview18"
     showgrid="false"
     fit-margin-top="0"
     fit-margin-left="0"
     fit-margin-right="0"
     fit-margin-bottom="0"
     inkscape:zoom="3.24"
     inkscape:cx="50.000018"
     inkscape:cy="18.388073"
     inkscape:window-x="-2"
     inkscape:window-y="0"
     inkscape:window-maximized="0"
     inkscape:current-layer="svg16" /><path
     d="m 42.755018,35.892 -3.838,-9.787 c -0.746,-1.847 -2.32,-3.435 -5.278,-3.456 h -5.47 v -2.544 c 0.005,-1.004 -0.555,-1.522 -1.44,-1.534 h -3.214 -3.167 c -0.907,0.011 -1.465,0.529 -1.487,1.534 v 2.544 h -5.521 c -2.946,0.021 -4.5210003,1.609 -5.2290003,3.456 l -3.887,9.787 c -1.523,0.182 -4.23200002,1.944 -4.224000020987,5.28 V 53.6 H 3.7430177 v 3.98 c 0.004,4.868 7.0610003,4.811 7.0540003,0 V 53.6 h 12.716 12.668 v 3.98 c 0.007,4.811 7.063,4.868 7.053,0 V 53.6 h 3.791 V 41.172 c -0.025,-3.336 -2.735,-5.098 -4.27,-5.28 z M 7.3910177,46.018 c -1.804,-0.018 -3.262,-1.494 -3.264,-3.313 0.002,-1.816 1.46,-3.292 3.264,-3.31 1.796,0.018 3.2550003,1.493 3.2620003,3.31 -0.007,1.819 -1.4660003,3.295 -3.2620003,3.313 z M 23.513018,35.652 h -0.047 -15.2610003 l 2.9280003,-7.534 c 0.367,-1.102 0.913,-1.881 2.207,-1.872 h 10.126 0.047 10.172 c 1.259,-0.009 1.805,0.771 2.16,1.872 l 2.928,7.534 z m 16.074,10.366 c -1.784,-0.018 -3.244,-1.493 -3.263,-3.312 0.019,-1.816 1.479,-3.292 3.263,-3.31 1.815,0.018 3.275,1.493 3.264,3.31 0.011,1.818 -1.449,3.294 -3.264,3.312 z"
     id="path2"
     inkscape:connector-curvature="0" /><path
     d="M 39.587018,42.705"
     id="path4"
     inkscape:connector-curvature="0" /><path
     d="M 92.082018,42.033"
     id="path6"
     inkscape:connector-curvature="0" /><path
     d="M 57.101018,42.033"
     id="path8"
     inkscape:connector-curvature="0" /><g
     id="g14"
     transform="translate(1.7679013e-5)"><path
       d="m 74.328,0 c 0.087,0 0.178,0.005 0.266,0.005 C 74.679,0.005 74.77,0 74.857,0 Z"
       id="path10"
       inkscape:connector-curvature="0" /><path
       d="M 97.553,9.07 C 96.852,5.687 94.657,4.337 91.363,2.973 88.119,1.655 80.353,0.064 74.594,0.005 68.842,0.064 61.076,1.655 57.822,2.973 54.541,4.337 52.344,5.687 51.679,9.07 L 49.184,27.781 V 53.6 h 4.27 v 4.03 c -0.013,4.945 7.318,4.945 7.342,0 V 53.6 h 13.532 14.107 v 4.03 c -0.015,4.945 7.316,4.945 7.294,0 V 53.6 H 100 V 27.781 Z M 64.156,4.751 h 10.172 10.701 c 2.08,-0.008 2.08,3.03 0,3.022 H 74.328 64.156 c -2.071,0.008 -2.071,-3.03 0,-3.022 z m -7.055,40.737 c -1.932,0.02 -3.506,-1.533 -3.502,-3.455 -0.004,-1.905 1.57,-3.454 3.502,-3.454 1.952,0 3.527,1.549 3.503,3.454 0.024,1.922 -1.551,3.475 -3.503,3.455 z M 74.328,29.75 H 55.711 c -1.84,0.014 -2.223,-1.277 -2.064,-2.591 l 1.92,-13.58 c 0.287,-1.64 0.855,-2.728 3.022,-2.734 h 15.739 16.266 c 2.179,0.006 2.749,1.094 3.023,2.734 l 1.921,13.58 c 0.17,1.314 -0.214,2.604 -2.065,2.591 z m 17.754,15.738 c -1.94,0.02 -3.515,-1.533 -3.504,-3.455 -0.011,-1.905 1.563,-3.454 3.504,-3.454 1.945,0 3.519,1.549 3.503,3.454 0.016,1.922 -1.558,3.475 -3.503,3.455 z"
       id="path12"
       inkscape:connector-curvature="0" /></g></svg>