<?xml version="1.0" encoding="UTF-8" standalone="no"?>
<svg
   xmlns:dc="http://purl.org/dc/elements/1.1/"
   xmlns:cc="http://creativecommons.org/ns#"
   xmlns:rdf="http://www.w3.org/1999/02/22-rdf-syntax-ns#"
   xmlns:svg="http://www.w3.org/2000/svg"
   xmlns="http://www.w3.org/2000/svg"
   xmlns:sodipodi="http://sodipodi.sourceforge.net/DTD/sodipodi-0.dtd"
   xmlns:inkscape="http://www.inkscape.org/namespaces/inkscape"
   version="1.1"
   x="0px"
   y="0px"
   viewBox="0 0 90 85.083893"
   enable-background="new 0 0 100 100"
   xml:space="preserve"
   id="svg8"
   sodipodi:docname="noun_Mail_79688.svg"
   width="90"
   height="85.083893"
   inkscape:version="0.92.2 5c3e80d, 2017-08-06"><metadata
     id="metadata14"><rdf:RDF><cc:Work
         rdf:about=""><dc:format>image/svg+xml</dc:format><dc:type
           rdf:resource="http://purl.org/dc/dcmitype/StillImage" /><dc:title></dc:title></cc:Work></rdf:RDF></metadata><defs
     id="defs12" /><sodipodi:namedview
     pagecolor="#ffffff"
     bordercolor="#666666"
     borderopacity="1"
     objecttolerance="10"
     gridtolerance="10"
     guidetolerance="10"
     inkscape:pageopacity="0"
     inkscape:pageshadow="2"
     inkscape:window-width="994"
     inkscape:window-height="716"
     id="namedview10"
     showgrid="false"
     fit-margin-top="0"
     fit-margin-left="0"
     fit-margin-right="0"
     fit-margin-bottom="0"
     inkscape:zoom="3.776"
     inkscape:cx="44"
     inkscape:cy="29.584"
     inkscape:window-x="0"
     inkscape:window-y="0"
     inkscape:window-maximized="0"
     inkscape:current-layer="svg8" /><path
     d="m 7.804,22.459894 c 0.503,-2.075 2.204,-3.615 4.353,-4.017 0.366,-0.068 0.752,-0.105 1.142,-0.105 h 0.153 5.279 l 0.272,-10e-4 h 0.807 l -0.06,10e-4 h 0.013 0.083 c 6.731,-5.242 12.647,-10.2430002 19.378,-15.4860002 5.072,-3.78700001 6.786,-3.81400001 11.689,-0.012 6.649,5.099 13.017,10.3990002 19.667,15.4970002 h 0.403 l 0.272,10e-4 h 5.279 0.153 c 0.389,0 0.778,0.037 1.143,0.105 2.149,0.402 3.85,1.942 4.352,4.017 h -0.157 c 0.026,0.104 0.05,0.211 0.069,0.317 0.056,0.317 0.089,0.652 0.089,0.993 v 3.085 3.444 c 4.34,0.237 7.817,3.866 7.817,8.258 v 38.257 c 0,1.707 -0.527,3.297 -1.425,4.62 l -31.29,-19.505 -0.056,-0.034 v -10e-4 c -1.243,-0.775 -2.877,-0.396 -3.652,0.848 -0.774,1.243 -0.396,2.877 0.848,3.652 l 0.029,0.016 29.475,18.371 c -0.701,0.196 -1.437,0.303 -2.199,0.303 H 8.271 c -0.71,0 -1.398,-0.092 -2.057,-0.263 l 29.541,-18.413 0.019,-0.011 c 1.255,-0.779 1.636,-2.409 0.854,-3.656 -0.771,-1.238 -2.411,-1.621 -3.653,-0.854 v 0 l -0.056,0.04 -31.433,19.595 C 0.551,80.182894 0,78.560894 0,76.813894 v -38.257 c 0,-4.393 3.469,-8.014 7.803,-8.259 v -3.444 -3.084 c 0,-0.341 0.032,-0.676 0.088,-0.993 0.019,-0.107 0.04,-0.213 0.066,-0.317 z m 70.416,4.394 c 0,-2.936 -0.718,-4.275 -3.91,-4.395 h -0.005 l -0.159,-0.004 -0.328,-0.004 h -0.748 -0.153 -0.74 -0.153 -0.737 -0.153 -0.729 -0.153 c -16.548,0 -33.096,0 -49.643,0 h -0.153 -0.724 -0.153 -0.73 -0.153 -0.735 -0.153 -0.74 -0.153 -0.744 l -0.493,0.008 c -3.196,0.119 -3.91,1.457 -3.91,4.395 0,3.044 0,6.09 0,9.134 v 3.032 l -5.647,-0.047 c 10.628,5.542 21.257,11.084 31.886,16.625 6.527,3.105 7.453,3.081 14.553,-0.214 10.486,-5.257 20.973,-10.512 31.459,-15.768 l -5.885,-0.052 c -0.002,-4.335 0.086,-8.445 0.086,-12.71 z m -13.692,15.164 H 64.479 25.428 25.377 l -10e-4,-10e-4 c -1.077,0 -1.948,0.871 -1.948,1.948 0,1.079 0.871,1.95 1.948,1.95 l 0.026,-10e-4 h 39.103 l 0.024,10e-4 c 1.077,0 1.95,-0.872 1.95,-1.95 0,-1.077 -0.872,-1.949 -1.95,-1.949 v 0.002 z m 0,-11.745 H 64.479 25.428 25.377 l -10e-4,-0.001 c -1.077,0 -1.948,0.871 -1.948,1.948 0,1.079 0.871,1.95 1.948,1.95 l 0.026,-10e-4 h 39.103 l 0.024,10e-4 c 1.077,0 1.95,-0.872 1.95,-1.949 0,-1.077 -0.872,-1.95 -1.95,-1.95 v 0.002 z"
     id="path2"
     inkscape:connector-curvature="0"
     style="clip-rule:evenodd;fill-rule:evenodd" /></svg>