<svg xmlns="http://www.w3.org/2000/svg" xmlns:xlink="http://www.w3.org/1999/xlink" version="1.1" x="0px" y="0px" viewBox="0 0 265.689 291.78125" style="enable-background:new 0 0 265.689 233.425;" xml:space="preserve"><g><g><ellipse transform="matrix(0.9739 -0.2268 0.2268 0.9739 -4.1812 8.6105)" cx="35.378" cy="22.5" rx="22.495" ry="22.494"/><path d="M45.025,63.735c0-0.242-0.002-0.373-0.004-0.424c-0.075-2.086,0.495-4.046,1.527-5.691    c1.699-2.706,4.655-4.555,8.071-4.69c0.134-0.006,0.267-0.008,0.398-0.008c5.389,0,9.774,4.221,9.986,9.607    c0.004,0.089,0.017,0.45,0.019,1.018c0,0.052,0.001,0.094,0.001,0.149c-0.011,3.452-0.382,10.402-2.738,18.237    c-3.354,11.082-9.351,19.549-17.828,25.173c-0.112,0.075-0.229,0.144-0.342,0.217c0.213,4.738,0.108,9.441-0.495,13.944    c-0.113,1.913-0.13,3.574-0.058,5.031c-10.16,15.235-26.388,46.381-30.025,93.663c-0.529,6.885,4.622,12.894,11.505,13.425    c0.326,0.025,0.65,0.037,0.972,0.037c6.469,0,11.947-4.985,12.451-11.542c2.123-27.553,8.953-48.574,15.734-63.335    c0.851,2.237,1.826,4.507,2.946,6.788c3.993,8.068,9.962,16.269,18.646,22.851c8.661,6.599,19.94,11.386,33.602,13.132    c6.847,0.887,13.115-3.942,14.003-10.789c0.889-6.845-3.943-13.115-10.787-14.002h-0.002c-9.843-1.301-16.574-4.393-21.707-8.258    c-7.624-5.77-12.036-13.936-14.557-22.162c-1.755-5.703-2.477-11.263-2.749-15.283c2.616-2.639,4.685-6.502,5.78-12.141    c2.223-19.096,1.442-31.49-3.14-47.406c1.043,1.189,2.023,2.507,2.907,4.004c2.645,4.514,4.597,10.682,4.609,19.69    c0.002,2.441-0.146,5.086-0.472,7.952c-0.498,4.39,2.659,8.351,7.05,8.849c0.306,0.035,0.61,0.051,0.91,0.051    c4.016,0.001,7.478-3.017,7.94-7.102c0.385-3.416,0.572-6.661,0.572-9.75C99.77,83.246,97,73.749,92.518,66.475    C85.774,55.503,75.69,50.102,67.749,47.534c-8.005-2.591-14.189-2.6-14.733-2.611c-1.194,0-2.323,0.269-3.341,0.737    c-0.66,0.082-1.306,0.197-1.929,0.352c-8.536,2.128-12.29,14.04-9.42,23.992c0.716,3.655,1.575,7.732,2.414,12.057    c0.078-0.147,0.16-0.286,0.236-0.436C44.454,74.853,45.079,66.416,45.025,63.735z"/><path d="M6.714,111.318c4.113,0.671,7.98,0.995,11.62,0.995c0.04,0,0.081,0,0.122,0c10.066,0,18.46-2.598,24.897-6.873    c0.219-0.145,0.422-0.3,0.636-0.448c9.318-6.456,14.005-15.776,16.382-23.633c2.438-8.103,2.644-15.027,2.654-17.661    c0-0.399-0.005-0.686-0.01-0.873c-0.003-0.102-0.006-0.183-0.007-0.217c-0.174-4.414-3.895-7.852-8.309-7.678    c-2.931,0.115-5.423,1.798-6.722,4.206c-0.654,1.212-1.011,2.604-0.957,4.08H47.02c0.002,0.025,0.006,0.193,0.006,0.483    c0.043,2.163-0.408,11.323-4.266,18.832c-0.442,0.873-0.927,1.719-1.448,2.539c-1.735,2.728-3.93,5.135-6.779,7.02    c-3.724,2.437-8.688,4.202-16.198,4.223c-2.69,0.002-5.697-0.239-9.044-0.785c-4.362-0.711-8.474,2.248-9.185,6.609    C-0.605,106.496,2.352,110.608,6.714,111.318z"/></g><g><path d="M178.379,157.122c-2.087,2.359-4.034,4.646-5.843,6.861c1.812-0.89,3.648-1.914,5.501-3.21    C178.266,160.112,178.622,158.728,178.379,157.122z"/><path d="M218.789,147.246c-5.91-4.668,6.559-9.811,14.297-17.906c7.741-8.094-10.091-13.111-13.309-10.133    c-2.818,2.609-9.152,4.293-12.767-1.828c-3.612-6.119-29.451-1.369-16.682,4.102c15.332,6.568,15.332,21.26,15.332,21.26    c-0.879,0.636-1.742,1.2-2.592,1.714c0.564,0.573,1.022,1.215,1.328,1.93c0.525,1.229,1.007,3.707-1.661,6.499    c-2.304,2.409-4.777,4.142-6.766,5.533c-1.178,0.823-2.752,1.93-3.148,2.511c0.086,0.115,0.266,0.313,0.62,0.592    c0.15,0.121,15.466,12.48,21.193,23.049c6.137,11.323,12.72,26.811,9.23,36.287c-1.201,3.264-3.485,5.564-6.787,6.839    c-4.282,1.654-8.464,3.036-12.569,4.154c13.884,0.794,29.86-1.328,47.691-8.217c16.574-6.403,4.359-34.94-4.416-51.134    C241.303,160.537,221.301,149.231,218.789,147.246z M230.668,126.561c-3.452,6.438-10.933,10.117-11.037,7.873    c-0.133-2.85,9.873-5.863,7.842-8.344c-2.25-2.75-5.625-3-8.437-3.75C219.035,122.34,234.473,119.465,230.668,126.561z     M191.244,119.854c2.464-6.363,14.487-1.354,14.487-1.354S196.628,118.472,191.244,119.854z"/><path d="M216.359,225.83c13.066-5.047,3.437-27.543-3.48-40.309c-5.111-9.428-18.697-20.867-20.677-22.432    c-4.659-3.68,2.988-5.207,9.088-11.59c2.32-2.426,1.724-4.5-0.043-6.011c-0.556-0.475-1.223-0.895-1.956-1.253    c-3.069-1.496-7.223-1.899-8.492-0.724c-2.222,2.057-7.215,3.384-10.063-1.441c-2.848-4.823-18.767,1.581-8.7,5.894    c3.7,1.585,5.846,3.521,7.048,5.445c0.401,0.643,0.701,1.283,0.914,1.91c1.23,3.623-0.326,6.745-0.326,6.745    c-3.394,2.455-6.751,4.019-9.898,5.379c-1.288,0.557-2.542,1.083-3.746,1.618c-3.27,1.453-6.184,2.997-8.49,5.57    c-24.373,27.19-25.004,49.421-10,53.667c12.635,3.576,26.633,6.864,44.857,4.091c1.928-0.294,3.906-0.659,5.932-1.095    C203.927,230.09,209.91,228.322,216.359,225.83z M218.646,215.012c3.172-9.193,0.847,17.248-12.105,4.797    C206.54,219.809,215.474,224.203,218.646,215.012z M170.974,145.856c4.313-8.474,10.313,0.026,10.313,0.026    S175.453,142.299,170.974,145.856z M193.092,146.686c-0.973-0.276-1.963-0.459-2.878-0.703c0,0,3.293-0.611,6.031-0.413    c1.238,0.09,2.359,0.346,3.015,0.9c0.681,0.576,0.857,1.471,0.124,2.838c-2.721,5.074-10.162,7.207-8.7,6.207    c4.644-3.176,7.783-4.622,6.182-6.578c-0.344-0.421-0.73-0.75-1.131-1.039C194.922,147.313,194.019,146.948,193.092,146.686z     M162.432,174.124c1.387-1.095,2.864-1.992,4.363-2.73c7.17-3.531,14.784-3.392,14.784-3.392    c-9.997,1.709-14.586,5.004-19.783,10.769c-1.931,2.142-3.949,4.627-6.356,7.497c-0.196,0.234-0.392,0.467-0.594,0.707    C155.937,181.013,158.88,176.929,162.432,174.124z"/><path d="M163.808,61.707c0.295,0.146,0.591,0.296,0.887,0.446c0.109,0.056,0.227,0.083,0.341,0.083    c0.272,0,0.536-0.149,0.669-0.407c0.188-0.369,0.043-0.82-0.326-1.009c-0.301-0.154-0.6-0.307-0.9-0.455    c-0.371-0.187-0.822-0.037-1.007,0.335C163.286,61.071,163.437,61.522,163.808,61.707z"/><path d="M165.393,112.816c0.2,0.273,0.403,0.543,0.609,0.814c0.146,0.192,0.369,0.294,0.595,0.294c0.159,0,0.32-0.05,0.456-0.154    c0.328-0.252,0.391-0.724,0.14-1.052c-0.2-0.262-0.397-0.524-0.589-0.788c-0.245-0.333-0.715-0.406-1.05-0.161    C165.221,112.01,165.147,112.481,165.393,112.816z"/><path d="M162.283,107.484c0.131,0.32,0.272,0.638,0.423,0.956c0.127,0.27,0.396,0.427,0.677,0.427    c0.108,0,0.218-0.023,0.322-0.073c0.376-0.178,0.534-0.627,0.356-1.001h-0.002c-0.138-0.289-0.267-0.581-0.385-0.873    c-0.157-0.385-0.595-0.569-0.977-0.413C162.313,106.662,162.127,107.1,162.283,107.484z"/><path d="M165.446,95.692c-0.274-0.31-0.749-0.335-1.059-0.058c-0.267,0.238-0.521,0.49-0.763,0.749    c-0.281,0.305-0.264,0.779,0.041,1.061c0.145,0.132,0.327,0.198,0.51,0.198c0.202,0,0.403-0.081,0.551-0.241    c0.206-0.223,0.428-0.44,0.662-0.648C165.697,96.475,165.724,96.001,165.446,95.692z"/><path d="M152.853,56.992c0.301,0.109,0.61,0.223,0.932,0.343c0.087,0.033,0.176,0.048,0.263,0.048    c0.303,0,0.589-0.187,0.702-0.488c0.146-0.387-0.052-0.82-0.44-0.964h0.002c-0.326-0.122-0.642-0.238-0.949-0.35    c-0.391-0.139-0.82,0.061-0.96,0.451C152.26,56.422,152.462,56.852,152.853,56.992z"/><path d="M162.018,103.078c0.004,0,0.008,0.001,0.012,0.001c0.409,0,0.741-0.329,0.748-0.739c0.004-0.32,0.025-0.623,0.06-0.915    c0.052-0.412-0.242-0.786-0.652-0.835c-0.412-0.052-0.786,0.242-0.837,0.652c-0.041,0.348-0.064,0.707-0.069,1.076    C161.272,102.732,161.603,103.071,162.018,103.078z"/><path d="M158.395,59.197c0.301,0.129,0.605,0.262,0.913,0.397c0.098,0.044,0.2,0.064,0.302,0.064c0.287,0,0.562-0.167,0.686-0.449    c0.168-0.378-0.004-0.82-0.382-0.988c-0.311-0.137-0.618-0.272-0.924-0.403c-0.382-0.164-0.822,0.011-0.987,0.393    C157.839,58.591,158.015,59.031,158.395,59.197z"/><path d="M169.06,94.207c0.117,0,0.237-0.027,0.349-0.085h0.002c0.288-0.152,0.58-0.303,0.878-0.455    c0.369-0.187,0.516-0.638,0.326-1.007c-0.186-0.369-0.638-0.517-1.007-0.328c-0.301,0.152-0.601,0.307-0.898,0.463    c-0.367,0.193-0.507,0.646-0.314,1.014C168.529,94.063,168.79,94.207,169.06,94.207z"/><path d="M182.255,77.025c0.109,0.304,0.397,0.494,0.704,0.494c0.085,0,0.172-0.015,0.256-0.045    c0.389-0.142,0.591-0.571,0.448-0.96c-0.118-0.331-0.255-0.659-0.407-0.983c-0.177-0.375-0.623-0.537-0.997-0.361    c-0.375,0.176-0.538,0.623-0.36,0.997C182.031,76.454,182.151,76.74,182.255,77.025z"/><path d="M174.813,68.357c0.135,0.103,0.294,0.152,0.451,0.152c0.228,0,0.453-0.103,0.601-0.296c0.25-0.33,0.186-0.801-0.145-1.052    c-0.267-0.202-0.539-0.403-0.816-0.606c-0.335-0.243-0.803-0.169-1.048,0.166c-0.244,0.335-0.169,0.805,0.166,1.05    C174.289,67.964,174.553,68.159,174.813,68.357z"/><path d="M179.183,72.265c0.147,0.163,0.35,0.246,0.553,0.246c0.181,0,0.361-0.065,0.506-0.196    c0.305-0.282,0.326-0.756,0.047-1.061c-0.227-0.251-0.466-0.5-0.709-0.745c-0.292-0.296-0.767-0.298-1.061-0.006    c-0.296,0.29-0.298,0.765-0.006,1.059C178.742,71.795,178.966,72.031,179.183,72.265z"/><path d="M182.529,81.481c-0.074,0.288-0.169,0.575-0.283,0.863c-0.152,0.386,0.037,0.82,0.423,0.973    c0.091,0.036,0.184,0.053,0.275,0.053c0.299,0,0.581-0.18,0.697-0.476c0.136-0.343,0.25-0.689,0.338-1.035    c0.104-0.402-0.136-0.809-0.537-0.915C183.041,80.841,182.633,81.082,182.529,81.481z"/><path d="M179.568,86.136c-0.223,0.217-0.459,0.432-0.708,0.648c-0.314,0.273-0.346,0.745-0.073,1.059    c0.147,0.171,0.356,0.258,0.566,0.258c0.174,0,0.35-0.061,0.492-0.183h-0.002c0.269-0.234,0.526-0.468,0.769-0.702    c0.296-0.29,0.305-0.765,0.018-1.061C180.342,85.857,179.865,85.848,179.568,86.136z"/><path d="M170.344,116.552c-0.271-0.315-0.745-0.352-1.059-0.082c-0.314,0.271-0.352,0.743-0.081,1.059    c0.219,0.255,0.437,0.509,0.652,0.76c0.148,0.171,0.357,0.259,0.567,0.259c0.174,0,0.349-0.06,0.491-0.182    c0.314-0.271,0.348-0.743,0.077-1.057h0.003C170.778,117.059,170.561,116.805,170.344,116.552z"/><path d="M174.401,91.471c0.122,0,0.247-0.03,0.361-0.093c0.299-0.166,0.596-0.333,0.89-0.507c0.356-0.212,0.473-0.672,0.264-1.028    c-0.212-0.356-0.672-0.475-1.028-0.264c-0.279,0.165-0.562,0.329-0.848,0.487c-0.365,0.2-0.496,0.655-0.295,1.018    C173.88,91.331,174.137,91.471,174.401,91.471z"/><path d="M169.05,64.539c0.283,0.166,0.566,0.335,0.848,0.507c0.121,0.073,0.256,0.108,0.388,0.108    c0.254,0,0.502-0.129,0.643-0.362c0.215-0.354,0.102-0.816-0.253-1.031c-0.285-0.174-0.577-0.346-0.867-0.518    c-0.356-0.21-0.816-0.09-1.026,0.267C168.57,63.869,168.69,64.329,169.05,64.539z"/><path d="M173.587,122.895c0.145,0.209,0.378,0.321,0.614,0.321c0.149,0,0.3-0.044,0.431-0.136    c0.338-0.239,0.424-0.704,0.185-1.044v-0.002c-0.192-0.273-0.395-0.55-0.605-0.829c-0.251-0.333-0.721-0.397-1.052-0.148    c-0.331,0.251-0.396,0.722-0.147,1.052C173.215,122.375,173.406,122.637,173.587,122.895z"/><path d="M141.871,54.193c1.939,0.037,3.593-0.831,4.249-2.074c1.404,0.061,2.988-0.93,3.934-2.624    c1.208-2.167,0.902-4.642-0.682-5.524c-1.584-0.882-3.848,0.158-5.056,2.326c-0.295,0.529-0.496,1.074-0.614,1.61    c-0.523-0.168-1.096-0.269-1.7-0.28c-2.481-0.051-4.521,1.381-4.558,3.193C137.408,52.633,139.391,54.144,141.871,54.193z"/><path d="M141.257,129.027c1.939,0.037,3.593-0.83,4.249-2.074c1.404,0.061,2.988-0.93,3.934-2.623    c1.208-2.168,0.902-4.642-0.682-5.524c-1.584-0.882-3.848,0.158-5.056,2.326c-0.295,0.528-0.496,1.073-0.614,1.61    c-0.523-0.168-1.096-0.27-1.7-0.281c-2.481-0.05-4.521,1.381-4.558,3.193C136.794,127.467,138.776,128.979,141.257,129.027z"/><path d="M261.099,36.268c-0.604,0.018-1.176,0.124-1.697,0.298c-0.124-0.536-0.33-1.079-0.63-1.604    c-1.229-2.156-3.504-3.174-5.079-2.275c-1.574,0.897-1.855,3.374-0.627,5.529c0.962,1.685,2.556,2.659,3.959,2.585    c0.668,1.237,2.33,2.089,4.27,2.033c2.48-0.074,4.447-1.604,4.394-3.417C265.633,37.604,263.579,36.193,261.099,36.268z"/><path d="M214.024,56.8c0.668,1.237,2.33,2.089,4.27,2.033c2.48-0.074,4.447-1.604,4.394-3.417    c-0.055-1.813-2.108-3.223-4.589-3.149c-0.604,0.018-1.176,0.124-1.697,0.298c-0.124-0.536-0.33-1.079-0.63-1.604    c-1.229-2.156-3.504-3.174-5.079-2.275c-1.574,0.897-1.855,3.374-0.627,5.529C211.027,55.9,212.621,56.874,214.024,56.8z"/><path d="M250.755,115.591c-0.411-0.05-0.783,0.245-0.831,0.656c-0.039,0.327-0.08,0.651-0.125,0.974    c-0.059,0.411,0.23,0.79,0.638,0.849c0.035,0.005,0.069,0.007,0.104,0.007c0.368,0,0.692-0.271,0.745-0.647h-0.002    c0.048-0.334,0.091-0.669,0.13-1.007C251.461,116.011,251.167,115.638,250.755,115.591z"/><path d="M250.121,110.389c0.02,0.327,0.032,0.654,0.041,0.979c0.011,0.407,0.344,0.729,0.751,0.729c0.006,0,0.013,0,0.02,0    c0.414-0.011,0.74-0.357,0.73-0.771c-0.009-0.34-0.024-0.68-0.043-1.021c-0.024-0.414-0.377-0.729-0.79-0.706    C250.415,109.62,250.097,109.975,250.121,110.389z"/><path d="M238.765,90.555c0.069,0.078,0.134,0.156,0.201,0.233c0.169,0.188,0.327,0.362,0.482,0.533    c0.148,0.162,0.351,0.244,0.554,0.244c0.181,0,0.361-0.064,0.505-0.196c0.306-0.279,0.327-0.753,0.05-1.059    c-0.153-0.169-0.31-0.34-0.465-0.513c-0.055-0.063-0.119-0.139-0.183-0.214c-0.269-0.316-0.742-0.355-1.059-0.087    C238.535,89.764,238.496,90.238,238.765,90.555z"/><path d="M249.621,103.74c-0.396,0.122-0.617,0.541-0.494,0.938c0.094,0.301,0.183,0.61,0.263,0.927    c0.087,0.338,0.392,0.563,0.727,0.563c0.063,0,0.126-0.008,0.188-0.024c0.4-0.104,0.641-0.513,0.539-0.914h-0.002    c-0.087-0.34-0.182-0.671-0.281-0.996C250.437,103.838,250.017,103.617,249.621,103.74z"/><path d="M249.422,123.967c0.343,0,0.653-0.236,0.732-0.583v-0.002c0.073-0.327,0.147-0.654,0.219-0.981    c0.087-0.405-0.171-0.805-0.573-0.894c-0.407-0.086-0.806,0.171-0.895,0.576c-0.069,0.322-0.141,0.647-0.214,0.97    c-0.092,0.405,0.162,0.805,0.566,0.896C249.313,123.962,249.368,123.967,249.422,123.967z"/><path d="M248.463,127.359c-0.403-0.091-0.804,0.163-0.895,0.567c-0.075,0.327-0.146,0.654-0.219,0.98    c-0.089,0.405,0.169,0.806,0.574,0.894c0.053,0.012,0.106,0.017,0.158,0.017c0.347,0,0.658-0.239,0.735-0.591l-0.002-0.002    c0.071-0.323,0.143-0.647,0.215-0.97C249.121,127.85,248.867,127.45,248.463,127.359z"/><path d="M241.034,59.557c0.219,0,0.435-0.095,0.583-0.278h0.003c0.205-0.255,0.415-0.511,0.627-0.766    c0.265-0.321,0.219-0.792-0.1-1.057c-0.317-0.264-0.79-0.219-1.054,0.1c-0.217,0.26-0.429,0.52-0.641,0.779    c-0.262,0.32-0.213,0.792,0.11,1.054C240.702,59.502,240.869,59.557,241.034,59.557z"/><path d="M233.146,75.44c0.019,0.001,0.037,0.002,0.056,0.002c0.39,0,0.719-0.302,0.748-0.697c0.021-0.316,0.054-0.634,0.095-0.948    c0.054-0.411-0.236-0.788-0.645-0.842c-0.411-0.054-0.787,0.236-0.842,0.647c-0.045,0.342-0.08,0.688-0.105,1.037    C232.422,75.052,232.733,75.412,233.146,75.44z"/><path d="M234.328,69.586c0.094,0.038,0.189,0.056,0.284,0.056c0.295,0,0.575-0.174,0.694-0.465    c0.122-0.296,0.252-0.593,0.386-0.89c0.173-0.376,0.007-0.82-0.37-0.994c-0.375-0.171-0.82-0.006-0.994,0.37    c-0.143,0.314-0.278,0.63-0.408,0.946C233.762,68.993,233.945,69.43,234.328,69.586z"/><path d="M233.437,78.925c-0.402,0.095-0.651,0.498-0.557,0.9c0.078,0.334,0.169,0.669,0.269,1.007    c0.097,0.326,0.396,0.537,0.72,0.537c0.07,0,0.141-0.01,0.212-0.031c0.395-0.119,0.623-0.537,0.506-0.933    c-0.093-0.31-0.175-0.619-0.246-0.924C234.244,79.077,233.839,78.828,233.437,78.925z"/><path d="M235.21,85.565c0.166,0.293,0.342,0.587,0.525,0.881c0.143,0.229,0.386,0.354,0.636,0.354    c0.136,0,0.273-0.037,0.397-0.113c0.353-0.219,0.459-0.682,0.24-1.033c-0.173-0.281-0.34-0.559-0.498-0.836    c-0.206-0.359-0.665-0.483-1.024-0.277C235.127,84.746,235.004,85.205,235.21,85.565z"/><path d="M237.048,64.25c0.127,0.084,0.271,0.124,0.412,0.124c0.243,0,0.481-0.118,0.627-0.336v-0.002    c0.178-0.271,0.361-0.544,0.55-0.814c0.235-0.342,0.149-0.808-0.191-1.043c-0.342-0.236-0.808-0.152-1.044,0.19    c-0.192,0.279-0.383,0.561-0.566,0.842C236.606,63.557,236.701,64.021,237.048,64.25z"/><path d="M243.531,95.711c0.147,0.163,0.352,0.246,0.557,0.246c0.18,0,0.36-0.064,0.504-0.193c0.306-0.279,0.329-0.753,0.052-1.061    c-0.225-0.247-0.452-0.494-0.682-0.742c-0.283-0.303-0.758-0.321-1.061-0.039c-0.303,0.281-0.322,0.755-0.039,1.059    C243.09,95.226,243.313,95.469,243.531,95.711z"/><path d="M246.971,135.721c0.029,0.003,0.059,0.005,0.088,0.005c0.375,0,0.699-0.281,0.744-0.663    c0.039-0.327,0.08-0.651,0.125-0.976c0.057-0.412-0.232-0.79-0.641-0.847c-0.411-0.058-0.79,0.229-0.847,0.641    c-0.045,0.333-0.089,0.671-0.127,1.009C246.266,135.301,246.56,135.674,246.971,135.721z"/><path d="M248.858,50.459c0.212,0,0.423-0.089,0.572-0.263c0.216-0.253,0.435-0.509,0.649-0.767    c0.269-0.316,0.227-0.788-0.089-1.054c-0.316-0.268-0.788-0.229-1.055,0.087c-0.216,0.253-0.431,0.506-0.647,0.76    c-0.268,0.314-0.231,0.788,0.083,1.056C248.514,50.4,248.687,50.459,248.858,50.459z"/><path d="M247.136,100.32c0.141,0.229,0.387,0.355,0.639,0.355c0.135,0,0.27-0.036,0.393-0.112c0.351-0.219,0.461-0.68,0.243-1.033    c-0.183-0.292-0.37-0.582-0.564-0.866c-0.235-0.342-0.701-0.429-1.043-0.195c-0.343,0.233-0.431,0.699-0.195,1.041    C246.791,99.776,246.967,100.047,247.136,100.32z"/><path d="M244.92,54.984c0.21,0,0.418-0.087,0.566-0.257c0.216-0.248,0.438-0.5,0.655-0.751c0.273-0.312,0.24-0.786-0.069-1.059    c-0.314-0.273-0.787-0.24-1.059,0.071c-0.218,0.251-0.439,0.5-0.657,0.751c-0.273,0.312-0.24,0.786,0.071,1.059    C244.569,54.922,244.745,54.984,244.92,54.984z"/><path d="M246.8,139.215c-0.415,0.013-0.74,0.357-0.728,0.773c0.012,0.34,0.026,0.682,0.048,1.024    c0.023,0.397,0.354,0.703,0.747,0.703c0.016,0,0.031,0,0.048-0.001c0.415-0.026,0.728-0.383,0.703-0.796h-0.002    c-0.02-0.325-0.034-0.649-0.046-0.974C247.56,139.529,247.214,139.202,246.8,139.215z"/><path d="M252.653,45.81c0.226,0,0.449-0.101,0.598-0.294h-0.002c0.206-0.269,0.409-0.537,0.612-0.808    c0.247-0.333,0.178-0.803-0.153-1.05c-0.333-0.249-0.803-0.18-1.05,0.153c-0.197,0.264-0.396,0.528-0.6,0.791    c-0.254,0.329-0.19,0.801,0.139,1.052C252.333,45.759,252.494,45.81,252.653,45.81z"/><path d="M202.287,67.786c0.227,0,0.453-0.104,0.601-0.3c0.19-0.252,0.39-0.504,0.597-0.756c0.265-0.319,0.22-0.791-0.1-1.056    c-0.318-0.263-0.79-0.22-1.056,0.099c-0.222,0.27-0.437,0.541-0.642,0.815c-0.248,0.33-0.181,0.799,0.151,1.049    C201.974,67.737,202.131,67.786,202.287,67.786z"/><path d="M204.793,82.05c0.302,0.181,0.595,0.351,0.877,0.515c0.116,0.068,0.245,0.101,0.372,0.101c0.259,0,0.512-0.134,0.65-0.374    c0.209-0.358,0.087-0.819-0.271-1.025c-0.284-0.164-0.568-0.328-0.851-0.498c-0.354-0.215-0.816-0.104-1.029,0.252    C204.325,81.373,204.439,81.835,204.793,82.05z"/><path d="M199.8,73.198c0.027,0.003,0.055,0.004,0.082,0.004c0.378,0,0.705-0.284,0.747-0.668h-0.002    c0.034-0.297,0.086-0.595,0.157-0.892c0.095-0.403-0.153-0.808-0.556-0.902c-0.403-0.097-0.809,0.151-0.903,0.554    c-0.084,0.356-0.148,0.715-0.189,1.075C199.091,72.78,199.388,73.153,199.8,73.198z"/><path d="M206.413,63.441c0.178,0,0.355-0.062,0.499-0.188c0.244-0.218,0.494-0.436,0.743-0.648    c0.314-0.271,0.352-0.746,0.082-1.06c-0.27-0.314-0.743-0.351-1.058-0.082c-0.259,0.222-0.513,0.444-0.765,0.668    c-0.311,0.276-0.338,0.75-0.063,1.06C206.001,63.356,206.207,63.441,206.413,63.441z"/><path d="M200.316,77.621c0.172,0.299,0.368,0.599,0.582,0.896c0.146,0.204,0.375,0.314,0.609,0.314c0.15,0,0.303-0.045,0.435-0.14    c0.337-0.241,0.416-0.709,0.175-1.045v-0.002c-0.188-0.261-0.355-0.521-0.504-0.78c-0.209-0.358-0.668-0.479-1.027-0.271    C200.229,76.802,200.107,77.261,200.316,77.621z"/><path d="M209.384,86.399c0.113,0.301,0.4,0.487,0.702,0.487c0.088,0,0.176-0.015,0.263-0.047c0.388-0.146,0.584-0.577,0.439-0.965    h-0.002c-0.134-0.36-0.282-0.692-0.444-0.998c-0.193-0.368-0.648-0.506-1.015-0.314c-0.366,0.194-0.506,0.646-0.313,1.015    C209.146,85.824,209.27,86.097,209.384,86.399z"/><path d="M210.463,96.235c-0.409-0.064-0.793,0.215-0.855,0.627c-0.052,0.338-0.102,0.67-0.148,0.998    c-0.061,0.409,0.226,0.788,0.635,0.849c0.036,0.005,0.072,0.007,0.107,0.007c0.368,0,0.688-0.27,0.744-0.645h-0.002    c0.045-0.316,0.095-0.644,0.146-0.98C211.152,96.681,210.872,96.297,210.463,96.235z"/><path d="M211.71,92.056c0.02-0.345,0.03-0.691,0.032-1.036c0.002-0.415-0.332-0.751-0.747-0.754    c-0.414-0.004-0.752,0.332-0.755,0.746c0,0.319-0.011,0.64-0.027,0.963c-0.023,0.414,0.293,0.767,0.709,0.788    c0.014,0.001,0.028,0.001,0.043,0.001C211.359,92.764,211.689,92.455,211.71,92.056z"/><path d="M151.12,157.662c0.118,0.328,0.247,0.651,0.384,0.97c0.121,0.284,0.399,0.454,0.69,0.454c0.1,0,0.199-0.02,0.296-0.061    c0.379-0.165,0.555-0.605,0.392-0.986c-0.126-0.293-0.244-0.589-0.353-0.889c-0.142-0.389-0.572-0.59-0.961-0.449    c-0.39,0.141-0.591,0.571-0.45,0.961H151.12z"/><path d="M151.009,147.308c0.35,0,0.663-0.247,0.734-0.604c0.062-0.313,0.131-0.635,0.203-0.967    c0.088-0.404-0.169-0.805-0.573-0.893c-0.406-0.087-0.805,0.169-0.893,0.576c-0.072,0.336-0.144,0.666-0.207,0.989    c-0.082,0.406,0.182,0.802,0.588,0.884C150.911,147.303,150.961,147.308,151.009,147.308z"/><path d="M146.453,132.778c0.026,0.003,0.052,0.004,0.078,0.004c0.379,0,0.705-0.288,0.745-0.674    c0.043-0.411-0.257-0.781-0.67-0.822c-0.333-0.036-0.683-0.06-1.048-0.07c-0.416-0.015-0.763,0.31-0.773,0.726    c-0.015,0.413,0.311,0.76,0.726,0.772h-0.002C145.841,132.725,146.155,132.746,146.453,132.778z"/><path d="M150.434,134.484c0.184,0.212,0.345,0.441,0.481,0.687c0.137,0.246,0.392,0.384,0.654,0.384    c0.123,0,0.249-0.031,0.364-0.095c0.362-0.201,0.492-0.657,0.291-1.018c-0.186-0.334-0.404-0.65-0.663-0.946    c-0.274-0.313-0.747-0.343-1.058-0.071C150.191,133.696,150.159,134.171,150.434,134.484z"/><path d="M149.95,151.571c0.017,0.344,0.038,0.687,0.07,1.029c0.034,0.391,0.361,0.684,0.746,0.684    c0.022,0,0.045-0.001,0.067-0.003c0.411-0.037,0.717-0.402,0.681-0.814c-0.03-0.321-0.052-0.642-0.066-0.965    c-0.02-0.413-0.37-0.734-0.783-0.715C150.252,150.807,149.931,151.156,149.95,151.571z"/><path d="M151.544,139.614c-0.027,0.314-0.063,0.636-0.108,0.957c-0.056,0.411,0.233,0.79,0.644,0.846    c0.034,0.004,0.068,0.007,0.101,0.007c0.368,0,0.691-0.274,0.742-0.651c0.047-0.342,0.085-0.687,0.115-1.027    c0.034-0.413-0.271-0.777-0.683-0.813C151.942,138.897,151.578,139.203,151.544,139.614z"/><path d="M154.269,163.045v0.002c0.124,0.144,0.251,0.285,0.381,0.426c0.147,0.161,0.35,0.243,0.552,0.243    c0.183,0,0.365-0.066,0.51-0.2c0.305-0.28,0.323-0.755,0.043-1.06c-0.119-0.13-0.237-0.259-0.351-0.392    c-0.273-0.313-0.745-0.347-1.058-0.077C154.031,162.259,153.997,162.733,154.269,163.045z"/></g></g><text x="0" y="248.425" fill="#000000" font-size="5px" font-weight="bold" font-family="'Helvetica Neue', Helvetica, Arial-Unicode, Arial, Sans-serif">Created by Gan Khoon Lay</text><text x="0" y="253.425" fill="#000000" font-size="5px" font-weight="bold" font-family="'Helvetica Neue', Helvetica, Arial-Unicode, Arial, Sans-serif">from the Noun Project</text></svg>