<?xml version="1.0" encoding="UTF-8" standalone="no"?>
<svg
   xmlns:dc="http://purl.org/dc/elements/1.1/"
   xmlns:cc="http://creativecommons.org/ns#"
   xmlns:rdf="http://www.w3.org/1999/02/22-rdf-syntax-ns#"
   xmlns:svg="http://www.w3.org/2000/svg"
   xmlns="http://www.w3.org/2000/svg"
   xmlns:sodipodi="http://sodipodi.sourceforge.net/DTD/sodipodi-0.dtd"
   xmlns:inkscape="http://www.inkscape.org/namespaces/inkscape"
   version="1.0"
   x="0px"
   y="0px"
   viewBox="0 0 67.134605 51.149666"
   enable-background="new 0 0 100 100"
   xml:space="preserve"
   id="svg8"
   sodipodi:docname="noun_Pets_188709.svg"
   width="67.134605"
   height="51.149666"
   inkscape:version="0.92.2 5c3e80d, 2017-08-06"><metadata
     id="metadata14"><rdf:RDF><cc:Work
         rdf:about=""><dc:format>image/svg+xml</dc:format><dc:type
           rdf:resource="http://purl.org/dc/dcmitype/StillImage" /><dc:title></dc:title></cc:Work></rdf:RDF></metadata><defs
     id="defs12" /><sodipodi:namedview
     pagecolor="#ffffff"
     bordercolor="#666666"
     borderopacity="1"
     objecttolerance="10"
     gridtolerance="10"
     guidetolerance="10"
     inkscape:pageopacity="0"
     inkscape:pageshadow="2"
     inkscape:window-width="1010"
     inkscape:window-height="716"
     id="namedview10"
     showgrid="false"
     fit-margin-top="0"
     fit-margin-left="0"
     fit-margin-right="0"
     fit-margin-bottom="0"
     inkscape:zoom="1.888"
     inkscape:cx="32.111487"
     inkscape:cy="16.112"
     inkscape:window-x="0"
     inkscape:window-y="0"
     inkscape:window-maximized="0"
     inkscape:current-layer="svg8" /><path
     d="m 66.965487,39.517664 c -0.589,-2.165 -1.62,-2.902 -2.815,-3.757 -0.6,-0.429 -0.914,-1.043 -0.886,-1.73 0.042,-1.007 0.773,-2.004 1.974,-2.719 1.066,-0.581 1.567,-1.814 1.166,-2.868 -0.326,-0.854 -1.299,-1.618 -3.041,-1.214 -1.577,0.37 -2.977,1.766 -3.841,3.828 -0.774,1.847 -1.138,4.395 -0.205,5.927 0.59,0.969 0.905,1.407 2.816,2.556 0.262,0.157 0.608,0.445 0.593,1.127 -0.023,1.031 -0.849,2.237 -1.569,2.626 -0.019,0.01 -0.047,0.024 -0.082,0.04 -1.125,-6.125 -8.212,-14.443 -13.081,-16.509 -0.046,-0.055 -0.089,-0.113 -0.129,-0.178 -0.079,-0.128 -0.187,-0.225 -0.306,-0.302 0.016,-0.799 0.199,-1.654 0.36,-2.365 0.05,-0.219 0.096,-0.422 0.132,-0.604 0.316,-1.582 -0.05,-2.555 -0.714,-4.321 l -0.173,-0.459 c -0.021,-0.073 -0.051,-0.215 -0.092,-0.403 -0.512,-2.352 -1.145,-4.662 -2.744,-4.824 -1.484,-0.136 -2.756,1.968 -3.627,4.004 -1.292,0.093 -3.736,0.504 -4.213,2.281 -0.282,1.052 -1.214,1.81 -1.77,2.264 -0.385,0.313 -0.64,0.521 -0.748,0.904 -0.261,0.943 -0.08,2.698 0.672,4.002 0.487,0.843 1.161,1.396 1.949,1.602 0.484,0.126 1.078,0.976 1.443,2.065 0.054,0.161 0.152,0.29 0.267,0.399 0.002,0.009 -0.001,0.017 0,0.026 0.748,3.524 0.509,11.869 0.43,14.611 -0.019,0.645 -0.027,1.054 -0.022,1.13 0.007,0.122 -0.03,0.258 -0.078,0.43 -0.106,0.387 -0.284,1.032 0.142,1.736 1.021,1.681 3.087,1.304 3.746,1.187 0.229,-0.03 1.193,0.122 2.035,0.249 1.847,0.278 4.573,0.688 7.385,0.688 2.268,0 4.591,-0.268 6.551,-1.087 0.045,-0.02 0.089,-0.041 0.13,-0.066 0.456,-0.274 0.864,-0.609 1.217,-0.999 0.507,-0.042 0.913,-0.132 1.031,-0.161 4.524,-1.435 6.95,-5.994 6.097,-9.116 z m -29.87,-13.029 c -0.326,-0.085 -0.571,-0.409 -0.72,-0.666 -0.437,-0.756 -0.552,-1.76 -0.51,-2.262 0.035,-0.028 0.074,-0.06 0.116,-0.094 0.695,-0.566 1.989,-1.621 2.438,-3.297 0.11,-0.412 1.578,-0.821 2.963,-0.824 0.41,-10e-4 0.778,-0.252 0.929,-0.633 0.544,-1.375 1.339,-2.783 1.809,-3.241 0.217,0.317 0.559,1.124 0.998,3.145 0.071,0.331 0.13,0.563 0.16,0.645 l 0.187,0.497 c 0.604,1.604 0.829,2.204 0.625,3.224 -0.033,0.167 -0.076,0.354 -0.122,0.557 -0.173,0.767 -0.399,1.768 -0.42,2.78 -1.965,1.175 -4.197,2.041 -5.983,2.623 -0.449,-0.953 -1.239,-2.134 -2.47,-2.454 z m 23.253,20.215 c -0.005,10e-4 -0.499,0.108 -1.008,0.113 -0.31,0.003 -0.601,0.149 -0.788,0.396 -0.252,0.334 -0.549,0.606 -0.903,0.829 -3.874,1.58 -9.673,0.706 -12.796,0.237 -1.156,-0.175 -1.833,-0.272 -2.292,-0.272 -0.145,0 -0.268,0.01 -0.377,0.029 -1.391,0.255 -1.616,-0.114 -1.682,-0.174 0.002,-0.04 0.034,-0.16 0.059,-0.247 0.071,-0.262 0.17,-0.619 0.147,-1.056 -0.003,-0.106 0.009,-0.452 0.023,-0.977 0.083,-2.87 0.292,-10.147 -0.312,-14.19 2.021,-0.715 4.729,-2.092 6.357,-2.957 0.083,0.069 0.177,0.126 0.278,0.165 4.451,1.746 11.61,10.33 12.143,15.726 0.03,0.309 0.202,0.586 0.465,0.75 0.716,0.449 1.584,0.442 2.442,-0.023 1.432,-0.771 2.582,-2.677 2.621,-4.34 0.028,-1.24 -0.527,-2.267 -1.563,-2.888 -1.564,-0.94 -1.686,-1.14 -2.14,-1.886 -0.401,-0.658 -0.383,-2.376 0.343,-4.108 0.605,-1.443 1.522,-2.436 2.453,-2.654 0.476,-0.11 0.694,-0.034 0.716,-0.021 0.02,0.05 -0.022,0.272 -0.286,0.418 -1.824,1.084 -2.912,2.678 -2.982,4.372 -0.058,1.365 0.57,2.619 1.721,3.441 1.062,0.759 1.646,1.178 2.049,2.655 v 0.001 c 0.518,1.895 -1.12,5.526 -4.688,6.661 z m -32.758,-23.927 c 0.642,-0.3 1.089,-0.927 1.089,-1.659 0,-0.629 -0.329,-1.183 -0.829,-1.518 0.097,-0.46 0.315,-1.029 0.702,-1.168 0.192,-0.068 0.561,-0.165 1.027,-0.289 2.402,-0.643 4.836,-1.357 5.89,-2.414 1.143,-1.157 2.009,-4.833 0.851,-6.414 -0.954,-1.306 -4.176,-1.424 -6.068,-1.381 -0.519,-1.034 -1.386,-2.566 -2.178,-3.052 -0.764,-0.469 -2.132,-0.601 -3.113,-0.632 -0.003,-1.735 -0.312,-3.85400002 -1.749,-4.20300002 -0.317,-0.076 -0.809,-0.098 -1.365,0.244 -1.749,1.07400002 -3.73,6.20400002 -5.893,15.21900002 -0.26,0.049 -0.501,0.147 -0.716,0.279 -0.155,0.066 -0.285,0.173 -0.389,0.312 -0.35,0.357 -0.568,0.834 -0.568,1.362 0,0.261 0.056,0.509 0.151,0.738 -1.905,4.944 -7.0110001,18.757 -7.5930001,26.222 -1.614,-1.92 -2.45,-4.487 -3.042,-6.302 -0.559,-1.716 -0.867,-2.661 -1.846,-2.725 -0.567,-0.036 -1.05399997,0.311 -1.39999997,1.038 -1.322,2.766 -0.147,8.915 2.24499997,11.75 1.574,1.865 4.298,2.491 6.1,2.006 1.1690001,0.702 2.6530001,0.96 4.2910001,0.96 2.397,0 5.12,-0.552 7.653,-1.064 2.174,-0.44 4.426,-0.894 5.386,-0.686 1.551,0.337 2.71,0.15 3.444,-0.558 0.834,-0.803 0.732,-1.899 0.695,-2.152 z m -4.891,-20.63 c 0.197,0.568 0.305,1.862 0.231,3.044 -0.018,0.282 0.086,0.559 0.283,0.761 0.197,0.202 0.47,0.326 0.753,0.301 1.146,-0.043 2.646,0.081 3.057,0.334 0.315,0.216 1.112,1.522 1.706,2.795 0.172,0.368 0.552,0.597 0.957,0.577 2.224,-0.115 4.61,0.146 5.024,0.547 0.414,0.59 -0.036,3.182 -0.662,3.816 -0.758,0.76 -3.614,1.523 -4.986,1.89 -0.54,0.145 -0.967,0.261 -1.187,0.34 -1.226,0.438 -1.731,1.595 -1.94,2.434 -2.348,-0.57 -5.612,-1.789 -7.918,-2.704 -0.048,-0.062 -0.098,-0.122 -0.153,-0.178 2.279,-9.518 4.038,-13.152 4.835,-13.957 z m 5.577,45.26 c -0.058,0.053 -0.411,0.306 -1.629,0.04 -1.371,-0.296 -3.505,0.133 -6.207,0.681 -3.882,0.787 -8.711,1.765 -10.7930001,0.162 -0.179,-0.138 -0.394,-0.208 -0.61,-0.208 -0.143,0 -0.286,0.03 -0.421,0.093 -0.814,0.378 -3.063,0.182 -4.294,-1.277 -1.521,-1.802 -2.395,-5.386 -2.314,-7.803 0.77,2.347 2.051,5.966 4.841,8.11 l 0.344,0.286 c 0.314,0.263 0.757,0.306 1.113,0.112 0.359,-0.193 0.565,-0.585 0.521,-0.99 -0.519,-4.695 3.5130001,-17.353 7.2640001,-27.156 2.952,0.98 7.521,2.473 9.462,3.107 l 2.826,24.376 c 0,0.006 0.005,0.035 0.006,0.04 -0.002,0.003 0.031,0.298 -0.109,0.427 z"
     id="path2"
     inkscape:connector-curvature="0" /></svg>