<?xml version="1.0" encoding="UTF-8" standalone="no"?>
<svg
   xmlns:dc="http://purl.org/dc/elements/1.1/"
   xmlns:cc="http://creativecommons.org/ns#"
   xmlns:rdf="http://www.w3.org/1999/02/22-rdf-syntax-ns#"
   xmlns:svg="http://www.w3.org/2000/svg"
   xmlns="http://www.w3.org/2000/svg"
   xmlns:sodipodi="http://sodipodi.sourceforge.net/DTD/sodipodi-0.dtd"
   xmlns:inkscape="http://www.inkscape.org/namespaces/inkscape"
   version="1.1"
   x="0px"
   y="0px"
   viewBox="0 0 32 24.5"
   enable-background="new 0 0 34 34"
   xml:space="preserve"
   id="svg20"
   sodipodi:docname="noun_people_1867426.svg"
   width="32"
   height="24.5"
   inkscape:version="0.92.2 5c3e80d, 2017-08-06"><metadata
     id="metadata26"><rdf:RDF><cc:Work
         rdf:about=""><dc:format>image/svg+xml</dc:format><dc:type
           rdf:resource="http://purl.org/dc/dcmitype/StillImage" /><dc:title></dc:title></cc:Work></rdf:RDF></metadata><defs
     id="defs24" /><sodipodi:namedview
     pagecolor="#ffffff"
     bordercolor="#666666"
     borderopacity="1"
     objecttolerance="10"
     gridtolerance="10"
     guidetolerance="10"
     inkscape:pageopacity="0"
     inkscape:pageshadow="2"
     inkscape:window-width="1006"
     inkscape:window-height="719"
     id="namedview22"
     showgrid="false"
     fit-margin-top="0"
     fit-margin-left="0"
     fit-margin-right="0"
     fit-margin-bottom="0"
     inkscape:zoom="5.5529412"
     inkscape:cx="16"
     inkscape:cy="8"
     inkscape:window-x="0"
     inkscape:window-y="0"
     inkscape:window-maximized="0"
     inkscape:current-layer="svg20" /><g
     id="g14"
     transform="translate(-1,-4.75)"><path
       d="m 24.16,19.16 c -0.12,-0.19 -0.25,-0.37 -0.39,-0.55 -0.2,-0.28 -0.44,-0.55 -0.76,-0.87 -0.29,-0.29 -0.59,-0.55 -0.91,-0.78 -1.46,-1.12 -3.24,-1.71 -5.1,-1.71 -1.88,0 -3.66,0.61 -5.11,1.71 -0.6,0.45 -1.14,0.99 -1.61,1.6 -0.15,0.19 -0.29,0.39 -0.43,0.6 -0.87,1.35 -1.35,2.96 -1.35,4.59 v 0.5 3 0.5 c 0,0.83 0.67,1.5 1.5,1.5 h 14 c 0.83,0 1.5,-0.67 1.5,-1.5 v -0.5 -3.5 c 0,-1.65 -0.48,-3.26 -1.34,-4.59 z"
       id="path2"
       inkscape:connector-curvature="0" /><path
       d="m 21.5,9.25 c 0,2.48 -2.02,4.5 -4.5,4.5 -2.48,0 -4.5,-2.02 -4.5,-4.5 0,-2.49 2.02,-4.5 4.5,-4.5 2.48,0 4.5,2.01 4.5,4.5 z"
       id="path4"
       inkscape:connector-curvature="0" /><path
       d="m 31,9.25 c 0,2.48 -2.02,4.5 -4.5,4.5 -2.48,0 -4.5,-2.02 -4.5,-4.5 0,-2.49 2.02,-4.5 4.5,-4.5 2.48,0 4.5,2.01 4.5,4.5 z"
       id="path6"
       inkscape:connector-curvature="0" /><path
       d="m 33,21.75 v 4 c 0,0.83 -0.67,1.5 -1.5,1.5 H 27 v -3.5 c 0,-1.91 -0.56,-3.83 -1.57,-5.39 -0.15,-0.23 -0.31,-0.45 -0.44,-0.62 -0.24,-0.34 -0.52,-0.66 -0.92,-1.06 -0.23,-0.23 -0.46,-0.44 -0.69,-0.63 0.94,-0.52 2.01,-0.8 3.12,-0.8 1.73,0 3.36,0.67 4.59,1.89 1.24,1.25 1.91,2.88 1.91,4.61 z"
       id="path8"
       inkscape:connector-curvature="0" /><path
       d="m 10.63,16.05 c -0.56,0.46 -1.08,1 -1.53,1.58 C 8.93,17.85 8.76,18.08 8.59,18.35 7.55,19.96 7,21.83 7,23.75 v 3.5 H 2.5 C 1.67,27.25 1,26.58 1,25.75 v -4 c 0,-3.58 2.92,-6.5 6.5,-6.5 1.11,0 2.18,0.28 3.13,0.8 z"
       id="path10"
       inkscape:connector-curvature="0" /><path
       d="m 12,9.25 c 0,2.48 -2.02,4.5 -4.5,4.5 -2.48,0 -4.5,-2.02 -4.5,-4.5 0,-2.49 2.02,-4.5 4.5,-4.5 2.48,0 4.5,2.01 4.5,4.5 z"
       id="path12"
       inkscape:connector-curvature="0" /></g></svg>