<?xml version="1.0" encoding="UTF-8" standalone="no"?>
<svg
   xmlns:dc="http://purl.org/dc/elements/1.1/"
   xmlns:cc="http://creativecommons.org/ns#"
   xmlns:rdf="http://www.w3.org/1999/02/22-rdf-syntax-ns#"
   xmlns:svg="http://www.w3.org/2000/svg"
   xmlns="http://www.w3.org/2000/svg"
   xmlns:sodipodi="http://sodipodi.sourceforge.net/DTD/sodipodi-0.dtd"
   xmlns:inkscape="http://www.inkscape.org/namespaces/inkscape"
   version="1.1"
   x="0px"
   y="0px"
   viewBox="0 0 79.99942 89.945145"
   enable-background="new 0 0 100 100"
   xml:space="preserve"
   id="svg8"
   sodipodi:docname="noun_Garbage bag_199035.svg"
   width="79.99942"
   height="89.945145"
   inkscape:version="0.92.2 5c3e80d, 2017-08-06"><metadata
     id="metadata14"><rdf:RDF><cc:Work
         rdf:about=""><dc:format>image/svg+xml</dc:format><dc:type
           rdf:resource="http://purl.org/dc/dcmitype/StillImage" /><dc:title></dc:title></cc:Work></rdf:RDF></metadata><defs
     id="defs12" /><sodipodi:namedview
     pagecolor="#ffffff"
     bordercolor="#666666"
     borderopacity="1"
     objecttolerance="10"
     gridtolerance="10"
     guidetolerance="10"
     inkscape:pageopacity="0"
     inkscape:pageshadow="2"
     inkscape:window-width="640"
     inkscape:window-height="480"
     id="namedview10"
     showgrid="false"
     fit-margin-top="0"
     fit-margin-left="0"
     fit-margin-right="0"
     fit-margin-bottom="0"
     inkscape:zoom="1.9732075"
     inkscape:cx="39.965474"
     inkscape:cy="30.762741"
     inkscape:window-x="0"
     inkscape:window-y="0"
     inkscape:window-maximized="0"
     inkscape:current-layer="svg8" /><path
     d="m 78.952823,83.303725 c -0.9,-0.7 -1.7,-1.5 -2.2,-2.5 -0.4,-0.9 -0.5,-2 -0.6,-3 -0.6,-10.2 -1.2,-20.3 -1.7,-30.5 -0.3,-5.9 -0.7,-11.8 -1.8,-17.6 -0.7,-3.3 -1.6,-6.5 -3.6,-9.2 -3.9,-5.3 -15.2,-7.1 -23.9,-7.8 0.1,-0.1 0.2,-0.1 0.3,-0.2 0.8,-0.5 1.7,-1.4 1.3,-2.2 -0.4,-0.7 -1.6,-1.1 -1.1,-1.7 2.5,-1.1 4.9,-2.2 7.4,-3.2 0.1,-0.2 0.4,-0.3 0.4,-0.5 0,-0.2 -0.1,-0.3 -0.2,-0.5 -1.2,-1.8 -2.7,-3.70000004 -4.8,-3.60000004 -2.6,0.1 -4.4,3.30000004 -7,3.50000004 0,-0.1 0.1,-0.3 0.1,-0.4 0.5,-2.3 -1.6,-4.40000004 -3.8,-3.80000004 0,0 0,0 -0.1,0 -1.7,0.4 -3.2,1.90000004 -3.1,3.70000004 -1.3,-0.4 -2.6,-0.8 -4,-1.1 -1.8,-0.4 -3.3,1.3 -2.8,3 v 0 c 0.4,1.4 1.1,2.6 2.1,3.5 1.2,1.2 2.5,2.3 3.7,3.5 -8.4,0.8 -18.8,2.6 -22.6,7.8 -2.0000004,2.7 -2.9000004,6 -3.6000004,9.2 -1.2,5.8 -1.5,11.7 -1.8,17.6 -0.6,10.2 -1.2,20.3 -1.7,30.5 -0.1,1 -0.1,2.1 -0.6,3 -0.5,1 -1.3,1.7 -2.2,2.5 -1.79999996,1.5 -1.19999996,4.4 1.1,5 1.6,0.4 3.4,0.6 5.1,0.6 8.6000004,0.3 17.3000004,0.6 25.9000004,0.9 2.3,0.1 4.5,0.2 6.8,0.1 2.3,0 4.5,-0.1 6.8,-0.1 8.6,-0.3 17.3,-0.6 25.9,-0.9 1.7,-0.1 3.4,-0.2 5.1,-0.6 2.4,-0.6 3,-3.5 1.2,-5 z m -58.4,-56 c -2.1,-4.2 12.5,-12.4 12.5,-12.4 0,0 -10.4,16.7 -12.5,12.4 z m 19.5,6.6 c -4.5,-1.5 0,-17.7 0,-17.7 0,0 4.5,19.2 0,17.7 z m 18.5,-6.6 c -2.1,4.3 -12.5,-12.4 -12.5,-12.4 0,0 14.7,8.2 12.5,12.4 z"
     id="path2"
     inkscape:connector-curvature="0"
     style="fill:#000000" /></svg>