<?xml version="1.0" encoding="UTF-8" standalone="no"?>
<svg
   xmlns:dc="http://purl.org/dc/elements/1.1/"
   xmlns:cc="http://creativecommons.org/ns#"
   xmlns:rdf="http://www.w3.org/1999/02/22-rdf-syntax-ns#"
   xmlns:svg="http://www.w3.org/2000/svg"
   xmlns="http://www.w3.org/2000/svg"
   xmlns:sodipodi="http://sodipodi.sourceforge.net/DTD/sodipodi-0.dtd"
   xmlns:inkscape="http://www.inkscape.org/namespaces/inkscape"
   version="1.1"
   x="0px"
   y="0px"
   viewBox="0 0 171.7266 178.40619"
   xml:space="preserve"
   id="svg134"
   sodipodi:docname="noun_Man Leaving Rubbish Bag_659083.svg"
   width="171.72659"
   height="178.40619"
   inkscape:version="0.92.2 5c3e80d, 2017-08-06"><metadata
     id="metadata140"><rdf:RDF><cc:Work
         rdf:about=""><dc:format>image/svg+xml</dc:format><dc:type
           rdf:resource="http://purl.org/dc/dcmitype/StillImage" /><dc:title></dc:title></cc:Work></rdf:RDF></metadata><defs
     id="defs138"><clipPath
       clipPathUnits="userSpaceOnUse"
       id="clipPath3865"><rect
         style="fill:#000000;fill-opacity:1;stroke:#000000;stroke-opacity:1"
         id="rect3867"
         width="147.74516"
         height="247.89043"
         x="129.19975"
         y="0.61818045" /></clipPath></defs><sodipodi:namedview
     pagecolor="#ffffff"
     bordercolor="#666666"
     borderopacity="1"
     objecttolerance="10"
     gridtolerance="10"
     guidetolerance="10"
     inkscape:pageopacity="0"
     inkscape:pageshadow="2"
     inkscape:window-width="1265"
     inkscape:window-height="710"
     id="namedview136"
     showgrid="false"
     fit-margin-top="0"
     fit-margin-left="0"
     fit-margin-right="0"
     fit-margin-bottom="0"
     inkscape:zoom="1.6176502"
     inkscape:cx="84.626405"
     inkscape:cy="45.537533"
     inkscape:window-x="0"
     inkscape:window-y="0"
     inkscape:window-maximized="0"
     inkscape:current-layer="svg134" /><g
     id="g128"
     clip-path="url(#clipPath3865)"
     transform="matrix(1.2581597,0,0,0.76632958,-162.55392,-0.47372997)"><g
       id="g8"><ellipse
         transform="matrix(0.9739,-0.2268,0.2268,0.9739,-4.1812,8.6105)"
         cx="35.377998"
         cy="22.5"
         rx="22.495001"
         ry="22.493999"
         id="ellipse2" /><path
         d="m 45.025,63.735 c 0,-0.242 -0.002,-0.373 -0.004,-0.424 -0.075,-2.086 0.495,-4.046 1.527,-5.691 1.699,-2.706 4.655,-4.555 8.071,-4.69 0.134,-0.006 0.267,-0.008 0.398,-0.008 5.389,0 9.774,4.221 9.986,9.607 0.004,0.089 0.017,0.45 0.019,1.018 0,0.052 10e-4,0.094 10e-4,0.149 -0.011,3.452 -0.382,10.402 -2.738,18.237 -3.354,11.082 -9.351,19.549 -17.828,25.173 -0.112,0.075 -0.229,0.144 -0.342,0.217 0.213,4.738 0.108,9.441 -0.495,13.944 -0.113,1.913 -0.13,3.574 -0.058,5.031 -10.16,15.235 -26.388,46.381 -30.025,93.663 -0.529,6.885 4.622,12.894 11.505,13.425 0.326,0.025 0.65,0.037 0.972,0.037 6.469,0 11.947,-4.985 12.451,-11.542 2.123,-27.553 8.953,-48.574 15.734,-63.335 0.851,2.237 1.826,4.507 2.946,6.788 3.993,8.068 9.962,16.269 18.646,22.851 8.661,6.599 19.94,11.386 33.602,13.132 6.847,0.887 13.115,-3.942 14.003,-10.789 0.889,-6.845 -3.943,-13.115 -10.787,-14.002 h -0.002 c -9.843,-1.301 -16.574,-4.393 -21.707,-8.258 -7.624,-5.77 -12.036,-13.936 -14.557,-22.162 -1.755,-5.703 -2.477,-11.263 -2.749,-15.283 2.616,-2.639 4.685,-6.502 5.78,-12.141 2.223,-19.096 1.442,-31.49 -3.14,-47.406 1.043,1.189 2.023,2.507 2.907,4.004 2.645,4.514 4.597,10.682 4.609,19.69 0.002,2.441 -0.146,5.086 -0.472,7.952 -0.498,4.39 2.659,8.351 7.05,8.849 0.306,0.035 0.61,0.051 0.91,0.051 4.016,10e-4 7.478,-3.017 7.94,-7.102 0.385,-3.416 0.572,-6.661 0.572,-9.75 C 99.77,83.246 97,73.749 92.518,66.475 85.774,55.503 75.69,50.102 67.749,47.534 59.744,44.943 53.56,44.934 53.016,44.923 c -1.194,0 -2.323,0.269 -3.341,0.737 -0.66,0.082 -1.306,0.197 -1.929,0.352 -8.536,2.128 -12.29,14.04 -9.42,23.992 0.716,3.655 1.575,7.732 2.414,12.057 0.078,-0.147 0.16,-0.286 0.236,-0.436 3.478,-6.772 4.103,-15.209 4.049,-17.89 z"
         id="path4"
         inkscape:connector-curvature="0" /><path
         d="m 6.714,111.318 c 4.113,0.671 7.98,0.995 11.62,0.995 0.04,0 0.081,0 0.122,0 10.066,0 18.46,-2.598 24.897,-6.873 0.219,-0.145 0.422,-0.3 0.636,-0.448 9.318,-6.456 14.005,-15.776 16.382,-23.633 2.438,-8.103 2.644,-15.027 2.654,-17.661 0,-0.399 -0.005,-0.686 -0.01,-0.873 -0.003,-0.102 -0.006,-0.183 -0.007,-0.217 -0.174,-4.414 -3.895,-7.852 -8.309,-7.678 -2.931,0.115 -5.423,1.798 -6.722,4.206 -0.654,1.212 -1.011,2.604 -0.957,4.08 v 0 c 0.002,0.025 0.006,0.193 0.006,0.483 0.043,2.163 -0.408,11.323 -4.266,18.832 -0.442,0.873 -0.927,1.719 -1.448,2.539 -1.735,2.728 -3.93,5.135 -6.779,7.02 -3.724,2.437 -8.688,4.202 -16.198,4.223 -2.69,0.002 -5.697,-0.239 -9.044,-0.785 -4.362,-0.711 -8.474,2.248 -9.185,6.609 -0.711,4.359 2.246,8.471 6.608,9.181 z"
         id="path6"
         inkscape:connector-curvature="0" /></g><g
       id="g126"><path
         d="m 178.379,157.122 c -2.087,2.359 -4.034,4.646 -5.843,6.861 1.812,-0.89 3.648,-1.914 5.501,-3.21 0.229,-0.661 0.585,-2.045 0.342,-3.651 z"
         id="path10"
         inkscape:connector-curvature="0" /><path
         d="m 218.789,147.246 c -5.91,-4.668 6.559,-9.811 14.297,-17.906 7.741,-8.094 -10.091,-13.111 -13.309,-10.133 -2.818,2.609 -9.152,4.293 -12.767,-1.828 -3.612,-6.119 -29.451,-1.369 -16.682,4.102 15.332,6.568 15.332,21.26 15.332,21.26 -0.879,0.636 -1.742,1.2 -2.592,1.714 0.564,0.573 1.022,1.215 1.328,1.93 0.525,1.229 1.007,3.707 -1.661,6.499 -2.304,2.409 -4.777,4.142 -6.766,5.533 -1.178,0.823 -2.752,1.93 -3.148,2.511 0.086,0.115 0.266,0.313 0.62,0.592 0.15,0.121 15.466,12.48 21.193,23.049 6.137,11.323 12.72,26.811 9.23,36.287 -1.201,3.264 -3.485,5.564 -6.787,6.839 -4.282,1.654 -8.464,3.036 -12.569,4.154 13.884,0.794 29.86,-1.328 47.691,-8.217 16.574,-6.403 4.359,-34.94 -4.416,-51.134 -6.48,-11.961 -26.482,-23.267 -28.994,-25.252 z m 11.879,-20.685 c -3.452,6.438 -10.933,10.117 -11.037,7.873 -0.133,-2.85 9.873,-5.863 7.842,-8.344 -2.25,-2.75 -5.625,-3 -8.437,-3.75 -0.001,0 15.437,-2.875 11.632,4.221 z m -39.424,-6.707 c 2.464,-6.363 14.487,-1.354 14.487,-1.354 0,0 -9.103,-0.028 -14.487,1.354 z"
         id="path12"
         inkscape:connector-curvature="0" /><path
         d="m 216.359,225.83 c 13.066,-5.047 3.437,-27.543 -3.48,-40.309 -5.111,-9.428 -18.697,-20.867 -20.677,-22.432 -4.659,-3.68 2.988,-5.207 9.088,-11.59 2.32,-2.426 1.724,-4.5 -0.043,-6.011 -0.556,-0.475 -1.223,-0.895 -1.956,-1.253 -3.069,-1.496 -7.223,-1.899 -8.492,-0.724 -2.222,2.057 -7.215,3.384 -10.063,-1.441 -2.848,-4.823 -18.767,1.581 -8.7,5.894 3.7,1.585 5.846,3.521 7.048,5.445 0.401,0.643 0.701,1.283 0.914,1.91 1.23,3.623 -0.326,6.745 -0.326,6.745 -3.394,2.455 -6.751,4.019 -9.898,5.379 -1.288,0.557 -2.542,1.083 -3.746,1.618 -3.27,1.453 -6.184,2.997 -8.49,5.57 -24.373,27.19 -25.004,49.421 -10,53.667 12.635,3.576 26.633,6.864 44.857,4.091 1.928,-0.294 3.906,-0.659 5.932,-1.095 5.6,-1.204 11.583,-2.972 18.032,-5.464 z m 2.287,-10.818 c 3.172,-9.193 0.847,17.248 -12.105,4.797 -0.001,0 8.933,4.394 12.105,-4.797 z m -47.672,-69.156 c 4.313,-8.474 10.313,0.026 10.313,0.026 0,0 -5.834,-3.583 -10.313,-0.026 z m 22.118,0.83 c -0.973,-0.276 -1.963,-0.459 -2.878,-0.703 0,0 3.293,-0.611 6.031,-0.413 1.238,0.09 2.359,0.346 3.015,0.9 0.681,0.576 0.857,1.471 0.124,2.838 -2.721,5.074 -10.162,7.207 -8.7,6.207 4.644,-3.176 7.783,-4.622 6.182,-6.578 -0.344,-0.421 -0.73,-0.75 -1.131,-1.039 -0.813,-0.585 -1.716,-0.95 -2.643,-1.212 z m -30.66,27.438 c 1.387,-1.095 2.864,-1.992 4.363,-2.73 7.17,-3.531 14.784,-3.392 14.784,-3.392 -9.997,1.709 -14.586,5.004 -19.783,10.769 -1.931,2.142 -3.949,4.627 -6.356,7.497 -0.196,0.234 -0.392,0.467 -0.594,0.707 1.091,-5.962 4.034,-10.046 7.586,-12.851 z"
         id="path14"
         inkscape:connector-curvature="0" /><path
         d="m 163.808,61.707 c 0.295,0.146 0.591,0.296 0.887,0.446 0.109,0.056 0.227,0.083 0.341,0.083 0.272,0 0.536,-0.149 0.669,-0.407 0.188,-0.369 0.043,-0.82 -0.326,-1.009 -0.301,-0.154 -0.6,-0.307 -0.9,-0.455 -0.371,-0.187 -0.822,-0.037 -1.007,0.335 -0.186,0.371 -0.035,0.822 0.336,1.007 z"
         id="path16"
         inkscape:connector-curvature="0" /><path
         d="m 165.393,112.816 c 0.2,0.273 0.403,0.543 0.609,0.814 0.146,0.192 0.369,0.294 0.595,0.294 0.159,0 0.32,-0.05 0.456,-0.154 0.328,-0.252 0.391,-0.724 0.14,-1.052 -0.2,-0.262 -0.397,-0.524 -0.589,-0.788 -0.245,-0.333 -0.715,-0.406 -1.05,-0.161 -0.333,0.241 -0.407,0.712 -0.161,1.047 z"
         id="path18"
         inkscape:connector-curvature="0" /><path
         d="m 162.283,107.484 c 0.131,0.32 0.272,0.638 0.423,0.956 0.127,0.27 0.396,0.427 0.677,0.427 0.108,0 0.218,-0.023 0.322,-0.073 0.376,-0.178 0.534,-0.627 0.356,-1.001 h -0.002 c -0.138,-0.289 -0.267,-0.581 -0.385,-0.873 -0.157,-0.385 -0.595,-0.569 -0.977,-0.413 -0.384,0.155 -0.57,0.593 -0.414,0.977 z"
         id="path20"
         inkscape:connector-curvature="0" /><path
         d="m 165.446,95.692 c -0.274,-0.31 -0.749,-0.335 -1.059,-0.058 -0.267,0.238 -0.521,0.49 -0.763,0.749 -0.281,0.305 -0.264,0.779 0.041,1.061 0.145,0.132 0.327,0.198 0.51,0.198 0.202,0 0.403,-0.081 0.551,-0.241 0.206,-0.223 0.428,-0.44 0.662,-0.648 0.309,-0.278 0.336,-0.752 0.058,-1.061 z"
         id="path22"
         inkscape:connector-curvature="0" /><path
         d="m 152.853,56.992 c 0.301,0.109 0.61,0.223 0.932,0.343 0.087,0.033 0.176,0.048 0.263,0.048 0.303,0 0.589,-0.187 0.702,-0.488 0.146,-0.387 -0.052,-0.82 -0.44,-0.964 h 0.002 c -0.326,-0.122 -0.642,-0.238 -0.949,-0.35 -0.391,-0.139 -0.82,0.061 -0.96,0.451 -0.143,0.39 0.059,0.82 0.45,0.96 z"
         id="path24"
         inkscape:connector-curvature="0" /><path
         d="m 162.018,103.078 c 0.004,0 0.008,10e-4 0.012,10e-4 0.409,0 0.741,-0.329 0.748,-0.739 0.004,-0.32 0.025,-0.623 0.06,-0.915 0.052,-0.412 -0.242,-0.786 -0.652,-0.835 -0.412,-0.052 -0.786,0.242 -0.837,0.652 -0.041,0.348 -0.064,0.707 -0.069,1.076 -0.008,0.414 0.323,0.753 0.738,0.76 z"
         id="path26"
         inkscape:connector-curvature="0" /><path
         d="m 158.395,59.197 c 0.301,0.129 0.605,0.262 0.913,0.397 0.098,0.044 0.2,0.064 0.302,0.064 0.287,0 0.562,-0.167 0.686,-0.449 0.168,-0.378 -0.004,-0.82 -0.382,-0.988 -0.311,-0.137 -0.618,-0.272 -0.924,-0.403 -0.382,-0.164 -0.822,0.011 -0.987,0.393 -0.164,0.38 0.012,0.82 0.392,0.986 z"
         id="path28"
         inkscape:connector-curvature="0" /><path
         d="m 169.06,94.207 c 0.117,0 0.237,-0.027 0.349,-0.085 h 0.002 c 0.288,-0.152 0.58,-0.303 0.878,-0.455 0.369,-0.187 0.516,-0.638 0.326,-1.007 -0.186,-0.369 -0.638,-0.517 -1.007,-0.328 -0.301,0.152 -0.601,0.307 -0.898,0.463 -0.367,0.193 -0.507,0.646 -0.314,1.014 0.133,0.254 0.394,0.398 0.664,0.398 z"
         id="path30"
         inkscape:connector-curvature="0" /><path
         d="m 182.255,77.025 c 0.109,0.304 0.397,0.494 0.704,0.494 0.085,0 0.172,-0.015 0.256,-0.045 0.389,-0.142 0.591,-0.571 0.448,-0.96 -0.118,-0.331 -0.255,-0.659 -0.407,-0.983 -0.177,-0.375 -0.623,-0.537 -0.997,-0.361 -0.375,0.176 -0.538,0.623 -0.36,0.997 0.132,0.287 0.252,0.573 0.356,0.858 z"
         id="path32"
         inkscape:connector-curvature="0" /><path
         d="m 174.813,68.357 c 0.135,0.103 0.294,0.152 0.451,0.152 0.228,0 0.453,-0.103 0.601,-0.296 0.25,-0.33 0.186,-0.801 -0.145,-1.052 -0.267,-0.202 -0.539,-0.403 -0.816,-0.606 -0.335,-0.243 -0.803,-0.169 -1.048,0.166 -0.244,0.335 -0.169,0.805 0.166,1.05 0.267,0.193 0.531,0.388 0.791,0.586 z"
         id="path34"
         inkscape:connector-curvature="0" /><path
         d="m 179.183,72.265 c 0.147,0.163 0.35,0.246 0.553,0.246 0.181,0 0.361,-0.065 0.506,-0.196 0.305,-0.282 0.326,-0.756 0.047,-1.061 -0.227,-0.251 -0.466,-0.5 -0.709,-0.745 -0.292,-0.296 -0.767,-0.298 -1.061,-0.006 -0.296,0.29 -0.298,0.765 -0.006,1.059 0.229,0.233 0.453,0.469 0.67,0.703 z"
         id="path36"
         inkscape:connector-curvature="0" /><path
         d="m 182.529,81.481 c -0.074,0.288 -0.169,0.575 -0.283,0.863 -0.152,0.386 0.037,0.82 0.423,0.973 0.091,0.036 0.184,0.053 0.275,0.053 0.299,0 0.581,-0.18 0.697,-0.476 0.136,-0.343 0.25,-0.689 0.338,-1.035 0.104,-0.402 -0.136,-0.809 -0.537,-0.915 -0.401,-0.103 -0.809,0.138 -0.913,0.537 z"
         id="path38"
         inkscape:connector-curvature="0" /><path
         d="m 179.568,86.136 c -0.223,0.217 -0.459,0.432 -0.708,0.648 -0.314,0.273 -0.346,0.745 -0.073,1.059 0.147,0.171 0.356,0.258 0.566,0.258 0.174,0 0.35,-0.061 0.492,-0.183 h -0.002 c 0.269,-0.234 0.526,-0.468 0.769,-0.702 0.296,-0.29 0.305,-0.765 0.018,-1.061 -0.288,-0.298 -0.765,-0.307 -1.062,-0.019 z"
         id="path40"
         inkscape:connector-curvature="0" /><path
         d="m 170.344,116.552 c -0.271,-0.315 -0.745,-0.352 -1.059,-0.082 -0.314,0.271 -0.352,0.743 -0.081,1.059 0.219,0.255 0.437,0.509 0.652,0.76 0.148,0.171 0.357,0.259 0.567,0.259 0.174,0 0.349,-0.06 0.491,-0.182 0.314,-0.271 0.348,-0.743 0.077,-1.057 h 0.003 c -0.216,-0.25 -0.433,-0.504 -0.65,-0.757 z"
         id="path42"
         inkscape:connector-curvature="0" /><path
         d="m 174.401,91.471 c 0.122,0 0.247,-0.03 0.361,-0.093 0.299,-0.166 0.596,-0.333 0.89,-0.507 0.356,-0.212 0.473,-0.672 0.264,-1.028 -0.212,-0.356 -0.672,-0.475 -1.028,-0.264 -0.279,0.165 -0.562,0.329 -0.848,0.487 -0.365,0.2 -0.496,0.655 -0.295,1.018 0.135,0.247 0.392,0.387 0.656,0.387 z"
         id="path44"
         inkscape:connector-curvature="0" /><path
         d="m 169.05,64.539 c 0.283,0.166 0.566,0.335 0.848,0.507 0.121,0.073 0.256,0.108 0.388,0.108 0.254,0 0.502,-0.129 0.643,-0.362 0.215,-0.354 0.102,-0.816 -0.253,-1.031 -0.285,-0.174 -0.577,-0.346 -0.867,-0.518 -0.356,-0.21 -0.816,-0.09 -1.026,0.267 -0.213,0.359 -0.093,0.819 0.267,1.029 z"
         id="path46"
         inkscape:connector-curvature="0" /><path
         d="m 173.587,122.895 c 0.145,0.209 0.378,0.321 0.614,0.321 0.149,0 0.3,-0.044 0.431,-0.136 0.338,-0.239 0.424,-0.704 0.185,-1.044 v -0.002 c -0.192,-0.273 -0.395,-0.55 -0.605,-0.829 -0.251,-0.333 -0.721,-0.397 -1.052,-0.148 -0.331,0.251 -0.396,0.722 -0.147,1.052 0.202,0.266 0.393,0.528 0.574,0.786 z"
         id="path48"
         inkscape:connector-curvature="0" /><path
         d="m 141.871,54.193 c 1.939,0.037 3.593,-0.831 4.249,-2.074 1.404,0.061 2.988,-0.93 3.934,-2.624 1.208,-2.167 0.902,-4.642 -0.682,-5.524 -1.584,-0.882 -3.848,0.158 -5.056,2.326 -0.295,0.529 -0.496,1.074 -0.614,1.61 -0.523,-0.168 -1.096,-0.269 -1.7,-0.28 -2.481,-0.051 -4.521,1.381 -4.558,3.193 -0.036,1.813 1.947,3.324 4.427,3.373 z"
         id="path50"
         inkscape:connector-curvature="0" /><path
         d="m 141.257,129.027 c 1.939,0.037 3.593,-0.83 4.249,-2.074 1.404,0.061 2.988,-0.93 3.934,-2.623 1.208,-2.168 0.902,-4.642 -0.682,-5.524 -1.584,-0.882 -3.848,0.158 -5.056,2.326 -0.295,0.528 -0.496,1.073 -0.614,1.61 -0.523,-0.168 -1.096,-0.27 -1.7,-0.281 -2.481,-0.05 -4.521,1.381 -4.558,3.193 -0.036,1.813 1.946,3.325 4.427,3.373 z"
         id="path52"
         inkscape:connector-curvature="0" /><path
         d="m 261.099,36.268 c -0.604,0.018 -1.176,0.124 -1.697,0.298 -0.124,-0.536 -0.33,-1.079 -0.63,-1.604 -1.229,-2.156 -3.504,-3.174 -5.079,-2.275 -1.574,0.897 -1.855,3.374 -0.627,5.529 0.962,1.685 2.556,2.659 3.959,2.585 0.668,1.237 2.33,2.089 4.27,2.033 2.48,-0.074 4.447,-1.604 4.394,-3.417 -0.056,-1.813 -2.11,-3.224 -4.59,-3.149 z"
         id="path54"
         inkscape:connector-curvature="0" /><path
         d="m 214.024,56.8 c 0.668,1.237 2.33,2.089 4.27,2.033 2.48,-0.074 4.447,-1.604 4.394,-3.417 -0.055,-1.813 -2.108,-3.223 -4.589,-3.149 -0.604,0.018 -1.176,0.124 -1.697,0.298 -0.124,-0.536 -0.33,-1.079 -0.63,-1.604 -1.229,-2.156 -3.504,-3.174 -5.079,-2.275 -1.574,0.897 -1.855,3.374 -0.627,5.529 0.961,1.685 2.555,2.659 3.958,2.585 z"
         id="path56"
         inkscape:connector-curvature="0" /><path
         d="m 250.755,115.591 c -0.411,-0.05 -0.783,0.245 -0.831,0.656 -0.039,0.327 -0.08,0.651 -0.125,0.974 -0.059,0.411 0.23,0.79 0.638,0.849 0.035,0.005 0.069,0.007 0.104,0.007 0.368,0 0.692,-0.271 0.745,-0.647 h -0.002 c 0.048,-0.334 0.091,-0.669 0.13,-1.007 0.047,-0.412 -0.247,-0.785 -0.659,-0.832 z"
         id="path58"
         inkscape:connector-curvature="0" /><path
         d="m 250.121,110.389 c 0.02,0.327 0.032,0.654 0.041,0.979 0.011,0.407 0.344,0.729 0.751,0.729 0.006,0 0.013,0 0.02,0 0.414,-0.011 0.74,-0.357 0.73,-0.771 -0.009,-0.34 -0.024,-0.68 -0.043,-1.021 -0.024,-0.414 -0.377,-0.729 -0.79,-0.706 -0.415,0.021 -0.733,0.376 -0.709,0.79 z"
         id="path60"
         inkscape:connector-curvature="0" /><path
         d="m 238.765,90.555 c 0.069,0.078 0.134,0.156 0.201,0.233 0.169,0.188 0.327,0.362 0.482,0.533 0.148,0.162 0.351,0.244 0.554,0.244 0.181,0 0.361,-0.064 0.505,-0.196 0.306,-0.279 0.327,-0.753 0.05,-1.059 -0.153,-0.169 -0.31,-0.34 -0.465,-0.513 -0.055,-0.063 -0.119,-0.139 -0.183,-0.214 -0.269,-0.316 -0.742,-0.355 -1.059,-0.087 -0.315,0.268 -0.354,0.742 -0.085,1.059 z"
         id="path62"
         inkscape:connector-curvature="0" /><path
         d="m 249.621,103.74 c -0.396,0.122 -0.617,0.541 -0.494,0.938 0.094,0.301 0.183,0.61 0.263,0.927 0.087,0.338 0.392,0.563 0.727,0.563 0.063,0 0.126,-0.008 0.188,-0.024 0.4,-0.104 0.641,-0.513 0.539,-0.914 h -0.002 c -0.087,-0.34 -0.182,-0.671 -0.281,-0.996 -0.124,-0.396 -0.544,-0.617 -0.94,-0.494 z"
         id="path64"
         inkscape:connector-curvature="0" /><path
         d="m 249.422,123.967 c 0.343,0 0.653,-0.236 0.732,-0.583 v -0.002 c 0.073,-0.327 0.147,-0.654 0.219,-0.981 0.087,-0.405 -0.171,-0.805 -0.573,-0.894 -0.407,-0.086 -0.806,0.171 -0.895,0.576 -0.069,0.322 -0.141,0.647 -0.214,0.97 -0.092,0.405 0.162,0.805 0.566,0.896 0.056,0.013 0.111,0.018 0.165,0.018 z"
         id="path66"
         inkscape:connector-curvature="0" /><path
         d="m 248.463,127.359 c -0.403,-0.091 -0.804,0.163 -0.895,0.567 -0.075,0.327 -0.146,0.654 -0.219,0.98 -0.089,0.405 0.169,0.806 0.574,0.894 0.053,0.012 0.106,0.017 0.158,0.017 0.347,0 0.658,-0.239 0.735,-0.591 l -0.002,-0.002 c 0.071,-0.323 0.143,-0.647 0.215,-0.97 0.092,-0.404 -0.162,-0.804 -0.566,-0.895 z"
         id="path68"
         inkscape:connector-curvature="0" /><path
         d="m 241.034,59.557 c 0.219,0 0.435,-0.095 0.583,-0.278 h 0.003 c 0.205,-0.255 0.415,-0.511 0.627,-0.766 0.265,-0.321 0.219,-0.792 -0.1,-1.057 -0.317,-0.264 -0.79,-0.219 -1.054,0.1 -0.217,0.26 -0.429,0.52 -0.641,0.779 -0.262,0.32 -0.213,0.792 0.11,1.054 0.14,0.113 0.307,0.168 0.472,0.168 z"
         id="path70"
         inkscape:connector-curvature="0" /><path
         d="m 233.146,75.44 c 0.019,0.001 0.037,0.002 0.056,0.002 0.39,0 0.719,-0.302 0.748,-0.697 0.021,-0.316 0.054,-0.634 0.095,-0.948 0.054,-0.411 -0.236,-0.788 -0.645,-0.842 -0.411,-0.054 -0.787,0.236 -0.842,0.647 -0.045,0.342 -0.08,0.688 -0.105,1.037 -0.031,0.413 0.28,0.773 0.693,0.801 z"
         id="path72"
         inkscape:connector-curvature="0" /><path
         d="m 234.328,69.586 c 0.094,0.038 0.189,0.056 0.284,0.056 0.295,0 0.575,-0.174 0.694,-0.465 0.122,-0.296 0.252,-0.593 0.386,-0.89 0.173,-0.376 0.007,-0.82 -0.37,-0.994 -0.375,-0.171 -0.82,-0.006 -0.994,0.37 -0.143,0.314 -0.278,0.63 -0.408,0.946 -0.158,0.384 0.025,0.821 0.408,0.977 z"
         id="path74"
         inkscape:connector-curvature="0" /><path
         d="m 233.437,78.925 c -0.402,0.095 -0.651,0.498 -0.557,0.9 0.078,0.334 0.169,0.669 0.269,1.007 0.097,0.326 0.396,0.537 0.72,0.537 0.07,0 0.141,-0.01 0.212,-0.031 0.395,-0.119 0.623,-0.537 0.506,-0.933 -0.093,-0.31 -0.175,-0.619 -0.246,-0.924 -0.097,-0.404 -0.502,-0.653 -0.904,-0.556 z"
         id="path76"
         inkscape:connector-curvature="0" /><path
         d="m 235.21,85.565 c 0.166,0.293 0.342,0.587 0.525,0.881 0.143,0.229 0.386,0.354 0.636,0.354 0.136,0 0.273,-0.037 0.397,-0.113 0.353,-0.219 0.459,-0.682 0.24,-1.033 -0.173,-0.281 -0.34,-0.559 -0.498,-0.836 -0.206,-0.359 -0.665,-0.483 -1.024,-0.277 -0.359,0.205 -0.482,0.664 -0.276,1.024 z"
         id="path78"
         inkscape:connector-curvature="0" /><path
         d="m 237.048,64.25 c 0.127,0.084 0.271,0.124 0.412,0.124 0.243,0 0.481,-0.118 0.627,-0.336 v -0.002 c 0.178,-0.271 0.361,-0.544 0.55,-0.814 0.235,-0.342 0.149,-0.808 -0.191,-1.043 -0.342,-0.236 -0.808,-0.152 -1.044,0.19 -0.192,0.279 -0.383,0.561 -0.566,0.842 -0.23,0.346 -0.135,0.81 0.212,1.039 z"
         id="path80"
         inkscape:connector-curvature="0" /><path
         d="m 243.531,95.711 c 0.147,0.163 0.352,0.246 0.557,0.246 0.18,0 0.36,-0.064 0.504,-0.193 0.306,-0.279 0.329,-0.753 0.052,-1.061 -0.225,-0.247 -0.452,-0.494 -0.682,-0.742 -0.283,-0.303 -0.758,-0.321 -1.061,-0.039 -0.303,0.281 -0.322,0.755 -0.039,1.059 0.228,0.245 0.451,0.488 0.669,0.73 z"
         id="path82"
         inkscape:connector-curvature="0" /><path
         d="m 246.971,135.721 c 0.029,0.003 0.059,0.005 0.088,0.005 0.375,0 0.699,-0.281 0.744,-0.663 0.039,-0.327 0.08,-0.651 0.125,-0.976 0.057,-0.412 -0.232,-0.79 -0.641,-0.847 -0.411,-0.058 -0.79,0.229 -0.847,0.641 -0.045,0.333 -0.089,0.671 -0.127,1.009 -0.047,0.411 0.247,0.784 0.658,0.831 z"
         id="path84"
         inkscape:connector-curvature="0" /><path
         d="m 248.858,50.459 c 0.212,0 0.423,-0.089 0.572,-0.263 0.216,-0.253 0.435,-0.509 0.649,-0.767 0.269,-0.316 0.227,-0.788 -0.089,-1.054 -0.316,-0.268 -0.788,-0.229 -1.055,0.087 -0.216,0.253 -0.431,0.506 -0.647,0.76 -0.268,0.314 -0.231,0.788 0.083,1.056 0.143,0.122 0.316,0.181 0.487,0.181 z"
         id="path86"
         inkscape:connector-curvature="0" /><path
         d="m 247.136,100.32 c 0.141,0.229 0.387,0.355 0.639,0.355 0.135,0 0.27,-0.036 0.393,-0.112 0.351,-0.219 0.461,-0.68 0.243,-1.033 -0.183,-0.292 -0.37,-0.582 -0.564,-0.866 -0.235,-0.342 -0.701,-0.429 -1.043,-0.195 -0.343,0.233 -0.431,0.699 -0.195,1.041 0.182,0.266 0.358,0.537 0.527,0.81 z"
         id="path88"
         inkscape:connector-curvature="0" /><path
         d="m 244.92,54.984 c 0.21,0 0.418,-0.087 0.566,-0.257 0.216,-0.248 0.438,-0.5 0.655,-0.751 0.273,-0.312 0.24,-0.786 -0.069,-1.059 -0.314,-0.273 -0.787,-0.24 -1.059,0.071 -0.218,0.251 -0.439,0.5 -0.657,0.751 -0.273,0.312 -0.24,0.786 0.071,1.059 0.142,0.124 0.318,0.186 0.493,0.186 z"
         id="path90"
         inkscape:connector-curvature="0" /><path
         d="m 246.8,139.215 c -0.415,0.013 -0.74,0.357 -0.728,0.773 0.012,0.34 0.026,0.682 0.048,1.024 0.023,0.397 0.354,0.703 0.747,0.703 0.016,0 0.031,0 0.048,-0.001 0.415,-0.026 0.728,-0.383 0.703,-0.796 h -0.002 c -0.02,-0.325 -0.034,-0.649 -0.046,-0.974 -0.01,-0.415 -0.356,-0.742 -0.77,-0.729 z"
         id="path92"
         inkscape:connector-curvature="0" /><path
         d="m 252.653,45.81 c 0.226,0 0.449,-0.101 0.598,-0.294 h -0.002 c 0.206,-0.269 0.409,-0.537 0.612,-0.808 0.247,-0.333 0.178,-0.803 -0.153,-1.05 -0.333,-0.249 -0.803,-0.18 -1.05,0.153 -0.197,0.264 -0.396,0.528 -0.6,0.791 -0.254,0.329 -0.19,0.801 0.139,1.052 0.136,0.105 0.297,0.156 0.456,0.156 z"
         id="path94"
         inkscape:connector-curvature="0" /><path
         d="m 202.287,67.786 c 0.227,0 0.453,-0.104 0.601,-0.3 0.19,-0.252 0.39,-0.504 0.597,-0.756 0.265,-0.319 0.22,-0.791 -0.1,-1.056 -0.318,-0.263 -0.79,-0.22 -1.056,0.099 -0.222,0.27 -0.437,0.541 -0.642,0.815 -0.248,0.33 -0.181,0.799 0.151,1.049 0.136,0.1 0.293,0.149 0.449,0.149 z"
         id="path96"
         inkscape:connector-curvature="0" /><path
         d="m 204.793,82.05 c 0.302,0.181 0.595,0.351 0.877,0.515 0.116,0.068 0.245,0.101 0.372,0.101 0.259,0 0.512,-0.134 0.65,-0.374 0.209,-0.358 0.087,-0.819 -0.271,-1.025 -0.284,-0.164 -0.568,-0.328 -0.851,-0.498 -0.354,-0.215 -0.816,-0.104 -1.029,0.252 -0.216,0.352 -0.102,0.814 0.252,1.029 z"
         id="path98"
         inkscape:connector-curvature="0" /><path
         d="m 199.8,73.198 c 0.027,0.003 0.055,0.004 0.082,0.004 0.378,0 0.705,-0.284 0.747,-0.668 h -0.002 c 0.034,-0.297 0.086,-0.595 0.157,-0.892 0.095,-0.403 -0.153,-0.808 -0.556,-0.902 -0.403,-0.097 -0.809,0.151 -0.903,0.554 -0.084,0.356 -0.148,0.715 -0.189,1.075 -0.045,0.411 0.252,0.784 0.664,0.829 z"
         id="path100"
         inkscape:connector-curvature="0" /><path
         d="m 206.413,63.441 c 0.178,0 0.355,-0.062 0.499,-0.188 0.244,-0.218 0.494,-0.436 0.743,-0.648 0.314,-0.271 0.352,-0.746 0.082,-1.06 -0.27,-0.314 -0.743,-0.351 -1.058,-0.082 -0.259,0.222 -0.513,0.444 -0.765,0.668 -0.311,0.276 -0.338,0.75 -0.063,1.06 0.15,0.165 0.356,0.25 0.562,0.25 z"
         id="path102"
         inkscape:connector-curvature="0" /><path
         d="m 200.316,77.621 c 0.172,0.299 0.368,0.599 0.582,0.896 0.146,0.204 0.375,0.314 0.609,0.314 0.15,0 0.303,-0.045 0.435,-0.14 0.337,-0.241 0.416,-0.709 0.175,-1.045 v -0.002 c -0.188,-0.261 -0.355,-0.521 -0.504,-0.78 -0.209,-0.358 -0.668,-0.479 -1.027,-0.271 -0.357,0.209 -0.479,0.668 -0.27,1.028 z"
         id="path104"
         inkscape:connector-curvature="0" /><path
         d="m 209.384,86.399 c 0.113,0.301 0.4,0.487 0.702,0.487 0.088,0 0.176,-0.015 0.263,-0.047 0.388,-0.146 0.584,-0.577 0.439,-0.965 h -0.002 c -0.134,-0.36 -0.282,-0.692 -0.444,-0.998 -0.193,-0.368 -0.648,-0.506 -1.015,-0.314 -0.366,0.194 -0.506,0.646 -0.313,1.015 0.132,0.247 0.256,0.52 0.37,0.822 z"
         id="path106"
         inkscape:connector-curvature="0" /><path
         d="m 210.463,96.235 c -0.409,-0.064 -0.793,0.215 -0.855,0.627 -0.052,0.338 -0.102,0.67 -0.148,0.998 -0.061,0.409 0.226,0.788 0.635,0.849 0.036,0.005 0.072,0.007 0.107,0.007 0.368,0 0.688,-0.27 0.744,-0.645 h -0.002 c 0.045,-0.316 0.095,-0.644 0.146,-0.98 0.062,-0.41 -0.218,-0.794 -0.627,-0.856 z"
         id="path108"
         inkscape:connector-curvature="0" /><path
         d="m 211.71,92.056 c 0.02,-0.345 0.03,-0.691 0.032,-1.036 0.002,-0.415 -0.332,-0.751 -0.747,-0.754 -0.414,-0.004 -0.752,0.332 -0.755,0.746 0,0.319 -0.011,0.64 -0.027,0.963 -0.023,0.414 0.293,0.767 0.709,0.788 0.014,10e-4 0.028,10e-4 0.043,10e-4 0.394,0 0.724,-0.309 0.745,-0.708 z"
         id="path110"
         inkscape:connector-curvature="0" /><path
         d="m 151.12,157.662 c 0.118,0.328 0.247,0.651 0.384,0.97 0.121,0.284 0.399,0.454 0.69,0.454 0.1,0 0.199,-0.02 0.296,-0.061 0.379,-0.165 0.555,-0.605 0.392,-0.986 -0.126,-0.293 -0.244,-0.589 -0.353,-0.889 -0.142,-0.389 -0.572,-0.59 -0.961,-0.449 -0.39,0.141 -0.591,0.571 -0.45,0.961 z"
         id="path112"
         inkscape:connector-curvature="0" /><path
         d="m 151.009,147.308 c 0.35,0 0.663,-0.247 0.734,-0.604 0.062,-0.313 0.131,-0.635 0.203,-0.967 0.088,-0.404 -0.169,-0.805 -0.573,-0.893 -0.406,-0.087 -0.805,0.169 -0.893,0.576 -0.072,0.336 -0.144,0.666 -0.207,0.989 -0.082,0.406 0.182,0.802 0.588,0.884 0.05,0.01 0.1,0.015 0.148,0.015 z"
         id="path114"
         inkscape:connector-curvature="0" /><path
         d="m 146.453,132.778 c 0.026,0.003 0.052,0.004 0.078,0.004 0.379,0 0.705,-0.288 0.745,-0.674 0.043,-0.411 -0.257,-0.781 -0.67,-0.822 -0.333,-0.036 -0.683,-0.06 -1.048,-0.07 -0.416,-0.015 -0.763,0.31 -0.773,0.726 -0.015,0.413 0.311,0.76 0.726,0.772 h -0.002 c 0.332,0.011 0.646,0.032 0.944,0.064 z"
         id="path116"
         inkscape:connector-curvature="0" /><path
         d="m 150.434,134.484 c 0.184,0.212 0.345,0.441 0.481,0.687 0.137,0.246 0.392,0.384 0.654,0.384 0.123,0 0.249,-0.031 0.364,-0.095 0.362,-0.201 0.492,-0.657 0.291,-1.018 -0.186,-0.334 -0.404,-0.65 -0.663,-0.946 -0.274,-0.313 -0.747,-0.343 -1.058,-0.071 -0.312,0.271 -0.344,0.746 -0.069,1.059 z"
         id="path118"
         inkscape:connector-curvature="0" /><path
         d="m 149.95,151.571 c 0.017,0.344 0.038,0.687 0.07,1.029 0.034,0.391 0.361,0.684 0.746,0.684 0.022,0 0.045,-0.001 0.067,-0.003 0.411,-0.037 0.717,-0.402 0.681,-0.814 -0.03,-0.321 -0.052,-0.642 -0.066,-0.965 -0.02,-0.413 -0.37,-0.734 -0.783,-0.715 -0.413,0.02 -0.734,0.369 -0.715,0.784 z"
         id="path120"
         inkscape:connector-curvature="0" /><path
         d="m 151.544,139.614 c -0.027,0.314 -0.063,0.636 -0.108,0.957 -0.056,0.411 0.233,0.79 0.644,0.846 0.034,0.004 0.068,0.007 0.101,0.007 0.368,0 0.691,-0.274 0.742,-0.651 0.047,-0.342 0.085,-0.687 0.115,-1.027 0.034,-0.413 -0.271,-0.777 -0.683,-0.813 -0.413,-0.036 -0.777,0.27 -0.811,0.681 z"
         id="path122"
         inkscape:connector-curvature="0" /><path
         d="m 154.269,163.045 v 0.002 c 0.124,0.144 0.251,0.285 0.381,0.426 0.147,0.161 0.35,0.243 0.552,0.243 0.183,0 0.365,-0.066 0.51,-0.2 0.305,-0.28 0.323,-0.755 0.043,-1.06 -0.119,-0.13 -0.237,-0.259 -0.351,-0.392 -0.273,-0.313 -0.745,-0.347 -1.058,-0.077 -0.315,0.272 -0.349,0.746 -0.077,1.058 z"
         id="path124"
         inkscape:connector-curvature="0" /></g></g></svg>