<?xml version="1.0" encoding="UTF-8" standalone="no"?>
<svg
   xmlns:dc="http://purl.org/dc/elements/1.1/"
   xmlns:cc="http://creativecommons.org/ns#"
   xmlns:rdf="http://www.w3.org/1999/02/22-rdf-syntax-ns#"
   xmlns:svg="http://www.w3.org/2000/svg"
   xmlns="http://www.w3.org/2000/svg"
   xmlns:sodipodi="http://sodipodi.sourceforge.net/DTD/sodipodi-0.dtd"
   xmlns:inkscape="http://www.inkscape.org/namespaces/inkscape"
   version="1.1"
   x="0px"
   y="0px"
   viewBox="0 0 79.414711 72.759621"
   enable-background="new 0 0 100 100"
   xml:space="preserve"
   id="svg14"
   sodipodi:docname="noun_Water_1750727.svg"
   width="79.414711"
   height="72.759621"
   inkscape:version="0.92.2 5c3e80d, 2017-08-06"><metadata
     id="metadata20"><rdf:RDF><cc:Work
         rdf:about=""><dc:format>image/svg+xml</dc:format><dc:type
           rdf:resource="http://purl.org/dc/dcmitype/StillImage" /><dc:title></dc:title></cc:Work></rdf:RDF></metadata><defs
     id="defs18" /><sodipodi:namedview
     pagecolor="#ffffff"
     bordercolor="#666666"
     borderopacity="1"
     objecttolerance="10"
     gridtolerance="10"
     guidetolerance="10"
     inkscape:pageopacity="0"
     inkscape:pageshadow="2"
     inkscape:window-width="640"
     inkscape:window-height="480"
     id="namedview16"
     showgrid="false"
     fit-margin-top="0"
     fit-margin-left="0"
     fit-margin-right="0"
     fit-margin-bottom="0"
     inkscape:zoom="1.888"
     inkscape:cx="38.499597"
     inkscape:cy="23.969619"
     inkscape:window-x="0"
     inkscape:window-y="0"
     inkscape:window-maximized="0"
     inkscape:current-layer="svg14" /><g
     id="g8"
     transform="translate(-11.500403,-13.71)"><path
       d="M 53.375,82.4 C 60.455,82.232 67.996,81.315 72.096,80.088 66.002,80.857 60.524,81.263 55.645,81.38 23.84,82.132 17.214,70.553 28.913,66.662 c -6.007,1.573 -10.778,5.009 -7.99,8.371 3.328,4.018 15.247,7.013 27.88,7.366 1.473,0.039 3.01,0.039 4.572,0.001 z"
       id="path2"
       inkscape:connector-curvature="0" /><path
       d="m 36.022,62.207 c 2.034,8.295 9.691,14.364 18.824,14.197 C 65.53,76.179 74.162,67.544 74.158,57.094 74.137,46.633 56.52,30.643 54.725,13.71 52.996,30.711 35.444,47.385 35.474,57.844 c 0,1.132 0.123,2.234 0.319,3.309 -11.323,0.804 -20.919,3.722 -23.564,6.932 -1.752,2.136 -0.223,4.835 3.287,6.216 C 9.588,66.983 22.42,63.244 36.022,62.207 Z"
       id="path4"
       inkscape:connector-curvature="0" /><path
       d="m 81.883,69.853 c 11.836,3.466 5.629,15.278 -26.181,15.67 -4.884,0.058 -10.372,-0.152 -16.488,-0.704 4.142,1.081 11.71,1.729 18.794,1.643 1.559,-0.021 3.097,-0.076 4.566,-0.168 12.611,-0.805 24.417,-4.229 27.595,-8.362 2.669,-3.462 -2.226,-6.723 -8.286,-8.079 z"
       id="path6"
       inkscape:connector-curvature="0" /></g></svg>