<?xml version="1.0" encoding="UTF-8" standalone="no"?>
<svg
   xmlns:dc="http://purl.org/dc/elements/1.1/"
   xmlns:cc="http://creativecommons.org/ns#"
   xmlns:rdf="http://www.w3.org/1999/02/22-rdf-syntax-ns#"
   xmlns:svg="http://www.w3.org/2000/svg"
   xmlns="http://www.w3.org/2000/svg"
   xmlns:sodipodi="http://sodipodi.sourceforge.net/DTD/sodipodi-0.dtd"
   xmlns:inkscape="http://www.inkscape.org/namespaces/inkscape"
   version="1.1"
   x="0px"
   y="0px"
   viewBox="0 0 508 457.10007"
   enable-background="new 0 0 512 512"
   xml:space="preserve"
   id="svg12"
   sodipodi:docname="noun_Electricity_785572.svg"
   width="508"
   height="457.10007"
   inkscape:version="0.92.2 5c3e80d, 2017-08-06"><metadata
     id="metadata18"><rdf:RDF><cc:Work
         rdf:about=""><dc:format>image/svg+xml</dc:format><dc:type
           rdf:resource="http://purl.org/dc/dcmitype/StillImage" /><dc:title></dc:title></cc:Work></rdf:RDF></metadata><defs
     id="defs16" /><sodipodi:namedview
     pagecolor="#ffffff"
     bordercolor="#666666"
     borderopacity="1"
     objecttolerance="10"
     gridtolerance="10"
     guidetolerance="10"
     inkscape:pageopacity="0"
     inkscape:pageshadow="2"
     inkscape:window-width="640"
     inkscape:window-height="480"
     id="namedview14"
     showgrid="false"
     fit-margin-top="0"
     fit-margin-left="0"
     fit-margin-right="0"
     fit-margin-bottom="0"
     inkscape:zoom="0.36875"
     inkscape:cx="254"
     inkscape:cy="164.50007"
     inkscape:window-x="0"
     inkscape:window-y="0"
     inkscape:window-maximized="0"
     inkscape:current-layer="svg12" /><g
     id="g6"
     transform="translate(-2,-27.4)"><path
       d="m 281.4,27.4 c -119.6,0 -217.9,92.4 -227.6,209.5 -15.7,8.6 -26.4,25.3 -26.4,44.5 v 50.8 H 12.2 C 6.6,332.2 2,336.7 2,342.4 v 30.5 c 0,5.6 4.5,10.2 10.2,10.2 h 15.1 v 63.5 c 0,7 5.7,12.7 12.7,12.7 7,0 12.7,-5.7 12.7,-12.7 V 383 h 50.9 v 63.5 c 0,7 5.7,12.7 12.7,12.7 7,0 12.7,-5.7 12.7,-12.7 V 383 h 15.2 c 5.6,0 10.2,-4.5 10.2,-10.2 v -30.5 c 0,-5.6 -4.5,-10.2 -10.2,-10.2 H 129 V 284 c 0,-18.7 -9.5,-36.3 -24.5,-45.9 9,-89.7 84.9,-160 176.9,-160 98,0 177.8,79.8 177.8,177.8 0,98 -79.8,177.8 -177.8,177.8 -14,0 -25.4,11.4 -25.4,25.4 0,14 11.4,25.4 25.4,25.4 C 407.4,484.6 510,382 510,256 510,130 407.4,27.4 281.4,27.4 Z"
       id="path2"
       inkscape:connector-curvature="0" /><path
       d="m 347.8,256 h -18.6 c -7.7,0 -12.6,-8.2 -8.9,-15 l 61.5,-97 c 3.7,-6.8 -1.2,-15 -8.9,-15 H 237.5 c -5,0 -9.2,3.6 -10,8.5 l -22.1,135 c -1,6.2 3.8,11.8 10,11.8 h 28.3 c 6.5,0 11.4,6.1 9.9,12.4 L 230.9,396 c -2.3,10.4 10.9,16.9 17.7,8.7 L 355.4,272.9 c 5.8,-6.5 1.2,-16.9 -7.6,-16.9 z"
       id="path4"
       inkscape:connector-curvature="0" /></g></svg>