<?xml version="1.0" encoding="UTF-8" standalone="no"?>
<svg
   xmlns:dc="http://purl.org/dc/elements/1.1/"
   xmlns:cc="http://creativecommons.org/ns#"
   xmlns:rdf="http://www.w3.org/1999/02/22-rdf-syntax-ns#"
   xmlns:svg="http://www.w3.org/2000/svg"
   xmlns="http://www.w3.org/2000/svg"
   xmlns:sodipodi="http://sodipodi.sourceforge.net/DTD/sodipodi-0.dtd"
   xmlns:inkscape="http://www.inkscape.org/namespaces/inkscape"
   data-name="Layer 1"
   viewBox="0 0 96.919052 87.662163"
   x="0px"
   y="0px"
   version="1.1"
   id="svg10"
   sodipodi:docname="noun_Home_1683136.svg"
   width="96.919052"
   height="87.662163"
   inkscape:version="0.92.2 2405546, 2018-03-11">
  <metadata
     id="metadata16">
    <rdf:RDF>
      <cc:Work
         rdf:about="">
        <dc:format>image/svg+xml</dc:format>
        <dc:type
           rdf:resource="http://purl.org/dc/dcmitype/StillImage" />
        <dc:title>Artboard 84</dc:title>
      </cc:Work>
    </rdf:RDF>
  </metadata>
  <defs
     id="defs14" />
  <sodipodi:namedview
     pagecolor="#ffffff"
     bordercolor="#666666"
     borderopacity="1"
     objecttolerance="10"
     gridtolerance="10"
     guidetolerance="10"
     inkscape:pageopacity="0"
     inkscape:pageshadow="2"
     inkscape:window-width="1366"
     inkscape:window-height="739"
     id="namedview12"
     showgrid="false"
     fit-margin-top="0"
     fit-margin-left="0"
     fit-margin-right="0"
     fit-margin-bottom="0"
     inkscape:zoom="1.888"
     inkscape:cx="52.575849"
     inkscape:cy="44.773038"
     inkscape:window-x="0"
     inkscape:window-y="0"
     inkscape:window-maximized="1"
     inkscape:current-layer="svg10" />
  <title
     id="title2">Artboard 84</title>
  <path
     d="m 2.5129713,44.612163 0.15,-0.11 c 4.05,-3 7.9999997,-6.05 11.9999997,-9.07 q -0.92,19.24 -1.38,38.49 l -0.11,5 a 9,9 0 0 0 0.1,1.95 7.87,7.87 0 0 0 0.66,2 8.13,8.13 0 0 0 6.9,4.61 h 2.66 l 5,0.07 20.1,0.11 20.1,-0.13 5,-0.07 h 1.26 c 0.44,0 0.72,0 1.57,0 a 8.11,8.11 0 0 0 6.65,-4.94 7.59,7.59 0 0 0 0.55,-2.09 9.45,9.45 0 0 0 0.07,-1.07 v -0.63 l -0.11,-5 q -0.48,-19.12 -1.4,-38.25 c 4.06,3.07 8.07,6.2 12.18,9.2 v 0 a 1.94,1.94 0 0 0 2.26,-2.72 l -0.13,-0.12 q -10.76,-10.26 -21.88,-20.14 a 36.19,36.19 0 0 0 -0.65,-21.47000036 3.81,3.81 0 0 0 -1.72,-0.21 3.87,3.87 0 0 0 -1.73,0.21 v 0 a 36.37,36.37 0 0 0 -1.64,16.45000036 c -6,-5.24 -12,-10.4700004 -18.08,-15.5500004 a 3.7,3.7 0 0 0 -4.75,0 Q 22.572971,20.872163 0.28297129,41.962163 v 0 a 1.57,1.57 0 0 0 0.23,2.06 c 0.59000001,0.71 1.46000001,0.97 2.00000001,0.59 z m 45.9099997,35.7 h -9.25 c 0.52,-5.59 0.95,-11.18 1.23,-16.78 l 0.22,-4.89 v -1.15 a 0.17,0.17 0 0 1 0.06,-0.08 0.22,0.22 0 0 1 0.15,-0.08 c 0,0 0.06,0 0.06,0 v 0 c 0,0 0,0 0.29,0 h 2.45 4.9 4.9 2.45 a 2,2 0 0 0 0.26,0 0.29,0.29 0 0 1 0.14,0.08 0.17,0.17 0 0 1 0.05,0.1 v 1.23 l 0.21,4.9 c 0.27,5.56 0.69,11.11 1.2,16.67 z m 0.09,-71.5300004 c 10,8.2600004 20.14,16.2600004 30.44,24.0900004 a 1.43,1.43 0 0 0 -0.17,0.61 v 0.24 q -1,20.07 -1.48,40.17 l -0.11,5 a 1.93,1.93 0 0 1 -0.06,0.63 1,1 0 0 1 -0.13,0.32 1.33,1.33 0 0 1 -0.49,0.48 1.16,1.16 0 0 1 -0.63,0.16 h -2.36 l -5,-0.07 h -6.61 c 0.51,-5.6 0.93,-11.2 1.21,-16.8 l 0.21,-4.9 v -1.3 a 7.27,7.27 0 0 0 -3.24,-6 7.18,7.18 0 0 0 -2.18,-1 7.68,7.68 0 0 0 -1.18,-0.22 h -0.93 -2.45 -4.9 -4.9 -2.45 a 7.55,7.55 0 0 0 -4.36,1.37 7.36,7.36 0 0 0 -2.73,3.78 7.63,7.63 0 0 0 -0.32,2.29 v 1.23 l 0.21,4.9 c 0.29,5.56 0.71,11.12 1.23,16.68 h -6.89 l -5,0.06 h -2.2 a 1.26,1.26 0 0 1 -0.61,-0.2 1.19,1.19 0 0 1 -0.57,-0.82 c 0,0 0,-0.12 0,-0.18 v -0.61 l -0.11,-5 q -0.48,-20.08 -1.46,-40.18 v 0 a 1.36,1.36 0 0 0 -0.22,-0.65 c 10.28,-7.84 20.44,-15.83 30.44,-24.0800004 z"
     id="path4"
     inkscape:connector-curvature="0" />
</svg>
