<?xml version="1.0" encoding="UTF-8" standalone="no"?>
<svg
   xmlns:dc="http://purl.org/dc/elements/1.1/"
   xmlns:cc="http://creativecommons.org/ns#"
   xmlns:rdf="http://www.w3.org/1999/02/22-rdf-syntax-ns#"
   xmlns:svg="http://www.w3.org/2000/svg"
   xmlns="http://www.w3.org/2000/svg"
   xmlns:sodipodi="http://sodipodi.sourceforge.net/DTD/sodipodi-0.dtd"
   xmlns:inkscape="http://www.inkscape.org/namespaces/inkscape"
   version="1.1"
   x="0px"
   y="0px"
   viewBox="0 0 1001 933.71454"
   xml:space="preserve"
   id="svg26"
   sodipodi:docname="noun_rockslide_1034478.svg"
   width="1001"
   height="933.71454"
   inkscape:version="0.92.2 5c3e80d, 2017-08-06"><metadata
     id="metadata32"><rdf:RDF><cc:Work
         rdf:about=""><dc:format>image/svg+xml</dc:format><dc:type
           rdf:resource="http://purl.org/dc/dcmitype/StillImage" /><dc:title></dc:title></cc:Work></rdf:RDF></metadata><defs
     id="defs30" /><sodipodi:namedview
     pagecolor="#ffffff"
     bordercolor="#666666"
     borderopacity="1"
     objecttolerance="10"
     gridtolerance="10"
     guidetolerance="10"
     inkscape:pageopacity="0"
     inkscape:pageshadow="2"
     inkscape:window-width="1055"
     inkscape:window-height="661"
     id="namedview28"
     showgrid="false"
     fit-margin-top="0"
     fit-margin-left="0"
     fit-margin-right="0"
     fit-margin-bottom="0"
     inkscape:zoom="0.1888"
     inkscape:cx="500.5"
     inkscape:cy="395.905"
     inkscape:window-x="0"
     inkscape:window-y="0"
     inkscape:window-maximized="0"
     inkscape:current-layer="svg26" /><style
     type="text/css"
     id="style2">
	.st0{stroke:#B4B4B5;stroke-miterlimit:10;}
</style><path
     class="st0"
     d="m 968.9,4.209567 -75.4,53.6 -18,148.000003 -80,40 10,150 -106,-19.1 -91.7,102.3 -18.1,173.3 -130.2,-6.5 c 0,0 -110.4,113.6 -362,117.7 -36,0.6 -61.3,0.8 -77,0.8 -11,0 -20,9 -20,20 v 53.5 c 0,41.4 33.6,75 75,75 h 850 c 41.4,0 75,-33.6 75,-75 V 20.509567 c 0,-16.2 -18.3,-25.7 -31.6,-16.3 z"
     id="path4"
     inkscape:connector-curvature="0"
     style="stroke:#b4b4b5;stroke-miterlimit:10" /><polygon
     class="st0"
     points="647,349 731,311 743,245 697,207 627,261 "
     id="polygon6"
     style="stroke:#b4b4b5;stroke-miterlimit:10"
     transform="translate(0.5,-87.190433)" /><polygon
     class="st0"
     points="421,713 547,691 547,500 431,500 349,649 "
     id="polygon8"
     style="stroke:#b4b4b5;stroke-miterlimit:10"
     transform="translate(0.5,-87.190433)" /><polygon
     class="st0"
     points="627,471 627,433 597,419 567,427 547,454 577,489 "
     id="polygon10"
     style="stroke:#b4b4b5;stroke-miterlimit:10"
     transform="translate(0.5,-87.190433)" /><polygon
     class="st0"
     points="696,419 729,433 729,396 707,359 685,391 "
     id="polygon12"
     style="stroke:#b4b4b5;stroke-miterlimit:10"
     transform="translate(0.5,-87.190433)" /><polygon
     class="st0"
     points="791,278 773,260.5 787,233 813,243 823,265 "
     id="polygon14"
     style="stroke:#b4b4b5;stroke-miterlimit:10"
     transform="translate(0.5,-87.190433)" /><polygon
     class="st0"
     points="595,377 617,363 617,349 595,349 587,365 "
     id="polygon16"
     style="stroke:#b4b4b5;stroke-miterlimit:10"
     transform="translate(0.5,-87.190433)" /><polygon
     class="st0"
     points="322,706.9 300,712 298.3,742.8 317,748.3 334.6,726.4 "
     id="polygon18"
     style="stroke:#b4b4b5;stroke-miterlimit:10"
     transform="translate(0.5,-87.190433)" /><polygon
     class="st0"
     points="396,731.3 393,742.3 377.7,746.7 371,735.3 377.7,724 390.7,725.3 "
     id="polygon20"
     style="stroke:#b4b4b5;stroke-miterlimit:10"
     transform="translate(0.5,-87.190433)" /><text
     x="0.5"
     y="927.80957"
     font-size="5px"
     font-weight="bold"
     id="text22"
     style="font-weight:bold;font-size:5px;font-family:'Helvetica Neue', Helvetica, Arial-Unicode, Arial, Sans-serif;fill:#000000">Created by Yang LIU</text>
<text
     x="0.5"
     y="932.80957"
     font-size="5px"
     font-weight="bold"
     id="text24"
     style="font-weight:bold;font-size:5px;font-family:'Helvetica Neue', Helvetica, Arial-Unicode, Arial, Sans-serif;fill:#000000">from the Noun Project</text>
</svg>