<?xml version="1.0" encoding="UTF-8" standalone="no"?>
<svg
   xmlns:dc="http://purl.org/dc/elements/1.1/"
   xmlns:cc="http://creativecommons.org/ns#"
   xmlns:rdf="http://www.w3.org/1999/02/22-rdf-syntax-ns#"
   xmlns:svg="http://www.w3.org/2000/svg"
   xmlns="http://www.w3.org/2000/svg"
   xmlns:sodipodi="http://sodipodi.sourceforge.net/DTD/sodipodi-0.dtd"
   xmlns:inkscape="http://www.inkscape.org/namespaces/inkscape"
   version="1.1"
   x="0px"
   y="0px"
   viewBox="0 0 61.632 54.465679"
   enable-background="new 0 0 64 64"
   xml:space="preserve"
   id="svg32"
   sodipodi:docname="noun_Flood_595162.svg"
   width="61.632"
   height="54.465679"
   inkscape:version="0.92.2 5c3e80d, 2017-08-06"><metadata
     id="metadata38"><rdf:RDF><cc:Work
         rdf:about=""><dc:format>image/svg+xml</dc:format><dc:type
           rdf:resource="http://purl.org/dc/dcmitype/StillImage" /><dc:title></dc:title></cc:Work></rdf:RDF></metadata><defs
     id="defs36" /><sodipodi:namedview
     pagecolor="#ffffff"
     bordercolor="#666666"
     borderopacity="1"
     objecttolerance="10"
     gridtolerance="10"
     guidetolerance="10"
     inkscape:pageopacity="0"
     inkscape:pageshadow="2"
     inkscape:window-width="1285"
     inkscape:window-height="719"
     id="namedview34"
     showgrid="false"
     fit-margin-top="0"
     fit-margin-left="0"
     fit-margin-right="0"
     fit-margin-bottom="0"
     inkscape:zoom="5.9"
     inkscape:cx="30.816"
     inkscape:cy="19.232679"
     inkscape:window-x="0"
     inkscape:window-y="0"
     inkscape:window-maximized="0"
     inkscape:current-layer="svg32" /><g
     id="g26"
     transform="translate(-1.184,-4.767)"><path
       d="m 27.981,36.113 c -0.532,-3.282 -3.93,-5.518 -7.164,-4.705 -2.769,0.687 -4.647,3.156 -4.647,6.147 v 8.335 c 0.61,-0.097 1.21,-0.213 1.82,-0.348 3.369,-0.736 6.738,-1.036 10.087,-0.542 v -0.89 c 0,-2.227 0.01,-4.463 0,-6.699 10e-4,-0.417 -0.029,-0.862 -0.096,-1.298 z"
       id="path2"
       inkscape:connector-curvature="0"
       style="fill:#000000" /><path
       d="m 27.981,36.113 c -0.532,-3.282 -3.93,-5.518 -7.164,-4.705 -2.769,0.687 -4.647,3.156 -4.647,6.147 v 8.335 c 0.61,-0.097 1.21,-0.213 1.82,-0.348 3.369,-0.736 6.738,-1.036 10.087,-0.542 v -0.89 c 0,-2.227 0.01,-4.463 0,-6.699 10e-4,-0.417 -0.029,-0.862 -0.096,-1.298 z"
       id="path4"
       inkscape:connector-curvature="0"
       style="fill:#000000" /><path
       d="M 61.273,26.036 C 60.576,25.504 59.869,24.971 59.182,24.439 58.078,23.577 56.965,22.735 55.871,21.893 L 45.919,14.235 43.963,12.734 C 40.943,10.43 37.922,8.097 34.911,5.793 34.388,5.386 33.865,5.125 33.343,4.951 33.314,4.941 33.295,4.941 33.275,4.932 33.12,4.884 32.965,4.845 32.801,4.806 32.714,4.796 32.627,4.787 32.53,4.777 c -0.116,-0.01 -0.223,-0.01 -0.329,-0.01 -0.106,0 -0.223,0 -0.329,0.01 -0.087,0.01 -0.194,0.019 -0.281,0.029 -0.155,0.039 -0.31,0.077 -0.465,0.126 -0.019,0.01 -0.048,0.01 -0.068,0.019 -0.523,0.174 -1.046,0.436 -1.559,0.842 -3.679,2.807 -7.348,5.634 -11.017,8.442 v -3.127 c 0,-0.745 -0.61,-1.365 -1.365,-1.365 H 11.93 c -0.755,0 -1.365,0.62 -1.365,1.375 0.01,3.078 0.039,5.692 -0.039,8.296 -0.019,0.455 -0.261,0.997 -0.591,1.394 -1.568,1.22 -3.137,2.42 -4.715,3.63 -0.697,0.532 -1.394,1.065 -2.081,1.597 -0.949,0.726 -1.578,1.559 -1.53,2.624 -0.01,0.561 0.136,1.104 0.474,1.578 0.784,1.162 2.43,1.762 3.959,1.317 0.339,-0.097 0.678,-0.252 0.997,-0.445 v 15.199 c 1.471,0.116 2.943,0.145 4.414,0.087 V 35.397 c 0,0 0,0 0.01,0 v -7.29 c 0,-0.116 0.019,-0.223 0.048,-0.339 6.438,-4.908 12.875,-9.826 19.265,-14.773 l 0.668,-0.494 c 0.271,-0.165 0.513,-0.232 0.755,-0.252 0.242,0.019 0.484,0.087 0.745,0.252 l 0.668,0.494 c 6.409,4.947 12.837,9.865 19.284,14.773 0.01,0.116 0.039,0.223 0.039,0.339 v 7.29 c 0.01,0 0.01,0 0.01,0 v 9.052 c 1.472,-0.039 2.943,0.068 4.414,0.397 V 31.108 c 0.319,0.194 0.649,0.348 1.007,0.445 1.51,0.445 3.156,-0.155 3.95,-1.317 0.329,-0.474 0.474,-1.017 0.465,-1.578 0.06,-1.064 -0.559,-1.896 -1.508,-2.622 z"
       id="path6"
       inkscape:connector-curvature="0"
       style="fill:#000000" /><path
       d="m 27.981,36.113 c -0.532,-3.282 -3.93,-5.518 -7.164,-4.705 -2.769,0.687 -4.647,3.156 -4.647,6.147 v 8.335 c 0.61,-0.097 1.21,-0.213 1.82,-0.348 3.369,-0.736 6.738,-1.036 10.087,-0.542 v -0.89 c 0,-2.227 0.01,-4.463 0,-6.699 10e-4,-0.417 -0.029,-0.862 -0.096,-1.298 z"
       id="path8"
       inkscape:connector-curvature="0"
       style="fill:#000000" /><path
       d="m 27.981,36.113 c -0.532,-3.282 -3.93,-5.518 -7.164,-4.705 -2.769,0.687 -4.647,3.156 -4.647,6.147 v 8.335 c 0.61,-0.097 1.21,-0.213 1.82,-0.348 3.369,-0.736 6.738,-1.036 10.087,-0.542 v -0.89 c 0,-2.227 0.01,-4.463 0,-6.699 10e-4,-0.417 -0.029,-0.862 -0.096,-1.298 z"
       id="path10"
       inkscape:connector-curvature="0"
       style="fill:#000000" /><path
       d="m 33.441,20.777 c 0,2.827 0,5.6 0,8.4 1.602,0 3.158,0 4.71,0 0,-2.834 0,-5.608 0,-8.4 -1.581,0 -3.11,0 -4.71,0 z"
       id="path12"
       inkscape:connector-curvature="0"
       style="fill:#000000" /><path
       d="m 26.271,20.777 c 0,2.827 0,5.6 0,8.4 1.602,0 3.158,0 4.71,0 0,-2.834 0,-5.608 0,-8.4 -1.582,0 -3.11,0 -4.71,0 z"
       id="path14"
       inkscape:connector-curvature="0"
       style="fill:#000000" /><polyline
       points="55.869,21.89 45.917,14.239 43.96,12.738  "
       id="polyline16"
       style="fill:#000000" /><path
       d="m 57.122,53.353 c -4.908,-1.465 -9.826,-1.235 -14.77,-0.148 -5.65,1.242 -11.328,1.306 -17.014,0.203 -0.251,-0.049 -0.512,-0.051 -0.835,0.075 0.25,0.182 0.489,0.384 0.752,0.544 4.774,2.904 9.957,4.409 15.54,4.104 2.3,-0.126 4.571,-0.795 6.852,-1.232 4.164,-0.798 8.355,-1.225 12.598,-0.922 0.859,0.061 1.714,0.177 2.571,0.268 -1.691,-1.455 -3.643,-2.28 -5.694,-2.892 z"
       id="path18"
       inkscape:connector-curvature="0"
       style="fill:#000000" /><path
       d="M 31.351,47.615 C 26.963,46.306 22.567,46.511 18.147,47.483 13.096,48.593 8.02,48.651 2.937,47.664 2.712,47.62 2.48,47.618 2.191,47.731 c 0.224,0.163 0.437,0.343 0.672,0.487 4.268,2.596 8.901,3.942 13.892,3.668 2.056,-0.113 4.086,-0.711 6.126,-1.102 3.723,-0.713 7.469,-1.095 11.262,-0.824 0.768,0.055 1.532,0.159 2.298,0.24 -1.512,-1.3 -3.257,-2.038 -5.09,-2.585 z"
       id="path20"
       inkscape:connector-curvature="0"
       style="fill:#000000" /><path
       d="m 58.683,47.08 c -3.347,-0.999 -6.7,-0.842 -10.071,-0.101 -3.852,0.847 -7.724,0.891 -11.601,0.138 -0.171,-0.033 -0.349,-0.035 -0.569,0.051 0.171,0.124 0.333,0.262 0.513,0.371 3.255,1.98 6.789,3.007 10.596,2.798 1.568,-0.086 3.117,-0.542 4.673,-0.84 2.839,-0.544 5.697,-0.835 8.59,-0.629 0.586,0.042 1.169,0.121 1.753,0.183 -1.155,-0.991 -2.485,-1.553 -3.884,-1.971 z"
       id="path22"
       inkscape:connector-curvature="0"
       style="fill:#000000" /><path
       d="M 23.425,55.949 C 20.078,54.95 16.725,55.107 13.354,55.848 9.502,56.695 5.63,56.739 1.753,55.986 1.582,55.953 1.404,55.951 1.184,56.037 c 0.171,0.124 0.333,0.262 0.513,0.371 3.255,1.98 6.789,3.007 10.596,2.798 1.568,-0.086 3.117,-0.542 4.673,-0.84 2.839,-0.544 5.697,-0.835 8.59,-0.629 0.586,0.042 1.169,0.121 1.753,0.183 -1.155,-0.991 -2.485,-1.554 -3.884,-1.971 z"
       id="path24"
       inkscape:connector-curvature="0"
       style="fill:#000000" /></g></svg>