<?xml version="1.0" encoding="UTF-8" standalone="no"?>
<svg
   xmlns:dc="http://purl.org/dc/elements/1.1/"
   xmlns:cc="http://creativecommons.org/ns#"
   xmlns:rdf="http://www.w3.org/1999/02/22-rdf-syntax-ns#"
   xmlns:svg="http://www.w3.org/2000/svg"
   xmlns="http://www.w3.org/2000/svg"
   xmlns:sodipodi="http://sodipodi.sourceforge.net/DTD/sodipodi-0.dtd"
   xmlns:inkscape="http://www.inkscape.org/namespaces/inkscape"
   version="1.1"
   x="0px"
   y="0px"
   viewBox="0 0 88.5 64.800003"
   enable-background="new 0 0 100 100"
   xml:space="preserve"
   id="svg50"
   sodipodi:docname="noun_closed road_119532.svg"
   width="88.5"
   height="64.800003"
   inkscape:version="0.92.2 5c3e80d, 2017-08-06"><metadata
     id="metadata56"><rdf:RDF><cc:Work
         rdf:about=""><dc:format>image/svg+xml</dc:format><dc:type
           rdf:resource="http://purl.org/dc/dcmitype/StillImage" /><dc:title></dc:title></cc:Work></rdf:RDF></metadata><defs
     id="defs54" /><sodipodi:namedview
     pagecolor="#ffffff"
     bordercolor="#666666"
     borderopacity="1"
     objecttolerance="10"
     gridtolerance="10"
     guidetolerance="10"
     inkscape:pageopacity="0"
     inkscape:pageshadow="2"
     inkscape:window-width="1288"
     inkscape:window-height="714"
     id="namedview52"
     showgrid="false"
     fit-margin-top="0"
     fit-margin-left="0"
     fit-margin-right="0"
     fit-margin-bottom="0"
     inkscape:zoom="3.776"
     inkscape:cx="43.9"
     inkscape:cy="21.099997"
     inkscape:window-x="0"
     inkscape:window-y="0"
     inkscape:window-maximized="0"
     inkscape:current-layer="svg50" /><g
     id="g10"
     transform="translate(-6.1,-18.8)"><polygon
       points="50.9,18.8 50.7,18.8 50.1,24.7 51.5,24.7 "
       id="polygon2" /><polygon
       points="57.4,74.9 44.2,74.9 43.3,83.6 50.8,83.6 58.4,83.6 "
       id="polygon4" /><polygon
       points="45.1,67.8 56.6,67.8 55.7,60.5 46,60.5 "
       id="polygon6" /><polygon
       points="53.2,39.1 52.3,31.9 49.3,31.9 48.4,39.1 "
       id="polygon8" /></g><g
     id="g20"
     transform="translate(-6.1,-18.8)"><polygon
       points="48.5,18.8 44.8,18.8 30,44 36.2,44 "
       id="polygon12" /><polygon
       points="6.8,83.6 16.9,83.6 30.5,55.7 23.2,55.7 "
       id="polygon14" /><polygon
       points="84.6,83.6 94.6,83.6 78.3,55.7 71,55.7 "
       id="polygon16" /><polygon
       points="56.7,18.8 53,18.8 65.3,44 71.5,44 "
       id="polygon18" /></g><g
     id="g44"
     transform="translate(-6.1,-18.8)"><path
       d="m 13.5,47.6 v 0 c 0,-2.1 -1.6,-3.7 -3.7,-3.7 -2.1,0 -3.7,1.6 -3.7,3.7 v 0 0 19.5 h 7.4 z"
       id="path22"
       inkscape:connector-curvature="0" /><g
       id="g42"><polygon
         points="65.3,46.8 60.7,52.4 65.7,52.4 70.4,46.8 "
         id="polygon24" /><polygon
         points="75.8,46.8 71.2,52.4 76.2,52.4 80.8,46.8 "
         id="polygon26" /><polygon
         points="54.9,46.8 50.2,52.4 55.2,52.4 59.9,46.8 "
         id="polygon28" /><polygon
         points="44.5,46.8 39.7,52.4 44.9,52.4 49.5,46.8 "
         id="polygon30" /><polygon
         points="33.9,46.8 29.3,52.4 34.4,52.4 39,46.8 "
         id="polygon32" /><polygon
         points="86.2,46.8 81.6,52.4 86.6,52.4 91.3,46.8 "
         id="polygon34" /><polygon
         points="92,52.4 93.9,52.4 93.9,50.3 "
         id="polygon36" /><polygon
         points="18.2,46.8 13,46.8 11,49.2 11,52.4 13.4,52.4 "
         id="polygon38" /><polygon
         points="23.5,46.8 18.9,52.4 23.9,52.4 28.6,46.8 "
         id="polygon40" /></g></g></svg>