<?xml version="1.0" encoding="UTF-8" standalone="no"?>
<svg
   xmlns:dc="http://purl.org/dc/elements/1.1/"
   xmlns:cc="http://creativecommons.org/ns#"
   xmlns:rdf="http://www.w3.org/1999/02/22-rdf-syntax-ns#"
   xmlns:svg="http://www.w3.org/2000/svg"
   xmlns="http://www.w3.org/2000/svg"
   xmlns:sodipodi="http://sodipodi.sourceforge.net/DTD/sodipodi-0.dtd"
   xmlns:inkscape="http://www.inkscape.org/namespaces/inkscape"
   version="1.1"
   x="0px"
   y="0px"
   viewBox="0 0 96.556183 64.800003"
   enable-background="new 0 0 100 100"
   xml:space="preserve"
   id="svg50"
   sodipodi:docname="noun_closed road_119532.svg"
   width="96.556183"
   height="64.800003"
   inkscape:version="0.92.2 5c3e80d, 2017-08-06"><metadata
     id="metadata56"><rdf:RDF><cc:Work
         rdf:about=""><dc:format>image/svg+xml</dc:format><dc:type
           rdf:resource="http://purl.org/dc/dcmitype/StillImage" /><dc:title></dc:title></cc:Work></rdf:RDF></metadata><defs
     id="defs54" /><sodipodi:namedview
     pagecolor="#ffffff"
     bordercolor="#666666"
     borderopacity="1"
     objecttolerance="10"
     gridtolerance="10"
     guidetolerance="10"
     inkscape:pageopacity="0"
     inkscape:pageshadow="2"
     inkscape:window-width="1280"
     inkscape:window-height="714"
     id="namedview52"
     showgrid="false"
     fit-margin-top="0"
     fit-margin-left="0"
     fit-margin-right="0"
     fit-margin-bottom="0"
     inkscape:zoom="2.9531601"
     inkscape:cx="33.119791"
     inkscape:cy="31.02072"
     inkscape:window-x="11"
     inkscape:window-y="0"
     inkscape:window-maximized="0"
     inkscape:current-layer="svg50" /><g
     id="g10"
     transform="translate(-3.9756464,-18.8)"><polygon
       points="50.9,18.8 50.7,18.8 50.1,24.7 51.5,24.7 "
       id="polygon2" /><polygon
       points="58.4,83.6 57.4,74.9 44.2,74.9 43.3,83.6 50.8,83.6 "
       id="polygon4" /><polygon
       points="45.1,67.8 56.6,67.8 55.7,60.5 46,60.5 "
       id="polygon6" /><polygon
       points="53.2,39.1 52.3,31.9 49.3,31.9 48.4,39.1 "
       id="polygon8" /></g><g
     id="g20"
     transform="translate(-3.9756464,-18.8)"><polygon
       points="48.5,18.8 44.8,18.8 30,44 36.2,44 "
       id="polygon12" /><polygon
       points="6.8,83.6 16.9,83.6 30.5,55.7 23.2,55.7 "
       id="polygon14" /><polygon
       points="84.6,83.6 94.6,83.6 78.3,55.7 71,55.7 "
       id="polygon16" /><polygon
       points="56.7,18.8 53,18.8 65.3,44 71.5,44 "
       id="polygon18" /></g><path
     inkscape:connector-curvature="0"
     d="m 96.554066,33.225807 c 0.06497,-1.950732 -1.372922,-3.567396 -3.233508,-3.635518 L 79.738607,29.093019 72.394826,14.664105 c -0.612222,-1.194281 -1.993268,-1.633941 -3.132362,-0.992057 -0.760481,0.460433 -1.159654,1.2263 -1.18889,2.104129 -0.013,0.390146 0.06451,0.880502 0.240857,1.179921 l 0.439132,0.798083 c -0.282336,0.08732 -0.57407,0.467642 -0.587065,0.857788 l -0.0031,0.09714 -0.559629,-0.02049 0.0031,-0.09714 c 0.01623,-0.487683 -0.341777,-0.891795 -0.713895,-0.90542 -0.372118,-0.01362 -0.757971,0.363254 -0.774214,0.850936 l -0.0031,0.09714 -0.557815,-0.02043 0.0031,-0.09714 c 0.01624,-0.487685 -0.343594,-0.891862 -0.715712,-0.905486 -0.372118,-0.01362 -0.756153,0.363318 -0.772397,0.851 l -0.0031,0.09714 -0.557814,-0.02043 0.0031,-0.09714 c 0.01624,-0.487682 -0.343592,-0.891861 -0.715711,-0.905484 -0.465147,-0.01702 -0.75797,0.363251 -0.774214,0.850933 l -0.0031,0.09715 -0.09266,-0.0033 c -0.279089,-0.01022 -0.47488,0.275198 -0.484626,0.567808 -0.0098,0.29261 0.166579,0.591651 0.445667,0.60187 l -0.09266,-0.0033 -0.0033,0.09906 c -0.01624,0.487683 0.343657,0.889956 0.715775,0.90358 0.465147,0.01702 0.756089,-0.361414 0.772332,-0.849096 l 0.0033,-0.09906 0.557815,0.02043 -0.0033,0.09906 c -0.01623,0.487682 0.343659,0.889957 0.715777,0.90358 0.372117,0.01362 0.757907,-0.361347 0.774149,-0.84903 l 0.0033,-0.09906 0.557814,0.02043 -0.0033,0.09906 c -0.01624,0.487681 0.34184,0.88989 0.713958,0.903513 0.372117,0.01362 0.757907,-0.361347 0.77415,-0.84903 l 0.0033,-0.09906 0.557814,0.02042 -0.0033,0.09906 c -0.01624,0.487682 0.343659,0.889956 0.715776,0.90358 0.465147,0.01702 0.75609,-0.361414 0.772333,-0.849096 l 0.0033,-0.09906 0.09448,0.0035 4.541128,9.054439 L 61.12941,28.510878 52.497413,10.8114 C 51.885191,9.6171187 50.504208,9.1755539 49.365114,9.8174367 48.514856,10.176929 48.112736,11.04225 48.083498,11.920078 c -0.013,0.390146 0.06451,0.880502 0.240856,1.179922 l 0.435894,0.895239 c -0.285584,0.184855 -0.388684,0.472903 -0.398431,0.765512 l -0.0033,0.09906 -0.557814,-0.02043 0.0033,-0.09906 c 0.01624,-0.487682 -0.343657,-0.889956 -0.715775,-0.90358 -0.372118,-0.01362 -0.757905,0.361348 -0.774148,0.849031 l -0.0033,0.09906 -0.557813,-0.02042 0.0033,-0.09906 c 0.01624,-0.487683 -0.341844,-0.88989 -0.713962,-0.903514 -0.372118,-0.01362 -0.757906,0.361348 -0.774149,0.849031 l -0.0033,0.09906 -0.557835,-0.02042 0.0033,-0.09906 c 0.01624,-0.487683 -0.343656,-0.889957 -0.715775,-0.903582 -0.465147,-0.01702 -0.756091,0.361414 -0.772334,0.849097 l -0.0033,0.09906 -0.09448,-0.0035 c -0.279089,-0.01022 -0.474881,0.275198 -0.484626,0.567808 -0.0098,0.29261 0.16658,0.59165 0.445667,0.601868 l 0.09448,0.0035 -0.0031,0.09715 c -0.01623,0.487682 0.341779,0.891794 0.713896,0.905419 0.465147,0.01702 0.757971,-0.363252 0.774213,-0.850935 l 0.0031,-0.09714 0.557814,0.02043 -0.0031,0.09714 c -0.01624,0.487682 0.343594,0.89186 0.715711,0.905485 0.372119,0.01362 0.756156,-0.36332 0.7724,-0.851002 l 0.0031,-0.09714 0.557814,0.02042 -0.0031,0.09715 c -0.01624,0.487681 0.343593,0.891859 0.715711,0.905483 0.372118,0.01363 0.757968,-0.363251 0.774212,-0.850934 l 0.0031,-0.09715 0.557816,0.02043 -0.0031,0.09714 c -0.01624,0.487683 0.341775,0.891795 0.713894,0.905419 0.465147,0.01702 0.757969,-0.363254 0.774213,-0.850937 l 0.0031,-0.09715 6.20512,12.239575 c 0,0 -54.3263451,-2.086683 -55.25988903,-2.023207 -0.9335445,0.06346 -0.9404582,3.08939 -0.341231,4.673817 C 1.357003,33.352503 2.19102,33.480694 2.19102,33.480694 l 57.492962,2.104965 8.127632,16.019724 c -0.192557,0.188261 -0.38875,0.474805 -0.398495,0.767415 l -0.557815,-0.02043 0.0031,-0.09713 c 0.01623,-0.487672 -0.341778,-0.891793 -0.713896,-0.905417 -0.372118,-0.01362 -0.757971,0.36326 -0.774213,0.850944 l -0.0031,0.09713 -0.557815,-0.02042 0.0031,-0.09714 c 0.01624,-0.487682 -0.343595,-0.891868 -0.715712,-0.905494 -0.372117,-0.01362 -0.756153,0.363328 -0.772397,0.851013 l -0.0031,0.09713 -0.744962,-0.02728 0.0031,-0.09714 C 62.595649,51.610882 62.235816,51.206706 61.863696,51.19308 61.39855,51.17606 61.107545,51.5564 61.0913,52.044082 l -0.0031,0.09713 -0.09266,-0.0033 c -0.279089,-0.01022 -0.474881,0.275199 -0.484628,0.567809 -0.0098,0.292608 0.16658,0.591651 0.445669,0.601869 l 0.09266,0.0033 -0.0033,0.09906 c -0.01624,0.487682 0.34184,0.889892 0.713959,0.903517 0.465147,0.01702 0.757905,-0.36135 0.774149,-0.849033 l 0.0033,-0.09906 0.557814,0.02042 -0.0033,0.09906 c -0.01623,0.487682 0.343659,0.889958 0.715776,0.903583 0.372118,0.01362 0.756091,-0.361417 0.772333,-0.8491 l 0.0033,-0.09907 0.559631,0.02048 -0.0033,0.09907 c -0.01625,0.487682 0.34184,0.889881 0.713958,0.903505 0.372119,0.01362 0.757907,-0.36134 0.774151,-0.849023 l 0.0033,-0.09907 0.557813,0.02043 -0.0033,0.09907 c -0.01623,0.487683 0.343658,0.889947 0.715776,0.903571 0.465147,0.01702 0.756089,-0.361405 0.772333,-0.849088 l 0.0033,-0.09907 0.871794,1.790478 c 0.798282,1.201093 2.273382,1.646112 3.319448,1.000824 1.139095,-0.641883 1.560317,-2.091684 0.948096,-3.285965 l -8.734435,-17.409497 12.931465,0.473455 4.632441,9.153146 c -0.282337,0.08732 -0.481407,0.471034 -0.4944,0.86118 l -0.0031,0.09713 -0.559633,-0.02049 0.0031,-0.09713 c 0.01628,-0.487685 -0.341771,-0.891793 -0.713891,-0.905418 -0.372119,-0.01362 -0.757972,0.363252 -0.774215,0.850934 l -0.0031,0.09714 -0.557814,-0.02043 0.0031,-0.09713 c 0.01625,-0.487683 -0.343594,-0.89186 -0.715711,-0.905483 -0.372118,-0.01362 -0.756154,0.363317 -0.772397,0.850999 l -0.0031,0.09714 -0.557815,-0.02043 0.0031,-0.09713 c 0.01624,-0.487682 -0.343594,-0.891862 -0.715712,-0.905485 -0.465147,-0.01702 -0.757969,0.363251 -0.774214,0.850934 l -0.0031,0.09713 -0.09266,-0.0033 c -0.279087,-0.01022 -0.474943,0.277109 -0.484689,0.56972 -0.0098,0.292608 0.16658,0.59165 0.445669,0.601869 l -0.09267,-0.0033 -0.0031,0.09714 c -0.01623,0.487681 0.343594,0.891859 0.715711,0.905484 0.465148,0.01702 0.756154,-0.36332 0.772396,-0.851002 l 0.0031,-0.09713 0.557815,0.02042 -0.0031,0.09714 c -0.01624,0.487684 0.343593,0.891858 0.715711,0.905484 0.372117,0.01362 0.757971,-0.363252 0.774213,-0.850935 l 0.0031,-0.09714 0.557814,0.02043 -0.0031,0.09714 c -0.01624,0.487682 0.341778,0.891793 0.713895,0.905417 0.372124,0.01362 0.757968,-0.363251 0.774217,-0.850935 l 0.0031,-0.09714 0.55781,0.02043 -0.0031,0.09713 c -0.01628,0.487684 0.343595,0.891859 0.715713,0.905484 0.465147,0.01702 0.75615,-0.363318 0.772399,-0.851002 l 0.0031,-0.09714 0.09448,0.0035 0.69765,1.3931 c 0.612221,1.194281 1.99508,1.633999 3.134178,0.992117 1.139099,-0.641883 1.560251,-2.089761 0.948032,-3.284044 l -4.969139,-10.241215 9.768096,0.357635 c 1.860587,0.06812 3.402475,-1.437523 3.467451,-3.388255 z"
     id="path2"
     style="stroke-width:0.95314431" /></svg>