<?xml version="1.0" encoding="UTF-8" standalone="no"?>
<svg
   xmlns:dc="http://purl.org/dc/elements/1.1/"
   xmlns:cc="http://creativecommons.org/ns#"
   xmlns:rdf="http://www.w3.org/1999/02/22-rdf-syntax-ns#"
   xmlns:svg="http://www.w3.org/2000/svg"
   xmlns="http://www.w3.org/2000/svg"
   xmlns:sodipodi="http://sodipodi.sourceforge.net/DTD/sodipodi-0.dtd"
   xmlns:inkscape="http://www.inkscape.org/namespaces/inkscape"
   version="1.1"
   x="0px"
   y="0px"
   viewBox="0 0 80.800003 60.799999"
   xml:space="preserve"
   id="svg52"
   sodipodi:docname="noun_Flood_1225737.svg"
   width="80.800003"
   height="60.799999"
   inkscape:version="0.92.2 5c3e80d, 2017-08-06"><metadata
     id="metadata58"><rdf:RDF><cc:Work
         rdf:about=""><dc:format>image/svg+xml</dc:format><dc:type
           rdf:resource="http://purl.org/dc/dcmitype/StillImage" /><dc:title></dc:title></cc:Work></rdf:RDF></metadata><defs
     id="defs56" /><sodipodi:namedview
     pagecolor="#ffffff"
     bordercolor="#666666"
     borderopacity="1"
     objecttolerance="10"
     gridtolerance="10"
     guidetolerance="10"
     inkscape:pageopacity="0"
     inkscape:pageshadow="2"
     inkscape:window-width="1282"
     inkscape:window-height="711"
     id="namedview54"
     showgrid="false"
     fit-margin-top="0"
     fit-margin-left="0"
     fit-margin-right="0"
     fit-margin-bottom="0"
     inkscape:zoom="4.1955556"
     inkscape:cx="40.4"
     inkscape:cy="19.15"
     inkscape:window-x="0"
     inkscape:window-y="0"
     inkscape:window-maximized="0"
     inkscape:current-layer="svg52" /><g
     id="g46"
     transform="translate(-4.6,-14.6)"><path
       d="m 73.8,61.5 h -15 V 58.4 H 67 c 0.7,0 1.3,-0.6 1.3,-1.3 0,-0.7 -0.6,-1.3 -1.3,-1.3 h -8.2 v -5.7 h 4.5 v 0 0 L 65.7,46.4 40.9,30.5 16,46.4 l 2.4,3.7 v 0 h 4.5 v 5.7 h -9 c -0.7,0 -1.3,0.6 -1.3,1.3 0,0.7 0.6,1.3 1.3,1.3 h 9 v 3.1 h -17 c -0.7,0 -1.3,0.6 -1.3,1.3 0,0.7 0.6,1.3 1.3,1.3 h 26.6 c 0.7,0 1.3,-0.6 1.3,-1.3 0,-0.7 -0.6,-1.3 -1.3,-1.3 H 27 V 44.6 l 13.9,-8.9 13.9,8.9 V 61.5 H 50.4 V 47.2 h -9.7 v 15.6 0 0 c 0,0.7 0.6,1.3 1.3,1.3 h 31.8 c 0.7,0 1.3,-0.6 1.3,-1.3 0,-0.7 -0.5,-1.3 -1.3,-1.3 z"
       id="path2"
       inkscape:connector-curvature="0" /><path
       d="M 58.2,67.5 H 45 c -0.7,0 -1.3,0.6 -1.3,1.3 0,0.7 0.6,1.3 1.3,1.3 h 13.1 c 0.7,0 1.3,-0.6 1.3,-1.3 0.1,-0.7 -0.5,-1.3 -1.2,-1.3 z"
       id="path4"
       inkscape:connector-curvature="0" /><path
       d="M 52.2,72.8 H 33.8 c -0.7,0 -1.3,0.6 -1.3,1.3 0,0.7 0.6,1.3 1.3,1.3 h 18.4 c 0.7,0 1.3,-0.6 1.3,-1.3 0,-0.8 -0.6,-1.3 -1.3,-1.3 z"
       id="path6"
       inkscape:connector-curvature="0" /><path
       d="m 37.2,68.8 c 0,-0.7 -0.6,-1.3 -1.3,-1.3 h -9.6 c -0.7,0 -1.3,0.6 -1.3,1.3 0,0.7 0.6,1.3 1.3,1.3 h 9.6 c 0.8,0.1 1.3,-0.5 1.3,-1.3 z"
       id="path8"
       inkscape:connector-curvature="0" /><path
       d="m 70.4,67.5 h -6 c -0.7,0 -1.3,0.6 -1.3,1.3 0,0.7 0.6,1.3 1.3,1.3 h 6 c 0.7,0 1.3,-0.6 1.3,-1.3 0,-0.7 -0.6,-1.3 -1.3,-1.3 z"
       id="path10"
       inkscape:connector-curvature="0" /><path
       d="m 18.6,67.5 h -6 c -0.7,0 -1.3,0.6 -1.3,1.3 0,0.7 0.6,1.3 1.3,1.3 h 6 c 0.7,0 1.3,-0.6 1.3,-1.3 0,-0.7 -0.5,-1.3 -1.3,-1.3 z"
       id="path12"
       inkscape:connector-curvature="0" /><rect
       x="30.799999"
       y="47.200001"
       width="6"
       height="8.6999998"
       id="rect14" /><path
       d="m 49.5,29.9 c 0.6,-0.4 2,-3.2 2,-3.2 0,0 -3,0.7 -3.5,1.2 -0.6,0.4 -0.7,1.3 -0.3,1.8 0.5,0.6 1.3,0.7 1.8,0.2 z"
       id="path16"
       inkscape:connector-curvature="0" /><path
       d="m 57.1,24 c 0.6,-0.4 2,-3.2 2,-3.2 0,0 -3,0.7 -3.5,1.2 -0.6,0.4 -0.7,1.3 -0.3,1.8 0.4,0.6 1.2,0.7 1.8,0.2 z"
       id="path18"
       inkscape:connector-curvature="0" /><path
       d="m 64.7,18.1 c 0.6,-0.4 2,-3.2 2,-3.2 0,0 -3,0.7 -3.5,1.2 -0.6,0.4 -0.7,1.3 -0.3,1.8 0.4,0.6 1.2,0.6 1.8,0.2 z"
       id="path20"
       inkscape:connector-curvature="0" /><path
       d="m 28.8,32.7 c 0.6,-0.4 2,-3.2 2,-3.2 0,0 -3,0.7 -3.5,1.2 -0.6,0.4 -0.7,1.3 -0.3,1.8 0.4,0.5 1.3,0.7 1.8,0.2 z"
       id="path22"
       inkscape:connector-curvature="0" /><path
       d="m 36.4,26.8 c 0.6,-0.4 2,-3.2 2,-3.2 0,0 -3,0.7 -3.5,1.2 -0.6,0.4 -0.7,1.3 -0.3,1.8 0.4,0.6 1.2,0.6 1.8,0.2 z"
       id="path24"
       inkscape:connector-curvature="0" /><path
       d="m 44,20.9 c 0.6,-0.4 2,-3.2 2,-3.2 0,0 -3,0.7 -3.5,1.2 -0.6,0.4 -0.7,1.3 -0.3,1.8 0.4,0.5 1.2,0.6 1.8,0.2 z"
       id="path26"
       inkscape:connector-curvature="0" /><path
       d="m 57.3,35.3 c 0.4,0.6 1.2,0.6 1.8,0.2 0.6,-0.4 2,-3.2 2,-3.2 0,0 -3,0.7 -3.5,1.2 -0.6,0.5 -0.7,1.3 -0.3,1.8 z"
       id="path28"
       inkscape:connector-curvature="0" /><path
       d="m 64.9,29.4 c 0.4,0.6 1.2,0.6 1.8,0.2 0.6,-0.4 2,-3.2 2,-3.2 0,0 -3,0.7 -3.5,1.2 -0.6,0.5 -0.7,1.3 -0.3,1.8 z"
       id="path30"
       inkscape:connector-curvature="0" /><path
       d="m 74.3,23.7 c 0.6,-0.4 2,-3.2 2,-3.2 0,0 -3,0.7 -3.5,1.2 -0.6,0.4 -0.7,1.3 -0.3,1.8 0.4,0.6 1.2,0.6 1.8,0.2 z"
       id="path32"
       inkscape:connector-curvature="0" /><path
       d="m 81.9,17.8 c 0.6,-0.4 2,-3.2 2,-3.2 0,0 -3,0.7 -3.5,1.2 -0.6,0.4 -0.7,1.3 -0.3,1.8 0.4,0.5 1.2,0.6 1.8,0.2 z"
       id="path34"
       inkscape:connector-curvature="0" /><path
       d="m 66.5,41.9 c 0.4,0.6 1.2,0.6 1.8,0.2 0.6,-0.4 2,-3.2 2,-3.2 0,0 -3,0.7 -3.5,1.2 -0.6,0.4 -0.8,1.2 -0.3,1.8 z"
       id="path36"
       inkscape:connector-curvature="0" /><path
       d="m 74.3,34.2 c -0.6,0.4 -0.7,1.3 -0.3,1.8 0.4,0.6 1.2,0.6 1.8,0.2 0.6,-0.4 2,-3.2 2,-3.2 0,0 -2.9,0.7 -3.5,1.2 z"
       id="path38"
       inkscape:connector-curvature="0" /><path
       d="m 81.9,28.2 c -0.6,0.4 -0.7,1.3 -0.3,1.8 0.4,0.6 1.2,0.6 1.8,0.2 0.6,-0.4 2,-3.2 2,-3.2 0,0 -2.9,0.8 -3.5,1.2 z"
       id="path40"
       inkscape:connector-curvature="0" /><path
       d="m 70.2,53.4 c 0.4,0.6 1.2,0.6 1.8,0.2 0.6,-0.4 2,-3.2 2,-3.2 0,0 -3,0.7 -3.5,1.2 -0.7,0.5 -0.8,1.3 -0.3,1.8 z"
       id="path42"
       inkscape:connector-curvature="0" /><path
       d="m 77.7,47.5 c 0.4,0.6 1.2,0.6 1.8,0.2 0.6,-0.4 2,-3.2 2,-3.2 0,0 -3,0.7 -3.5,1.2 -0.6,0.4 -0.7,1.3 -0.3,1.8 z"
       id="path44"
       inkscape:connector-curvature="0" /></g></svg>