<?xml version="1.0" encoding="UTF-8" standalone="no"?>
<svg
   xmlns:dc="http://purl.org/dc/elements/1.1/"
   xmlns:cc="http://creativecommons.org/ns#"
   xmlns:rdf="http://www.w3.org/1999/02/22-rdf-syntax-ns#"
   xmlns:svg="http://www.w3.org/2000/svg"
   xmlns="http://www.w3.org/2000/svg"
   xmlns:sodipodi="http://sodipodi.sourceforge.net/DTD/sodipodi-0.dtd"
   xmlns:inkscape="http://www.inkscape.org/namespaces/inkscape"
   xml:space="preserve"
   version="1.1"
   style="clip-rule:evenodd;fill-rule:evenodd;image-rendering:optimizeQuality;shape-rendering:geometricPrecision;text-rendering:geometricPrecision"
   viewBox="0 0 313 247"
   x="0px"
   y="0px"
   id="svg26"
   sodipodi:docname="noun_floods_1066604.svg"
   width="313"
   height="247"
   inkscape:version="0.92.2 5c3e80d, 2017-08-06"><metadata
     id="metadata30"><rdf:RDF><cc:Work
         rdf:about=""><dc:format>image/svg+xml</dc:format><dc:type
           rdf:resource="http://purl.org/dc/dcmitype/StillImage" /><dc:title></dc:title></cc:Work></rdf:RDF></metadata><sodipodi:namedview
     pagecolor="#ffffff"
     bordercolor="#666666"
     borderopacity="1"
     objecttolerance="10"
     gridtolerance="10"
     guidetolerance="10"
     inkscape:pageopacity="0"
     inkscape:pageshadow="2"
     inkscape:window-width="1278"
     inkscape:window-height="709"
     id="namedview28"
     showgrid="false"
     fit-margin-top="0"
     fit-margin-left="0"
     fit-margin-right="0"
     fit-margin-bottom="0"
     inkscape:zoom="1.5287449"
     inkscape:cx="156.5"
     inkscape:cy="92.625"
     inkscape:window-x="0"
     inkscape:window-y="0"
     inkscape:window-maximized="0"
     inkscape:current-layer="svg26" /><defs
     id="defs4"><style
       type="text/css"
       id="style2">
   
    .fil1 {fill:black}
    .fil2 {fill:black;fill-rule:nonzero}
    .fil0 {fill:black;fill-rule:nonzero}
   
  </style></defs><g
     id="g20"><path
       class="fil0"
       d="m 46,156 47,10 c 1,0 2,1 2,3 l 2,13 c 0,2 -2,3 -4,2 L 38,172 c -2,0 -4,-2 -2,-4 l 6,-11 c 1,-1 2,-2 4,-1 z m 46,13 -47,-10 -6,10 55,12 z"
       id="path6"
       inkscape:connector-curvature="0"
       style="fill:#000000;fill-rule:nonzero" /><path
       class="fil1"
       d="m 33,173 64,14 c 1,0 2,1 1,2 l -1,7 c -11,8 -21,9 -33,2 -7,-4 -13,-9 -21,-11 0,-1 0,-1 0,-2 1,-2 -1,-4 -3,-5 -3,-1 -5,1 -6,3 0,1 0,2 1,3 h -1 c -2,0 -4,0 -6,0 l 3,-12 c 0,-1 1,-1 2,-1 z m 55,18 c 2,0 4,3 3,5 0,2 -3,4 -5,3 -3,0 -4,-3 -4,-5 1,-2 3,-4 6,-3 z"
       id="path8"
       inkscape:connector-curvature="0"
       style="fill:#000000" /><path
       class="fil1"
       d="m 184,0 h 129 v 189 c -5,-3 -10,-4 -15,-3 v 0 c -18,1 -26,16 -42,17 -19,1 -25,-18 -46,-17 -11,0 -18,6 -26,11 z m 19,68 h 23 v 35 h -23 z m 34,0 h 23 v 35 h -23 z m 34,0 h 23 v 35 H 271 Z M 203,17 h 23 v 35 h -23 z m 34,0 h 23 v 35 h -23 z m 34,0 h 23 v 35 h -23 z"
       id="path10"
       inkscape:connector-curvature="0"
       style="fill:#000000" /><path
       class="fil2"
       d="m 0,247 v -25 c 13,-4 20,-15 34,-15 19,-1 25,18 46,17 18,-1 26,-17 42,-17 19,-1 25,18 46,17 v 0 c 18,-1 26,-17 42,-17 19,-1 25,18 46,17 18,-1 26,-17 42,-17 5,-1 9,0 14,3 v 37 z"
       id="path12"
       inkscape:connector-curvature="0"
       style="fill:#000000;fill-rule:nonzero" /><path
       class="fil2"
       d="m 0,207 c 11,-4 19,-15 34,-15 21,-1 27,17 46,17 16,-1 24,-17 42,-17 v 0 c 21,-1 27,17 46,17 16,-1 24,-17 42,-17 21,-1 27,17 46,17 16,-1 24,-17 42,-17 v 0 c 5,-1 9,0 14,2 v 10 c -5,-2 -9,-3 -14,-3 v 0 c -18,1 -26,17 -42,17 -19,1 -25,-18 -46,-17 -18,1 -26,17 -42,17 -19,1 -25,-18 -46,-17 v 0 c -18,1 -26,17 -42,17 -19,1 -25,-18 -46,-17 -15,1 -23,11 -34,16 z"
       id="path14"
       inkscape:connector-curvature="0"
       style="fill:#000000;fill-rule:nonzero" /><path
       class="fil1"
       d="m 164,102 c 0,37 0,65 0,102 -3,0 -5,-1 -8,-3 V 95 Z"
       id="path16"
       inkscape:connector-curvature="0"
       style="fill:#000000" /><path
       class="fil1"
       d="m 153,95 v 105 c -9,-5 -17,-14 -31,-14 v 0 c -4,1 -7,1 -10,2 V 95 Z m -36,68 h 7 v 11 h -7 z m 12,0 h 7 v 11 h -7 z m 12,0 h 7 v 11 h -7 z m -24,-20 h 7 v 12 h -7 z m 12,0 h 7 v 12 h -7 z m 12,0 h 7 v 12 h -7 z m -24,-19 h 7 v 11 h -7 z m 12,0 h 7 v 11 h -7 z m 12,0 h 7 v 11 h -7 z m -24,-20 h 7 v 12 h -7 z m 12,0 h 7 v 12 h -7 z m 12,0 h 7 v 12 h -7 z"
       id="path18"
       inkscape:connector-curvature="0"
       style="fill:#000000" /></g></svg>