<?xml version="1.0" encoding="UTF-8" standalone="no"?>
<svg
   xmlns:dc="http://purl.org/dc/elements/1.1/"
   xmlns:cc="http://creativecommons.org/ns#"
   xmlns:rdf="http://www.w3.org/1999/02/22-rdf-syntax-ns#"
   xmlns:svg="http://www.w3.org/2000/svg"
   xmlns="http://www.w3.org/2000/svg"
   xmlns:sodipodi="http://sodipodi.sourceforge.net/DTD/sodipodi-0.dtd"
   xmlns:inkscape="http://www.inkscape.org/namespaces/inkscape"
   version="1.1"
   x="0px"
   y="0px"
   viewBox="0 0 73.464783 100.00034"
   enable-background="new 0 0 100 100"
   xml:space="preserve"
   id="svg12"
   sodipodi:docname="noun_Gasoline_2509.svg"
   width="73.464783"
   height="100.00034"
   inkscape:version="0.92.2 5c3e80d, 2017-08-06"><metadata
     id="metadata18"><rdf:RDF><cc:Work
         rdf:about=""><dc:format>image/svg+xml</dc:format><dc:type
           rdf:resource="http://purl.org/dc/dcmitype/StillImage" /><dc:title></dc:title></cc:Work></rdf:RDF></metadata><defs
     id="defs16" /><sodipodi:namedview
     pagecolor="#ffffff"
     bordercolor="#666666"
     borderopacity="1"
     objecttolerance="10"
     gridtolerance="10"
     guidetolerance="10"
     inkscape:pageopacity="0"
     inkscape:pageshadow="2"
     inkscape:window-width="1187"
     inkscape:window-height="716"
     id="namedview14"
     showgrid="false"
     fit-margin-top="0"
     fit-margin-left="0"
     fit-margin-right="0"
     fit-margin-bottom="0"
     inkscape:zoom="3.776"
     inkscape:cx="36.733779"
     inkscape:cy="37.5"
     inkscape:window-x="0"
     inkscape:window-y="0"
     inkscape:window-maximized="0"
     inkscape:current-layer="svg12" /><path
     d="m 1.3837786,8.9543434 c 0.818,-0.369 9.0890004,-4.645 9.9160004,-4.935 0.827,-0.29 1.925,-0.312 2.527,0.685 0.374,0.619 2.003,3.759 2.003,3.759 0,0 1.038,2.0069996 1.104,2.1379996 0.096,0.199 0.122,0.477 -0.06,0.569 -0.182,0.092 -12.8850004,6.558 -13.0720004,6.652 -0.187,0.094 -0.379,0.002 -0.513,-0.254 -0.645,-1.236 -2.56299999,-4.917 -3.00899999,-5.773 -0.536,-1.034 -0.371,-2.1739996 1.10399999,-2.8409996 z"
     id="path2"
     inkscape:connector-curvature="0" /><path
     d="m 46.428779,65.570343 c 0,1.904 -1.543,3.448 -3.448,3.448 h -10.341 c -1.904,0 -3.448,-1.544 -3.448,-3.448 v -13.865 c 0,-1.904 1.543,-3.448 3.448,-3.448 h 10.341 c 1.904,0 3.448,1.543 3.448,3.448 z"
     id="path4"
     inkscape:connector-curvature="0" /><path
     d="m 63.430779,3.4337091e-4 c -6.947,0.009999999 -24.414,0.0419999991 -28.715,0 -4.301,-0.0410000009 -6.741,3.59800002909 -8.644,6.45200002909 -1.903,2.854 -3.557,6.8239996 -3.557,6.8239996 0,0 -0.978,0.481 -2.48,1.223 -0.564,-0.584 -2.082,-1.352 -2.463,-1.163 -3.979,1.966 -9.5610004,4.691 -12.4080004,6.173 -0.441,0.23 -0.715,2.08 -0.57,2.762 0.015,-0.008 0.026,-0.014 0,10e-4 -2.068,1.199 -3.337,4.032 -3.337,5.897 0,1.158 0,57.204 0,60.306 0,6.011 4.32,11.401 11.7230004,11.401 7.402,0 45.619,0.123997 49.465,0.123997 5.864,0 11.02,-5.333997 11.02,-11.474997 0,-3.805 0,-75.819 0,-77.763 0.002,-4.9709996 -4.175,-10.76199962909 -10.034,-10.76199962909 z M 31.696779,5.2943434 c 1.241,-2.109 3.792,-2.812 5.032,-2.812 1.24,0 18.748,0 18.748,0 0,0 2.316,-0.166 3.143,1.199 0.496,0.662 0.291,1.737 0,2.523 -0.152,0.411 -1.737,2.747 -3.805,4.4659996 -1.356,1.127 -2.73,1.861 -5.997,2.44 -3.267,0.579 -10.256,0.372 -13.44,0.372 -3.185,0 -5.749,0.951 -5.749,0.951 l -3.019,0.993 c 0,0.001 4.12,-8.4869996 5.087,-10.1319996 z m 17.759,44.4939996 v 17.698 c 0,0.724 -0.172,1.405 -0.47,2.015 l 15.748,15.746 c 0.583,0.583 0.583,1.529 0,2.113 -0.583,0.583 -1.529,0.583 -2.113,0 l -15.747,-15.747 c -0.608,0.297 -1.291,0.47 -2.014,0.47 h -14.25 c -0.723,0 -1.405,-0.172 -2.014,-0.47 l -15.748,15.747 c -0.583,0.583 -1.53,0.583 -2.113,0 -0.583,-0.583 -0.583,-1.529 0,-2.113 l 15.747,-15.747 c -0.298,-0.609 -0.47,-1.291 -0.47,-2.015 v -17.697 c 0,-0.724 0.172,-1.405 0.47,-2.014 l -15.747,-15.747 c -0.583,-0.583 -0.583,-1.529 0,-2.113 0.583,-0.583 1.529,-0.583 2.113,0 l 15.747,15.747 c 0.609,-0.297 1.291,-0.469 2.014,-0.469 h 14.25 c 0.724,0 1.406,0.172 2.014,0.47 l 15.747,-15.747 c 0.583,-0.583 1.529,-0.583 2.113,0 0.584,0.583 0.583,1.529 0,2.113 l -15.747,15.746 c 0.298,0.609 0.47,1.29 0.47,2.014 z"
     id="path6"
     inkscape:connector-curvature="0" /></svg>