<?xml version="1.0" encoding="UTF-8" standalone="no"?>
<svg
   xmlns:dc="http://purl.org/dc/elements/1.1/"
   xmlns:cc="http://creativecommons.org/ns#"
   xmlns:rdf="http://www.w3.org/1999/02/22-rdf-syntax-ns#"
   xmlns:svg="http://www.w3.org/2000/svg"
   xmlns="http://www.w3.org/2000/svg"
   xmlns:sodipodi="http://sodipodi.sourceforge.net/DTD/sodipodi-0.dtd"
   xmlns:inkscape="http://www.inkscape.org/namespaces/inkscape"
   version="1.1"
   x="0px"
   y="0px"
   viewBox="0 0 54.334 87.052254"
   enable-background="new 0 0 100 100"
   xml:space="preserve"
   id="svg8"
   sodipodi:docname="noun_Electrical Tower_39788.svg"
   width="54.334"
   height="87.052254"
   inkscape:version="0.92.2 5c3e80d, 2017-08-06"><metadata
     id="metadata14"><rdf:RDF><cc:Work
         rdf:about=""><dc:format>image/svg+xml</dc:format><dc:type
           rdf:resource="http://purl.org/dc/dcmitype/StillImage" /><dc:title></dc:title></cc:Work></rdf:RDF></metadata><defs
     id="defs12" /><sodipodi:namedview
     pagecolor="#ffffff"
     bordercolor="#666666"
     borderopacity="1"
     objecttolerance="10"
     gridtolerance="10"
     guidetolerance="10"
     inkscape:pageopacity="0"
     inkscape:pageshadow="2"
     inkscape:window-width="1226"
     inkscape:window-height="717"
     id="namedview10"
     showgrid="false"
     fit-margin-top="0"
     fit-margin-left="0"
     fit-margin-right="0"
     fit-margin-bottom="0"
     inkscape:zoom="1.888"
     inkscape:cx="26.166"
     inkscape:cy="30.501"
     inkscape:window-x="0"
     inkscape:window-y="0"
     inkscape:window-maximized="0"
     inkscape:current-layer="svg8" /><path
     d="m 52.047,84.71825 c 0.021,-0.145 0.013,-0.294 -0.057,-0.435 l -16.805,-33.873 h 11.916 c 0.008,0.001 0.015,0 0.02,0 0.415,0 0.75,-0.336 0.75,-0.75 0,-0.312 -0.191,-0.581 -0.464,-0.693 l -12.338,-7.758 v -5.994 h 12.032 c 0.008,0.001 0.015,0 0.02,0 0.415,0 0.75,-0.336 0.75,-0.75 0,-0.313 -0.191,-0.581 -0.464,-0.693 l -12.338,-7.758 v -5.994 h 12.032 c 0.008,10e-4 0.015,0 0.02,0 0.415,0 0.75,-0.336 0.75,-0.75 0,-0.333 -0.217,-0.616 -0.518,-0.713 l -15.337,-7.836 -3.954,-10.287 c -0.223,-0.579 -1.178,-0.579 -1.4,0 l -3.955,10.287 -15.426,7.881 c -0.309,0.158 -0.469,0.506 -0.388,0.843 0.081,0.337 0.382,0.575 0.729,0.575 h 12.032 v 5.994 l -12.432,7.817 c -0.283,0.178 -0.414,0.521 -0.321,0.842 0.093,0.321 0.387,0.542 0.721,0.542 h 12.032 v 5.994 l -12.432,7.817 c -0.283,0.178 -0.414,0.521 -0.321,0.843 0.093,0.321 0.387,0.542 0.721,0.542 h 11.916 l -3.91,7.88 c -0.042,0.062 -0.077,0.128 -0.1,0.201 l -12.795,25.791 c -0.07,0.141 -0.078,0.29 -0.057,0.435 H 0 v 2.334 h 5.833 v -2.334 H 4.191 l 0.808,-1.629 0.039,0.085 21.995,-9.934 h 0.968 l 21.296,9.435 0.104,-0.235 1.13,2.278 H 48.5 v 2.334 h 5.834 v -2.334 z m -11.305,-19.73 -11.533,-2.991 8.878,-2.362 z m -13.311,-50.262 5.165,3.794 H 22.317 Z m -0.003,-1.243 -2.229,-1.638 h 4.437 z m 4.11,12.058 h -8.423 l 4.216,-2.166 z m -8.541,-5.521 h 8.677 l -4.343,2.231 z m 8.737,7.021 -4.399,2.644 -4.46,-2.644 z m -4.395,3.808 4.835,2.866 H 22.57 Z m 4.417,4.366 -4.402,2.267 -4.403,-2.267 z m -0.266,5.521 h -8.273 l 4.136,-2.13 z m 0.336,1.5 -4.491,2.699 -4.553,-2.699 z m -4.487,3.864 4.743,2.811 h -9.421 z m 0.973,-0.585 5.256,-3.158 v 6.273 z m 0.132,-7.471 5.124,-2.639 v 5.277 z m -0.132,-7.78 5.256,-3.158 v 6.273 z m 0.112,-7.45 5.145,-2.643 v 5.291 z m -2.186,-0.002 -5.083,2.611 v -5.228 z m 0.123,7.458 -5.207,3.129 v -6.215 z m -0.1,7.774 -5.106,2.629 v -5.258 z m 0.1,7.476 -5.207,3.129 v -6.215 z m 6.55,4.89 -5.58,2.508 -5.562,-2.508 z m 3.129,7.532 H 18.591 l 8.739,-3.927 z m -1.318,1.552 -7.483,1.991 -7.679,-1.991 z m -7.481,3.026 10.08,2.614 H 17.419 Z m 9.653,-5.29 -8.345,-3.763 5.297,-2.38 z m 7.605,-8.32 h -9.431 v -5.93 z m 0,-15.195 h -9.431 v -5.93 z m -0.515,-15.195 h -8.971 l -2.191,-5.703 z m -10.922,-0.899 -4.791,-3.519 2.675,-1.985 z m -5.701,-14.827 2.903,7.552 h -5.806 z m -3.561,9.265 2.788,2.047 -5.001,3.711 z m -13.061,6.461 11.162,-5.703 -2.192,5.703 z m -0.515,15.195 9.431,-5.93 v 5.93 z m 0,15.195 9.431,-5.93 v 5.93 z m 10.645,2.193 5.243,2.363 -8.255,3.709 z m -3.367,6.787 0.023,0.052 h -0.049 z m -0.925,1.865 8.694,2.254 -11.305,3.009 z m -10.941,22.051 4.25,-8.565 h 14.716 z m 4.976,-10.028 2.538,-5.116 11.549,5.116 z m 17.229,0 h -0.674 l -11.61,-5.144 H 39.23 Z m 13.737,-5.107 2.533,5.106 H 30.272 Z m -11.109,6.569 h 14.368 l 4.048,8.159 z"
     id="path2"
     inkscape:connector-curvature="0" /></svg>