<?xml version="1.0" encoding="UTF-8" standalone="no"?>
<svg
   xmlns:dc="http://purl.org/dc/elements/1.1/"
   xmlns:cc="http://creativecommons.org/ns#"
   xmlns:rdf="http://www.w3.org/1999/02/22-rdf-syntax-ns#"
   xmlns:svg="http://www.w3.org/2000/svg"
   xmlns="http://www.w3.org/2000/svg"
   xmlns:sodipodi="http://sodipodi.sourceforge.net/DTD/sodipodi-0.dtd"
   xmlns:inkscape="http://www.inkscape.org/namespaces/inkscape"
   version="1.1"
   x="0px"
   y="0px"
   viewBox="0 0 103.107 92.271004"
   enable-background="new 0 0 120.25 100"
   xml:space="preserve"
   id="svg10"
   sodipodi:docname="noun_charge_1767542.svg"
   width="103.107"
   height="92.271004"
   inkscape:version="0.92.2 5c3e80d, 2017-08-06"><metadata
     id="metadata16"><rdf:RDF><cc:Work
         rdf:about=""><dc:format>image/svg+xml</dc:format><dc:type
           rdf:resource="http://purl.org/dc/dcmitype/StillImage" /><dc:title></dc:title></cc:Work></rdf:RDF></metadata><defs
     id="defs14" /><sodipodi:namedview
     pagecolor="#ffffff"
     bordercolor="#666666"
     borderopacity="1"
     objecttolerance="10"
     gridtolerance="10"
     guidetolerance="10"
     inkscape:pageopacity="0"
     inkscape:pageshadow="2"
     inkscape:window-width="1239"
     inkscape:window-height="720"
     id="namedview12"
     showgrid="false"
     fit-margin-top="0"
     fit-margin-left="0"
     fit-margin-right="0"
     fit-margin-bottom="0"
     inkscape:zoom="3.776"
     inkscape:cx="51.977"
     inkscape:cy="34.553"
     inkscape:window-x="0"
     inkscape:window-y="0"
     inkscape:window-maximized="0"
     inkscape:current-layer="svg10" /><polygon
     points="44.178,35.915 23.78,35.915 30.081,4.813 8.353,4.813 8.148,54.37 22.611,54.37 17.426,97.021 "
     id="polygon2"
     transform="translate(-8.148,-4.782)" /><path
     d="m 57.733,69.237 v 18.728 c 0,2.377 1.927,4.306 4.305,4.306 2.377,0 4.305,-1.929 4.305,-4.306 V 69.236 h 19.584 v 18.729 c 0,2.377 1.927,4.306 4.305,4.306 2.378,0 4.305,-1.929 4.305,-4.306 V 69.236 h 8.57 V 46.407 c 0,-8.274 -0.883,-16.231 -9.158,-16.231 H 81.247 V 0 H 70.192 V 30.177 H 57.906 c -8.277,0 -9.158,7.957 -9.158,16.232 v 22.827 h 8.985 z"
     id="path4"
     inkscape:connector-curvature="0" /></svg>