<svg xmlns="http://www.w3.org/2000/svg" xmlns:xlink="http://www.w3.org/1999/xlink" version="1.1" x="0px" y="0px" viewBox="0 0 100 125" enable-background="new 0 0 100 100" xml:space="preserve"><g><path d="M29.917,63.25V41.917h4.24l3.255-13.833h-7.05l2.061-6.667h4.662v-8.5H32.75V8.583H10.083v4.333H6.25v8.5h4.161   l2.061,6.667H5.944l3.051,13.833h3.921V85.75H7.5v2.5h86.75v-25H29.917z M91.75,75.75h-7.167v-10h7.167V75.75z M29.917,78.25h6.333   v7.5h-6.333V78.25z M38.75,78.25h7.11v7.5h-7.11V78.25z M72.511,85.75H48.36v-13.5h24.15V85.75z M75.011,78.25h7.072v7.5h-7.072   V78.25z M75.011,75.75v-6H45.86v6h-7.11v-10h43.333v10H75.011z M36.25,65.75v10h-6.333v-10H36.25z M12.583,11.083H30.25v1.833   H12.583V11.083z M8.75,15.417h25.833v3.5H8.75V15.417z M29.805,21.417L29.161,23.5H13.672l-0.644-2.083H29.805z M14.445,26h13.943   l-0.644,2.083H15.089L14.445,26z M34.255,30.583L33.51,33.75H9.754l-0.699-3.167H34.255z M10.306,36.25h22.616l-0.745,3.167H11.004   L10.306,36.25z M15.417,41.917h12V85.75h-12V41.917z M84.583,85.75v-7.5h7.167v7.5H84.583z"/><path d="M61.613,46.917l-5.316,5.667h9.629l7.334-5.667h15.044l-0.633-1.689c-1.719-4.582-6.689-5.734-6.899-5.781l-7.532-0.008   l-8.7-5.688h-9.187l5.77,5.675l-7.789-0.008l-3.05-5.667h-7.539l4.548,13.167H61.613z M65.072,50.083H62.07l2.971-3.167h4.129   L65.072,50.083z M61.46,36.25h2.335l4.867,3.183l-3.971-0.004L61.46,36.25z M48.79,36.25l3.049,5.667h28.503   c0.511,0.143,2.583,0.805,3.998,2.5H49.073l-2.821-8.167H48.79z"/><rect x="17.917" y="45.667" width="2.5" height="21"/><rect x="17.917" y="69" width="2.5" height="4.833"/><path d="M66.563,24.292c0.169,0,0.341-0.008,0.521-0.025c1.148,0.955,2.577,1.475,4.087,1.475c1.674,0,3.253-0.654,4.446-1.819   c1.603,0.372,3.187,0.098,4.544-0.69c0.947,0.754,2.117,1.171,3.339,1.171c2.987,0,5.417-2.43,5.417-5.417   c0-1.877-0.964-3.591-2.515-4.574c-0.209-2.936-2.664-5.26-5.652-5.26c-0.774,0-1.527,0.159-2.228,0.467   C77.33,7.759,75.258,6.583,73,6.583c-2.945,0-5.453,1.935-6.274,4.669c-0.054-0.001-0.108-0.002-0.163-0.002   c-3.596,0-6.521,2.925-6.521,6.521S62.967,24.292,66.563,24.292z M66.563,13.75c0.276,0,0.565,0.035,0.885,0.106l1.377,0.309   l0.141-1.404c0.21-2.097,1.944-3.678,4.035-3.678c1.709,0,3.247,1.093,3.827,2.72l0.59,1.652l1.369-1.096   c0.403-0.323,1.071-0.708,1.964-0.708c1.746,0,3.167,1.421,3.161,3.196c-0.011,0.072-0.02,0.144-0.024,0.217l-0.062,0.888   l0.817,0.349c1.078,0.46,1.774,1.514,1.774,2.684c0,1.608-1.309,2.917-2.917,2.917c-0.86,0-1.677-0.393-2.24-1.079l-0.8-0.973   l-0.967,0.807c-0.507,0.423-1.35,0.926-2.493,0.926c-0.438,0-0.88-0.084-1.349-0.257l-0.854-0.316l-0.563,0.716   c-0.755,0.962-1.872,1.514-3.063,1.514c-1.054,0-2.043-0.416-2.786-1.17l-0.462-0.469l-0.648,0.116   c-0.288,0.051-0.508,0.074-0.712,0.074c-2.218,0-4.021-1.804-4.021-4.021S64.345,13.75,66.563,13.75z"/><rect x="14.167" y="91.25" width="46.269" height="2.5"/><rect x="65.619" y="91.25" width="17.714" height="2.5"/></g><text x="0" y="115" fill="#000000" font-size="5px" font-weight="bold" font-family="'Helvetica Neue', Helvetica, Arial-Unicode, Arial, Sans-serif">Created by Creative Mania</text><text x="0" y="120" fill="#000000" font-size="5px" font-weight="bold" font-family="'Helvetica Neue', Helvetica, Arial-Unicode, Arial, Sans-serif">from the Noun Project</text></svg>