<svg xmlns="http://www.w3.org/2000/svg" xmlns:xlink="http://www.w3.org/1999/xlink" version="1.1" x="0px" y="0px" viewBox="0 0 100 125" enable-background="new 0 0 100 100" xml:space="preserve"><g><path d="M68.6,40c0.1,0,0.2-0.1,0.2-0.2l0-0.2c0.7-0.4,0.9-1.6,0.7-2.8c-0.3-1.2-1-2.1-1.8-2.2l-0.1-0.2c0-0.1-0.2-0.2-0.3-0.1   c-1.2,0.6-1.8,2-1.5,3.4C66.1,39,67.2,40,68.6,40z"/><circle cx="26.5" cy="57.8" r="3.1"/><path d="M73.5,41.3c-2.1,0-4.1,0.4-5.9,1.1l-0.4-0.8c-0.6-1.2-1.6-3.2-1.8-4c-0.3-1.1-1.5-10.1-1.5-10.1c-0.1-0.7-0.6-1.2-1.3-1.3   l-6-0.6c-0.8-0.1-1.6,0.5-1.6,1.3c-0.1,0.8,0.5,1.5,1.3,1.6l4.9,0.6l1,7.7H37.8L37,35h3.4c0.8,0,1.4-0.6,1.4-1.5   c0-0.8-0.4-1.5-1.2-1.5H30.1c-0.8,0-1.8,0.7-1.8,1.5c0,0.8,0.9,1.5,1.8,1.5h3.5l1.7,3l-1.7,3.3L33,42.6c-2-0.9-4.2-1.3-6.5-1.3   c-9.1,0-16.5,7.4-16.5,16.5s7.4,16.4,16.5,16.4c8.7,0,15.7-6.2,16.4-15.2h0.2h2.8H50c0.7,0,1.3-0.3,1.6-0.8l12.1-17.6l1.1,2.5   l0.3,0.6c-4.8,2.9-8,8.1-8,14.1c0,9.1,7.4,16.5,16.5,16.5c9.1,0,16.5-7.4,16.5-16.5S82.6,41.3,73.5,41.3z M26.5,71.1   c-7.4,0-13.4-6-13.4-13.4s6-13.4,13.4-13.4c1.8,0,3.5,0.4,5.1,1l-0.1,0.1c0,0,0,0,0,0l-3.9,7.2c0,0,0.1,0,0.1,0   c-0.4-0.1-0.8-0.2-1.3-0.2c-2.9,0-5.2,2.3-5.2,5.2c0,2.9,2.3,5.2,5.2,5.2s5.2-2.3,5.2-5.2c0-0.1,0-0.2,0-0.3c0,0.1,0,0.1,0,0.2   c0,1.1-0.1,1.3-0.1,1.3H34h5.8C39.1,66,33.4,71.1,26.5,71.1z M30,53.9c0.1,0.1,0.1,0.1,0.2,0.2l2.2-4.1l0,0l1.7-3.2c0,0,0,0,0,0   l0-0.1c3.1,2.1,5.2,5.3,5.6,9.3h0H36h-4.6c0,0,0,0.2,0.1,0.3C31.3,55.3,30.7,54.6,30,53.9z M30.7,57.8c0,2.3-1.9,4.2-4.2,4.2   s-4.2-1.9-4.2-4.2c0-2.3,1.9-4.2,4.2-4.2S30.7,55.5,30.7,57.8z M29.5,53.5c0.1,0.1,0.2,0.1,0.3,0.2C29.7,53.6,29.6,53.6,29.5,53.5z    M29.2,53.3c-0.1,0-0.1-0.1-0.2-0.1C29.1,53.2,29.1,53.3,29.2,53.3z M28.4,52.9c-0.1,0-0.1,0-0.2-0.1   C28.3,52.9,28.4,52.9,28.4,52.9z M31.6,56.8c0,0.1,0,0.2,0.1,0.4C31.7,57,31.6,56.9,31.6,56.8z M43.7,56h-0.8   c-0.5-5-3.3-9.3-7.3-12l0.8-1.4l0.9-1.8L47.4,56H43.7z M50.3,54.9L40,40h20.6L50.3,54.9z M73.5,71.2c-7.4,0-13.4-6-13.4-13.4   c0-4.7,2.5-8.9,6.2-11.3l1.8,4l1.7,3.6c-1,0.9-1.5,2.3-1.5,3.7c0,2.9,2.3,5.2,5.2,5.2s5.2-2.3,5.2-5.2c0-2.9-2.3-5.2-5.2-5.2   c-0.4,0-0.7,0-1.1,0.1l-3.2-6.9l-0.3-0.5c1.4-0.5,3-0.8,4.6-0.8c7.4,0,13.4,6,13.4,13.4S80.9,71.2,73.5,71.2z M73.5,53.6   c2.3,0,4.2,1.9,4.2,4.2c0,2.3-1.9,4.2-4.2,4.2s-4.2-1.9-4.2-4.2C69.3,55.5,71.2,53.6,73.5,53.6z"/><circle cx="73.5" cy="57.8" r="3.1"/></g><text x="0" y="115" fill="#000000" font-size="5px" font-weight="bold" font-family="'Helvetica Neue', Helvetica, Arial-Unicode, Arial, Sans-serif">Created by Alex Podolsky</text><text x="0" y="120" fill="#000000" font-size="5px" font-weight="bold" font-family="'Helvetica Neue', Helvetica, Arial-Unicode, Arial, Sans-serif">from the Noun Project</text></svg>