<svg xmlns="http://www.w3.org/2000/svg" xmlns:xlink="http://www.w3.org/1999/xlink" version="1.2" baseProfile="tiny" x="0px" y="0px" viewBox="0 0 100 125" xml:space="preserve"><g><line fill="none" stroke="#000000" stroke-width="4" stroke-linejoin="round" stroke-miterlimit="10" x1="74" y1="34" x2="65" y2="34"/><line fill="none" stroke="#000000" stroke-width="4" stroke-linejoin="round" stroke-miterlimit="10" x1="89" y1="45" x2="64" y2="45"/><line fill="none" stroke="#000000" stroke-width="4" stroke-linejoin="round" stroke-miterlimit="10" x1="88.8" y1="51" x2="64" y2="51"/><polyline fill="none" stroke="#000000" stroke-width="4" stroke-linejoin="round" stroke-miterlimit="10" points="70,78 72,73    75,76 79,74 82,76 89,76  "/><line fill="none" stroke="#000000" stroke-width="4" stroke-linejoin="round" stroke-miterlimit="10" x1="80" y1="57" x2="65" y2="57"/><path fill="none" stroke="#000000" stroke-width="4" stroke-linecap="round" stroke-linejoin="round" stroke-miterlimit="10" d="   M64,92h26c0,0,8,0,8-8l0-68c0-8-8-8-8-8S51,8.1,51,8.1"/><g><path d="M27.3,39l-5.1,11.1L29.5,73h7.1l7.3-22.9L38.7,39H27.3z M39,53h-4v10h-4V53h-4v-4h4v-4h4v4h4V53z"/><path d="M65.9,22.1c0-0.6,0-1.9-0.9-2.5L45.2,0.6C44.8,0.2,44.3,0,43.8,0H10C2.1,0,0,6.5,0,10v80c0,3.5,2.1,10,10,10h46    c7.9,0,10-6.5,10-10L65.9,22.1z M47.9,50.6l-8,25c-0.3,0.8-1,1.4-1.9,1.4H28c-0.9,0-1.6-0.6-1.9-1.4l-8-25c-0.2-0.5-0.1-1,0.1-1.4    l6-13c0.3-0.7,1-1.2,1.8-1.2h14c0.8,0,1.5,0.5,1.8,1.2l6,13C48,49.6,48.1,50.1,47.9,50.6z M53.4,19c-6.7,0-7-5.4-7-6V6.9L59,19    H53.4z"/></g></g><text x="0" y="115" fill="#000000" font-size="5px" font-weight="bold" font-family="'Helvetica Neue', Helvetica, Arial-Unicode, Arial, Sans-serif">Created by Juraj Sedlák</text><text x="0" y="120" fill="#000000" font-size="5px" font-weight="bold" font-family="'Helvetica Neue', Helvetica, Arial-Unicode, Arial, Sans-serif">from the Noun Project</text></svg>