<svg xmlns="http://www.w3.org/2000/svg" xmlns:xlink="http://www.w3.org/1999/xlink" version="1.1" x="0px" y="0px" viewBox="0 0 100 125" style="enable-background:new 0 0 100 100;" xml:space="preserve"><g><path d="M48.5,26.6c-12.9,0-23.4,10.5-23.4,23.4c0,12.9,10.5,23.4,23.4,23.4c12.9,0,23.4-10.5,23.4-23.4   C71.8,37.1,61.4,26.6,48.5,26.6z M48.5,66.4c-9.1,0-16.4-7.3-16.4-16.4s7.3-16.4,16.4-16.4S64.9,40.9,64.9,50S57.5,66.4,48.5,66.4z   "/><path d="M48.5,36.5C41,36.5,35,42.6,35,50S41,63.5,48.5,63.5S62,57.4,62,50S55.9,36.5,48.5,36.5z M48.5,62.3   c-6.8,0-12.3-5.5-12.3-12.3c0-6.8,5.5-12.3,12.3-12.3c6.8,0,12.3,5.5,12.3,12.3C60.7,56.8,55.3,62.3,48.5,62.3z"/></g><path d="M79.8,28.8v41.6c0,1.1-0.9,2-2,2l0,0c-1.2,0-2.1-1-2-2.2c0.2-1.8,0.7-13,0.9-17.1c0-1-0.1-1.9-0.4-2.8c-0.8-2-2-6.2-2-10.7  c0-5.1,2.3-9.7,3.3-11.3c0.2-0.4,0.6-0.6,1.1-0.6l0,0C79.2,27.6,79.8,28.2,79.8,28.8z"/><path d="M22.9,28.2c0-0.2-0.1-0.3-0.3-0.3h-0.1c-0.1,0-0.3,0.1-0.3,0.3l-0.4,8.7c0,0.1-0.1,0.3-0.3,0.3h-0.1c-0.1,0-0.3-0.1-0.3-0.3  l-0.4-8.7c0-0.1-0.1-0.3-0.3-0.3c-0.1,0-0.3,0.1-0.3,0.3l-0.4,8.7c0,0.1-0.1,0.3-0.3,0.3h-0.1c-0.1,0-0.3-0.1-0.3-0.3l-0.4-8.7  c0-0.1-0.1-0.3-0.3-0.3h0c-0.1,0-0.3,0.1-0.3,0.3l-0.4,8.7c0,0.1-0.1,0.3-0.3,0.3h-0.1c-0.1,0-0.3-0.1-0.3-0.3l-0.4-8.7  c0-0.1-0.1-0.3-0.3-0.3h-0.1c-0.2,0-0.3,0.1-0.3,0.3v13.4c0,0.7,0.5,1.2,1.2,1.2h0.1c0.3,0,0.5,0.2,0.5,0.5v20.5v6.8  c0,0.9,0.7,1.7,1.7,1.7h0c0.9,0,1.7-0.7,1.7-1.7v-6.8V43.2c0-0.3,0.2-0.5,0.5-0.5h0.1c0.7,0,1.2-0.5,1.2-1.2V28.2z"/><path d="M94.2,37.2c0-4.7-2.7-10-6-10c-3.3,0-6,5.3-6,10c0,2.6,0.9,4.5,2.2,5.7c1.4,1.2,2.1,3,2.1,4.8v23.2c0,0.9,0.6,1.7,1.5,1.8  c1,0.1,1.9-0.7,1.9-1.7V47.7c0-1.8,0.7-3.6,2.1-4.8C93.3,41.7,94.2,39.9,94.2,37.2z"/><path d="M8.3,72.1L8.3,72.1c-0.5,0-1-0.4-1-1l0.5-42.7c0-0.3,0.2-0.5,0.5-0.5h0c0.3,0,0.5,0.2,0.5,0.5l0.5,42.7  C9.3,71.7,8.9,72.1,8.3,72.1z"/><path d="M5.8,72.1L5.8,72.1c-0.5,0-1-0.4-1-1l0.5-42.7c0-0.3,0.2-0.5,0.5-0.5h0c0.3,0,0.5,0.2,0.5,0.5l0.5,42.7  C6.8,71.7,6.4,72.1,5.8,72.1z"/><rect x="5.7" y="65.5" width="2.7" height="5.5"/><text x="0" y="115" fill="#000000" font-size="5px" font-weight="bold" font-family="'Helvetica Neue', Helvetica, Arial-Unicode, Arial, Sans-serif">Created by Kaleo</text><text x="0" y="120" fill="#000000" font-size="5px" font-weight="bold" font-family="'Helvetica Neue', Helvetica, Arial-Unicode, Arial, Sans-serif">from the Noun Project</text></svg>