<svg xmlns="http://www.w3.org/2000/svg" xmlns:xlink="http://www.w3.org/1999/xlink" version="1.1" x="0px" y="0px" viewBox="0 0 128 160" style="enable-background:new 0 0 128 128;" xml:space="preserve"><style type="text/css">
	.st0{display:none;}
	.st1{display:inline;}
	.st2{fill:none;stroke:#000000;stroke-width:0.1;stroke-miterlimit:10;}
	.st3{fill:none;stroke:#000000;stroke-width:3;stroke-linecap:round;stroke-miterlimit:10;}
	.st4{fill:none;stroke:#000000;stroke-width:3;stroke-miterlimit:10;}
	.st5{fill:none;stroke:#000000;stroke-width:3;stroke-linejoin:round;}
	.st6{fill:none;stroke:#000000;stroke-width:3;stroke-linecap:round;stroke-linejoin:round;stroke-miterlimit:10;}
	.st7{fill:none;stroke:#000000;stroke-width:3;stroke-linejoin:round;stroke-miterlimit:10;}
	.st8{stroke:#000000;stroke-miterlimit:10;}
</style><g class="st0"><g class="st1"><rect class="st2" width="128" height="128"/><line class="st2" x1="0" y1="124" x2="128" y2="124"/><line class="st2" x1="0" y1="120" x2="128" y2="120"/><line class="st2" x1="0" y1="116" x2="128" y2="116"/><line class="st2" x1="0" y1="112" x2="128" y2="112"/><line class="st2" x1="0" y1="108" x2="128" y2="108"/><line class="st2" x1="0" y1="104" x2="128" y2="104"/><line class="st2" x1="0" y1="100" x2="128" y2="100"/><line class="st2" x1="0" y1="96" x2="128" y2="96"/><line class="st2" x1="0" y1="92" x2="128" y2="92"/><line class="st2" x1="0" y1="88" x2="128" y2="88"/><line class="st2" x1="0" y1="84" x2="128" y2="84"/><line class="st2" x1="0" y1="80" x2="128" y2="80"/><line class="st2" x1="0" y1="76" x2="128" y2="76"/><line class="st2" x1="0" y1="72" x2="128" y2="72"/><line class="st2" x1="0" y1="68" x2="128" y2="68"/><line class="st2" x1="0" y1="64" x2="128" y2="64"/><line class="st2" x1="0" y1="60" x2="128" y2="60"/><line class="st2" x1="0" y1="56" x2="128" y2="56"/><line class="st2" x1="0" y1="52" x2="128" y2="52"/><line class="st2" x1="0" y1="48" x2="128" y2="48"/><line class="st2" x1="0" y1="44" x2="128" y2="44"/><line class="st2" x1="0" y1="40" x2="128" y2="40"/><line class="st2" x1="0" y1="36" x2="128" y2="36"/><line class="st2" x1="0" y1="32" x2="128" y2="32"/><line class="st2" x1="0" y1="28" x2="128" y2="28"/><line class="st2" x1="0" y1="24" x2="128" y2="24"/><line class="st2" x1="0" y1="20" x2="128" y2="20"/><line class="st2" x1="0" y1="16" x2="128" y2="16"/><line class="st2" x1="0" y1="12" x2="128" y2="12"/><line class="st2" x1="0" y1="8" x2="128" y2="8"/><line class="st2" x1="0" y1="4" x2="128" y2="4"/><line class="st2" x1="124" y1="0" x2="124" y2="128"/><line class="st2" x1="120" y1="0" x2="120" y2="128"/><line class="st2" x1="116" y1="0" x2="116" y2="128"/><line class="st2" x1="112" y1="0" x2="112" y2="128"/><line class="st2" x1="108" y1="0" x2="108" y2="128"/><line class="st2" x1="104" y1="0" x2="104" y2="128"/><line class="st2" x1="100" y1="0" x2="100" y2="128"/><line class="st2" x1="96" y1="0" x2="96" y2="128"/><line class="st2" x1="92" y1="0" x2="92" y2="128"/><line class="st2" x1="88" y1="0" x2="88" y2="128"/><line class="st2" x1="84" y1="0" x2="84" y2="128"/><line class="st2" x1="80" y1="0" x2="80" y2="128"/><line class="st2" x1="76" y1="0" x2="76" y2="128"/><line class="st2" x1="72" y1="0" x2="72" y2="128"/><line class="st2" x1="68" y1="0" x2="68" y2="128"/><line class="st2" x1="64" y1="0" x2="64" y2="128"/><line class="st2" x1="60" y1="0" x2="60" y2="128"/><line class="st2" x1="56" y1="0" x2="56" y2="128"/><line class="st2" x1="52" y1="0" x2="52" y2="128"/><line class="st2" x1="48" y1="0" x2="48" y2="128"/><line class="st2" x1="44" y1="0" x2="44" y2="128"/><line class="st2" x1="40" y1="0" x2="40" y2="128"/><line class="st2" x1="36" y1="0" x2="36" y2="128"/><line class="st2" x1="32" y1="0" x2="32" y2="128"/><line class="st2" x1="28" y1="0" x2="28" y2="128"/><line class="st2" x1="24" y1="0" x2="24" y2="128"/><line class="st2" x1="20" y1="0" x2="20" y2="128"/><line class="st2" x1="16" y1="0" x2="16" y2="128"/><line class="st2" x1="12" y1="0" x2="12" y2="128"/><line class="st2" x1="8" y1="0" x2="8" y2="128"/><line class="st2" x1="4" y1="0" x2="4" y2="128"/></g></g><g><g><g><g><path class="st4" d="M72.6,20.6c1.8-2,3.6-4.1,5.5-6.1h38.3v106.3H80.8V63.4H68.3l18.8-42.8      C82.3,20.6,77.5,20.6,72.6,20.6z"/></g><g><g><ellipse class="st4" cx="27.9" cy="16.7" rx="12.5" ry="10.6"/><path class="st4" d="M55.1,49.3C51.2,45.8,39.8,36,37.8,34.7c-0.1-0.1-0.3-0.2-0.4-0.2       c-1.3-0.7-2.8-1.1-4.4-1.1H20.5c-5,0-9,3.8-9,8.4v40.6c0,0.6,0.5,1.1,1.3,1.1h1.5c0.7,0,1.3,0.5,1.3,1.1v32.8       c0,2.5,2.3,4.5,5.2,4.5h2.1c0.6,0,1.2-0.1,1.8-0.3c0.7-0.2,1.4-0.6,1.9-1c0.5-0.4,1.2-0.4,1.7,0c1,0.8,2.3,1.3,3.7,1.3h2.1       c2.9,0,5.2-2,5.2-4.5V84.6c0-0.6,0.5-1.1,1.3-1.1h0.3c0.7,0,1.3-0.5,1.3-1.1c-0.3-11.4-0.7-22.7-1-34.1       c3.7,2.7,7.4,5.5,11.1,8.2c4.5,0,9-0.1,13.6-0.1c0.3,0,1.6-0.1,2.6-1.1c1-1,1.1-2.2,1.1-2.4l0,0c0-1.9-1.8-3.5-3.9-3.5       L55.1,49.3z"/></g></g></g><g><path d="M98.9,67.3v-5.2c-3-0.1-6.1-1-7.9-2.3l1.2-3.4c1.9,1.2,4.5,2.2,7.4,2.2c3.6,0,6.1-2.1,6.1-5c0-2.8-2-4.6-5.8-6.1     c-5.2-2.1-8.5-4.4-8.5-8.9c0-4.3,3-7.5,7.8-8.3v-5.2h3.2v5c3.1,0.1,5.2,0.9,6.7,1.8l-1.3,3.4c-1.1-0.6-3.2-1.7-6.5-1.7     c-4,0-5.5,2.4-5.5,4.4c0,2.7,1.9,4,6.4,5.9c5.3,2.2,8,4.8,8,9.4c0,4.1-2.8,7.9-8.1,8.7v5.3H98.9z"/></g></g></g><text x="0" y="143" fill="#000000" font-size="5px" font-weight="bold" font-family="'Helvetica Neue', Helvetica, Arial-Unicode, Arial, Sans-serif">Created by SBTS</text><text x="0" y="148" fill="#000000" font-size="5px" font-weight="bold" font-family="'Helvetica Neue', Helvetica, Arial-Unicode, Arial, Sans-serif">from the Noun Project</text></svg>