<svg xmlns:dc="http://purl.org/dc/elements/1.1/" xmlns:cc="http://creativecommons.org/ns#" xmlns:rdf="http://www.w3.org/1999/02/22-rdf-syntax-ns#" xmlns:svg="http://www.w3.org/2000/svg" xmlns="http://www.w3.org/2000/svg" xmlns:sodipodi="http://sodipodi.sourceforge.net/DTD/sodipodi-0.dtd" xmlns:inkscape="http://www.inkscape.org/namespaces/inkscape" viewBox="0 0 32 40.00000125" version="1.1" x="0px" y="0px"><g transform="translate(0,-1020.3622)"><path style="color:#000000;font-style:normal;font-variant:normal;font-weight:normal;font-stretch:normal;font-size:medium;line-height:normal;font-family:sans-serif;text-indent:0;text-align:start;text-decoration:none;text-decoration-line:none;text-decoration-style:solid;text-decoration-color:#000000;letter-spacing:normal;word-spacing:normal;text-transform:none;direction:ltr;block-progression:tb;writing-mode:lr-tb;baseline-shift:baseline;text-anchor:start;white-space:normal;clip-rule:nonzero;display:inline;overflow:visible;visibility:visible;opacity:1;isolation:auto;mix-blend-mode:normal;color-interpolation:sRGB;color-interpolation-filters:linearRGB;solid-color:#000000;solid-opacity:1;fill:#000000;fill-opacity:1;fill-rule:nonzero;stroke:none;stroke-width:1;stroke-linecap:round;stroke-linejoin:round;stroke-miterlimit:4;stroke-dasharray:none;stroke-dashoffset:2;stroke-opacity:1;color-rendering:auto;image-rendering:auto;shape-rendering:auto;text-rendering:auto;enable-background:accumulate" d="M 17.701172 0 L 17.671875 0.46484375 C 17.657305 0.68654375 17.547216 0.85 17.333984 1 C 17.120753 1.15 16.807261 1.2510312 16.527344 1.2695312 L 13.892578 1.2695312 C 12.140067 1.2695312 10.716797 2.7034906 10.716797 4.4628906 L 10.716797 6.859375 C 10.716797 6.926375 10.71875 6.9437188 10.71875 6.8867188 C 10.71869 6.8527187 10.716797 6.8479688 10.716797 6.9179688 L 10.716797 7.9648438 A 0.50004997 0.50004997 0 0 0 10.716797 8.0390625 L 10.716797 10.150391 C 10.716797 11.470617 11.209927 12.664094 11.998047 13.597656 L 11.998047 14.417969 L 8.984375 11.404297 C 9.4564416 9.9373969 9.1798646 8.3207438 8.0742188 7.2148438 C 7.2670284 6.4076438 6.2043347 6.0039062 5.1425781 6.0039062 L 5.1425781 6.0019531 C 4.0808216 6.0019531 3.0200809 6.4056906 2.2128906 7.2128906 C 0.59851003 8.8272906 0.59851003 11.459919 2.2128906 13.074219 C 3.3188669 14.177719 4.9349368 14.454122 6.4003906 13.982422 L 9.9042969 17.486328 L 6.3378906 19.521484 C 4.8925144 20.343184 3.9980469 21.875003 3.9980469 23.533203 L 3.9980469 32.001953 L 14.570312 32.001953 L 23.498047 32.001953 L 27.998047 32.001953 L 27.998047 23.533203 C 27.998047 21.875503 27.104798 20.343384 25.660156 19.521484 L 25.658203 19.521484 L 22.083984 17.480469 L 25.630859 13.931641 C 27.087704 14.399541 28.694816 14.123291 29.792969 13.025391 C 30.886358 11.931691 31.275792 10.31485 30.798828 8.84375 A 0.50005 0.50005 0 0 0 29.96875 8.6445312 L 27.626953 10.986328 L 26.169922 10.824219 L 26.009766 9.3671875 L 28.347656 7.0292969 A 0.50005 0.50005 0 0 0 28.148438 6.1992188 C 27.413661 5.9610187 26.642217 5.9396812 25.917969 6.1132812 L 25.917969 6.1152344 C 25.193721 6.2888344 24.515587 6.657525 23.96875 7.203125 C 22.873078 8.301425 22.59896 9.9059281 23.066406 11.361328 L 19.998047 14.429688 L 19.998047 13.685547 C 20.830147 12.740779 21.351563 11.511696 21.351562 10.150391 L 21.351562 6.9179688 C 21.351562 6.8629687 21.350109 6.8685781 21.349609 6.8925781 C 21.349936 6.9125781 21.351563 6.9252344 21.351562 6.8652344 L 21.351562 3.3222656 L 21.345703 3.2910156 C 21.228199 2.3932156 20.952816 1.5831094 20.427734 0.97460938 C 19.902653 0.36620938 19.11565 -0.00069375 18.167969 0.00390625 L 18.167969 0 L 17.701172 0 z M 18.349609 1.0742188 C 18.919753 1.1182187 19.364119 1.2686469 19.669922 1.6230469 C 20.015017 2.0228469 20.249742 2.64115 20.351562 3.40625 L 20.351562 6.8613281 C 20.351564 6.8093281 20.350309 6.8218125 20.349609 6.8828125 C 20.349609 6.9598125 20.351562 6.9580625 20.351562 6.9140625 L 20.351562 7.2011719 C 20.068045 7.0420088 19.765013 6.9313771 19.457031 6.875 C 18.759421 6.7474 18.034224 6.8030313 17.335938 6.8320312 C 16.63765 6.8610312 15.97024 6.8650437 15.421875 6.7148438 C 14.87351 6.5641438 14.440481 6.2943219 14.078125 5.6699219 A 0.50004997 0.50004997 0 0 0 13.617188 5.421875 A 0.50004997 0.50004997 0 0 0 13.162109 5.7910156 C 13.174689 5.7440156 13.077339 5.9494844 12.910156 6.1464844 C 12.742977 6.3434844 12.514125 6.5753625 12.273438 6.7890625 C 12.083834 6.9574055 11.895756 7.0938497 11.716797 7.21875 L 11.716797 6.9140625 C 11.716797 6.9690625 11.71835 6.9507188 11.71875 6.8867188 C 11.71875 6.8097188 11.716797 6.815375 11.716797 6.859375 L 11.716797 4.4628906 C 11.716797 3.2362906 12.680709 2.2695312 13.892578 2.2695312 L 16.578125 2.2695312 L 16.59375 2.2695312 C 17.048113 2.2395313 17.515143 2.0961594 17.910156 1.8183594 C 18.138367 1.6577753 18.209898 1.3376193 18.349609 1.0742188 z M 13.708984 6.7324219 C 14.139162 7.1883219 14.625891 7.5314344 15.158203 7.6777344 C 15.900572 7.8816344 16.66466 7.8616313 17.378906 7.8320312 C 18.093153 7.8020313 18.761009 7.765375 19.277344 7.859375 C 19.761133 7.9474501 20.088307 8.1147124 20.351562 8.5195312 L 20.351562 10.146484 C 20.351562 12.567584 18.43263 14.498047 16.035156 14.498047 C 13.637694 14.498047 11.716797 12.567584 11.716797 10.146484 L 11.716797 8.3964844 C 11.847726 8.3369179 11.970276 8.2606978 12.101562 8.1777344 C 12.378654 8.0025344 12.665096 7.7790094 12.9375 7.5371094 C 13.209904 7.2953094 13.464913 7.0368687 13.671875 6.7929688 C 13.688735 6.7729688 13.692694 6.7514219 13.708984 6.7324219 z M 5.1445312 6.9960938 C 5.9482928 6.9960938 6.7510778 7.305775 7.3671875 7.921875 C 8.2841825 8.839075 8.5442511 10.220503 8.0234375 11.408203 A 0.50005 0.50005 0 0 0 8.1269531 11.960938 L 11.998047 15.832031 L 11.998047 16.291016 L 11.158203 16.769531 A 0.50005 0.50005 0 0 0 10.974609 16.873047 L 10.804688 16.970703 L 6.9570312 13.125 A 0.50005 0.50005 0 0 0 6.4023438 13.019531 C 5.2166118 13.539431 3.8371617 13.280787 2.9199219 12.367188 L 2.9179688 12.367188 C 1.6877074 11.134787 1.6883585 9.153475 2.9199219 7.921875 C 3.5360316 7.305775 4.3407697 6.9960938 5.1445312 6.9960938 z M 26.851562 7.1113281 L 25.132812 8.8300781 A 0.50005 0.50005 0 0 0 24.988281 9.2402344 L 25.220703 11.332031 A 0.50005 0.50005 0 0 0 25.662109 11.773438 L 27.755859 12.005859 A 0.50005 0.50005 0 0 0 28.164062 11.863281 L 29.884766 10.142578 C 29.876466 10.945178 29.672386 11.731859 29.085938 12.318359 C 28.176571 13.227559 26.806602 13.48515 25.628906 12.96875 A 0.50005 0.50005 0 0 0 25.074219 13.074219 L 21.183594 16.966797 L 19.998047 16.291016 L 19.998047 15.84375 L 23.923828 11.917969 A 0.50005 0.50005 0 0 0 24.029297 11.363281 C 23.513633 10.187181 23.769405 8.8197562 24.675781 7.9101562 C 25.262548 7.3247563 26.049399 7.1191281 26.851562 7.1113281 z M 5.6972656 7.6484375 A 0.49432006 0.50584653 44.997016 0 0 5.5742188 7.6660156 L 3.5800781 8.2226562 A 0.49432006 0.50584653 44.997016 0 0 3.2226562 8.5800781 L 2.6679688 10.574219 A 0.49432006 0.50584653 44.997016 0 0 2.7910156 11.054688 L 4.2285156 12.494141 A 0.49432006 0.50584653 44.997016 0 0 4.7109375 12.617188 L 6.7050781 12.060547 A 0.49432006 0.50584653 44.997016 0 0 7.0175781 11.818359 A 0.49432006 0.50584653 44.997016 0 0 7.0644531 11.703125 L 7.6171875 9.7089844 A 0.49432006 0.50584653 44.997016 0 0 7.4941406 9.2285156 L 6.0566406 7.7890625 A 0.49432006 0.50584653 44.997016 0 0 5.6972656 7.6484375 z M 5.5449219 8.7070312 L 6.578125 9.7421875 L 6.1796875 11.175781 L 4.7421875 11.576172 L 3.7070312 10.541016 L 4.1074219 9.1074219 L 5.5449219 8.7070312 z M 12.998047 14.535156 C 13.859818 15.140802 14.903936 15.501953 16.035156 15.501953 C 17.132958 15.501953 18.15146 15.16706 18.998047 14.59375 L 18.998047 15.501953 C 18.998045 15.817753 18.762863 16.174822 18.224609 16.482422 C 17.686356 16.789922 16.887339 17.001953 15.998047 17.001953 C 15.108755 17.001953 14.309738 16.789922 13.771484 16.482422 C 13.233231 16.174822 12.998049 15.817753 12.998047 15.501953 L 12.998047 14.535156 z M 12.773438 17 C 12.925967 17.129322 13.095339 17.246743 13.275391 17.349609 C 14.003888 17.765909 14.954348 18.001953 15.998047 18.001953 C 17.041746 18.001953 17.992206 17.765909 18.720703 17.349609 C 18.900755 17.246743 19.070127 17.129322 19.222656 17 L 20.041016 17.466797 L 18.40625 24.001953 L 13.515625 24.001953 L 11.890625 17.503906 L 12.773438 17 z M 20.943359 17.982422 L 22.666016 18.964844 L 20.9375 25.880859 A 0.50005 0.50005 0 0 0 20.935547 25.894531 C 20.793948 26.538131 20.379086 27.001953 19.824219 27.001953 C 19.249245 27.001953 18.854222 26.648759 18.921875 26.068359 L 20.943359 17.982422 z M 10.988281 18.019531 L 13 26.068359 C 13.06765 26.648759 12.67263 27.001953 12.097656 27.001953 C 11.542789 27.001953 11.127927 26.538131 10.986328 25.894531 A 0.50005 0.50005 0 0 0 10.984375 25.878906 L 9.265625 19.001953 L 10.988281 18.019531 z M 23.570312 19.480469 L 25.164062 20.390625 C 26.299786 21.036225 26.998047 22.234103 26.998047 23.533203 L 26.998047 31.001953 L 23.998047 31.001953 L 23.998047 24.501953 A 0.50005 0.50005 0 0 0 23.498047 24.001953 L 22.439453 24.001953 L 23.570312 19.480469 z M 8.3613281 19.517578 L 9.4824219 24.001953 L 8.4980469 24.001953 A 0.50005 0.50005 0 0 0 7.9980469 24.501953 L 7.9980469 31.001953 L 4.9980469 31.001953 L 4.9980469 23.533203 C 4.9980469 22.234103 5.6963074 21.036225 6.8320312 20.390625 L 6.8339844 20.390625 L 8.3613281 19.517578 z M 11.898438 25 A 0.5 0.5 0 0 0 11.398438 25.5 A 0.5 0.5 0 0 0 11.898438 26 A 0.5 0.5 0 0 0 12.398438 25.5 A 0.5 0.5 0 0 0 11.898438 25 z M 20.023438 25 A 0.5 0.5 0 0 0 19.523438 25.5 A 0.5 0.5 0 0 0 20.023438 26 A 0.5 0.5 0 0 0 20.523438 25.5 A 0.5 0.5 0 0 0 20.023438 25 z M 8.9980469 25.001953 L 9.7324219 25.001953 L 10.009766 26.109375 C 10.225776 27.088275 10.99116 28 12.097656 28 C 13.182206 28 14.135749 27.0884 13.994141 25.9375 A 0.50005 0.50005 0 0 0 13.984375 25.876953 L 13.765625 25.001953 L 18.15625 25.001953 L 17.9375 25.880859 A 0.50005 0.50005 0 0 0 17.927734 25.939453 C 17.786126 27.090353 18.739669 28.001953 19.824219 28.001953 C 20.930715 28.001953 21.696099 27.090228 21.912109 26.111328 L 22.189453 25.001953 L 22.998047 25.001953 L 22.998047 31.001953 L 14.570312 31.001953 L 8.9980469 31.001953 L 8.9980469 25.001953 z " transform="translate(0,1020.3622)"/></g><text x="0" y="47.000001" fill="#000000" font-size="5px" font-weight="bold" font-family="'Helvetica Neue', Helvetica, Arial-Unicode, Arial, Sans-serif">Created by Chameleon Design</text><text x="0" y="52.000001" fill="#000000" font-size="5px" font-weight="bold" font-family="'Helvetica Neue', Helvetica, Arial-Unicode, Arial, Sans-serif">from the Noun Project</text></svg>