<svg xmlns="http://www.w3.org/2000/svg" xmlns:xlink="http://www.w3.org/1999/xlink" version="1.1" x="0px" y="0px" viewBox="0 0 64 80" enable-background="new 0 0 64 64" xml:space="preserve"><g><path d="M61.423,47.094L58,45.496V38c0.552,0,1-0.447,1-1v-4c0-0.553-0.448-1-1-1v-7c0-0.553-0.448-1-1-1h-8c-0.552,0-1,0.447-1,1   v7H34c-0.552,0-1,0.447-1,1v4c0,0.553,0.448,1,1,1v7.496l-3.423,1.597c-0.499,0.233-0.716,0.825-0.485,1.325l6,13   C36.255,61.773,36.61,62,37,62h18c0.39,0,0.745-0.227,0.908-0.581l6-13C62.139,47.919,61.922,47.327,61.423,47.094z M52,38v4.425   l-5.614-2.348C46.262,40.025,46.131,40,46,40s-0.262,0.025-0.386,0.077L40,42.425V38H52z M45,42.57v8.104l-10.77-3.078L45,42.57z    M47,42.57l10.77,5.026L47,50.674V42.57z M56,44.098l-2-0.836V38h2V44.098z M54.414,29L56,27.414v3.172L54.414,29z M53,27.586   L51.414,26h3.172L53,27.586z M51.586,29L50,30.586v-3.172L51.586,29z M53,30.414L54.586,32h-3.172L53,30.414z M35,34h14h8v2H35V34z    M38,38v5.261l-2,0.836V38H38z M32.67,49.232L45,52.755V60h-7.36L32.67,49.232z M54.36,60H47v-7.245l12.33-3.523L54.36,60z"/><path d="M27,40h-6V16c1.654,0,3-1.346,3-3v-1h16v4.586l-3.706,3.706C36.112,20.473,36,20.723,36,21v8c0,0.553,0.448,1,1,1h8   c0.552,0,1-0.447,1-1v-8c0-0.277-0.112-0.527-0.294-0.708L42,16.586V12h1c0.552,0,1-0.447,1-1V7c0-0.553-0.448-1-1-1H24V5   c0-1.654-1.346-3-3-3h-6c-1.654,0-3,1.346-3,3v1H3C2.448,6,2,6.447,2,7v4c0,0.553,0.448,1,1,1h9v1c0,1.654,1.346,3,3,3v24h-2v-7v-8   c0-0.553-0.448-1-1-1H4c-0.552,0-1,0.447-1,1v8v7c-0.552,0-1,0.447-1,1v4v16c0,0.553,0.448,1,1,1h23c0.552,0,1-0.447,1-1V46   c0.552,0,1-0.447,1-1v-4C28,40.447,27.552,40,27,40z M39.586,25L38,26.586v-3.172L39.586,25z M39.414,22h3.172L41,23.586L39.414,22   z M41,26.414L42.586,28h-3.172L41,26.414z M42.414,25L44,23.414v3.172L42.414,25z M39.414,20L41,18.414L42.586,20H39.414z M26,44H4   v-2h8h4h4h6V44z M16,56v4h-3V46h3v4h2v-4h3v14h-3v-4H16z M11,46v14H8V46H11z M9.414,37L11,35.414v3.172L9.414,37z M9.586,40H6.414   L8,38.414L9.586,40z M9.586,34L8,35.586L6.414,34H9.586z M6.414,32L8,30.414L9.586,32H6.414z M9.414,29L11,27.414v3.172L9.414,29z    M8,27.586L6.414,26h3.172L8,27.586z M6.586,29L5,30.586v-3.172L6.586,29z M6.586,37L5,38.586v-3.172L6.586,37z M22,10h-3.02   C18.439,10,18,9.561,18,8.98C18,8.439,18.439,8,18.98,8H22V10z M42,10H24V8h18V10z M4,10V8h8v2H4z M14,13v-2V7V5   c0-0.552,0.449-1,1-1h6c0.551,0,1,0.448,1,1v1h-3.02C17.337,6,16,7.337,16,9.02c0,1.644,1.337,2.98,2.98,2.98H22v1   c0,0.552-0.449,1-1,1h-1h-4h-1C14.449,14,14,13.552,14,13z M17,16h2v24h-2V16z M4,46h2v14H4V46z M25,60h-2V46h2V60z"/><rect x="16" y="52" width="2" height="2"/></g><text x="0" y="79" fill="#000000" font-size="5px" font-weight="bold" font-family="'Helvetica Neue', Helvetica, Arial-Unicode, Arial, Sans-serif">Created by Petai Jantrapoon</text><text x="0" y="84" fill="#000000" font-size="5px" font-weight="bold" font-family="'Helvetica Neue', Helvetica, Arial-Unicode, Arial, Sans-serif">from the Noun Project</text></svg>