<svg xmlns="http://www.w3.org/2000/svg" xmlns:xlink="http://www.w3.org/1999/xlink" version="1.1" x="0px" y="0px" viewBox="0 0 176.563 296.66875" style="enable-background:new 0 0 176.563 237.335;" xml:space="preserve"><g><path d="M88.066,223.35c-0.895,6.771,3.869,12.982,10.637,13.877c6.77,0.895,12.984-3.865,13.879-10.637l7.453-56.42H95.092   L88.066,223.35z"/><path d="M171.953,69.672c-3.891-5.848-9.023-10.014-13.191-12.971c-4.18-2.934-7.449-4.566-7.697-4.693   c-1.689-0.842-3.535-1.025-5.248-0.656H109c-0.666,0-1.311,0.094-1.928,0.252c-0.422,0.01-0.846,0.043-1.273,0.123h-0.002   c-1.061,0.201-23.084,4.445-41.484,27.742c-0.006,0.006-0.012,0.012-0.016,0.019h-0.002c-4.363,5.547-8.492,12.152-12.029,19.957   c-1.822,4.023-0.043,8.764,3.984,10.59c1.07,0.486,2.193,0.715,3.297,0.715c3.045,0,5.953-1.746,7.293-4.699   c3.01-6.639,6.449-12.115,10.029-16.664l0,0c5.309-6.742,10.945-11.457,15.998-14.756c-0.088-3.145,0.91-6.541,5.131-9.303   c1.807-1.184,3.986-1.863,5.98-1.863c2.639,0,3.568,1.197,3.891,1.912c0.215,0.486,0.588,1.762-0.635,3.133   c-3.447,3.871-1.529,6.713-1.211,7.131c0.129,0.121,0.26,0.272,0.441,0.488c0.904,1.057,3.648,4.273,7.059,5.023   c0.508,0.109,1.152,0.227,1.883,0.355c4.848,0.869,12.176,2.18,12.748,7.098c0.516,4.49,0.088,5.9-1.764,8.756   c-1.957,3.01-5.936,3.189-9.443,3.346c-1.768,0.08-3.594,0.162-4.947,0.58c-1.166,0.523-5.51,5.555-8.893,10.334l-0.508,0.717   c0.021,0.633-0.248,1.232-0.732,1.598c-0.166,0.125-0.348,0.232-0.549,0.307c0.035,0.232,0.066,0.465,0.076,0.691l1.127,34.693   c0.055,1.709-0.506,3.293-1.484,4.545h21.113l2.506-18.971h7.32l2.506,18.971h16.852c3.309,0,6,2.689,6,5.998v4.002   c0,3.309-2.691,5.998-6,5.998H147v62.934c2.633,3.008,6.67,4.685,10.93,4.123c6.768-0.895,11.531-7.105,10.637-13.877   l-13.203-99.93v-8.787c-2.432,1.381-5.076,2.74-7.955,4.094c-1.35,0.629-2.77,0.945-4.236,0.945c-3.869,0-7.428-2.262-9.063-5.764   c-1.133-2.418-1.256-5.133-0.346-7.646c0.91-2.512,2.746-4.516,5.166-5.649c9.436-4.398,14.158-8.252,16.434-10.641V74.602   c1.324,1.324,2.498,2.719,3.352,4.064c1.301,2.037,1.852,3.797,1.848,5.33c-0.014,0.607-0.086,1.25-0.297,1.971   c-0.328,1.127-1,2.449-2.369,4.162c-0.004,0.004-0.006,0.008-0.01,0.012c-2.688,3.322-8.311,7.717-18.111,12.283   c-4.004,1.873-5.73,6.635-3.855,10.637c1.357,2.904,4.242,4.611,7.252,4.611c1.135,0,2.287-0.242,3.385-0.756   c11.131-5.231,18.721-10.594,23.719-16.649c0.002-0.002,0.004-0.004,0.006-0.006c1.527-1.844,2.785-3.795,3.766-5.799   c1.674-3.42,2.537-6.994,2.516-10.467C176.555,78.406,174.514,73.555,171.953,69.672z"/><path d="M101.475,110.467c2.557-3.609,7.986-10.492,9.936-11.09c4.326-1.338,11.086,0.305,13.303-3.107   c1.547-2.383,1.93-3.299,1.455-7.432c-0.473-4.084-9.717-4.992-13.074-5.732c-4.766-1.049-8.197-5.852-8.465-6.031   c-0.219-0.148-3.67-4.525,1.115-9.898c1.674-1.875-2.969-2.586-6.652-0.176c-4.379,2.869-4.715,6.342-3.856,10.443   c-6.736,3.328-10.291,11.766-11.213,17.77C90.607,102.543,97.094,107.527,101.475,110.467z M105.109,83.428   c1.777-0.25,3.42,0.99,3.668,2.768c0.25,1.779-0.988,3.422-2.766,3.67c-1.777,0.248-3.42-0.988-3.668-2.768   C102.094,85.32,103.332,83.678,105.109,83.428z"/><path d="M34.691,154.105c9.166,0,6.684-28.174,11.801-31.781c0.721,0.064,21.066,14.31,32.68,12.519   c2.076-0.32,4.711-1.375,7.207-2.648l4.27,18.77c0.318,1.4,1.203,2.531,2.365,3.207h5.02c1.547-0.9,2.551-2.588,2.49-4.48   l-1.131-34.684c-0.014-0.443-0.104-0.863-0.225-1.27c-4.346-2.922-10.574-7.703-16.99-14.615c-3.85,1.199-7.152,1.559-10.105,1.428   c-1.326,2.23-2.576,4.48-3.412,6.326c-1.615,3.566-5.191,5.873-9.113,5.873c-1.428,0-2.814-0.299-4.121-0.891   c-2.434-1.105-4.293-3.09-5.234-5.59c-0.939-2.5-0.85-5.219,0.254-7.648c0.44-0.973,0.977-2.039,1.572-3.158   c-3.654-0.42-7.676,0.133-12.711,2.826c-7.197-2.115-15.779-6.662-22.279-16.365c-1.314-1.951-3.959-2.461-5.904-1.148   c-1.955,1.311-2.471,3.955-1.152,5.906c6.184,9.137,13.824,14.488,20.994,17.623c-0.084,0.176-0.172,0.385-0.26,0.586   c-1.838,2.764-3.277,6.408-4.213,11.262C26.361,116.861,25.525,154.105,34.691,154.105z"/><path d="M151.334,168.17c2.209,0,4-1.791,4-4v-4c0-2.209-1.791-4-4-4H4c-2.209,0-4,1.791-4,4v4c0,2.209,1.791,4,4,4h6.334v68.668   h10V168.17H135v68.668h10V168.17H151.334z"/><path d="M151.221,12.799c0.371-1.018,0.584-2.111,0.584-3.258c0-5.27-4.273-9.541-9.541-9.541c-2.266,0-4.342,0.793-5.979,2.109   c-2.477-0.937-5.162-1.457-7.969-1.457c-7.695,0-14.488,3.867-18.545,9.764h22.994c0.199,2.188,1.139,4.156,2.564,5.666h-28.373   c-0.736,2.225-1.141,4.6-1.141,7.07c0,12.428,10.074,22.5,22.5,22.5c12.428,0,22.5-10.072,22.5-22.5   c0-2.471-0.404-4.846-1.139-7.07h-0.482C150.08,15.146,150.771,14.033,151.221,12.799z M135.264,9.543c0-3.861,3.139-7.002,7-7.002   c3.859,0,7,3.141,7,7.002c0,3.859-3.141,6.998-7,6.998C138.402,16.541,135.264,13.402,135.264,9.543z"/></g><text x="0" y="252.335" fill="#000000" font-size="5px" font-weight="bold" font-family="'Helvetica Neue', Helvetica, Arial-Unicode, Arial, Sans-serif">Created by Gan Khoon Lay</text><text x="0" y="257.33500000000004" fill="#000000" font-size="5px" font-weight="bold" font-family="'Helvetica Neue', Helvetica, Arial-Unicode, Arial, Sans-serif">from the Noun Project</text></svg>