<svg xmlns="http://www.w3.org/2000/svg" xmlns:xlink="http://www.w3.org/1999/xlink" version="1.1" x="0px" y="0px" viewBox="0 0 1313.403 406.07125" style="enable-background:new 0 0 1313.403 324.857;" xml:space="preserve"><g><g><ellipse transform="matrix(0.2268 -0.9739 0.9739 0.2268 94.7781 340.0071)" cx="261.53" cy="110.311" rx="22.493" ry="22.495"/><path d="M228.008,223.914c2.547,8.387,5.724,22.192,5.701,38.755c-0.003,13.22-1.979,28.174-7.766,43.802    c-2.396,6.475,0.908,13.666,7.383,16.064c1.431,0.529,2.896,0.781,4.338,0.781c5.08,0,9.857-3.119,11.724-8.163    c6.956-18.782,9.324-36.775,9.32-52.483c-0.029-25.053-5.913-44.324-9.091-52.944c-0.494-3.701-0.643-7.538-0.566-11.417    c-16.209-25.761-18.006-43.906-18.027-44.155c-0.289-2.606,0.469-5.216,2.137-7.3c1.672-2.085,4.053-3.394,6.709-3.687    c0.371-0.041,0.742-0.061,1.109-0.061c5.074,0,9.34,3.807,9.921,8.855l0.004,0.024l0.016,0.094    c0.019,0.136,0.058,0.374,0.116,0.711c0.12,0.681,0.347,1.824,0.748,3.405c0.444,1.744,1.141,4.148,2.174,7.065    c0.335-1.652,0.66-3.255,0.958-4.775c2.869-9.953-0.885-21.865-9.42-23.992c-8.537-2.129-20.912,2.508-25.947,17.15    c-6.805,20.174-8.268,33.305-5.682,55.52C215.979,218.034,221.697,222.314,228.008,223.914z"/><path d="M291.453,223.547c8.395,2.247,14.581,9.871,14.598,18.975c-0.002,0.745-0.053,1.477-0.135,2.2h-39.065    c-0.081-0.723-0.132-1.455-0.134-2.2c0.01-5.506,2.279-10.473,5.924-14.04c-0.928-0.985-1.844-1.967-2.732-2.943    c-4.433,4.301-7.191,10.318-7.193,16.983c0.001,4.762,1.413,9.192,3.834,12.905l2.121,34.179h35.761l2.157-34.757    c2.195-3.59,3.462-7.811,3.462-12.327c0-11.629-8.39-21.291-19.445-23.284C291.207,220.607,291.494,222.079,291.453,223.547z"/><path d="M249.065,153.135c-0.067-0.379-0.109-0.649-0.131-0.802c-0.012-0.077-0.018-0.126-0.02-0.144l0,0    c-0.504-4.372-4.448-7.52-8.827-7.036c-4.392,0.486-7.558,4.438-7.071,8.831v-0.002c0.113,1.323,4.291,34.917,42.683,74.831    c1.57,1.635,3.669,2.458,5.771,2.458c1.993,0,3.99-0.741,5.541-2.231c3.186-3.062,3.286-8.126,0.227-11.312    c-17.826-18.552-27.404-35.248-32.551-47.151c-2.572-5.953-4.031-10.708-4.841-13.891    C249.442,155.094,249.2,153.895,249.065,153.135z"/></g><g><ellipse transform="matrix(0.2268 -0.9739 0.9739 0.2268 15.3962 240.0156)" cx="158.863" cy="110.311" rx="22.493" ry="22.495"/><path d="M125.34,223.914c2.547,8.387,5.725,22.193,5.703,38.757c-0.003,13.218-1.98,28.172-7.766,43.8    c-2.397,6.473,0.906,13.666,7.381,16.064c1.432,0.53,2.898,0.781,4.34,0.781c5.08,0.001,9.856-3.12,11.724-8.162    c4.656-12.572,7.248-24.786,8.458-36.202l41.018,10.01c2.146,0.523,4.311-0.791,4.834-2.938l13.908-56.994    c0.523-2.146-0.791-4.311-2.938-4.835l-2.59-0.632l0.158-0.647c0.523-2.146-0.792-4.311-2.938-4.835l-9.716-2.37    c-2.145-0.525-4.311,0.792-4.834,2.938l-0.158,0.647l-4.521-1.104c1.804,3.06,1.843,6.865,0.129,9.945    c-0.003,0.012-0.002,0.024-0.005,0.036l-0.789,3.237c-0.525,2.146-2.689,3.462-4.835,2.938l-12.306-3.002    c-2.146-0.523-3.461-2.689-2.938-4.835l0.313-1.276c-1.634-1.803-3.199-3.59-4.697-5.359l-6.906,28.303    c-1.638-17.939-5.885-31.578-8.418-38.451c-0.496-3.706-0.645-7.547-0.567-11.431c-16.183-25.736-18.008-43.892-18.028-44.141    c-0.29-2.61,0.468-5.22,2.139-7.304c1.67-2.085,4.053-3.394,6.709-3.687c0.371-0.041,0.744-0.061,1.109-0.061    c5.074,0,9.34,3.807,9.92,8.855c0.034,0.232,0.072,0.475,0.135,0.819c0.121,0.693,0.35,1.838,0.752,3.413    c0.441,1.742,1.135,4.146,2.17,7.069c0.336-1.653,0.661-3.257,0.959-4.777c2.869-9.953-0.885-21.865-9.42-23.992    c-8.537-2.129-20.912,2.508-25.947,17.15c-6.805,20.174-8.267,33.305-5.682,55.52C113.312,218.033,119.03,222.314,125.34,223.914z    "/><path d="M146.399,153.135c-0.068-0.379-0.11-0.649-0.132-0.802c-0.012-0.077-0.018-0.126-0.02-0.144h-0.001    c-0.504-4.372-4.445-7.52-8.824-7.036c-4.394,0.486-7.56,4.438-7.074,8.831v-0.002c0.116,1.323,4.291,34.917,42.684,74.831    c1.57,1.635,3.669,2.458,5.77,2.458c1.994,0,3.99-0.741,5.541-2.231c3.186-3.062,3.287-8.126,0.227-11.312    c-17.826-18.552-27.403-35.248-32.55-47.151c-2.572-5.953-4.031-10.708-4.839-13.891    C146.774,155.094,146.533,153.895,146.399,153.135z"/></g><g><path d="M53.217,181.428c5.496,3.734,12.504,6.303,20.826,7.637c5.443,0.867,9.166,6.004,8.301,11.45    c-0.783,4.884-4.934,8.426-9.87,8.426c-0.528,0-1.062-0.044-1.586-0.128c-8.925-1.418-16.877-4.029-23.757-7.742v18.535    c0,2.209,1.791,4,4,4h45.334c2.209,0,4-1.791,4-4v-58.666c0-2.209-1.791-4-4-4h-2.666v-0.667c0-2.209-1.791-4-4-4h-10    c-2.209,0-4,1.791-4,4v0.667H51.131c-2.209,0-4,1.791-4,4v15.238C48.9,178.117,50.922,179.862,53.217,181.428z M52.965,166.605    c0-2.209,1.791-4,4-4h12.666c2.209,0,4,1.791,4,4v3.334c0,2.209-1.791,4-4,4H56.965c-2.209,0-4-1.791-4-4V166.605z"/><ellipse transform="matrix(0.2268 -0.9739 0.9739 0.2268 -69.6556 132.8821)" cx="48.863" cy="110.311" rx="22.493" ry="22.495"/><path d="M21.042,262.671c-0.002,13.218-1.978,28.172-7.765,43.8c-2.397,6.473,0.908,13.666,7.381,16.064    c1.432,0.53,2.897,0.781,4.34,0.781c5.08,0.001,9.856-3.12,11.724-8.162c6.956-18.784,9.322-36.777,9.319-52.483    c-0.03-25.05-5.912-44.317-9.09-52.941c-0.688-5.141-0.727-10.54-0.382-15.957c-4.31-3.783-7.942-8.174-10.818-13.134    c-6.397-11.095-7.421-21.626-7.462-26.916c0-0.605,0.018-0.981,0.024-1.121c0.274-5.329,4.658-9.497,9.979-9.497    c0.173,0,0.345,0.004,0.522,0.014c5.477,0.279,9.729,4.965,9.473,10.445v0.143c-0.004,0.551,0.027,5.449,2.146,11.271    c0.105,0.285,0.229,0.552,0.34,0.832c0.52-2.574,1.026-5.038,1.475-7.326c2.869-9.953-0.885-21.865-9.42-23.992    c-8.537-2.129-20.912,2.508-25.947,17.15c-6.805,20.174-8.267,33.305-5.682,55.52c2.113,10.872,7.83,15.152,14.143,16.752    C17.889,232.301,21.065,246.107,21.042,262.671z"/><path d="M36.288,153.707c0-0.124,0.002-0.202,0.004-0.235H36.29c0.204-4.394-3.183-8.13-7.581-8.355    c-4.412-0.228-8.172,3.166-8.399,7.579c-0.006,0.127-0.021,0.473-0.021,1.012c0.025,3.284,0.438,14.218,7.194,25.929    c3.377,5.828,8.412,11.789,15.608,16.675c7.188,4.897,16.467,8.676,28.115,10.529c0.426,0.068,0.849,0.101,1.267,0.101    c3.865,0.001,7.266-2.804,7.895-6.74c0.695-4.364-2.279-8.464-6.641-9.161c-9.654-1.546-16.551-4.503-21.639-7.959    c-7.594-5.183-11.414-11.632-13.533-17.417C36.461,159.909,36.281,154.912,36.288,153.707z"/></g><g><ellipse transform="matrix(0.483 -0.8756 0.8756 0.483 155.3361 506.0514)" cx="506.227" cy="121.476" rx="22.493" ry="22.495"/><path d="M444.957,222.669c2.598,8.225,6.109,22.59,6.084,40.003c-0.002,13.218-1.977,28.171-7.763,43.799    c-2.398,6.474,0.907,13.666,7.382,16.064c1.431,0.53,2.897,0.781,4.339,0.781c5.08,0,9.855-3.12,11.725-8.163    c6.954-18.781,9.321-36.776,9.319-52.482c-0.027-22.585-4.811-40.462-8.082-50.083c1.019-6.156,2.965-12.393,5.353-18.441    c-0.653-1.106-1.242-2.179-1.767-3.206c-5.813-11.31-7.039-21.98-7.043-28.937c0-3.727,0.358-6.097,0.43-6.537    c0.787-4.864,4.935-8.399,9.862-8.399c0.534,0,1.073,0.043,1.604,0.13c5.412,0.876,9.127,5.996,8.284,11.409    c-0.022,0.17-0.046,0.368-0.071,0.65c-0.051,0.561-0.109,1.494-0.109,2.745c-0.002,1.738,0.123,4.247,0.635,7.215    c0.56-1.088,1.107-2.157,1.626-3.18c5.467-8.799,5.093-21.282-2.542-25.65c-7.638-4.37-20.807-3.272-29.633,9.45    c-12.033,17.564-17.011,29.804-20.561,51.885C433.006,213.955,438.446,219.603,444.957,222.669z"/><path d="M482.622,159.08c0.028-0.318,0.055-0.544,0.071-0.669c0.008-0.063,0.014-0.101,0.016-0.111l0,0    c0.676-4.344-2.283-8.423-6.627-9.127c-4.362-0.706-8.469,2.257-9.176,6.619c-0.057,0.346-0.402,2.607-0.402,6.21    c0.004,6.288,1.042,16.779,6.824,28.03c5.747,11.25,16.417,23.018,34.351,31.271c1.089,0.504,2.231,0.742,3.356,0.742    c3.021,0.001,5.912-1.719,7.266-4.641c1.854-4.01,0.108-8.765-3.9-10.619c-14.95-6.965-22.547-15.813-26.848-24.076    c-4.266-8.263-5.054-16.184-5.048-20.706C482.505,160.718,482.566,159.717,482.622,159.08z"/></g><g><ellipse transform="matrix(0.2268 -0.9739 0.9739 0.2268 168.4894 432.8559)" cx="356.863" cy="110.311" rx="22.493" ry="22.495"/><path d="M323.342,223.914c2.547,8.387,5.723,22.193,5.7,38.757c-0.002,13.218-1.978,28.172-7.765,43.8    c-2.397,6.473,0.908,13.666,7.381,16.064c1.432,0.53,2.898,0.781,4.34,0.781c5.08,0.001,9.855-3.12,11.724-8.162    c6.956-18.784,9.322-36.777,9.32-52.483c-0.031-25.05-5.913-44.317-9.091-52.941c-0.688-5.141-0.727-10.54-0.382-15.957    c-4.311-3.784-7.944-8.176-10.817-13.134c-6.398-11.092-7.422-21.625-7.464-26.919c0-0.603,0.018-0.979,0.024-1.119    c0.272-5.329,4.658-9.497,9.982-9.497c0.172,0,0.343,0.006,0.516,0.014c5.48,0.281,9.73,4.965,9.478,10.443v0.143    c-0.004,0.551,0.028,5.446,2.147,11.274c0.103,0.285,0.228,0.551,0.338,0.83c0.521-2.573,1.027-5.036,1.475-7.324    c2.869-9.953-0.885-21.865-9.42-23.992c-8.537-2.129-20.912,2.508-25.947,17.15c-6.805,20.174-8.267,33.305-5.682,55.52    C311.313,218.034,317.03,222.314,323.342,223.914z"/><path d="M390.342,200.514c-0.779,4.883-4.928,8.426-9.864,8.426c-0.522,0-1.054-0.042-1.583-0.126    c-4.131-0.656-8.053-1.568-11.762-2.722v22.179c0,2.209,1.791,4,4,4h41.334c2.209,0,4-1.791,4-4v-58.666c0-2.209-1.791-4-4-4h-4    v-1.334c0-2.209-1.791-4-4-4h-25.332c-2.209,0-4,1.791-4,4v1.334h-4.002c-2.209,0-4,1.791-4,4v15.109    c4.345,1.989,9.324,3.455,14.91,4.348C387.486,189.934,391.207,195.069,390.342,200.514z"/><path d="M344.289,153.705c0-0.121,0.002-0.201,0.002-0.235c0.202-4.394-3.184-8.129-7.582-8.354    c-4.412-0.227-8.172,3.166-8.398,7.58v-0.002c-0.006,0.127-0.022,0.474-0.022,1.011c0.026,3.285,0.439,14.221,7.194,25.93    c3.377,5.829,8.412,11.79,15.608,16.675c7.188,4.896,16.466,8.678,28.116,10.528c0.428,0.068,0.852,0.101,1.272,0.101    c3.861,0,7.26-2.804,7.889-6.74c0.693-4.365-2.278-8.465-6.641-9.161c-9.655-1.546-16.551-4.504-21.638-7.958    c-7.596-5.185-11.415-11.632-13.534-17.419C344.462,159.908,344.281,154.911,344.289,153.705z"/></g><g><path d="M1305.234,136.053l-47.36-89.717c-4.493-8.513-16.045-15.478-25.672-15.478h-113.171c-9.625,0-17.502,7.875-17.502,17.502    v194.261c0,9.626,7.877,17.502,17.502,17.502h6.673c5.036-31.385,32.296-55.441,65.08-55.441    c32.782,0,60.044,24.056,65.079,55.441h40.039c9.626,0,17.501-7.876,17.501-17.502v-73.589    C1313.403,159.406,1309.727,144.566,1305.234,136.053z M1157.831,48.358v83.53h-38.8v-83.53H1157.831z M1154.719,171.56h-24.114    v-9.334h24.114V171.56z M1167.166,131.889v-83.53h65.038c3.116,0,8.736,3.393,10.191,6.147l40.851,77.384H1167.166z"/><path d="M1190.784,216.35c-29.963,0-54.254,24.29-54.254,54.253c0,29.964,24.291,54.254,54.254,54.254s54.254-24.29,54.254-54.254    C1245.038,240.64,1220.747,216.35,1190.784,216.35z M1221.702,270.602c0,17.049-13.869,30.919-30.919,30.919    c-17.047,0-30.917-13.87-30.917-30.919c0-17.048,13.87-30.917,30.917-30.917C1207.833,239.685,1221.702,253.554,1221.702,270.602z    "/><path d="M893.041,122.707c24.263,0,44.002-19.74,44.002-44c0-24.262-19.739-44-44.002-44c-24.261,0-44,19.738-44,44    C849.041,102.967,868.78,122.707,893.041,122.707z M893.041,49.765c3.562,16.849,19.146,19.591,19.146,38.737    c0,10.723-8.573,19.146-19.146,19.146c-10.574,0-19.146-8.424-19.146-19.146C873.894,69.355,889.48,66.613,893.041,49.765z"/><path d="M578.298,170.69c5.191-1.724,12.312-4.792,19.954-8.723c6.114-3.144,11.581-6.335,15.789-9.135    c-4.074,3.61-10.145,8.156-17.18,12.729c-2.809,1.826-5.475,3.709-7.955,5.535c2.122,4.692,5.852,8.687,10.871,11.061    c11.232,5.311,24.641,0.512,29.951-10.719c5.314-11.23,0.514-24.645-10.717-29.953c-11.232-5.309-24.643-0.51-29.956,10.722    c-0.935,1.977-1.549,4.02-1.877,6.076c-0.741,0.421-1.467,0.839-2.175,1.254c-9.557,5.607-15.83,10.57-15.006,12.179    C570.508,172.704,573.62,172.243,578.298,170.69z"/><path d="M624.013,198.026c1.758-3.244,5.129-5.248,8.805-5.248c1.637,0,3.271,0.41,4.721,1.188c2.354,1.26,4.077,3.361,4.85,5.918    c0.771,2.558,0.503,5.261-0.759,7.614c-1.39,2.512-6.629,11.174-17.246,20.019c-0.049,0.04-0.1,0.081-0.148,0.122    c2.734,8.295,5.238,17.316,6.232,26.135l-25.119,9.289c-7.072-6.214-13.619-12.366-19.788-17.607    c-2.161,0.385-4.395,0.7-6.702,0.935c6.424,5.125,13.424,11.75,21.164,18.642l-4.674,1.729c-4.189,1.547-7.229,5.206-7.984,9.61    c-0.755,4.4,0.892,8.863,4.324,11.722l40.25,33.5c2.335,1.943,5.17,2.892,7.988,2.892c3.585,0.001,7.143-1.533,9.614-4.503    c4.417-5.307,3.696-13.188-1.608-17.605l-15.76-13.114c13.048,7.51,27.758,12.763,44.524,12.803    c13.799-0.007,26.129-5.859,37.011-15.181c3.485-2.985,6.822-6.323,10.011-9.943c3.141,26.976,26.056,47.916,53.873,47.916    c29.964,0,54.253-24.29,54.253-54.254c0-29.963-24.289-54.253-54.253-54.253c-7.203,0-14.073,1.416-20.362,3.966    c1.998-4.666,3.883-9.337,5.655-13.96c4.732-1.083,9.649-1.674,14.706-1.674c32.783,0,60.045,24.056,65.081,55.441h233.022    c6.444,0,11.668-5.225,11.668-11.668v-63.078c0-6.444-5.224-11.668-11.668-11.668H774.024c1.793-5.914,3.347-11.405,4.663-16.295    h267.845c6.444,0,11.668-5.225,11.668-11.668v-7.039h5.999c2.209,0,4-1.791,4-4v-6c0-2.209-1.791-4-4-4h-5.999v-39h5.999    c2.209,0,4-1.791,4-4v-6c0-2.209-1.791-4-4-4h-5.999v-39h5.999c2.209,0,4-1.791,4-4v-6c0-2.209-1.791-4-4-4h-5.999v-7.039    c0-6.445-5.224-11.668-11.668-11.668H731.2c-6.444,0-11.668,5.223-11.668,11.668v7.039h-4.333c-2.209,0-4,1.791-4,4v6    c0,2.209,1.791,4,4,4h4.333v39h-4.333c-2.209,0-4,1.791-4,4v6c0,2.209,1.791,4,4,4h4.333v39h-4.333c-2.209,0-4,1.791-4,4v6    c0,2.209,1.791,4,4,4h4.333v7.039c0,6.443,5.224,11.668,11.668,11.668h42.307c-1.338,4.917-2.907,10.407-4.711,16.295h-65.292    c-6.444,0-11.668,5.224-11.668,11.668v63.078c0,6.443,5.224,11.668,11.668,11.668h9.007c3.925-24.456,21.346-44.445,44.358-52.087    c-2.057,5.224-4.259,10.486-6.602,15.703c-15.831,9.251-26.546,26.282-26.904,45.855c-2.27,2.813-4.602,5.476-7.005,7.94    c-1.257,1.289-2.532,2.513-3.82,3.693c-10.793,9.885-22.701,15.84-35.841,15.838c-18.244,0.014-34.11-6.716-48.166-15.921    l22.663-8.382c7.312-2.004,14.118-6.725,14.741-19.674c-0.627-22.357-3.954-35.144-13.586-54.133    c-7.081-13.77-19.995-16.582-28.137-13.252c-7.103,2.904-9.533,12.652-7.208,21.358c3.426-3.609,5.524-6.665,6.319-7.905    C623.752,198.489,623.973,198.103,624.013,198.026z M839.041,78.707c0-29.824,24.177-54,54-54c29.823,0,54,24.176,54,54    c0,29.822-24.177,54-54,54C863.218,132.707,839.041,108.529,839.041,78.707z M767.541,134.127c0-7.87,6.38-14.25,14.25-14.25    c7.87,0,14.25,6.38,14.25,14.25s-6.38,14.25-14.25,14.25c-0.251,0-0.496-0.024-0.744-0.038c0.356-1.424,0.681-2.745,0.977-3.974    c5.545-0.125,10.019-4.665,10.019-10.238c0-5.65-4.599-10.25-10.251-10.25c-5.652,0-10.251,4.6-10.251,10.25    c0,3.98,2.285,7.43,5.608,9.127c-0.296,1.225-0.62,2.547-0.976,3.969C771.096,145.042,767.541,140.001,767.541,134.127z     M808.509,270.602c0,17.049-13.869,30.919-30.92,30.919c-17.046,0-30.916-13.87-30.916-30.919    c0-17.048,13.87-30.917,30.916-30.917C794.639,239.685,808.509,253.554,808.509,270.602z"/><path d="M558.602,236.257c0.154-0.002,0.313,0.011,0.469,0.015c0.108-1.793,0.684-3.46,1.617-4.877    c-0.693-0.078-1.389-0.133-2.086-0.138c-6.977-0.031-13.389,4.14-18.91,12.761l4.197,2.717    C549.063,238.847,553.729,236.286,558.602,236.257z"/><path d="M561.04,236.877c0,4.418,3.581,7.999,8.001,7.999c0.043,0,0.088,0,0.13,0c24.73,0.001,42.633-9.453,53.932-18.897    c11.37-9.47,16.43-18.824,16.765-19.424c2.085-3.894,0.62-8.742-3.273-10.827c-3.885-2.082-8.717-0.632-10.813,3.237h-0.001    c0,0.002-0.239,0.442-0.772,1.27c-1.86,2.903-7.138,10.182-16.227,16.577c-9.121,6.399-21.893,12.042-39.74,12.065    C564.621,228.877,561.04,232.458,561.04,236.877z"/><path d="M526.133,257.272v0.667h-24.668c-2.209,0-4,1.791-4,4v58.666c0,2.209,1.791,4,4,4h45.334c2.209,0,4-1.791,4-4V261.94    c0-2.209-1.791-4-4-4h-2.666v-0.667c0-2.209-1.791-4-4-4h-10C527.924,253.273,526.133,255.064,526.133,257.272z M523.965,270.94    c0,2.209-1.791,4-4,4h-12.666c-2.209,0-4-1.791-4-4v-3.334c0-2.209,1.791-4,4-4h12.666c2.209,0,4,1.791,4,4V270.94z"/></g></g><text x="0" y="339.857" fill="#000000" font-size="5px" font-weight="bold" font-family="'Helvetica Neue', Helvetica, Arial-Unicode, Arial, Sans-serif">Created by Gan Khoon Lay</text><text x="0" y="344.857" fill="#000000" font-size="5px" font-weight="bold" font-family="'Helvetica Neue', Helvetica, Arial-Unicode, Arial, Sans-serif">from the Noun Project</text></svg>