<svg xmlns="http://www.w3.org/2000/svg" xmlns:xlink="http://www.w3.org/1999/xlink" version="1.1" x="0px" y="0px" viewBox="0 0 64 80" style="enable-background:new 0 0 64 64;" xml:space="preserve"><path d="M32,54c-0.552,0-1-0.449-1-1h-2c0,1.302,0.839,2.402,2,2.816V57h2v-1.184c1.161-0.414,2-1.514,2-2.816  c0-0.315-0.148-0.611-0.4-0.8l-3.503-2.628C31.257,49.234,31.602,49,32,49c0.552,0,1,0.449,1,1h2c0-1.302-0.839-2.402-2-2.816V46h-2  v1.184c-1.161,0.414-2,1.514-2,2.816c0,0.315,0.148,0.611,0.4,0.8l3.503,2.628C32.743,53.766,32.398,54,32,54z"/><path d="M19,62c2.473,0,4.73-0.519,6.203-1.403C28.541,61.999,28.803,62,29,62h6c0.127,0,0.253-0.024,0.371-0.071l3.387-1.355  C40.23,61.472,42.501,62,45,62c3.976,0,8-1.374,8-4V48c0-2.626-4.024-4-8-4c-1.377,0-2.721,0.167-3.898,0.476l-0.119-0.654  c-0.043-0.238-0.17-0.451-0.358-0.602l-1.621-1.297C39.327,41.968,39.658,42,40,42c2.89,0,6-0.939,6-3s-3.11-3-6-3  c-0.718,0-1.399,0.116-2.029,0.295l0.924-1.848c0.155-0.31,0.139-0.678-0.044-0.973C38.668,33.18,38.347,33,38,33H26  c-0.347,0-0.668,0.18-0.851,0.474c-0.183,0.295-0.199,0.663-0.044,0.973l2.639,5.277l-4.369,3.495  c-0.188,0.151-0.315,0.364-0.358,0.602l-0.119,0.654C21.721,44.167,20.377,44,19,44c-3.976,0-8,1.374-8,4v10  C11,60.626,15.024,62,19,62z M13,58v-1.892C15.19,56.958,18.463,57,19,57c0.964,0,1.904-0.07,2.794-0.177l1.281,2.562  C21.957,59.772,20.505,60,19,60C15.278,60,13,58.705,13,58z M13,50.734c0.013,0.007,0.029,0.013,0.042,0.02  c0.232,0.124,0.482,0.237,0.742,0.343c0.05,0.02,0.098,0.041,0.149,0.06c0.288,0.111,0.589,0.212,0.904,0.301  c0.001,0,0.002,0.001,0.004,0.001C16.104,51.816,17.554,52,19,52c0.085,0,0.169-0.007,0.254-0.008  c0.068-0.001,0.135-0.005,0.204-0.006c0.289-0.008,0.576-0.02,0.86-0.042c0.133-0.01,0.263-0.024,0.395-0.037  c0.217-0.022,0.432-0.046,0.644-0.077c0.068-0.01,0.14-0.014,0.207-0.025l-0.052,0.286l-0.001,0l-0.496,2.73  c-0.005,0.03-0.009,0.061-0.012,0.092C20.358,54.97,19.682,55,19,55c-3.521,0-5.618-0.733-6-1.141V50.734z M43.291,51.906  c0.129,0.013,0.257,0.027,0.388,0.037c0.288,0.022,0.578,0.035,0.871,0.043c0.064,0.002,0.127,0.005,0.192,0.006  C44.828,51.993,44.913,52,45,52c1.808,0,3.623-0.287,5.068-0.844c0.049-0.019,0.096-0.039,0.145-0.058  c0.261-0.106,0.512-0.219,0.745-0.344c0.013-0.007,0.029-0.012,0.042-0.019v3.147C50.665,54.278,48.744,55,45.5,55  c-0.879,0-1.73-0.057-2.514-0.165c-0.001-0.005-0.002-0.01-0.003-0.015l-0.043-0.235l-0.505-2.781  c0.067,0.011,0.139,0.015,0.207,0.025C42.856,51.86,43.072,51.884,43.291,51.906z M45,60c-1.508,0-2.959-0.227-4.075-0.613  l1.323-2.646C43.25,56.909,44.356,57,45.5,57c1.918,0,4.012-0.243,5.5-0.836V58C51,58.705,48.722,60,45,60z M45,46  c3.722,0,6,1.295,6,2s-2.278,2-6,2c-0.463,0-0.917-0.028-1.362-0.068c-0.09-0.008-0.18-0.015-0.269-0.025  c-0.426-0.047-0.84-0.111-1.234-0.195c-0.028-0.006-0.055-0.014-0.083-0.02l-0.59-3.244C42.503,46.157,43.729,46,45,46z M43.975,39  c-0.257,0.327-1.627,1-3.975,1c-1.291,0-2.473-0.528-3.269-1c0.842-0.5,2.001-1,3.269-1C42.348,38,43.718,38.673,43.975,39z   M27.618,35h8.764l-1.699,3.398l-0.22,0.439c0,0,0,0.001,0,0.001L34.382,39h-4.764L27.618,35z M29.351,41h5.298l4.434,3.547  l1.873,10.304l-0.16,0.32c0,0,0,0,0,0l-1.52,3.042l-0.772,0.309c-0.001,0-0.002,0.001-0.002,0.001L34.808,60h-5.699  c-0.424-0.131-1.987-0.766-3.613-1.452c-0.002-0.001-0.003-0.002-0.005-0.003l-0.76-0.322l-1.686-3.373l1.873-10.304L29.351,41z   M19,46c1.271,0,2.497,0.157,3.538,0.448l-0.59,3.244c-0.028,0.006-0.055,0.014-0.083,0.02c-0.395,0.083-0.809,0.148-1.234,0.195  c-0.089,0.01-0.179,0.017-0.269,0.025C19.917,49.972,19.463,50,19,50c-3.722,0-6-1.295-6-2S15.278,46,19,46z"/><path d="M15.719,15.133c-0.303,0.36-0.477,0.805-0.477,1.281c0,0.535,0.208,1.037,0.586,1.414l7.586,7.586  c0.39,0.39,0.902,0.585,1.414,0.585c0.457,0,0.91-0.165,1.281-0.476l3.77,3.77c0.585,0.585,1.353,0.877,2.121,0.877  s1.536-0.292,2.121-0.877l0.172-0.171c0.246-0.246,0.433-0.531,0.579-0.836l0.007,0.007c0.585,0.584,1.353,0.876,2.121,0.876  c0.768,0,1.536-0.292,2.121-0.877l0.172-0.171c0.324-0.324,0.554-0.714,0.701-1.134c0.325,0.116,0.664,0.183,1.006,0.183  c0.768,0,1.536-0.292,2.121-0.877l0.172-0.171c0.529-0.53,0.826-1.224,0.864-1.966c0.715-0.037,1.419-0.317,1.964-0.862l0.172-0.171  c0.566-0.567,0.879-1.32,0.879-2.122c0-0.743-0.279-1.439-0.77-1.989l6.305-6.305c0.374-0.375,0.393-0.976,0.04-1.372l-8-9  C44.402,1.947,43.814,1.889,43.4,2.2l-3.619,2.714L36.242,4.03c-0.191-0.048-0.396-0.037-0.584,0.03L28.19,6.776l-4.483-4.483  c-0.391-0.391-1.023-0.391-1.414,0l-9,9c-0.391,0.391-0.391,1.023,0,1.414L15.719,15.133z M17.242,16.414l1.879-1.878  c0.38-0.378,1.035-0.378,1.415,0.001l0.171,0.17c0.097,0.097,0.169,0.209,0.218,0.329c0.024,0.059,0.025,0.124,0.037,0.187  c0.024,0.123,0.025,0.245,0.003,0.368c-0.012,0.068-0.014,0.138-0.04,0.201c-0.049,0.12-0.121,0.232-0.218,0.329L18.828,18  L17.242,16.414z M20.242,19.414l1.879-1.878c0.19-0.189,0.45-0.283,0.709-0.283c0.259,0,0.517,0.095,0.706,0.284l0.171,0.17  c0.39,0.39,0.39,1.024,0,1.415L21.828,21L20.242,19.414z M23.242,22.414l1.879-1.878c0.19-0.189,0.449-0.283,0.708-0.283  c0.259,0,0.517,0.095,0.707,0.284l0.171,0.17c0.39,0.39,0.39,1.024,0,1.415l-1.293,1.292c0,0,0,0,0,0L24.828,24L23.242,22.414z   M36.055,6.044l3.703,0.926c0.291,0.072,0.601,0.011,0.842-0.17l3.265-2.448l6.762,7.607L45,17.586l-7.492-7.493l0,0  c-0.552-0.553-1.301-0.859-2.064-0.876l0-0.002c-0.003,0-0.006,0-0.009,0c-0.011,0-0.023,0.002-0.034,0.002  c-0.251,0.004-0.5,0.026-0.741,0.086l-5.811,1.453c-0.251,0.063-0.525,0.022-0.749-0.113c-0.166-0.1-0.383-0.299-0.475-0.677  c-0.027-0.11-0.029-0.222-0.01-0.332c0.002-0.011,0.01-0.021,0.012-0.032C27.695,9.288,27.935,9,28.279,8.872L36.055,6.044z   M23,4.414l3.384,3.384c-0.018,0.019-0.029,0.044-0.046,0.064c-0.134,0.153-0.254,0.314-0.353,0.489  c-0.005,0.009-0.013,0.017-0.018,0.027c-0.102,0.185-0.178,0.382-0.238,0.584c-0.017,0.058-0.028,0.117-0.042,0.177  c-0.036,0.154-0.058,0.31-0.068,0.47c-0.004,0.062-0.009,0.123-0.009,0.186c0.001,0.216,0.019,0.433,0.072,0.649  c0.198,0.815,0.689,1.495,1.383,1.914c0.676,0.408,1.504,0.532,2.269,0.341l5.81-1.453c0.083-0.021,0.168-0.039,0.262-0.029v-0.001  c0.257,0.005,0.505,0.108,0.689,0.292l8.199,8.199l0.586,0.586c0.188,0.189,0.293,0.44,0.293,0.708s-0.104,0.518-0.293,0.707  l-0.172,0.171c-0.389,0.39-1.023,0.39-1.414,0l-3.586-3.586l-1.414,1.414l3.586,3.586c0.189,0.188,0.293,0.439,0.293,0.707  s-0.104,0.518-0.293,0.707l-0.172,0.171c-0.391,0.391-1.023,0.39-1.414,0l-1-1l-2.586-2.586l-1.414,1.414l2.586,2.586  c0.189,0.188,0.293,0.439,0.293,0.707s-0.104,0.518-0.293,0.707l-0.172,0.171c-0.391,0.391-1.023,0.39-1.414,0l-1.998-1.998  c-0.001-0.001-0.001-0.002-0.002-0.003l-0.586-0.585l-1.414,1.414l0,0l0,0l0.526,0.525l0.06,0.06  c0.188,0.189,0.293,0.44,0.293,0.707c0,0.267-0.104,0.518-0.293,0.707l-0.172,0.171c-0.389,0.39-1.023,0.39-1.414,0l-3.758-3.758  l0.586-0.586c0.144-0.144,0.271-0.301,0.381-0.467c0.022-0.033,0.035-0.069,0.055-0.103c0.083-0.136,0.161-0.274,0.221-0.421  c0.007-0.017,0.009-0.034,0.015-0.051C28.925,22.154,29,21.79,29,21.414c0-0.386-0.076-0.759-0.214-1.107  c-0.003-0.008-0.004-0.016-0.007-0.024c-0.061-0.151-0.141-0.292-0.227-0.432c-0.018-0.03-0.03-0.063-0.05-0.093  c-0.11-0.166-0.237-0.323-0.382-0.467l-0.17-0.17c-0.527-0.528-1.217-0.835-1.956-0.875c-0.04-0.712-0.331-1.412-0.874-1.955  l-0.17-0.17c-0.527-0.528-1.217-0.835-1.956-0.875c-0.04-0.712-0.331-1.412-0.874-1.955l-0.17-0.17  c-1.132-1.133-3.109-1.135-4.243,0l-0.586,0.585L15.414,12L23,4.414z"/><path d="M8.053,33.603C8.018,33.073,8,32.539,8,32l0.002-0.322l-2-0.018L6,32c0,0.583,0.02,1.161,0.057,1.733L8.053,33.603z"/><path d="M6.275,35.801c0.102,0.688,0.23,1.375,0.384,2.043l1.949-0.448c-0.142-0.616-0.261-1.25-0.354-1.886L6.275,35.801z"/><path d="M12.939,17.414l-1.588-1.217c-0.423,0.552-0.826,1.124-1.198,1.7l1.68,1.086C12.177,18.452,12.549,17.924,12.939,17.414z"/><path d="M11.492,44.475c-0.331-0.542-0.645-1.106-0.933-1.676l-1.785,0.9c0.312,0.618,0.651,1.23,1.011,1.818L11.492,44.475z"/><path d="M9.766,41.051c-0.239-0.586-0.459-1.193-0.652-1.804L7.207,39.85c0.209,0.662,0.447,1.32,0.707,1.957L9.766,41.051z"/><path d="M8.355,27.861l-1.971-0.345c-0.118,0.676-0.21,1.371-0.274,2.063l1.992,0.184C8.161,29.124,8.246,28.484,8.355,27.861z"/><path d="M9.312,24.148l-1.889-0.656c-0.226,0.648-0.428,1.319-0.602,1.994l1.938,0.498C8.919,25.362,9.105,24.745,9.312,24.148z"/><path d="M10.855,20.634l-1.76-0.948c-0.329,0.61-0.637,1.24-0.913,1.87l1.832,0.804C10.27,21.778,10.553,21.198,10.855,20.634z"/><path d="M50.239,16.4c0.413,0.482,0.813,0.989,1.188,1.507l1.619-1.176c-0.407-0.561-0.842-1.11-1.29-1.633L50.239,16.4z"/><path d="M55.742,28.463l1.979-0.291c-0.101-0.684-0.23-1.372-0.386-2.044l-1.949,0.451C55.529,27.199,55.649,27.833,55.742,28.463z"/><path d="M53.156,43.342l1.762,0.945c0.327-0.608,0.633-1.237,0.91-1.869l-1.832-0.804C53.74,42.199,53.458,42.78,53.156,43.342z"/><path d="M54.694,39.829l1.891,0.65c0.226-0.656,0.427-1.326,0.599-1.991l-1.938-0.498C55.088,38.604,54.902,39.223,54.694,39.829z"/><path d="M54.879,24.729l1.906-0.607c-0.21-0.658-0.448-1.315-0.709-1.954l-1.852,0.756C54.465,23.514,54.686,24.121,54.879,24.729z"/><path d="M53.428,21.179l1.785-0.902c-0.311-0.613-0.651-1.225-1.013-1.817l-1.707,1.043C52.827,20.049,53.142,20.613,53.428,21.179z  "/><path d="M57.892,34.393l-1.992-0.184c-0.059,0.644-0.144,1.284-0.251,1.904l1.971,0.342C57.735,35.783,57.827,35.089,57.892,34.393z  "/><path d="M56,32l-0.002,0.293l2,0.02L58,32c0-0.592-0.021-1.18-0.059-1.762l-1.996,0.132C55.981,30.909,56,31.452,56,32z"/><text x="0" y="79" fill="#000000" font-size="5px" font-weight="bold" font-family="'Helvetica Neue', Helvetica, Arial-Unicode, Arial, Sans-serif">Created by Becris</text><text x="0" y="84" fill="#000000" font-size="5px" font-weight="bold" font-family="'Helvetica Neue', Helvetica, Arial-Unicode, Arial, Sans-serif">from the Noun Project</text></svg>