<svg xmlns="http://www.w3.org/2000/svg" viewBox="0 0 64 80" x="0px" y="0px"><title>missing-animals-cats-pet-dogs</title><g><path d="M10,62H54a1,1,0,0,0,1-1V3a1,1,0,0,0-1-1H10A1,1,0,0,0,9,3V61A1,1,0,0,0,10,62ZM11,4H53V60H11Z"/><path d="M48,8H16a1,1,0,0,0-1,1V43a1,1,0,0,0,1,1H48a1,1,0,0,0,1-1V9A1,1,0,0,0,48,8ZM47,42H17V10H47Z"/><path d="M21,50H17a1,1,0,0,0,0,2h4a1,1,0,0,0,0-2Z"/><path d="M47,50H25a1,1,0,0,0,0,2H47a1,1,0,0,0,0-2Z"/><path d="M21,54H17a1,1,0,0,0,0,2h4a1,1,0,0,0,0-2Z"/><path d="M47,54H25a1,1,0,0,0,0,2H47a1,1,0,0,0,0-2Z"/><path d="M20,38H44a1,1,0,0,0,0-2H43V31a1,1,0,0,0-1-1H40V24h3a1,1,0,0,0,1-1V15a1,1,0,0,0-1-1H21a1,1,0,0,0-1,1v8a1,1,0,0,0,1,1h3v6H22a1,1,0,0,0-1,1v5H20a1,1,0,0,0,0,2Zm8-6h8v4H33V35a1,1,0,0,0-2,0v1H28Zm5-2H31V28h2Zm8,6H38V32h3Zm1-14H40V16h2ZM22,22V16h2v6Zm4-6H38V30H35V27a1,1,0,0,0-1-1H30a1,1,0,0,0-1,1v3H26ZM23,32h3v4H23Z"/></g><text x="0" y="79" fill="#000000" font-size="5px" font-weight="bold" font-family="'Helvetica Neue', Helvetica, Arial-Unicode, Arial, Sans-serif">Created by Smalllike</text><text x="0" y="84" fill="#000000" font-size="5px" font-weight="bold" font-family="'Helvetica Neue', Helvetica, Arial-Unicode, Arial, Sans-serif">from the Noun Project</text></svg>