<?xml version="1.0" encoding="UTF-8" standalone="no"?>
<svg
   xmlns:dc="http://purl.org/dc/elements/1.1/"
   xmlns:cc="http://creativecommons.org/ns#"
   xmlns:rdf="http://www.w3.org/1999/02/22-rdf-syntax-ns#"
   xmlns:svg="http://www.w3.org/2000/svg"
   xmlns="http://www.w3.org/2000/svg"
   xmlns:sodipodi="http://sodipodi.sourceforge.net/DTD/sodipodi-0.dtd"
   xmlns:inkscape="http://www.inkscape.org/namespaces/inkscape"
   version="1.1"
   x="0px"
   y="0px"
   viewBox="0 0 98.777611 105.14276"
   enable-background="new 0 0 100 100"
   xml:space="preserve"
   id="svg3805"
   sodipodi:docname="noun_Blocked Road_34305.svg"
   width="98.777611"
   height="105.14276"
   inkscape:version="0.92.2 5c3e80d, 2017-08-06"><metadata
     id="metadata3811"><rdf:RDF><cc:Work
         rdf:about=""><dc:format>image/svg+xml</dc:format><dc:type
           rdf:resource="http://purl.org/dc/dcmitype/StillImage" /><dc:title></dc:title></cc:Work></rdf:RDF></metadata><defs
     id="defs3809" /><sodipodi:namedview
     pagecolor="#ffffff"
     bordercolor="#666666"
     borderopacity="0.43921569"
     objecttolerance="10"
     gridtolerance="10"
     guidetolerance="10"
     inkscape:pageopacity="0"
     inkscape:pageshadow="2"
     inkscape:window-width="1283"
     inkscape:window-height="736"
     id="namedview3807"
     showgrid="false"
     showborder="false"
     fit-margin-top="0"
     fit-margin-left="0"
     fit-margin-right="0"
     fit-margin-bottom="0"
     inkscape:zoom="4.024"
     inkscape:cx="52.214165"
     inkscape:cy="59.829281"
     inkscape:window-x="385"
     inkscape:window-y="0"
     inkscape:window-maximized="0"
     inkscape:current-layer="svg3805" /><g
     id="g3799"
     transform="translate(-0.52539075,-7.0174507)"><path
       d="M 41.089,24.343 39.43,23.71 c -0.589,1.542 -0.918,3.19 -0.98,4.896 l 1.776,0.064 c 0.053,-1.51 0.345,-2.966 0.863,-4.327 z"
       id="path3775"
       inkscape:connector-curvature="0" /><path
       d="m 39.291,34.737 c 0.509,1.543 1.236,2.994 2.223,4.434 l 1.465,-1.003 c -0.89,-1.301 -1.543,-2.605 -1.998,-3.986 z"
       id="path3777"
       inkscape:connector-curvature="0" /><path
       d="M 56.912,12.359 56.393,10.66 c -1.581,0.482 -3.111,1.044 -4.551,1.671 l 0.71,1.628 c 1.378,-0.599 2.844,-1.137 4.36,-1.6 z"
       id="path3779"
       inkscape:connector-curvature="0" /><path
       d="m 54.728,83.358 1.494,0.962 c 0.895,-1.388 1.699,-2.804 2.394,-4.205 l -1.592,-0.79 c -0.666,1.344 -1.438,2.7 -2.296,4.033 z"
       id="path3781"
       inkscape:connector-curvature="0" /><path
       d="m 48.146,91.476 1.241,1.272 c 0.736,-0.719 1.904,-1.923 3.266,-3.566 l -1.366,-1.134 c -1.313,1.582 -2.433,2.737 -3.141,3.428 z"
       id="path3783"
       inkscape:connector-curvature="0" /><path
       d="m 45.531,43.751 c 1.078,1.027 2.233,2.035 3.352,3.011 l 0.205,0.179 1.169,-1.338 -0.205,-0.18 c -1.154,-1.008 -2.245,-1.958 -3.295,-2.959 z"
       id="path3785"
       inkscape:connector-curvature="0" /><path
       d="m 47.509,16.72 -1.007,-1.464 c -1.431,0.982 -2.692,2.059 -3.748,3.199 l 1.304,1.208 c 0.965,-1.045 2.129,-2.035 3.451,-2.943 z"
       id="path3787"
       inkscape:connector-curvature="0" /><path
       d="M 88.472,51.972 C 88.379,50.744 87.915,49.578 87.109,48.617 86.09,47.405 84.662,46.661 83.086,46.524 81.761,46.409 80.502,46.753 79.453,47.409 77.002,45.576 74.411,43.915 71.904,42.324 63.888,37.238 56.316,32.433 56.316,23.885 56.316,13.71 72.865,9.249 73.031,9.206 L 73.03,9.203 c 0.142,0.015 0.223,0.025 0.231,0.025 L 73.47,7.464 C 73.398,7.455 66.073,6.599 57.141,7.281 45.068,8.204 35.94,11.339 30.011,16.6 c -5.09,4.518 -7.672,10.552 -7.672,17.939 0,2.789 0.309,5.083 0.808,7.062 -2.098,0.52 -3.783,2.169 -4.331,4.277 L 4.957,44.664 4.569,49.092 0.854,48.767 l -0.156,1.769 3.718,0.326 -1.82,20.8 27.09,2.369 C 25.164,83.48 15.264,89.853 10.457,91.28 l 0.507,1.704 c 4.559,-1.353 15.858,-8.021 20.642,-18.783 l 55.211,4.83 c -2.812,6.033 -7.082,10.514 -8.929,12.448 l 1.284,1.228 c 1.978,-2.069 6.619,-6.94 9.542,-13.552 0.126,0.003 0.253,0.009 0.378,0.009 5.399,0 8.155,-2.74 8.67,-8.623 l 1.541,-17.622 z m -5.909,-3.695 c 0.122,0 0.244,0.005 0.366,0.016 1.104,0.096 2.104,0.617 2.817,1.466 0.712,0.848 1.051,1.924 0.955,3.029 -0.198,2.244 -2.215,3.972 -4.495,3.77 -1.104,-0.096 -2.104,-0.617 -2.815,-1.465 -0.714,-0.849 -1.053,-1.924 -0.956,-3.028 0.186,-2.125 2,-3.788 4.128,-3.788 z M 31.188,17.931 c 7.006,-6.22 18.035,-8.26 26.056,-8.876 4.367,-0.334 8.338,-0.296 11.234,-0.17 -5.331,2.141 -13.94,6.854 -13.94,15 0,9.525 7.973,14.583 16.415,19.938 2.417,1.535 4.847,3.09 7.126,4.765 -0.58,0.675 -1.01,1.479 -1.242,2.365 L 30.449,46.894 C 30.232,44.057 27.99,41.702 25.066,41.446 25.024,41.442 24.988,41.445 24.953,41.441 24.436,39.52 24.117,37.28 24.117,34.537 24.116,27.683 26.495,22.095 31.188,17.931 Z M 70.344,52.191 68.737,70.56 60.529,69.841 62.136,51.472 Z M 20.414,46.987 C 20.6,44.863 22.413,43.2 24.543,43.2 c 0.119,0 0.242,0.005 0.365,0.016 2.28,0.2 3.971,2.216 3.771,4.495 -0.196,2.245 -2.212,3.969 -4.494,3.771 -1.103,-0.097 -2.105,-0.617 -2.815,-1.467 -0.714,-0.848 -1.052,-1.923 -0.956,-3.028 z m 75.578,23.398 c -0.475,5.418 -2.911,7.408 -8.368,6.934 L 4.521,70.046 6.573,46.589 18.635,47.645 c 0.062,1.285 0.531,2.509 1.374,3.512 1.016,1.212 2.444,1.957 4.021,2.094 0.175,0.016 0.35,0.023 0.523,0.023 2.766,0 5.154,-1.968 5.764,-4.607 l 30.051,2.629 -1.763,20.161 11.746,1.028 1.764,-20.16 4.542,0.396 c 0.062,1.286 0.531,2.511 1.372,3.513 1.018,1.212 2.445,1.956 4.024,2.094 0.174,0.015 0.348,0.023 0.521,0.023 2.768,0 5.154,-1.969 5.762,-4.607 l 9.041,0.792 z"
       id="path3789"
       inkscape:connector-curvature="0" /><path
       d="M 8.422,67.067 20.167,68.095 21.202,56.288 9.455,55.261 Z m 2.648,-9.881 8.205,0.717 -0.722,8.266 -8.208,-0.718 z"
       id="path3791"
       inkscape:connector-curvature="0" /><path
       d="m 25.149,68.53 11.748,1.027 1.031,-11.806 -11.746,-1.027 z m 2.649,-9.88 8.207,0.718 -0.724,8.265 -8.206,-0.718 z"
       id="path3793"
       inkscape:connector-curvature="0" /><path
       d="M 41.876,69.993 53.625,71.021 54.656,59.215 42.91,58.188 Z m 2.65,-9.88 8.206,0.719 -0.724,8.264 -8.207,-0.718 z"
       id="path3795"
       inkscape:connector-curvature="0" /><path
       d="m 75.331,72.94 12.6,1.103 c 0.166,0.014 0.327,0.021 0.485,0.021 v 0 c 2.358,0 3.909,-1.641 4.149,-4.389 l 0.615,-7.01 -16.822,-1.472 z m 2.642,-9.823 13.282,1.163 -0.459,5.239 c -0.173,1.975 -1.093,2.895 -2.711,2.753 L 77.257,71.324 Z"
       id="path3797"
       inkscape:connector-curvature="0" /></g><path
     id="text3801"
     d="M 0.001953,105.05286 0,105.05486 c 0.0115806,0.0295 0.0245902,0.0586 0.0390625,0.0879 -0.001718,-0.007 -0.004205,-0.0129 -0.005859,-0.0195 -0.007595,-0.0173 -0.01411,-0.0346 -0.03125,-0.0703 z"
     inkscape:connector-curvature="0" /></svg>