<?xml version="1.0" encoding="UTF-8" standalone="no"?>
<svg
   xmlns:dc="http://purl.org/dc/elements/1.1/"
   xmlns:cc="http://creativecommons.org/ns#"
   xmlns:rdf="http://www.w3.org/1999/02/22-rdf-syntax-ns#"
   xmlns:svg="http://www.w3.org/2000/svg"
   xmlns="http://www.w3.org/2000/svg"
   xmlns:sodipodi="http://sodipodi.sourceforge.net/DTD/sodipodi-0.dtd"
   xmlns:inkscape="http://www.inkscape.org/namespaces/inkscape"
   version="1.1"
   x="0px"
   y="0px"
   viewBox="0 0 89.400002 46.799999"
   xml:space="preserve"
   id="svg24"
   sodipodi:docname="noun_dinner plate_836170.svg"
   width="89.400002"
   height="46.799999"
   inkscape:version="0.92.2 5c3e80d, 2017-08-06"><metadata
     id="metadata30"><rdf:RDF><cc:Work
         rdf:about=""><dc:format>image/svg+xml</dc:format><dc:type
           rdf:resource="http://purl.org/dc/dcmitype/StillImage" /><dc:title></dc:title></cc:Work></rdf:RDF></metadata><defs
     id="defs28" /><sodipodi:namedview
     pagecolor="#ffffff"
     bordercolor="#666666"
     borderopacity="1"
     objecttolerance="10"
     gridtolerance="10"
     guidetolerance="10"
     inkscape:pageopacity="0"
     inkscape:pageshadow="2"
     inkscape:window-width="640"
     inkscape:window-height="480"
     id="namedview26"
     showgrid="false"
     fit-margin-top="0"
     fit-margin-left="0"
     fit-margin-right="0"
     fit-margin-bottom="0"
     inkscape:zoom="1.888"
     inkscape:cx="45.2"
     inkscape:cy="10.9"
     inkscape:window-x="0"
     inkscape:window-y="0"
     inkscape:window-maximized="0"
     inkscape:current-layer="svg24" /><g
     id="g6"
     transform="translate(-4.8,-26.6)"><path
       d="M 48.5,26.6 C 35.6,26.6 25.1,37.1 25.1,50 25.1,62.9 35.6,73.4 48.5,73.4 61.4,73.4 71.9,62.9 71.9,50 71.8,37.1 61.4,26.6 48.5,26.6 Z m 0,39.8 c -9.1,0 -16.4,-7.3 -16.4,-16.4 0,-9.1 7.3,-16.4 16.4,-16.4 9.1,0 16.4,7.3 16.4,16.4 0,9.1 -7.4,16.4 -16.4,16.4 z"
       id="path2"
       inkscape:connector-curvature="0" /><path
       d="M 48.5,36.5 C 41,36.5 35,42.6 35,50 35,57.4 41,63.5 48.5,63.5 56,63.5 62,57.4 62,50 62,42.6 55.9,36.5 48.5,36.5 Z m 0,25.8 c -6.8,0 -12.3,-5.5 -12.3,-12.3 0,-6.8 5.5,-12.3 12.3,-12.3 6.8,0 12.3,5.5 12.3,12.3 -0.1,6.8 -5.5,12.3 -12.3,12.3 z"
       id="path4"
       inkscape:connector-curvature="0" /></g><path
     d="m 75,2.2 v 41.6 c 0,1.1 -0.9,2 -2,2 v 0 c -1.2,0 -2.1,-1 -2,-2.2 0.2,-1.8 0.7,-13 0.9,-17.1 0,-1 -0.1,-1.9 -0.4,-2.8 -0.8,-2 -2,-6.2 -2,-10.7 0,-5.1 2.3,-9.7 3.3,-11.3 0.2,-0.4 0.6,-0.6 1.1,-0.6 v 0 C 74.4,1 75,1.6 75,2.2 Z"
     id="path8"
     inkscape:connector-curvature="0" /><path
     d="M 18.1,1.6 C 18.1,1.4 18,1.3 17.8,1.3 h -0.1 c -0.1,0 -0.3,0.1 -0.3,0.3 L 17,10.3 c 0,0.1 -0.1,0.3 -0.3,0.3 h -0.1 c -0.1,0 -0.3,-0.1 -0.3,-0.3 L 15.9,1.6 c 0,-0.1 -0.1,-0.3 -0.3,-0.3 -0.1,0 -0.3,0.1 -0.3,0.3 l -0.4,8.7 c 0,0.1 -0.1,0.3 -0.3,0.3 h -0.1 c -0.1,0 -0.3,-0.1 -0.3,-0.3 L 13.8,1.6 c 0,-0.1 -0.1,-0.3 -0.3,-0.3 v 0 c -0.1,0 -0.3,0.1 -0.3,0.3 l -0.4,8.7 c 0,0.1 -0.1,0.3 -0.3,0.3 h -0.1 c -0.1,0 -0.3,-0.1 -0.3,-0.3 L 11.7,1.6 C 11.7,1.5 11.6,1.3 11.4,1.3 H 11.3 C 11.1,1.3 11,1.4 11,1.6 V 15 c 0,0.7 0.5,1.2 1.2,1.2 h 0.1 c 0.3,0 0.5,0.2 0.5,0.5 V 37.2 44 c 0,0.9 0.7,1.7 1.7,1.7 v 0 c 0.9,0 1.7,-0.7 1.7,-1.7 V 37.2 16.6 c 0,-0.3 0.2,-0.5 0.5,-0.5 h 0.1 c 0.7,0 1.2,-0.5 1.2,-1.2 V 1.6 Z"
     id="path10"
     inkscape:connector-curvature="0" /><path
     d="m 89.4,10.6 c 0,-4.7 -2.7,-10 -6,-10 -3.3,0 -6,5.3 -6,10 0,2.6 0.9,4.5 2.2,5.7 1.4,1.2 2.1,3 2.1,4.8 v 23.2 c 0,0.9 0.6,1.7 1.5,1.8 1,0.1 1.9,-0.7 1.9,-1.7 V 21.1 c 0,-1.8 0.7,-3.6 2.1,-4.8 1.3,-1.2 2.2,-3 2.2,-5.7 z"
     id="path12"
     inkscape:connector-curvature="0" /><path
     d="m 3.5,45.5 v 0 c -0.5,0 -1,-0.4 -1,-1 L 3,1.8 C 3,1.5 3.2,1.3 3.5,1.3 v 0 C 3.8,1.3 4,1.5 4,1.8 l 0.5,42.7 c 0,0.6 -0.4,1 -1,1 z"
     id="path14"
     inkscape:connector-curvature="0" /><path
     d="m 1,45.5 v 0 c -0.5,0 -1,-0.4 -1,-1 L 0.5,1.8 C 0.5,1.5 0.7,1.3 1,1.3 v 0 c 0.3,0 0.5,0.2 0.5,0.5 L 2,44.5 c 0,0.6 -0.4,1 -1,1 z"
     id="path16"
     inkscape:connector-curvature="0" /><rect
     x="0.8999998"
     y="38.900002"
     width="2.7"
     height="5.5"
     id="rect18" /></svg>