<?xml version="1.0" encoding="UTF-8" standalone="no"?>
<svg
   xmlns:dc="http://purl.org/dc/elements/1.1/"
   xmlns:cc="http://creativecommons.org/ns#"
   xmlns:rdf="http://www.w3.org/1999/02/22-rdf-syntax-ns#"
   xmlns:svg="http://www.w3.org/2000/svg"
   xmlns="http://www.w3.org/2000/svg"
   xmlns:sodipodi="http://sodipodi.sourceforge.net/DTD/sodipodi-0.dtd"
   xmlns:inkscape="http://www.inkscape.org/namespaces/inkscape"
   version="1.1"
   x="0px"
   y="0px"
   viewBox="0 0 605.49031 337.34418"
   xml:space="preserve"
   id="svg42"
   sodipodi:docname="noun_Free Supply Aid_886291.svg"
   width="605.4903"
   height="337.34418"
   inkscape:version="0.92.2 5c3e80d, 2017-08-06"><metadata
     id="metadata48"><rdf:RDF><cc:Work
         rdf:about=""><dc:format>image/svg+xml</dc:format><dc:type
           rdf:resource="http://purl.org/dc/dcmitype/StillImage" /><dc:title></dc:title></cc:Work></rdf:RDF></metadata><defs
     id="defs46" /><sodipodi:namedview
     pagecolor="#ffffff"
     bordercolor="#666666"
     borderopacity="1"
     objecttolerance="10"
     gridtolerance="10"
     guidetolerance="10"
     inkscape:pageopacity="0"
     inkscape:pageshadow="2"
     inkscape:window-width="640"
     inkscape:window-height="480"
     id="namedview44"
     showgrid="false"
     fit-margin-top="0"
     fit-margin-left="0"
     fit-margin-right="0"
     fit-margin-bottom="0"
     inkscape:zoom="0.53510381"
     inkscape:cx="302.7453"
     inkscape:cy="126.50438"
     inkscape:window-x="0"
     inkscape:window-y="0"
     inkscape:window-maximized="0"
     inkscape:current-layer="svg42" /><g
     id="g36"
     transform="translate(3.0351851e-4,-8.1520719e-4)"><ellipse
       transform="matrix(0.2268,-0.9739,0.9739,0.2268,-72.7414,185.5975)"
       cx="80.518997"
       cy="138.61099"
       rx="22.493999"
       ry="22.495001"
       id="ellipse2" /><path
       d="m 69.389,270.849 c 0.688,0.762 1.381,1.547 2.079,2.357 11.039,12.765 23.167,31.209 29.083,54.693 1.43,5.668 6.521,9.446 12.111,9.446 1.012,0 2.04,-0.124 3.066,-0.383 6.693,-1.69 10.752,-8.485 9.062,-15.178 l -0.002,-0.002 c -7.396,-29.26 -22.496,-51.447 -35.646,-66.345 -6.328,-7.158 -12.225,-12.656 -16.717,-16.491 -1.932,-16.92 2.748,-36.387 5.425,-50.06 0.038,-0.131 0.069,-0.263 0.104,-0.394 8.664,4.146 21.023,8.136 36.387,8.136 8.361,0 17.582,-1.186 27.486,-4.112 4.236,-1.251 6.658,-5.699 5.406,-9.938 -1.25,-4.236 -5.7,-6.657 -9.936,-5.406 -8.45,2.493 -16.101,3.454 -22.956,3.454 -12.99,0 -23.202,-3.465 -30.177,-6.9 -3.481,-1.716 -6.139,-3.421 -7.871,-4.653 -0.867,-0.616 -1.504,-1.113 -1.896,-1.436 -0.197,-0.159 -0.332,-0.275 -0.407,-0.338 -0.032,-0.029 -0.053,-0.047 -0.06,-0.054 -0.002,-0.001 -0.002,-0.002 -0.003,-0.002 -1.27,-1.149 -2.809,-1.809 -4.39,-2.002 -0.361,-0.132 -0.729,-0.253 -1.108,-0.348 -7.288,-1.817 -17.37,1.303 -23.298,11.364 6.748,-3.163 11.953,-4.639 13.838,-5.116 l 0.013,-0.002 0.083,-0.02 c 0.766,-0.184 1.551,-0.275 2.333,-0.275 4.641,0 8.639,3.154 9.722,7.67 1.281,5.365 -2.037,10.771 -7.396,12.055 l -0.186,0.05 c -0.207,0.055 -0.539,0.148 -0.983,0.281 -0.847,0.257 -2.23,0.704 -3.979,1.367 -3.129,1.193 -7.947,3.297 -13.107,6.542 -3.242,2.048 -6.209,4.268 -8.9,6.653 -1.393,9.74 -1.24,19.447 0.233,32.101 1.511,7.775 4.866,12.174 8.963,14.639 0.062,0.993 0.101,2.081 0.101,3.258 -0.006,6.846 -1.272,16.406 -6.656,26.651 -5.419,10.241 -14.93,21.477 -32.889,31.735 -6,3.414 -8.098,11.046 -4.684,17.047 3.415,6 11.048,8.098 17.047,4.684 21.617,-12.264 35.037,-27.271 42.654,-41.833 4.227,-8.037 6.692,-15.845 8.051,-22.895 z"
       id="path4"
       inkscape:connector-curvature="0" /><path
       d="m 61.979,188.986 c 0.474,-0.143 0.826,-0.241 1.045,-0.3 0.11,-0.029 0.186,-0.05 0.225,-0.059 l 0.011,-0.004 c 4.297,-1.028 6.944,-5.346 5.917,-9.643 -1.03,-4.297 -5.348,-6.944 -9.645,-5.916 -0.544,0.142 -11.201,2.704 -23.644,10.507 -12.388,7.758 -26.792,21.119 -33.159,42.486 -1.264,4.232 1.144,8.689 5.379,9.953 0.763,0.227 1.533,0.336 2.29,0.336 3.446,0 6.63,-2.245 7.665,-5.715 4.966,-16.635 16.061,-27.023 26.342,-33.516 5.113,-3.217 9.959,-5.385 13.463,-6.719 1.754,-0.665 3.17,-1.125 4.111,-1.41 z"
       id="path6"
       inkscape:connector-curvature="0" /><rect
       x="431.57401"
       y="192.064"
       width="173.916"
       height="144.015"
       id="rect8" /><path
       d="m 400.951,24.182 c 5.622,-3.957 10.598,-7.873 14.38,-11.227 -3.538,4.138 -8.924,9.477 -15.262,14.977 -2.53,2.196 -4.911,4.43 -7.116,6.58 2.749,4.354 6.993,7.796 12.292,9.456 11.858,3.711 24.476,-2.892 28.189,-14.747 3.713,-11.856 -2.892,-24.478 -14.747,-28.188 -11.856,-3.709 -24.478,2.893 -28.189,14.75 -0.653,2.086 -0.98,4.196 -1.022,6.277 -0.678,0.519 -1.338,1.033 -1.98,1.542 -8.693,6.872 -14.223,12.652 -13.184,14.131 0.641,0.91 3.659,0.025 8.076,-2.158 4.904,-2.423 11.534,-6.445 18.563,-11.393 z"
       id="path10"
       inkscape:connector-curvature="0" /><rect
       x="518.95099"
       y="117.429"
       width="64.496002"
       height="64.496002"
       id="rect12" /><path
       d="m 390.873,119.858 c 2.46,0 4.827,0.905 6.665,2.547 1.99,1.781 3.166,4.231 3.315,6.899 0.066,1.205 -0.092,2.388 -0.438,3.509 l 8.642,3.408 5.403,-13.699 c -0.756,-0.598 -1.439,-1.293 -2.006,-2.102 -1.528,-2.192 -2.115,-4.847 -1.648,-7.477 0.468,-2.63 1.932,-4.921 4.123,-6.45 2.934,-2.057 5.561,-4.308 7.906,-6.76 l -2.758,-1.088 c 4.446,-3.481 8.139,-7.171 11.177,-10.91 0.785,-1.572 1.505,-3.2 2.151,-4.894 3.3,-8.681 3.785,-16.907 3.779,-21.04 0,-2.993 -0.236,-4.818 -0.238,-4.834 -0.772,-5.45 3.035,-10.521 8.487,-11.301 0.474,-0.068 0.95,-0.101 1.424,-0.101 4.94,0 9.191,3.69 9.89,8.586 0.016,0.111 0.435,3.002 0.438,7.647 -0.005,5.549 -0.613,13.555 -3.172,22.395 4.684,4.549 9.32,9.485 13.289,14.728 l -26.306,20.39 c -2.749,2.132 -4.466,5.251 -4.788,8.716 -0.324,3.467 0.783,6.849 3.091,9.455 l 39.001,44 c 2.469,2.786 5.906,4.208 9.357,4.208 2.949,0 5.908,-1.037 8.288,-3.146 5.166,-4.579 5.643,-12.479 1.064,-17.645 l -30.145,-34.01 20.641,-15.997 c 1.341,-0.72 2.773,-1.708 4.369,-2.872 7.407,-5.396 15.253,-13.33 8.114,-28.097 -11.238,-19.338 -20.272,-28.977 -37.81,-41.052 -12.074,-8.215 -24.045,-5.386 -30.031,0.682 -1.744,1.296 -2.927,3.273 -3.181,5.509 -0.422,1.708 -0.479,3.541 -0.224,5.408 -0.403,3.689 -1.598,9.544 -5.014,15.863 -3.794,6.958 -10.132,14.668 -21.746,21.173 l -14.896,-5.875 -14.31,36.278 8.674,3.422 c 0.658,-0.705 1.315,-1.415 1.967,-2.142 1.894,-2.115 4.612,-3.331 7.456,-3.331 z"
       id="path14"
       inkscape:connector-curvature="0" /><path
       d="m 445.717,47.648 c -4.371,0.625 -7.409,4.671 -6.789,9.042 h -10e-4 v 0.008 h 10e-4 10e-4 v 0 h -10e-4 c 0.033,0.259 0.256,2.149 0.256,5.104 0.006,5.075 -0.678,13.253 -3.91,21.756 -3.256,8.524 -8.88,17.343 -19.201,24.577 -3.623,2.529 -4.509,7.516 -1.978,11.139 1.556,2.227 4.04,3.419 6.565,3.419 1.582,0.001 3.179,-0.467 4.574,-1.44 13.238,-9.227 20.881,-21.094 25,-32.023 4.142,-10.95 4.943,-20.987 4.949,-27.427 -0.002,-4.341 -0.373,-7.061 -0.417,-7.366 -0.624,-4.375 -4.675,-7.414 -9.049,-6.789 z"
       id="path16"
       inkscape:connector-curvature="0" /><path
       d="m 318.211,105.178 -14.308,19.143 c 1.55,8.566 8.023,15.818 17.04,17.917 12.1,2.818 24.191,-4.707 27.01,-16.807 2.818,-12.1 -4.707,-24.191 -16.807,-27.008 -3.748,-0.873 -7.495,-0.751 -10.966,0.189 0.14,2.354 -0.543,4.659 -1.969,6.566 z"
       id="path18"
       inkscape:connector-curvature="0" /><path
       d="m 334.88,175.265 c -5.837,1.124 -9.955,1.267 -11.582,1.267 -0.425,0 -0.694,-0.008 -0.791,-0.013 -5.483,-0.184 -9.817,-4.817 -9.633,-10.326 0.182,-5.422 4.57,-9.668 9.986,-9.668 l 0.314,0.007 0.123,-0.003 c 0.592,0 4.516,-0.06 10.552,-1.493 -1.767,-3.242 -4.417,-5.671 -7.84,-6.523 -8.537,-2.129 -20.912,2.508 -25.947,17.15 -6.805,20.174 -8.268,33.305 -5.682,55.52 2.112,10.871 7.829,15.151 14.142,16.752 2.546,8.387 5.723,22.19 5.701,38.757 -0.002,13.219 -1.979,28.171 -7.764,43.8 -2.397,6.475 0.908,13.666 7.38,16.064 1.431,0.53 2.897,0.781 4.339,0.781 5.082,0.001 9.857,-3.119 11.725,-8.163 6.956,-18.782 9.321,-36.776 9.319,-52.482 -0.03,-25.05 -5.912,-44.317 -9.09,-52.939 -2.151,-16.089 1.964,-34.698 4.748,-48.488 z"
       id="path20"
       inkscape:connector-curvature="0" /><path
       d="m 323.114,158.53 c -4.406,-0.137 -8.093,3.32 -8.241,7.729 -0.148,4.415 3.313,8.114 7.729,8.264 v -0.002 c 0.086,0.004 0.321,0.01 0.695,0.01 2.779,0 12.713,-0.396 26.229,-5.545 13.511,-5.136 30.568,-15.073 47.303,-33.792 2.946,-3.294 2.665,-8.35 -0.626,-11.297 -3.293,-2.946 -8.35,-2.665 -11.296,0.629 -15.036,16.786 -29.751,25.183 -41.077,29.509 -11.315,4.313 -19.283,4.496 -20.533,4.496 -0.095,0 -0.156,0 -0.184,-0.002 v 0.001 z"
       id="path22"
       inkscape:connector-curvature="0" /><path
       d="m 240.557,120.772 c 0.19,10.054 7.152,19.083 17.393,21.467 2.436,0.567 4.872,0.709 7.232,0.484 l 19.948,-26.691 c -1.646,-8.431 -8.069,-15.534 -16.978,-17.608 -4.855,-1.131 -9.707,-0.593 -13.962,1.234 -0.089,1.984 -0.763,3.895 -1.98,5.521 z"
       id="path24"
       inkscape:connector-curvature="0" /><path
       d="m 259.87,176.527 c -2.174,0 -4.243,-0.689 -5.982,-1.997 -2.136,-1.595 -3.525,-3.931 -3.908,-6.573 -0.384,-2.645 0.287,-5.279 1.889,-7.419 l 9.248,-12.375 c -8.381,-1.057 -19.374,3.91 -24.047,17.499 -6.805,20.174 -8.268,33.305 -5.682,55.52 2.112,10.871 7.83,15.151 14.141,16.752 2.547,8.387 5.725,22.19 5.703,38.757 -0.003,13.219 -1.98,28.171 -7.765,43.8 -2.397,6.475 0.905,13.666 7.38,16.064 1.432,0.53 2.898,0.781 4.34,0.781 5.08,10e-4 9.856,-3.119 11.725,-8.163 6.955,-18.782 9.32,-36.776 9.318,-52.482 -0.029,-25.05 -5.912,-44.317 -9.09,-52.939 -2.299,-17.188 2.558,-37.256 5.297,-51.247 0.689,-2.389 0.992,-4.889 0.943,-7.34 l -5.492,7.348 c -1.88,2.512 -4.876,4.014 -8.018,4.014 z"
       id="path26"
       inkscape:connector-curvature="0" /><path
       d="m 253.469,161.736 c -2.646,3.538 -1.921,8.552 1.617,11.196 1.438,1.075 3.117,1.594 4.783,1.594 2.438,0 4.844,-1.109 6.414,-3.212 l 50.326,-67.333 c 2.644,-3.538 1.92,-8.553 -1.618,-11.197 -3.538,-2.645 -8.553,-1.92 -11.197,1.618 z"
       id="path28"
       inkscape:connector-curvature="0" /><path
       d="m 202.153,98.424 c -12.1,-2.818 -24.193,4.707 -27.012,16.805 -2.816,12.1 4.709,24.193 16.809,27.01 2.436,0.567 4.871,0.709 7.23,0.484 l 19.95,-26.69 c -1.645,-8.432 -8.069,-15.535 -16.977,-17.609 z"
       id="path30"
       inkscape:connector-curvature="0" /><path
       d="m 206.436,172.504 c 0.689,-2.39 0.992,-4.892 0.943,-7.344 l -5.496,7.352 c -1.876,2.514 -4.873,4.016 -8.015,4.016 -2.173,0 -4.239,-0.689 -5.982,-1.994 -4.414,-3.296 -5.322,-9.575 -2.023,-13.995 l 9.25,-12.376 c -8.381,-1.055 -19.373,3.912 -24.045,17.5 -6.805,20.174 -8.268,33.305 -5.682,55.52 2.112,10.871 7.83,15.151 14.142,16.752 2.546,8.387 5.723,22.192 5.701,38.757 -0.002,13.219 -1.98,28.171 -7.764,43.8 -2.397,6.475 0.907,13.666 7.38,16.064 1.431,0.53 2.898,0.781 4.34,0.781 5.08,0.001 9.856,-3.119 11.724,-8.163 6.956,-18.782 9.321,-36.776 9.319,-52.482 -0.029,-25.05 -5.912,-44.317 -9.09,-52.939 -2.298,-17.189 2.559,-37.258 5.298,-51.249 z"
       id="path32"
       inkscape:connector-curvature="0" /><path
       d="m 189.087,172.933 c 1.438,1.075 3.117,1.594 4.783,1.594 2.438,0 4.843,-1.109 6.414,-3.212 l 50.327,-67.333 c 2.645,-3.538 1.921,-8.553 -1.62,-11.197 -3.539,-2.645 -8.553,-1.92 -11.197,1.618 l -50.326,67.334 c -2.645,3.537 -1.92,8.551 1.619,11.196 z"
       id="path34"
       inkscape:connector-curvature="0" /></g></svg>