<svg xmlns="http://www.w3.org/2000/svg" xmlns:xlink="http://www.w3.org/1999/xlink" version="1.1" x="0px" y="0px" viewBox="-252 375.9 90 112.5" style="enable-background:new -252 375.9 90 90;" xml:space="preserve"><g><path d="M-171.7,419.2h-8.8c-0.7-4.6-4.7-8.2-9.6-8.2s-8.9,3.6-9.6,8.2h-42.8c-0.8,0-1.5,0.7-1.5,1.5s0.7,1.5,1.5,1.5h42.8   c0.7,4.6,4.7,8.2,9.6,8.2s8.9-3.6,9.6-8.2h8.8c0.8,0,1.5-0.7,1.5-1.5S-170.9,419.2-171.7,419.2z M-190.1,427.5   c-3.7,0-6.7-3-6.7-6.7c0-3.7,3-6.7,6.7-6.7s6.7,3,6.7,6.7C-183.4,424.4-186.4,427.5-190.1,427.5z"/><path d="M-171.7,396.4h-42.8c-0.7-4.6-4.7-8.2-9.6-8.2s-8.9,3.6-9.6,8.2h-8.8c-0.8,0-1.5,0.7-1.5,1.5s0.7,1.5,1.5,1.5h8.8   c0.7,4.6,4.7,8.2,9.6,8.2s8.9-3.6,9.6-8.2h42.8c0.8,0,1.5-0.7,1.5-1.5S-170.9,396.4-171.7,396.4z M-224.1,404.6   c-3.7,0-6.7-3-6.7-6.7c0-3.7,3-6.7,6.7-6.7s6.7,3,6.7,6.7C-217.4,401.6-220.4,404.6-224.1,404.6z"/><path d="M-171.7,442.1h-42.8c-0.7-4.6-4.7-8.2-9.6-8.2s-8.9,3.6-9.6,8.2h-8.8c-0.8,0-1.5,0.7-1.5,1.5s0.7,1.5,1.5,1.5h8.8   c0.7,4.6,4.7,8.2,9.6,8.2s8.9-3.6,9.6-8.2h42.8c0.8,0,1.5-0.7,1.5-1.5S-170.9,442.1-171.7,442.1z M-224.1,450.3   c-3.7,0-6.7-3-6.7-6.7s3-6.7,6.7-6.7s6.7,3,6.7,6.7S-220.4,450.3-224.1,450.3z"/><path d="M-169.3,375.9h-75.4c-4,0-7.3,3.3-7.3,7.3v75.4c0,4,3.3,7.3,7.3,7.3h75.4c4,0,7.2-3.2,7.3-7.3v-75.4   C-162,379.2-165.3,375.9-169.3,375.9z M-169.3,462.9h-75.4c-2.4,0-4.3-1.9-4.3-4.3v-75.4c0-2.4,1.9-4.3,4.3-4.3h75.4   c2.4,0,4.3,1.9,4.3,4.3l0,75.4C-165.1,461-167,462.9-169.3,462.9z"/></g><text x="-252" y="480.9" fill="#000000" font-size="5px" font-weight="bold" font-family="'Helvetica Neue', Helvetica, Arial-Unicode, Arial, Sans-serif">Created by Nikolay Necheuhin</text><text x="-252" y="485.9" fill="#000000" font-size="5px" font-weight="bold" font-family="'Helvetica Neue', Helvetica, Arial-Unicode, Arial, Sans-serif">from the Noun Project</text></svg>