<?xml version="1.0" encoding="UTF-8" standalone="no"?>
<svg
   xmlns:dc="http://purl.org/dc/elements/1.1/"
   xmlns:cc="http://creativecommons.org/ns#"
   xmlns:rdf="http://www.w3.org/1999/02/22-rdf-syntax-ns#"
   xmlns:svg="http://www.w3.org/2000/svg"
   xmlns="http://www.w3.org/2000/svg"
   xmlns:sodipodi="http://sodipodi.sourceforge.net/DTD/sodipodi-0.dtd"
   xmlns:inkscape="http://www.inkscape.org/namespaces/inkscape"
   version="1.0"
   x="0px"
   y="0px"
   viewBox="0 0 60.492001 89.998001"
   xml:space="preserve"
   id="svg14"
   sodipodi:docname="noun_report_230990.svg"
   width="60.492001"
   height="89.998001"
   inkscape:version="0.92.2 5c3e80d, 2017-08-06"><metadata
     id="metadata20"><rdf:RDF><cc:Work
         rdf:about=""><dc:format>image/svg+xml</dc:format><dc:type
           rdf:resource="http://purl.org/dc/dcmitype/StillImage" /><dc:title></dc:title></cc:Work></rdf:RDF></metadata><defs
     id="defs18" /><sodipodi:namedview
     pagecolor="#ffffff"
     bordercolor="#666666"
     borderopacity="1"
     objecttolerance="10"
     gridtolerance="10"
     guidetolerance="10"
     inkscape:pageopacity="0"
     inkscape:pageshadow="2"
     inkscape:window-width="738"
     inkscape:window-height="480"
     id="namedview16"
     showgrid="false"
     fit-margin-top="0"
     fit-margin-left="0"
     fit-margin-right="0"
     fit-margin-bottom="0"
     inkscape:zoom="1.4656842"
     inkscape:cx="12.555322"
     inkscape:cy="57.697296"
     inkscape:window-x="0"
     inkscape:window-y="0"
     inkscape:window-maximized="0"
     inkscape:current-layer="svg14" /><path
     d="m 46.844,65.916 c -0.562,0 -1.074,0.319 -1.323,0.822 l -1.353,2.742 -3.027,0.44 c -0.556,0.081 -1.017,0.47 -1.191,1.004 -0.174,0.534 -0.029,1.12 0.373,1.512 l 2.19,2.135 -0.517,3.014 c -0.095,0.554 0.133,1.113 0.587,1.443 0.257,0.187 0.561,0.282 0.867,0.282 0.235,0 0.471,-0.056 0.686,-0.169 l 2.707,-1.423 2.707,1.423 c 0.216,0.113 0.452,0.169 0.686,0.169 0.306,0 0.61,-0.095 0.867,-0.282 0.454,-0.33 0.682,-0.89 0.587,-1.443 l -0.517,-3.014 2.19,-2.135 c 0.402,-0.392 0.547,-0.978 0.373,-1.512 -0.174,-0.534 -0.635,-0.923 -1.191,-1.004 l -3.027,-0.44 -1.353,-2.742 c -0.246,-0.503 -0.759,-0.822 -1.321,-0.822 z m -16.598,0 c -0.562,0 -1.074,0.319 -1.323,0.822 l -1.353,2.742 -3.027,0.44 c -0.556,0.081 -1.017,0.47 -1.191,1.004 -0.174,0.534 -0.029,1.12 0.373,1.512 l 2.19,2.135 -0.517,3.014 c -0.095,0.554 0.133,1.113 0.587,1.443 0.257,0.187 0.561,0.282 0.867,0.282 0.235,0 0.471,-0.056 0.686,-0.169 l 2.708,-1.422 2.707,1.423 c 0.216,0.113 0.452,0.169 0.686,0.169 0.306,0 0.61,-0.095 0.867,-0.282 0.454,-0.33 0.682,-0.89 0.587,-1.443 l -0.517,-3.014 2.19,-2.135 c 0.402,-0.392 0.547,-0.978 0.373,-1.512 -0.174,-0.534 -0.635,-0.923 -1.191,-1.004 l -3.027,-0.44 -1.353,-2.742 c -0.248,-0.504 -0.76,-0.823 -1.322,-0.823 z m -16.598,0 c -0.562,0 -1.074,0.319 -1.323,0.822 l -1.353,2.742 -3.027,0.44 c -0.556,0.081 -1.017,0.47 -1.191,1.004 -0.174,0.534 -0.029,1.12 0.373,1.512 l 2.19,2.135 -0.517,3.014 c -0.095,0.554 0.133,1.113 0.587,1.443 0.257,0.187 0.561,0.282 0.867,0.282 0.235,0 0.471,-0.056 0.686,-0.169 l 2.707,-1.423 2.707,1.423 c 0.216,0.113 0.452,0.169 0.686,0.169 0.306,0 0.61,-0.095 0.867,-0.282 0.454,-0.33 0.682,-0.89 0.587,-1.443 l -0.517,-3.014 2.19,-2.135 c 0.402,-0.392 0.547,-0.978 0.373,-1.512 -0.174,-0.534 -0.635,-0.923 -1.191,-1.004 l -3.027,-0.44 -1.353,-2.742 c -0.247,-0.503 -0.76,-0.822 -1.321,-0.822 z"
     id="path2"
     inkscape:connector-curvature="0" /><path
     d="m 52.377,45.738 h -25.82 v -1.475 h 25.82 z m -22.131,2.213 h -3.689 v 1.475 h 3.689 z m 22.131,0 H 33.935 v 1.475 H 52.378 V 47.951 Z M 41.312,51.639 H 26.557 v 1.475 h 14.754 v -1.475 z m 11.065,0 H 45 v 1.475 h 7.377 z M 37.623,55.328 H 26.557 v 1.475 H 37.623 Z M 41.312,22.131 H 26.557 v 1.475 h 14.754 v -1.475 z m 11.065,0 H 45 v 1.475 h 7.377 z m 0,3.689 h -25.82 v 1.475 h 25.82 z M 37.623,29.508 H 26.557 v 1.475 h 11.066 z m 14.754,0 H 41.312 v 1.475 H 52.378 V 29.508 Z M 45,33.197 H 26.557 v 1.475 H 45 Z"
     id="path4"
     inkscape:connector-curvature="0" /><path
     d="M 56.066,7.377 H 51.728 C 50.987,6.238 50.108,5.048 49.27,3.973 L 49.013,3.643 48.597,3.695 C 46.284,3.983 39.854,4.553 37.905,3.746 37.564,3.605 37.036,2.851 36.611,2.245 35.838,1.141 35.039,0 33.935,0 H 26.558 C 25.454,0 24.654,1.141 23.881,2.244 23.456,2.85 22.928,3.604 22.587,3.745 20.64,4.552 14.208,3.982 11.895,3.694 L 11.479,3.642 11.222,3.972 C 10.384,5.047 9.505,6.237 8.764,7.376 H 4.426 C 1.985,7.376 0,9.362 0,11.802 v 73.77 c 0,2.441 1.985,4.426 4.426,4.426 h 51.64 c 2.441,0 4.426,-1.985 4.426,-4.426 v -73.77 c 0,-2.439 -1.986,-4.425 -4.426,-4.425 z M 12.132,5.208 c 1.891,0.218 8.608,0.899 11.02,-0.1 0.737,-0.305 1.32,-1.137 1.937,-2.017 0.396,-0.564 1.132,-1.615 1.469,-1.615 h 7.377 c 0.337,0 1.073,1.051 1.469,1.615 0.617,0.88 1.2,1.712 1.937,2.017 2.412,0.999 9.129,0.318 11.02,0.1 1.698,2.219 3.397,4.834 3.684,5.857 H 8.447 c 0.288,-1.022 1.987,-3.638 3.685,-5.857 z m 46.884,80.366 c 0,1.627 -1.324,2.951 -2.951,2.951 H 4.426 c -1.627,0 -2.951,-1.324 -2.951,-2.951 v -73.77 c 0,-1.627 1.324,-2.951 2.951,-2.951 h 3.449 c -0.727,1.324 -1.12,2.457 -0.82,3.071 0.192,0.392 0.578,0.618 1.059,0.618 h 44.262 c 0.482,0 0.867,-0.225 1.059,-0.618 0.3,-0.614 -0.093,-1.746 -0.82,-3.071 h 3.449 c 1.627,0 2.951,1.324 2.951,2.951 v 73.77 z M 30.246,8.115 c -1.424,0 -2.582,-1.158 -2.582,-2.582 0,-1.424 1.158,-2.582 2.582,-2.582 1.424,0 2.582,1.158 2.582,2.582 0,1.424 -1.158,2.582 -2.582,2.582 z m 0,-3.689 c -0.61,0 -1.107,0.496 -1.107,1.107 0,0.61 0.496,1.107 1.107,1.107 0.611,0 1.107,-0.496 1.107,-1.107 0,-0.61 -0.497,-1.107 -1.107,-1.107 z"
     id="path6"
     inkscape:connector-curvature="0" /><path
     d="M 19.18,22.869 V 33.935 H 8.115 V 22.869 H 19.18 m 0,-1.476 H 8.115 c -0.815,0 -1.475,0.661 -1.475,1.475 v 11.066 c 0,0.815 0.661,1.475 1.475,1.475 h 11.066 c 0.815,0 1.475,-0.661 1.475,-1.475 V 22.869 c 0,-0.815 -0.661,-1.476 -1.476,-1.476 z m -5.451,33.935 c -0.008,0 -0.016,0 -0.024,0 -0.302,0 -0.588,-0.12 -0.792,-0.343 L 9.143,50.874 C 8.73,50.423 8.761,49.727 9.212,49.315 c 0.451,-0.412 1.151,-0.379 1.563,0.071 l 2.989,3.267 7.698,-7.698 c 0.432,-0.432 1.132,-0.432 1.565,0 0.432,0.432 0.432,1.133 0,1.565 l -8.516,8.5 c -0.207,0.208 -0.489,0.308 -0.782,0.308 z m 5.451,-3.926 v 4.664 H 13.729 13.696 8.115 V 45 h 11.066 v 1.194 l 1.45,-1.45 c -0.122,-0.692 -0.722,-1.22 -1.45,-1.22 H 8.115 c -0.815,0 -1.475,0.661 -1.475,1.475 v 11.066 c 0,0.815 0.661,1.475 1.475,1.475 h 11.066 c 0.815,0 1.475,-0.661 1.475,-1.475 v -6.136 z"
     id="path8"
     inkscape:connector-curvature="0" /></svg>