<svg xmlns="http://www.w3.org/2000/svg" xmlns:xlink="http://www.w3.org/1999/xlink" version="1.0" x="0px" y="0px" viewBox="0 0 100 125" style="enable-background:new 0 0 100 100;" xml:space="preserve"><path d="M66.598,70.916c-0.562,0-1.074,0.319-1.323,0.822l-1.353,2.742l-3.027,0.44c-0.556,0.081-1.017,0.47-1.191,1.004  c-0.174,0.534-0.029,1.12,0.373,1.512l2.19,2.135l-0.517,3.014c-0.095,0.554,0.133,1.113,0.587,1.443  c0.257,0.187,0.561,0.282,0.867,0.282c0.235,0,0.471-0.056,0.686-0.169l2.707-1.423l2.707,1.423  c0.216,0.113,0.452,0.169,0.686,0.169c0.306,0,0.61-0.095,0.867-0.282c0.454-0.33,0.682-0.89,0.587-1.443l-0.517-3.014l2.19-2.135  c0.402-0.392,0.547-0.978,0.373-1.512c-0.174-0.534-0.635-0.923-1.191-1.004l-3.027-0.44l-1.353-2.742  C67.673,71.235,67.16,70.916,66.598,70.916L66.598,70.916z M50,70.916c-0.562,0-1.074,0.319-1.323,0.822l-1.353,2.742l-3.027,0.44  c-0.556,0.081-1.017,0.47-1.191,1.004c-0.174,0.534-0.029,1.12,0.373,1.512l2.19,2.135l-0.517,3.014  c-0.095,0.554,0.133,1.113,0.587,1.443c0.257,0.187,0.561,0.282,0.867,0.282c0.235,0,0.471-0.056,0.686-0.169L50,82.719l2.707,1.423  c0.216,0.113,0.452,0.169,0.686,0.169c0.306,0,0.61-0.095,0.867-0.282c0.454-0.33,0.682-0.89,0.587-1.443l-0.517-3.014l2.19-2.135  c0.402-0.392,0.547-0.978,0.373-1.512c-0.174-0.534-0.635-0.923-1.191-1.004l-3.027-0.44l-1.353-2.742  C51.074,71.235,50.562,70.916,50,70.916L50,70.916z M33.402,70.916c-0.562,0-1.074,0.319-1.323,0.822l-1.353,2.742l-3.027,0.44  c-0.556,0.081-1.017,0.47-1.191,1.004c-0.174,0.534-0.029,1.12,0.373,1.512l2.19,2.135l-0.517,3.014  c-0.095,0.554,0.133,1.113,0.587,1.443c0.257,0.187,0.561,0.282,0.867,0.282c0.235,0,0.471-0.056,0.686-0.169l2.707-1.423  l2.707,1.423c0.216,0.113,0.452,0.169,0.686,0.169c0.306,0,0.61-0.095,0.867-0.282c0.454-0.33,0.682-0.89,0.587-1.443l-0.517-3.014  l2.19-2.135c0.402-0.392,0.547-0.978,0.373-1.512c-0.174-0.534-0.635-0.923-1.191-1.004l-3.027-0.44l-1.353-2.742  C34.476,71.235,33.963,70.916,33.402,70.916L33.402,70.916z"/><path d="M72.131,50.738h-25.82v-1.475h25.82V50.738z M50,52.951h-3.689v1.475H50V52.951z M72.131,52.951H53.689v1.475  h18.443V52.951z M61.066,56.639H46.311v1.475h14.754V56.639z M72.131,56.639h-7.377v1.475h7.377V56.639z M57.377,60.328H46.311  v1.475h11.066V60.328z M61.066,27.131H46.311v1.475h14.754V27.131z M72.131,27.131h-7.377v1.475h7.377V27.131z M72.131,30.82h-25.82  v1.475h25.82V30.82z M57.377,34.508H46.311v1.475h11.066V34.508z M72.131,34.508H61.066v1.475h11.066V34.508z M64.754,38.197H46.311  v1.475h18.443V38.197z"/><path d="M75.82,12.377h-4.338c-0.741-1.139-1.62-2.329-2.458-3.404l-0.257-0.33l-0.416,0.052  c-2.313,0.288-8.743,0.858-10.692,0.051c-0.341-0.141-0.869-0.895-1.294-1.501C55.592,6.141,54.793,5,53.689,5h-7.377  c-1.104,0-1.904,1.141-2.677,2.244c-0.425,0.606-0.953,1.36-1.294,1.501c-1.947,0.807-8.379,0.237-10.692-0.051l-0.416-0.052  l-0.257,0.33c-0.838,1.075-1.717,2.265-2.458,3.404H24.18c-2.441,0-4.426,1.986-4.426,4.426v73.77c0,2.441,1.985,4.426,4.426,4.426  H75.82c2.441,0,4.426-1.985,4.426-4.426v-73.77C80.246,14.363,78.26,12.377,75.82,12.377z M31.886,10.208  c1.891,0.218,8.608,0.899,11.02-0.1c0.737-0.305,1.32-1.137,1.937-2.017c0.396-0.564,1.132-1.615,1.469-1.615h7.377  c0.337,0,1.073,1.051,1.469,1.615c0.617,0.88,1.2,1.712,1.937,2.017c2.412,0.999,9.129,0.318,11.02,0.1  c1.698,2.219,3.397,4.834,3.684,5.857H28.201C28.489,15.043,30.188,12.427,31.886,10.208z M78.77,90.574  c0,1.627-1.324,2.951-2.951,2.951H24.18c-1.627,0-2.951-1.324-2.951-2.951v-73.77c0-1.627,1.324-2.951,2.951-2.951h3.449  c-0.727,1.324-1.12,2.457-0.82,3.071c0.192,0.392,0.578,0.618,1.059,0.618h44.262c0.482,0,0.867-0.225,1.059-0.618  c0.3-0.614-0.093-1.746-0.82-3.071h3.449c1.627,0,2.951,1.324,2.951,2.951V90.574z M50,13.115c-1.424,0-2.582-1.158-2.582-2.582  S48.576,7.951,50,7.951s2.582,1.158,2.582,2.582S51.424,13.115,50,13.115z M50,9.426c-0.61,0-1.107,0.496-1.107,1.107  c0,0.61,0.496,1.107,1.107,1.107s1.107-0.496,1.107-1.107C51.107,9.923,50.61,9.426,50,9.426z"/><path d="M38.934,27.869v11.066H27.869V27.869H38.934 M38.934,26.393H27.869c-0.815,0-1.475,0.661-1.475,1.475v11.066  c0,0.815,0.661,1.475,1.475,1.475h11.066c0.815,0,1.475-0.661,1.475-1.475V27.869C40.41,27.054,39.749,26.393,38.934,26.393  L38.934,26.393z M33.483,60.328c-0.008,0-0.016,0-0.024,0c-0.302,0-0.588-0.12-0.792-0.343l-3.77-4.111  c-0.413-0.451-0.382-1.147,0.069-1.559c0.451-0.412,1.151-0.379,1.563,0.071l2.989,3.267l7.698-7.698  c0.432-0.432,1.132-0.432,1.565,0c0.432,0.432,0.432,1.133,0,1.565l-8.516,8.5C34.058,60.228,33.776,60.328,33.483,60.328z   M38.934,56.402v4.664h-5.451H33.45h-5.581V50h11.066v1.194l1.45-1.45c-0.122-0.692-0.722-1.22-1.45-1.22H27.869  c-0.815,0-1.475,0.661-1.475,1.475v11.066c0,0.815,0.661,1.475,1.475,1.475h11.066c0.815,0,1.475-0.661,1.475-1.475v-6.136  L38.934,56.402z"/><text x="0" y="115" fill="#000000" font-size="5px" font-weight="bold" font-family="'Helvetica Neue', Helvetica, Arial-Unicode, Arial, Sans-serif">Created by Bastian König</text><text x="0" y="120" fill="#000000" font-size="5px" font-weight="bold" font-family="'Helvetica Neue', Helvetica, Arial-Unicode, Arial, Sans-serif">from the Noun Project</text></svg>