<?xml version="1.0" encoding="UTF-8" standalone="no"?>
<svg
   xmlns:dc="http://purl.org/dc/elements/1.1/"
   xmlns:cc="http://creativecommons.org/ns#"
   xmlns:rdf="http://www.w3.org/1999/02/22-rdf-syntax-ns#"
   xmlns:svg="http://www.w3.org/2000/svg"
   xmlns="http://www.w3.org/2000/svg"
   xmlns:sodipodi="http://sodipodi.sourceforge.net/DTD/sodipodi-0.dtd"
   xmlns:inkscape="http://www.inkscape.org/namespaces/inkscape"
   version="1.1"
   x="0px"
   y="0px"
   viewBox="-252 375.9 90 90"
   xml:space="preserve"
   id="svg16"
   sodipodi:docname="noun_configure_737852.svg"
   width="90"
   height="90"
   inkscape:version="0.92.2 5c3e80d, 2017-08-06"><metadata
     id="metadata22"><rdf:RDF><cc:Work
         rdf:about=""><dc:format>image/svg+xml</dc:format><dc:type
           rdf:resource="http://purl.org/dc/dcmitype/StillImage" /><dc:title></dc:title></cc:Work></rdf:RDF></metadata><defs
     id="defs20" /><sodipodi:namedview
     pagecolor="#ffffff"
     bordercolor="#666666"
     borderopacity="1"
     objecttolerance="10"
     gridtolerance="10"
     guidetolerance="10"
     inkscape:pageopacity="0"
     inkscape:pageshadow="2"
     inkscape:window-width="738"
     inkscape:window-height="480"
     id="namedview18"
     showgrid="false"
     fit-margin-top="0"
     fit-margin-left="0"
     fit-margin-right="0"
     fit-margin-bottom="0"
     inkscape:zoom="2.0977778"
     inkscape:cx="45"
     inkscape:cy="33.75"
     inkscape:window-x="0"
     inkscape:window-y="0"
     inkscape:window-maximized="0"
     inkscape:current-layer="svg16" /><g
     id="g10"><path
       d="m -171.7,419.2 h -8.8 c -0.7,-4.6 -4.7,-8.2 -9.6,-8.2 -4.9,0 -8.9,3.6 -9.6,8.2 h -42.8 c -0.8,0 -1.5,0.7 -1.5,1.5 0,0.8 0.7,1.5 1.5,1.5 h 42.8 c 0.7,4.6 4.7,8.2 9.6,8.2 4.9,0 8.9,-3.6 9.6,-8.2 h 8.8 c 0.8,0 1.5,-0.7 1.5,-1.5 0,-0.8 -0.7,-1.5 -1.5,-1.5 z m -18.4,8.3 c -3.7,0 -6.7,-3 -6.7,-6.7 0,-3.7 3,-6.7 6.7,-6.7 3.7,0 6.7,3 6.7,6.7 0,3.6 -3,6.7 -6.7,6.7 z"
       id="path2"
       inkscape:connector-curvature="0" /><path
       d="m -171.7,396.4 h -42.8 c -0.7,-4.6 -4.7,-8.2 -9.6,-8.2 -4.9,0 -8.9,3.6 -9.6,8.2 h -8.8 c -0.8,0 -1.5,0.7 -1.5,1.5 0,0.8 0.7,1.5 1.5,1.5 h 8.8 c 0.7,4.6 4.7,8.2 9.6,8.2 4.9,0 8.9,-3.6 9.6,-8.2 h 42.8 c 0.8,0 1.5,-0.7 1.5,-1.5 0,-0.8 -0.7,-1.5 -1.5,-1.5 z m -52.4,8.2 c -3.7,0 -6.7,-3 -6.7,-6.7 0,-3.7 3,-6.7 6.7,-6.7 3.7,0 6.7,3 6.7,6.7 0,3.7 -3,6.7 -6.7,6.7 z"
       id="path4"
       inkscape:connector-curvature="0" /><path
       d="m -171.7,442.1 h -42.8 c -0.7,-4.6 -4.7,-8.2 -9.6,-8.2 -4.9,0 -8.9,3.6 -9.6,8.2 h -8.8 c -0.8,0 -1.5,0.7 -1.5,1.5 0,0.8 0.7,1.5 1.5,1.5 h 8.8 c 0.7,4.6 4.7,8.2 9.6,8.2 4.9,0 8.9,-3.6 9.6,-8.2 h 42.8 c 0.8,0 1.5,-0.7 1.5,-1.5 0,-0.8 -0.7,-1.5 -1.5,-1.5 z m -52.4,8.2 c -3.7,0 -6.7,-3 -6.7,-6.7 0,-3.7 3,-6.7 6.7,-6.7 3.7,0 6.7,3 6.7,6.7 0,3.7 -3,6.7 -6.7,6.7 z"
       id="path6"
       inkscape:connector-curvature="0" /><path
       d="m -169.3,375.9 h -75.4 c -4,0 -7.3,3.3 -7.3,7.3 v 75.4 c 0,4 3.3,7.3 7.3,7.3 h 75.4 c 4,0 7.2,-3.2 7.3,-7.3 v -75.4 c 0,-4 -3.3,-7.3 -7.3,-7.3 z m 0,87 h -75.4 c -2.4,0 -4.3,-1.9 -4.3,-4.3 v -75.4 c 0,-2.4 1.9,-4.3 4.3,-4.3 h 75.4 c 2.4,0 4.3,1.9 4.3,4.3 v 75.4 c -0.1,2.4 -2,4.3 -4.3,4.3 z"
       id="path8"
       inkscape:connector-curvature="0" /></g></svg>