<?xml version="1.0" encoding="UTF-8" standalone="no"?>
<svg
   xmlns:dc="http://purl.org/dc/elements/1.1/"
   xmlns:cc="http://creativecommons.org/ns#"
   xmlns:rdf="http://www.w3.org/1999/02/22-rdf-syntax-ns#"
   xmlns:svg="http://www.w3.org/2000/svg"
   xmlns="http://www.w3.org/2000/svg"
   xmlns:sodipodi="http://sodipodi.sourceforge.net/DTD/sodipodi-0.dtd"
   xmlns:inkscape="http://www.inkscape.org/namespaces/inkscape"
   version="1.0"
   x="0px"
   y="0px"
   viewBox="0 0 47.489468 103.83921"
   enable-background="new 0 0 63 117.2"
   xml:space="preserve"
   id="svg8"
   sodipodi:docname="noun_power line_302570.svg"
   width="47.489468"
   height="103.83921"
   inkscape:version="0.92.2 5c3e80d, 2017-08-06"><metadata
     id="metadata14"><rdf:RDF><cc:Work
         rdf:about=""><dc:format>image/svg+xml</dc:format><dc:type
           rdf:resource="http://purl.org/dc/dcmitype/StillImage" /><dc:title></dc:title></cc:Work></rdf:RDF></metadata><defs
     id="defs12" /><sodipodi:namedview
     pagecolor="#ffffff"
     bordercolor="#666666"
     borderopacity="1"
     objecttolerance="10"
     gridtolerance="10"
     guidetolerance="10"
     inkscape:pageopacity="0"
     inkscape:pageshadow="2"
     inkscape:window-width="1012"
     inkscape:window-height="706"
     id="namedview10"
     showgrid="false"
     fit-margin-top="0"
     fit-margin-left="0"
     fit-margin-right="0"
     fit-margin-bottom="0"
     inkscape:zoom="2.278187"
     inkscape:cx="24.744734"
     inkscape:cy="31.904625"
     inkscape:window-x="0"
     inkscape:window-y="0"
     inkscape:window-maximized="0"
     inkscape:current-layer="svg8" /><path
     id="path2"
     d="m 22.545515,0 c -2,0 -3.601562,1.6015624 -3.601562,3.6015622 V 18.201172 L 4.4439528,26.601562 C 3.2439526,27.301562 2.845515,28.8 3.5455148,30 c 0.5,0.8 1.299219,1.201172 2.199219,1.201172 0.4,0 0.899219,-0.100782 1.199219,-0.300782 l 0.800781,-0.5 c 0.1,0.3 0.500391,0.59961 0.900391,0.59961 h 0.099609 v 0.601562 h -0.09961 c -0.5,0 -0.900391,0.398828 -0.900391,0.798828 0,0.4 0.400391,0.800782 0.900391,0.800782 h 0.09961 v 0.599609 h -0.09961 c -0.5,0 -0.900391,0.400781 -0.900391,0.800781 0,0.4 0.400391,0.798828 0.900391,0.798828 h 0.09961 V 36 h -0.09961 c -0.499999,0 -0.90039,0.400781 -0.90039,0.800781 0,0.5 0.400391,0.800781 0.900391,0.800781 h 0.099609 v 0.09961 c 0,0.3 0.299609,0.5 0.599609,0.5 0.3,0 0.59961,-0.2 0.59961,-0.5 v 0.09961 h 0.1015622 c 0.5,0 0.898438,-0.400781 0.898438,-0.800781 0,-0.5 -0.398438,-0.798828 -0.898438,-0.798828 H 9.9439528 v -0.59961 h 0.1015622 c 0.5,0 0.898438,-0.400781 0.898438,-0.800781 0,-0.4 -0.398438,-0.800781 -0.898438,-0.800781 H 9.9439528 v -0.59961 h 0.1015622 c 0.5,0 0.898438,-0.398828 0.898438,-0.798828 0,-0.4 -0.398438,-0.800781 -0.898438,-0.800781 H 9.9439528 v -0.599609 h 0.1015622 c 0.5,0 0.898438,-0.400782 0.898438,-0.800782 0,-0.5 -0.398438,-0.798828 -0.898438,-0.798828 H 9.9439528 V 29.5 l 9.1015622,-5.199219 v 13.900391 l -17.8007812,9.90039 c -1.2,0.7 -1.6003906,2.198438 -0.9003906,3.398438 0.4,0.9 1.3011718,1.300781 2.2011718,1.300781 C 2.9455151,52.800781 3.4447338,52.7 3.7447338,52.5 L 4.6451248,52 c 0.2,0.3 0.498828,0.40039 0.798828,0.40039 h 0.101562 V 53 h -0.101562 c -0.5,0 -0.898438,0.400781 -0.898438,0.800781 0,0.4 0.398438,0.800781 0.898438,0.800781 h 0.101562 v 0.59961 h -0.101562 c -0.5,0 -0.898438,0.398828 -0.898438,0.798828 0,0.4 0.398438,0.800781 0.898438,0.800781 h 0.101562 v 0.599609 h -0.101562 c -0.5,0 -0.898438,0.400782 -0.898438,0.800782 0,0.5 0.398438,0.798828 0.898438,0.798828 h 0.101562 v 0.101562 c 0,0.3 0.29961,0.5 0.59961,0.5 0.3,0 0.599609,-0.2 0.599609,-0.5 V 59 h 0.09961 c 0.5,0 0.900391,-0.398828 0.900391,-0.798828 0,-0.5 -0.400391,-0.800782 -0.900391,-0.800782 h -0.09961 v -0.599609 h 0.09961 c 0.5,0 0.900391,-0.400781 0.900391,-0.800781 0,-0.4 -0.400391,-0.798828 -0.900391,-0.798828 h -0.09961 v -0.59961 h 0.09961 c 0.499999,0 0.90039,-0.400781 0.90039,-0.800781 0,-0.4 -0.400391,-0.800781 -0.900391,-0.800781 h -0.099609 v -0.59961 h 0.09961 c 0.5,0 0.900391,-0.398828 0.900391,-0.798828 -1e-6,-0.5 -0.400392,-0.800781 -0.900392,-0.800781 H 6.7447338 L 19.045515,43.701172 c 0,0 -0.1,58.400388 0,59.400388 0.1,1 3.198828,0.89922 4.798828,0.19922 2.4,-1.1 2.5,-2 2.5,-2 V 39.5 l 16.09961,-9.298828 c 0.2,0.2 0.500781,0.40039 0.800781,0.40039 v 0.59961 h -0.09961 c -0.499999,0 -0.90039,0.398828 -0.90039,0.798828 0,0.4 0.400391,0.800781 0.900391,0.800781 h 0.09961 v 0.599609 h -0.09961 c -0.5,0 -0.900391,0.400782 -0.900391,0.800782 0,0.4 0.400391,0.798828 0.900391,0.798828 h 0.09961 v 0.800781 h -0.09961 c -0.499999,0 -0.90039,0.400781 -0.90039,0.800781 0,0.5 0.400391,0.798828 0.900391,0.798828 h 0.09961 V 37.5 c 0,0.3 0.299609,0.5 0.599609,0.5 0.3,0 0.59961,-0.2 0.59961,-0.5 v -0.09961 h 0.101562 c 0.5,0 0.898438,-0.398828 0.898438,-0.798828 0,-0.5 -0.398438,-0.800781 -0.898438,-0.800781 h -0.101562 v -0.599609 h 0.101562 c 0.5,0 0.898438,-0.400782 0.898438,-0.800782 0,-0.4 -0.398438,-0.798828 -0.898438,-0.798828 H 44.443953 V 33 h 0.101562 c 0.5,0 0.898438,-0.398828 0.898438,-0.798828 0,-0.4 -0.398438,-0.800782 -0.898438,-0.800782 h -0.101562 v -0.599609 h 0.101562 c 0.5,0 0.898438,-0.400781 0.898438,-0.800781 0,-0.5 -0.398438,-0.798828 -0.898438,-0.798828 h -0.101562 l 1.800781,-1 c 1.2,-0.9 1.600391,-2.49961 0.900391,-3.59961 -0.7,-1.2 -2.200391,-1.60039 -3.400391,-0.90039 l -17.5,10 V 19.800781 L 35.443953,14.5 c 0.1,0.3 0.50039,0.5 0.90039,0.5 h 0.09961 v 0.601562 h -0.09961 c -0.5,0 -0.90039,0.398828 -0.90039,0.798828 0,0.4 0.40039,0.800782 0.90039,0.800782 h 0.09961 v 0.599609 h -0.09961 c -0.5,0 -0.90039,0.400781 -0.90039,0.800781 0,0.4 0.40039,0.798828 0.90039,0.798828 h 0.09961 V 20 h -0.09961 c -0.5,0 -0.90039,0.400781 -0.90039,0.800781 0,0.5 0.40039,0.800781 0.90039,0.800781 h 0.09961 v 0.09961 c 0,0.3 0.301562,0.5 0.601562,0.5 0.3,0 0.59961,-0.2 0.59961,-0.5 v 0.09961 h 0.09961 c 0.5,0 0.900391,-0.400781 0.900391,-0.800781 0,-0.5 -0.400391,-0.798828 -0.900391,-0.798828 h -0.09961 v -0.59961 h 0.09961 c 0.5,0 0.900391,-0.400781 0.900391,-0.800781 0,-0.4 -0.400391,-0.800781 -0.900391,-0.800781 h -0.09961 v -0.59961 h 0.09961 c 0.5,0 0.900391,-0.398828 0.900391,-0.798828 0,-0.4 -0.400391,-0.800781 -0.900391,-0.800781 h -0.09961 v -0.599609 h 0.09961 c 0.5,0 0.900391,-0.400782 0.900391,-0.800782 0,-0.5 -0.400391,-0.798828 -0.900391,-0.798828 h -0.09961 V 13.5 l 1.40039,-0.798828 c 1.2,-0.7 1.598438,-2.200391 0.898438,-3.4003908 -0.7,-1.2 -2.198438,-1.600391 -3.398438,-0.900391 L 26.244734,14.101562 V 3.6015622 C 26.244734,1.6015624 24.645125,0 22.645125,0 Z"
     inkscape:connector-curvature="0" /></svg>