<svg xmlns="http://www.w3.org/2000/svg" xmlns:xlink="http://www.w3.org/1999/xlink" version="1.1" x="0px" y="0px" viewBox="0 0 100 125" enable-background="new 0 0 100 100" xml:space="preserve"><path d="M34.138,7.441c0-1.672,1.356-3.028,3.028-3.028h11.598h11.599c1.674,0,3.029,1.355,3.029,3.028  c0,0.979-0.473,1.84-1.193,2.393l0.002,0.01l-3.91,4.534l-0.008,0.004c-0.4,0.427-0.966,0.698-1.597,0.698H53l1.708-4.52  L52.53,9.737l-2.02,5.343h-1.746h-1.684l-3.547-6.039l-2.008,1.179l2.854,4.859h-3.536c-0.631,0-1.196-0.271-1.596-0.698  l-0.007-0.004l-3.912-4.534l0.003-0.01C34.611,9.281,34.138,8.42,34.138,7.441z M77.089,44.502c0.544-9.006-5.41-10.643-8.493-10.89  l-5.773-11.668c-0.164-0.418-0.363-0.817-0.592-1.198l-0.039-0.079l-0.014-0.008c-1.377-2.207-3.818-3.679-6.611-3.679h-1.966  l6.884,22.074c0.785-0.395,1.828-0.742,2.946-0.636c1.165,0.11,2.207,0.705,3.014,1.72l-1.825,1.448  c-0.411-0.519-0.869-0.796-1.4-0.849c-1.062-0.107-2.262,0.693-2.633,1.01l-1.342,1.138l-0.527-1.676L51.162,16.98h-2.397h-2.211  l-3.077,12.882l-0.79,0.108c-0.166,0.024-4.136,0.627-3.948,3.64l-2.324,0.144c-0.228-3.668,2.924-5.387,5.156-5.936l2.588-10.837  h-2.196c-2.792,0-5.234,1.472-6.611,3.679l-0.013,0.008l-0.039,0.079c-0.231,0.381-0.429,0.78-0.593,1.198l-3.516,7.106  c-3.473,0.651-8.702,3.061-9.141,11.636c0,0-10.881,0.537-10.881,20.462c0,3.942,0,35.55,37.595,35.55  c36.073,0,36.065-32.152,36.065-36.543C84.83,44.502,77.089,44.502,77.089,44.502z"/><text x="0" y="115" fill="#000000" font-size="5px" font-weight="bold" font-family="'Helvetica Neue', Helvetica, Arial-Unicode, Arial, Sans-serif">Created by Samy Menai</text><text x="0" y="120" fill="#000000" font-size="5px" font-weight="bold" font-family="'Helvetica Neue', Helvetica, Arial-Unicode, Arial, Sans-serif">from the Noun Project</text></svg>