<?xml version="1.0" encoding="UTF-8" standalone="no"?>
<svg
   xmlns:dc="http://purl.org/dc/elements/1.1/"
   xmlns:cc="http://creativecommons.org/ns#"
   xmlns:rdf="http://www.w3.org/1999/02/22-rdf-syntax-ns#"
   xmlns:svg="http://www.w3.org/2000/svg"
   xmlns="http://www.w3.org/2000/svg"
   xmlns:sodipodi="http://sodipodi.sourceforge.net/DTD/sodipodi-0.dtd"
   xmlns:inkscape="http://www.inkscape.org/namespaces/inkscape"
   version="1.1"
   x="0px"
   y="0px"
   viewBox="0 0 84.748543 44.80299"
   enable-background="new 0 0 100 100"
   xml:space="preserve"
   id="svg24"
   sodipodi:docname="noun_Fast Fly_355036.svg"
   width="84.748543"
   height="44.80299"
   inkscape:version="0.92.2 5c3e80d, 2017-08-06"><metadata
     id="metadata30"><rdf:RDF><cc:Work
         rdf:about=""><dc:format>image/svg+xml</dc:format><dc:type
           rdf:resource="http://purl.org/dc/dcmitype/StillImage" /><dc:title></dc:title></cc:Work></rdf:RDF></metadata><defs
     id="defs28" /><sodipodi:namedview
     pagecolor="#ffffff"
     bordercolor="#666666"
     borderopacity="1"
     objecttolerance="10"
     gridtolerance="10"
     guidetolerance="10"
     inkscape:pageopacity="0"
     inkscape:pageshadow="2"
     inkscape:window-width="836"
     inkscape:window-height="718"
     id="namedview26"
     showgrid="false"
     fit-margin-top="0"
     fit-margin-left="0"
     fit-margin-right="0"
     fit-margin-bottom="0"
     inkscape:zoom="1.888"
     inkscape:cx="42.455601"
     inkscape:cy="9.5767658"
     inkscape:window-x="0"
     inkscape:window-y="0"
     inkscape:window-maximized="0"
     inkscape:current-layer="svg24" /><g
     id="g4"
     transform="translate(-7.544399,-27.273775)"><path
       d="m 34.258,30.256 c 0,0 -0.097,0.056 -0.278,0.16 -0.171,0.102 -0.448,0.268 -0.781,0.491 -0.336,0.221 -0.744,0.499 -1.185,0.843 -0.446,0.338 -0.938,0.738 -1.421,1.208 -0.501,0.461 -0.968,1.003 -1.407,1.596 -0.373,0.601 -0.785,1.266 -0.855,1.947 -0.083,0.67 -0.041,1.39 0.427,2.047 0.143,0.326 0.503,0.727 0.789,1.116 l 0.907,1.141 c 1.225,1.542 2.536,3.094 3.403,4.835 0.448,0.857 0.723,1.782 0.849,2.671 0.075,0.899 -0.01,1.758 -0.27,2.484 -0.223,0.743 -0.609,1.328 -0.916,1.854 -0.386,0.474 -0.683,0.914 -0.99,1.221 -0.611,0.612 -0.961,0.962 -0.961,0.962 0,0 0.311,-0.381 0.856,-1.049 0.271,-0.332 0.52,-0.795 0.846,-1.287 0.244,-0.538 0.553,-1.13 0.688,-1.832 0.172,-0.689 0.163,-1.46 0.022,-2.237 -0.194,-0.773 -0.51,-1.556 -0.998,-2.296 -0.94,-1.497 -2.337,-2.862 -3.711,-4.271 l -1.045,-1.074 c -0.332,-0.372 -0.678,-0.661 -1.023,-1.179 -0.759,-0.874 -1.087,-2.171 -1.031,-3.311 0.033,-1.188 0.508,-2.149 0.936,-3.017 0.483,-0.827 1.002,-1.555 1.532,-2.154 0.519,-0.617 1.035,-1.129 1.504,-1.567 0.466,-0.444 0.891,-0.802 1.248,-1.093 0.357,-0.295 0.642,-0.508 0.853,-0.665 0.206,-0.148 0.315,-0.227 0.315,-0.227 0.712,-0.512 1.704,-0.351 2.217,0.361 0.512,0.712 0.351,1.704 -0.361,2.217 -0.043,0.031 -0.087,0.06 -0.132,0.086 z"
       id="path2"
       inkscape:connector-curvature="0" /></g><g
     id="g8"
     transform="translate(-7.544399,-27.273775)"><path
       d="m 44.291,30.256 c 0,0 -0.097,0.056 -0.278,0.16 -0.171,0.102 -0.448,0.268 -0.781,0.491 -0.336,0.221 -0.744,0.499 -1.185,0.843 -0.446,0.338 -0.938,0.738 -1.421,1.208 -0.501,0.461 -0.968,1.003 -1.407,1.596 -0.374,0.601 -0.785,1.266 -0.855,1.947 -0.083,0.67 -0.041,1.39 0.427,2.047 0.143,0.326 0.503,0.727 0.789,1.116 l 0.907,1.141 c 1.225,1.542 2.536,3.094 3.403,4.835 0.448,0.857 0.723,1.782 0.849,2.671 0.075,0.899 -0.01,1.758 -0.27,2.484 -0.223,0.743 -0.609,1.328 -0.916,1.854 -0.386,0.474 -0.683,0.914 -0.99,1.221 -0.611,0.612 -0.961,0.962 -0.961,0.962 0,0 0.311,-0.381 0.856,-1.049 0.271,-0.332 0.52,-0.795 0.846,-1.287 0.244,-0.538 0.553,-1.13 0.688,-1.832 0.172,-0.689 0.163,-1.46 0.022,-2.237 -0.194,-0.773 -0.51,-1.556 -0.998,-2.296 -0.94,-1.497 -2.337,-2.862 -3.711,-4.271 L 38.26,40.786 c -0.332,-0.372 -0.678,-0.661 -1.023,-1.179 -0.759,-0.874 -1.087,-2.171 -1.031,-3.311 0.033,-1.188 0.508,-2.149 0.936,-3.017 0.483,-0.827 1.002,-1.555 1.532,-2.154 0.519,-0.617 1.035,-1.129 1.504,-1.567 0.466,-0.444 0.891,-0.802 1.248,-1.093 0.357,-0.295 0.642,-0.508 0.853,-0.665 0.206,-0.148 0.315,-0.227 0.315,-0.227 0.712,-0.512 1.704,-0.351 2.217,0.361 0.512,0.712 0.351,1.704 -0.361,2.217 -0.043,0.031 -0.087,0.06 -0.132,0.086 z"
       id="path6"
       inkscape:connector-curvature="0" /></g><g
     id="g12"
     transform="translate(-7.544399,-27.273775)"><path
       d="m 54.324,30.256 c 0,0 -0.097,0.056 -0.278,0.16 -0.171,0.102 -0.448,0.268 -0.781,0.491 -0.336,0.221 -0.744,0.499 -1.185,0.843 -0.446,0.338 -0.938,0.738 -1.421,1.208 -0.501,0.461 -0.968,1.003 -1.406,1.596 -0.374,0.601 -0.785,1.266 -0.855,1.947 -0.083,0.67 -0.041,1.39 0.427,2.047 0.143,0.326 0.503,0.727 0.789,1.116 l 0.907,1.141 c 1.225,1.542 2.536,3.094 3.403,4.835 0.448,0.857 0.723,1.782 0.849,2.671 0.075,0.899 -0.01,1.758 -0.27,2.484 -0.223,0.743 -0.609,1.328 -0.916,1.854 -0.386,0.474 -0.683,0.914 -0.99,1.221 -0.611,0.612 -0.961,0.962 -0.961,0.962 0,0 0.311,-0.381 0.856,-1.049 0.271,-0.332 0.52,-0.795 0.846,-1.287 0.244,-0.538 0.553,-1.13 0.688,-1.832 0.172,-0.689 0.163,-1.46 0.022,-2.237 -0.194,-0.773 -0.51,-1.556 -0.998,-2.296 -0.94,-1.497 -2.337,-2.862 -3.711,-4.271 l -1.045,-1.074 c -0.332,-0.372 -0.678,-0.661 -1.022,-1.179 -0.759,-0.874 -1.087,-2.171 -1.031,-3.311 0.033,-1.188 0.508,-2.149 0.936,-3.017 0.483,-0.827 1.002,-1.555 1.532,-2.154 0.519,-0.617 1.035,-1.129 1.504,-1.567 0.466,-0.444 0.891,-0.802 1.248,-1.093 0.357,-0.295 0.642,-0.508 0.853,-0.665 0.206,-0.148 0.315,-0.227 0.315,-0.227 0.712,-0.512 1.704,-0.351 2.217,0.361 0.512,0.712 0.351,1.704 -0.361,2.217 -0.043,0.031 -0.087,0.06 -0.132,0.086 z"
       id="path10"
       inkscape:connector-curvature="0" /></g><g
     id="g16"
     transform="translate(-7.544399,-27.273775)"><path
       d="m 71.246,56.192 c 0,0 -0.989,1.099 -2.952,2.748 -0.984,0.821 -2.209,1.784 -3.677,2.802 -1.456,1.041 -3.176,2.096 -5.093,3.196 -1.937,1.054 -4.071,2.163 -6.43,3.119 -2.345,0.989 -4.892,1.891 -7.606,2.568 C 40.067,72.034 33.984,72.368 28.022,71.84 26.529,71.717 25.047,71.485 23.576,71.249 22.824,71.102 22.074,70.956 21.326,70.81 20.622,70.616 19.99,70.488 19.232,70.241 17.705,69.78 16.328,69.205 14.974,68.493 13.638,67.755 12.386,66.869 11.293,65.815 9.114,63.688 7.752,60.813 7.566,58.032 c -0.163,-2.785 0.613,-5.327 1.77,-7.309 1.13,-2.017 2.618,-3.521 4.036,-4.654 1.43,-1.133 2.83,-1.878 4.01,-2.391 1.191,-0.493 2.155,-0.784 2.819,-0.947 0.664,-0.157 1.018,-0.241 1.018,-0.241 0.142,-0.034 0.284,0.054 0.318,0.196 0.031,0.132 -0.043,0.265 -0.168,0.309 l -0.018,0.006 c 0,0 -0.333,0.119 -0.957,0.344 -0.62,0.228 -1.513,0.613 -2.583,1.203 -1.054,0.617 -2.295,1.436 -3.502,2.598 -1.197,1.16 -2.398,2.646 -3.2,4.482 -0.84,1.807 -1.234,3.98 -0.904,6.11 0.337,2.134 1.512,4.142 3.309,5.642 0.912,0.741 1.964,1.352 3.082,1.885 1.131,0.5 2.38,0.92 3.578,1.195 0.593,0.159 1.362,0.27 2.038,0.408 l 1.965,0.26 c 1.357,0.147 2.725,0.237 4.095,0.252 5.494,0.122 10.909,-0.95 15.92,-2.085 2.509,-0.587 4.931,-1.224 7.217,-1.912 2.274,-0.719 4.438,-1.411 6.405,-2.157 1.987,-0.7 3.776,-1.442 5.384,-2.077 1.595,-0.659 2.991,-1.248 4.134,-1.756 2.292,-1.007 3.601,-1.627 3.601,-1.627 0.134,-0.064 0.295,-0.006 0.359,0.128 0.046,0.103 0.024,0.22 -0.046,0.298 z"
       id="path14"
       inkscape:connector-curvature="0" /></g><path
     d="m 82.439601,13.579225 c -1.106,-1.033 -2.489,-1.679 -3.967,-1.884 -1.466,-1.344 -4.005,-2.1710001 -6.953,-2.0670001 -2.12,0.073 -4.103,0.6470001 -5.586,1.5890001 -1.568,0.998 -2.406,2.34 -2.358,3.727 0.084,2.444 2.866,4.385 6.645,4.723 0.176,1.689 0.931,3.325 2.267,4.572 0.452,0.422 0.954,0.775 1.486,1.065 -0.361,1.607 -0.413,3.191 -0.113,4.559 0.399,1.815 1.345,3.053 2.665,3.484 0.325,0.106 0.665,0.16 1.014,0.16 2.468,0 5.042,-2.602 6.258,-6.327 0.64,-1.958 0.795,-3.948 0.459,-5.633 1.043,-2.695 0.423,-5.877 -1.817,-7.968 z m -17.808,1.273 c -0.034,-0.999 0.63,-1.982 1.869,-2.771 1.326,-0.843 3.121,-1.344 5.055,-1.411 0.145,-0.005 0.288,-0.007 0.431,-0.007 1.763,0 3.376,0.388 4.588,1.016 -1.688,0.209 -3.272,1.002 -4.443,2.255 -1.206,1.293 -1.85,2.911 -1.944,4.551 -3.101,-0.322 -5.494,-1.822 -5.556,-3.633 z m 18.161,12.001 c -1.169,3.578 -3.917,6.154 -5.939,5.491 -0.95,-0.31 -1.646,-1.272 -1.961,-2.706 -0.255,-1.161 -0.232,-2.507 0.054,-3.889 0.798,0.294 1.646,0.453 2.516,0.453 0,0 0,0 10e-4,0 2.014,0 3.958,-0.844 5.332,-2.316 0.207,-0.222 0.392,-0.456 0.566,-0.696 0.02,1.161 -0.16,2.413 -0.569,3.663 z"
     id="path18"
     inkscape:connector-curvature="0" /></svg>